<svg xmlns="http://www.w3.org/2000/svg" width="820" height="667" viewBox="0 0 820 667">
  <g id="Grupo_76146" data-name="Grupo 76146" transform="translate(-390 -2257)">
    <g id="Grupo_76114" data-name="Grupo 76114" transform="translate(6616.61 11776)">
      <path id="Trazado_148222" data-name="Trazado 148222" d="M-6018-9325.619l402.934,199.353" fill="none" stroke="#bdbaba" stroke-width="2"/>
      <g id="Rectángulo_33262" data-name="Rectángulo 33262" transform="translate(-6018 -9519)" fill="#fff" stroke="#81d4fa" stroke-width="3">
        <rect width="209" height="184" rx="33" stroke="none"/>
        <rect x="1.5" y="1.5" width="206" height="181" rx="31.5" fill="none"/>
      </g>
      <g id="Rectángulo_33263" data-name="Rectángulo 33263" transform="translate(-5876 -9088)" fill="#fff" stroke="#00bcd4" stroke-width="3">
        <rect width="302" height="236" rx="33" stroke="none"/>
        <rect x="1.5" y="1.5" width="299" height="233" rx="31.5" fill="none"/>
      </g>
      <path id="Trazado_145514" data-name="Trazado 145514" d="M588.307,272.67l-32.816-56.84,32.816-56.84h65.631l32.818,56.84-32.818,56.84Z" transform="translate(-6289.134 -9546.12)" fill="#f2eefc"/>
      <path id="Trazado_145517" data-name="Trazado 145517" d="M235.537,378.108,177.779,278.066l57.758-100.042H351.053l57.762,100.042L351.053,378.108Z" transform="translate(-6381.389 -9608.355)" fill="#b3e6fd"/>
      <path id="Trazado_145518" data-name="Trazado 145518" d="M357.409,447.073,299.651,347.031l57.758-100.042H472.926l57.762,100.042L472.926,447.073Z" transform="translate(-6211.213 -9572.608)" fill="#d8ccfe"/>
      <path id="Trazado_145519" data-name="Trazado 145519" d="M477.317,374.818,419.559,274.776l57.758-100.042H592.834L650.6,274.776,592.834,374.818Z" transform="translate(-6079.595 -9371.734)" fill="#4ee2f5"/>
      <text id="Visión" transform="translate(-5827.761 -9173.938)" fill="#12263f" font-size="20" font-family="Roboto-Black, Roboto" font-weight="800"><tspan x="0" y="0">Visión</tspan></text>
      <text id="_Qué_es_" data-name="¿Qué es?
" transform="translate(-6143 -9291)" fill="#12263f" font-size="20" font-family="Roboto-Black, Roboto" font-weight="800"><tspan x="7.77" y="19">¿Qué es?</tspan></text>
      <text id="La_vista_al_futuro._El_lugar_hacia_donde_la_empresa_fija_sus_objetivos." data-name="La vista al futuro.

El lugar hacia donde la empresa fija sus objetivos." transform="translate(-5968 -9495.979)" fill="#12263f" font-size="16" font-family="Roboto-Regular, Roboto"><tspan x="0" y="15">La vista al futuro.</tspan><tspan x="0" y="39"></tspan><tspan x="0" y="63">El lugar hacia </tspan><tspan x="0" y="87">donde la </tspan><tspan x="0" y="111">empresa fija sus </tspan><tspan x="0" y="135">objetivos.</tspan></text>
      <text id="Proyecta_el_futuro_corto_mediano_y_largo_plazo_._Consecuente_con_la_misión_Dirigida_al_mercado_objetivo._Realista._" data-name="Proyecta el futuro (corto, mediano y largo plazo).

Consecuente con la misión,

Dirigida al mercado objetivo.

Realista.



" transform="translate(-5827.761 -9065)" fill="#12263f" font-size="16" font-family="Roboto-Regular, Roboto"><tspan x="0" y="15">Proyecta el futuro (corto, </tspan><tspan x="0" y="39">mediano y largo plazo).</tspan><tspan x="0" y="63"></tspan><tspan x="0" y="87">Consecuente con la misión,</tspan><tspan x="0" y="111"></tspan><tspan x="0" y="135">Dirigida al mercado objetivo.</tspan><tspan x="0" y="159"></tspan><tspan x="0" y="183">Realista.</tspan></text>
      <text id="_Cómo_se_formula_" data-name="¿Cómo se formula?
" transform="translate(-5596.034 -9076.627)" fill="#12263f" font-size="20" font-family="Roboto-Black, Roboto" font-weight="800"><tspan x="5.944" y="19">¿Cómo se </tspan><tspan x="10.07" y="46">formula?</tspan></text>
      <g id="Grupo_74058" data-name="Grupo 74058" transform="translate(-6722.428 -9349.153)">
        <circle id="Elipse_4574" data-name="Elipse 4574" cx="41" cy="41" r="41" transform="translate(593.428 -32.847)" fill="#fff"/>
        <g id="laptop-question" transform="translate(597.428 -29.711)">
          <rect id="Rectángulo_32668" data-name="Rectángulo 32668" width="67.419" height="46.675" transform="translate(3.89 20.744)" fill="#acabb1"/>
          <rect id="Rectángulo_32669" data-name="Rectángulo 32669" width="59.64" height="38.896" transform="translate(7.779 24.634)" fill="#00d7df"/>
          <path id="Trazado_145862" data-name="Trazado 145862" d="M691.021,199.513h15.558a2.6,2.6,0,0,0,2.593-2.593v-1.3H688.428v1.3A2.6,2.6,0,0,0,691.021,199.513Z" transform="translate(-661.201 -128.204)" fill="#7b7a82"/>
          <path id="Trazado_145863" data-name="Trazado 145863" d="M645.4,195.623v1.3a2.6,2.6,0,0,1-2.593,2.593H627.248a2.6,2.6,0,0,1-2.593-2.593v-1.3H597.428v2.593a5.186,5.186,0,0,0,5.186,5.186H667.44a5.186,5.186,0,0,0,5.186-5.186v-2.593Z" transform="translate(-597.428 -128.204)" fill="#acabb1"/>
          <path id="Trazado_145864" data-name="Trazado 145864" d="M665.4-29.711A24.634,24.634,0,0,0,640.762-5.077,24.634,24.634,0,0,0,665.4,19.556,24.634,24.634,0,0,0,690.029-5.077,24.634,24.634,0,0,0,665.4-29.711Zm2.593,44.082H662.8v-3.89h5.186Zm0-15.849v8.07H662.8V-6.374H665.4a6.483,6.483,0,0,0,6.483-6.483,6.483,6.483,0,0,0-6.483-6.483,6.483,6.483,0,0,0-6.483,6.483h-5.186A11.669,11.669,0,0,1,665.4-24.524a11.668,11.668,0,0,1,11.667,11.67A11.669,11.669,0,0,1,667.989-1.478Z" transform="translate(-627.797 29.711)" fill="#7e5ee3"/>
          <path id="Trazado_145865" data-name="Trazado 145865" d="M695.764-12.377A11.682,11.682,0,0,0,684.095-.708h5.186a6.483,6.483,0,0,1,6.483-6.483,6.483,6.483,0,0,1,6.483,6.483,6.483,6.483,0,0,1-6.483,6.483h-2.593V18.739h5.186V10.67A11.668,11.668,0,0,0,707.147-3.3,11.668,11.668,0,0,0,695.764-12.377Z" transform="translate(-658.165 17.563)" fill="#fff"/>
          <rect id="Rectángulo_32670" data-name="Rectángulo 32670" width="5.186" height="3.89" transform="translate(35.006 40.192)" fill="#fff"/>
        </g>
      </g>
      <g id="surface1" transform="translate(-6697.17 -8852.307)">
        <path id="Trazado_145866" data-name="Trazado 145866" d="M1189.137-269.32a38,38,0,0,1-38,38,38,38,0,0,1-38-38,38,38,0,0,1,38-38A38,38,0,0,1,1189.137-269.32Z" transform="translate(0)" fill="#fff"/>
        <path id="Trazado_145867" data-name="Trazado 145867" d="M1224.693-269.858v43.669a37.943,37.943,0,0,1-30.495,15.323,37.894,37.894,0,0,1-13.156-2.341q-.944-.346-1.864-.744a38.113,38.113,0,0,1-15.474-12.238V-283.3h47.546Z" transform="translate(-43.061 -20.454)" fill="#dcecf9"/>
        <path id="Trazado_145868" data-name="Trazado 145868" d="M1271.184-196.574h29.08v3.955h-29.08Z" transform="translate(-134.587 -94.307)" fill="#1b2c61"/>
        <path id="Trazado_145869" data-name="Trazado 145869" d="M1224.493-141.719h42.941v3.955h-42.941Z" transform="translate(-94.827 -141.02)" fill="#1b2c61"/>
        <path id="Trazado_145870" data-name="Trazado 145870" d="M1224.493-86.863h42.941v3.955h-42.941Z" transform="translate(-94.827 -187.733)" fill="#1b2c61"/>
        <path id="Trazado_145871" data-name="Trazado 145871" d="M1484.016-269.858V-283.3l13.443,13.443Z" transform="translate(-315.827 -20.454)" fill="#fff"/>
        <path id="Trazado_145872" data-name="Trazado 145872" d="M1277.915,6.731l2.71,8.717,2.845,9.153-9.29-2.362-8.847-2.25,1.177-3.536,3.168-9.506Z" transform="translate(-129.605 -267.434)" fill="#fee2ba"/>
        <path id="Trazado_145873" data-name="Trazado 145873" d="M1283.469,77.378l-9.29-2.362-8.847-2.25,1.177-3.536,3.9-.522Z" transform="translate(-129.605 -320.21)" fill="#dbc1a5"/>
        <path id="Trazado_145874" data-name="Trazado 145874" d="M1122.608-135.548l-8.572,8.572a3.071,3.071,0,0,0,.047,4.389l4.511,4.389,3.157-3.327,9.425-9.931-4.283-4.146A3.071,3.071,0,0,0,1122.608-135.548Z" transform="translate(0 -145.509)" fill="#da263e"/>
        <path id="Trazado_145875" data-name="Trazado 145875" d="M1141.215-135.548l-5.328,5.328a3.071,3.071,0,0,0,.047,4.389l4.425,4.306,9.425-9.931L1145.5-135.6A3.071,3.071,0,0,0,1141.215-135.548Z" transform="translate(-18.607 -145.509)" fill="#f24355"/>
        <path id="Trazado_145876" data-name="Trazado 145876" d="M1163.278-102.07l17.017,16.15a4.57,4.57,0,0,0,.169,6.46,4.57,4.57,0,0,0-6.461.169,4.57,4.57,0,0,0,.169,6.46,4.57,4.57,0,0,0-6.46.169L1150.7-88.812Z" transform="translate(-31.984 -174.783)" fill="#1b2c61"/>
        <path id="Trazado_145877" data-name="Trazado 145877" d="M1199.366-102.07l17.017,16.15a4.57,4.57,0,0,0,.169,6.46,4.57,4.57,0,0,0-6.461.169l-17.017-16.15Z" transform="translate(-68.072 -174.783)" fill="#3d5891"/>
        <path id="Trazado_145878" data-name="Trazado 145878" d="M1178.174-79.738l20.331,19.3a4.57,4.57,0,0,0-6.46.169,4.571,4.571,0,0,0,.169,6.46l-20.331-19.3Z" transform="translate(-50.026 -193.8)" fill="#2a407a"/>
        <path id="Trazado_145879" data-name="Trazado 145879" d="M1156.11-110.661a1.933,1.933,0,0,1,.605,1.357,1.931,1.931,0,0,1-.533,1.386l-11.469,12.085a1.941,1.941,0,0,1-2.744.072,1.936,1.936,0,0,1-.6-1.357,1.933,1.933,0,0,1,.533-1.387l11.469-12.084A1.94,1.94,0,0,1,1156.11-110.661Z" transform="translate(-24.037 -167.013)" fill="#dbc1a5"/>
        <path id="Trazado_145880" data-name="Trazado 145880" d="M1175.909-110.661a1.934,1.934,0,0,1,.605,1.357,1.931,1.931,0,0,1-.534,1.386l-8.017,8.448a1.941,1.941,0,0,1-2.744.072,1.938,1.938,0,0,1-.605-1.357,1.934,1.934,0,0,1,.534-1.387l8.017-8.448A1.94,1.94,0,0,1,1175.909-110.661Z" transform="translate(-43.836 -167.013)" fill="#fee2ba"/>
        <path id="Trazado_145881" data-name="Trazado 145881" d="M1331.379,65.457l2.845,9.153-9.29-2.362a9.516,9.516,0,0,1,1.3-2.939,9.6,9.6,0,0,1,5.14-3.852Z" transform="translate(-180.359 -317.443)" fill="#f24355"/>
        <path id="Trazado_145882" data-name="Trazado 145882" d="M1334.224,96.707l-9.29-2.362a9.516,9.516,0,0,1,1.3-2.939Z" transform="translate(-180.359 -339.54)" fill="#da263e"/>
        <path id="Trazado_145883" data-name="Trazado 145883" d="M1424.946,83.224l-5.168-5.168,2.194-2.194,2.974,2.975,7.279-7.278,2.193,2.193Z" transform="translate(-261.124 -322.639)" fill="#da263e"/>
      </g>
      <g id="Grupo_74062" data-name="Grupo 74062" transform="translate(-7515.554 -8485.302)">
        <circle id="Elipse_4576" data-name="Elipse 4576" cx="40.44" cy="40.44" r="40.44" transform="translate(1675.853 -796.915)" fill="#fff"/>
        <g id="Grupo_74061" data-name="Grupo 74061" transform="translate(1665.146 -791.926)">
          <path id="Trazado_146000" data-name="Trazado 146000" d="M1716.293-771.142c-23.333,0-43.255,11.443-51.147,27.563,7.893,16.122,27.815,27.566,51.147,27.566s43.254-11.445,51.147-27.566C1759.547-759.7,1739.625-771.142,1716.293-771.142Z" transform="translate(-1665.146 780.091)" fill="#f0f0f0"/>
          <path id="Trazado_146001" data-name="Trazado 146001" d="M1711.822-742.169a25.905,25.905,0,0,1,25.9-25.9,25.9,25.9,0,0,1,25.9,25.9,25.9,25.9,0,0,1-25.9,25.9A25.905,25.905,0,0,1,1711.822-742.169Z" transform="translate(-1686.579 778.681)" fill="#26bdcf"/>
          <path id="Trazado_146002" data-name="Trazado 146002" d="M1716.293-771.142c-23.333,0-43.255,11.443-51.147,27.563,7.893,16.122,27.815,27.566,51.147,27.566s43.254-11.445,51.147-27.566C1759.547-759.7,1739.625-771.142,1716.293-771.142Z" transform="translate(-1665.146 780.091)" fill="none"/>
          <path id="Trazado_146003" data-name="Trazado 146003" d="M1744.425-765.168c-7.072-2.194-14.067-3.89-22.232-3.517-23.309,1.061-43.629,15-50.776,31.465" transform="translate(-1668.026 778.987)" fill="none"/>
          <path id="Trazado_146004" data-name="Trazado 146004" d="M1761.926-735.332a18.176,18.176,0,0,1-18.178,18.191,18.18,18.18,0,0,1-18.184-18.191,18.186,18.186,0,0,1,18.184-18.174A18.182,18.182,0,0,1,1761.926-735.332Z" transform="translate(-1692.89 771.993)" fill="#fff"/>
          <path id="Trazado_146005" data-name="Trazado 146005" d="M1760.563-727.588a9.075,9.075,0,0,1-9.073,9.076,9.068,9.068,0,0,1-9.065-9.076,9.061,9.061,0,0,1,9.065-9.054A9.067,9.067,0,0,1,1760.563-727.588Z" transform="translate(-1700.632 764.249)" fill="#f9a729"/>
          <g id="Grupo_74060" data-name="Grupo 74060" transform="translate(49.771)">
            <g id="Grupo_74059" data-name="Grupo 74059" transform="translate(19.929)">
              <path id="Trazado_146006" data-name="Trazado 146006" d="M1795.241-772.514l-1.213-6.029,9.139-9.146,1.217,6.028Z" transform="translate(-1794.029 787.689)" fill="#f9a729"/>
              <path id="Trazado_146007" data-name="Trazado 146007" d="M1798.57-765.114l6.032,1.225,9.129-9.142-6.02-1.219Z" transform="translate(-1796.114 781.518)" fill="#f9a729"/>
            </g>
            <path id="Trazado_146008" data-name="Trazado 146008" d="M1759.244-747.219a1.2,1.2,0,0,1-1.707,0h0a1.2,1.2,0,0,1,0-1.713l31.28-31.285a1.228,1.228,0,0,1,1.719,0h0a1.206,1.206,0,0,1,0,1.717Z" transform="translate(-1757.178 784.419)"/>
          </g>
          <path id="Trazado_146009" data-name="Trazado 146009" d="M1784.323-724.376h-25.835a1.175,1.175,0,0,0-1.149,1.21,1.172,1.172,0,0,0,1.149,1.209l26.041.013A10.432,10.432,0,0,0,1784.323-724.376Z" transform="translate(-1707.48 758.616)" fill="#c6c6c6" style="mix-blend-mode: multiply;isolation: isolate"/>
        </g>
      </g>
      <path id="Trazado_145516" data-name="Trazado 145516" d="M154.025,454.906l-18.906-32.747,18.906-32.747h37.812l18.907,32.747-18.907,32.747Z" transform="translate(-6107.693 -9615.098)" fill="#f2eefc"/>
      <path id="Trazado_145515" data-name="Trazado 145515" d="M652.7,208.944,633.789,176.2,652.7,143.451h37.812L709.414,176.2l-18.907,32.747Z" transform="translate(-6352.128 -9603.197)" fill="#f2eefc"/>
      <path id="Icon_awesome-atom" data-name="Icon awesome-atom" d="M12.907,8c1.254-1.715,1.3-3.082.786-4-.341-.61-1.267-1.585-3.635-1.309C9.386,1.09,8.364,0,7,0S4.614,1.09,3.943,2.691C1.576,2.417.648,3.39.307,4c-.512.919-.469,2.284.786,4C-.161,9.715-.2,11.082.307,12c.913,1.636,3.178,1.362,3.635,1.309C4.614,14.91,5.636,16,7,16s2.387-1.091,3.058-2.691c.458.053,2.722.327,3.635-1.309C14.2,11.081,14.162,9.716,12.907,8ZM1.981,11c-.126-.225-.006-.775.467-1.509.218.2.444.4.683.6.053.428.125.846.211,1.253-.768.028-1.247-.137-1.362-.343ZM3.131,5.91c-.239.2-.466.4-.683.6C1.975,5.775,1.855,5.225,1.981,5c.107-.192.512-.358,1.185-.358.053,0,.121.009.178.012q-.133.624-.212,1.257ZM7,2c.3,0,.694.423,1.058,1.164-.35.116-.7.25-1.058.4-.357-.152-.708-.286-1.058-.4C6.306,2.423,6.7,2,7,2ZM7,14c-.3,0-.694-.423-1.058-1.164.35-.116.7-.25,1.058-.4.357.152.708.286,1.058.4C7.694,13.578,7.3,14,7,14ZM8.953,9.084A13.362,13.362,0,0,1,7,10.255,13.378,13.378,0,0,1,5.047,9.084a12.6,12.6,0,0,1,0-2.167A13.409,13.409,0,0,1,7,5.746,13.383,13.383,0,0,1,8.953,6.917,12.635,12.635,0,0,1,8.953,9.084ZM12.02,11c-.115.207-.594.369-1.362.342.086-.406.158-.824.211-1.252.239-.2.466-.4.683-.6C12.025,10.225,12.145,10.775,12.02,11Zm-.467-4.491c-.218-.2-.444-.4-.683-.6q-.079-.633-.212-1.257c.057,0,.124-.012.178-.012.673,0,1.078.167,1.185.358.126.226.006.775-.467,1.509ZM7,7A1,1,0,1,0,8,8,1,1,0,0,0,7,7Z" transform="translate(-5986.574 -9494.21)" fill="#7e5ee3"/>
      <path id="Icon_awesome-atom-2" data-name="Icon awesome-atom" d="M12.907,8c1.254-1.715,1.3-3.082.786-4-.341-.61-1.267-1.585-3.635-1.309C9.386,1.09,8.364,0,7,0S4.614,1.09,3.943,2.691C1.576,2.417.648,3.39.307,4c-.512.919-.469,2.284.786,4C-.161,9.715-.2,11.082.307,12c.913,1.636,3.178,1.362,3.635,1.309C4.614,14.91,5.636,16,7,16s2.387-1.091,3.058-2.691c.458.053,2.722.327,3.635-1.309C14.2,11.081,14.162,9.716,12.907,8ZM1.981,11c-.126-.225-.006-.775.467-1.509.218.2.444.4.683.6.053.428.125.846.211,1.253-.768.028-1.247-.137-1.362-.343ZM3.131,5.91c-.239.2-.466.4-.683.6C1.975,5.775,1.855,5.225,1.981,5c.107-.192.512-.358,1.185-.358.053,0,.121.009.178.012q-.133.624-.212,1.257ZM7,2c.3,0,.694.423,1.058,1.164-.35.116-.7.25-1.058.4-.357-.152-.708-.286-1.058-.4C6.306,2.423,6.7,2,7,2ZM7,14c-.3,0-.694-.423-1.058-1.164.35-.116.7-.25,1.058-.4.357.152.708.286,1.058.4C7.694,13.578,7.3,14,7,14ZM8.953,9.084A13.362,13.362,0,0,1,7,10.255,13.378,13.378,0,0,1,5.047,9.084a12.6,12.6,0,0,1,0-2.167A13.409,13.409,0,0,1,7,5.746,13.383,13.383,0,0,1,8.953,6.917,12.635,12.635,0,0,1,8.953,9.084ZM12.02,11c-.115.207-.594.369-1.362.342.086-.406.158-.824.211-1.252.239-.2.466-.4.683-.6C12.025,10.225,12.145,10.775,12.02,11Zm-.467-4.491c-.218-.2-.444-.4-.683-.6q-.079-.633-.212-1.257c.057,0,.124-.012.178-.012.673,0,1.078.167,1.185.358.126.226.006.775-.467,1.509ZM7,7A1,1,0,1,0,8,8,1,1,0,0,0,7,7Z" transform="translate(-5850.408 -9065)" fill="#7e5ee3"/>
      <path id="Icon_awesome-atom-3" data-name="Icon awesome-atom" d="M12.907,8c1.254-1.715,1.3-3.082.786-4-.341-.61-1.267-1.585-3.635-1.309C9.386,1.09,8.364,0,7,0S4.614,1.09,3.943,2.691C1.576,2.417.648,3.39.307,4c-.512.919-.469,2.284.786,4C-.161,9.715-.2,11.082.307,12c.913,1.636,3.178,1.362,3.635,1.309C4.614,14.91,5.636,16,7,16s2.387-1.091,3.058-2.691c.458.053,2.722.327,3.635-1.309C14.2,11.081,14.162,9.716,12.907,8ZM1.981,11c-.126-.225-.006-.775.467-1.509.218.2.444.4.683.6.053.428.125.846.211,1.253-.768.028-1.247-.137-1.362-.343ZM3.131,5.91c-.239.2-.466.4-.683.6C1.975,5.775,1.855,5.225,1.981,5c.107-.192.512-.358,1.185-.358.053,0,.121.009.178.012q-.133.624-.212,1.257ZM7,2c.3,0,.694.423,1.058,1.164-.35.116-.7.25-1.058.4-.357-.152-.708-.286-1.058-.4C6.306,2.423,6.7,2,7,2ZM7,14c-.3,0-.694-.423-1.058-1.164.35-.116.7-.25,1.058-.4.357.152.708.286,1.058.4C7.694,13.578,7.3,14,7,14ZM8.953,9.084A13.362,13.362,0,0,1,7,10.255,13.378,13.378,0,0,1,5.047,9.084a12.6,12.6,0,0,1,0-2.167A13.409,13.409,0,0,1,7,5.746,13.383,13.383,0,0,1,8.953,6.917,12.635,12.635,0,0,1,8.953,9.084ZM12.02,11c-.115.207-.594.369-1.362.342.086-.406.158-.824.211-1.252.239-.2.466-.4.683-.6C12.025,10.225,12.145,10.775,12.02,11Zm-.467-4.491c-.218-.2-.444-.4-.683-.6q-.079-.633-.212-1.257c.057,0,.124-.012.178-.012.673,0,1.078.167,1.185.358.126.226.006.775-.467,1.509ZM7,7A1,1,0,1,0,8,8,1,1,0,0,0,7,7Z" transform="translate(-5850.408 -8993)" fill="#7e5ee3"/>
      <path id="Icon_awesome-atom-4" data-name="Icon awesome-atom" d="M12.907,8c1.254-1.715,1.3-3.082.786-4-.341-.61-1.267-1.585-3.635-1.309C9.386,1.09,8.364,0,7,0S4.614,1.09,3.943,2.691C1.576,2.417.648,3.39.307,4c-.512.919-.469,2.284.786,4C-.161,9.715-.2,11.082.307,12c.913,1.636,3.178,1.362,3.635,1.309C4.614,14.91,5.636,16,7,16s2.387-1.091,3.058-2.691c.458.053,2.722.327,3.635-1.309C14.2,11.081,14.162,9.716,12.907,8ZM1.981,11c-.126-.225-.006-.775.467-1.509.218.2.444.4.683.6.053.428.125.846.211,1.253-.768.028-1.247-.137-1.362-.343ZM3.131,5.91c-.239.2-.466.4-.683.6C1.975,5.775,1.855,5.225,1.981,5c.107-.192.512-.358,1.185-.358.053,0,.121.009.178.012q-.133.624-.212,1.257ZM7,2c.3,0,.694.423,1.058,1.164-.35.116-.7.25-1.058.4-.357-.152-.708-.286-1.058-.4C6.306,2.423,6.7,2,7,2ZM7,14c-.3,0-.694-.423-1.058-1.164.35-.116.7-.25,1.058-.4.357.152.708.286,1.058.4C7.694,13.578,7.3,14,7,14ZM8.953,9.084A13.362,13.362,0,0,1,7,10.255,13.378,13.378,0,0,1,5.047,9.084a12.6,12.6,0,0,1,0-2.167A13.409,13.409,0,0,1,7,5.746,13.383,13.383,0,0,1,8.953,6.917,12.635,12.635,0,0,1,8.953,9.084ZM12.02,11c-.115.207-.594.369-1.362.342.086-.406.158-.824.211-1.252.239-.2.466-.4.683-.6C12.025,10.225,12.145,10.775,12.02,11Zm-.467-4.491c-.218-.2-.444-.4-.683-.6q-.079-.633-.212-1.257c.057,0,.124-.012.178-.012.673,0,1.078.167,1.185.358.126.226.006.775-.467,1.509ZM7,7A1,1,0,1,0,8,8,1,1,0,0,0,7,7Z" transform="translate(-5850.408 -8945)" fill="#7e5ee3"/>
      <path id="Icon_awesome-atom-5" data-name="Icon awesome-atom" d="M12.907,8c1.254-1.715,1.3-3.082.786-4-.341-.61-1.267-1.585-3.635-1.309C9.386,1.09,8.364,0,7,0S4.614,1.09,3.943,2.691C1.576,2.417.648,3.39.307,4c-.512.919-.469,2.284.786,4C-.161,9.715-.2,11.082.307,12c.913,1.636,3.178,1.362,3.635,1.309C4.614,14.91,5.636,16,7,16s2.387-1.091,3.058-2.691c.458.053,2.722.327,3.635-1.309C14.2,11.081,14.162,9.716,12.907,8ZM1.981,11c-.126-.225-.006-.775.467-1.509.218.2.444.4.683.6.053.428.125.846.211,1.253-.768.028-1.247-.137-1.362-.343ZM3.131,5.91c-.239.2-.466.4-.683.6C1.975,5.775,1.855,5.225,1.981,5c.107-.192.512-.358,1.185-.358.053,0,.121.009.178.012q-.133.624-.212,1.257ZM7,2c.3,0,.694.423,1.058,1.164-.35.116-.7.25-1.058.4-.357-.152-.708-.286-1.058-.4C6.306,2.423,6.7,2,7,2ZM7,14c-.3,0-.694-.423-1.058-1.164.35-.116.7-.25,1.058-.4.357.152.708.286,1.058.4C7.694,13.578,7.3,14,7,14ZM8.953,9.084A13.362,13.362,0,0,1,7,10.255,13.378,13.378,0,0,1,5.047,9.084a12.6,12.6,0,0,1,0-2.167A13.409,13.409,0,0,1,7,5.746,13.383,13.383,0,0,1,8.953,6.917,12.635,12.635,0,0,1,8.953,9.084ZM12.02,11c-.115.207-.594.369-1.362.342.086-.406.158-.824.211-1.252.239-.2.466-.4.683-.6C12.025,10.225,12.145,10.775,12.02,11Zm-.467-4.491c-.218-.2-.444-.4-.683-.6q-.079-.633-.212-1.257c.057,0,.124-.012.178-.012.673,0,1.078.167,1.185.358.126.226.006.775-.467,1.509ZM7,7A1,1,0,1,0,8,8,1,1,0,0,0,7,7Z" transform="translate(-5850.408 -8896)" fill="#7e5ee3"/>
      <path id="Icon_awesome-atom-6" data-name="Icon awesome-atom" d="M12.907,8c1.254-1.715,1.3-3.082.786-4-.341-.61-1.267-1.585-3.635-1.309C9.386,1.09,8.364,0,7,0S4.614,1.09,3.943,2.691C1.576,2.417.648,3.39.307,4c-.512.919-.469,2.284.786,4C-.161,9.715-.2,11.082.307,12c.913,1.636,3.178,1.362,3.635,1.309C4.614,14.91,5.636,16,7,16s2.387-1.091,3.058-2.691c.458.053,2.722.327,3.635-1.309C14.2,11.081,14.162,9.716,12.907,8ZM1.981,11c-.126-.225-.006-.775.467-1.509.218.2.444.4.683.6.053.428.125.846.211,1.253-.768.028-1.247-.137-1.362-.343ZM3.131,5.91c-.239.2-.466.4-.683.6C1.975,5.775,1.855,5.225,1.981,5c.107-.192.512-.358,1.185-.358.053,0,.121.009.178.012q-.133.624-.212,1.257ZM7,2c.3,0,.694.423,1.058,1.164-.35.116-.7.25-1.058.4-.357-.152-.708-.286-1.058-.4C6.306,2.423,6.7,2,7,2ZM7,14c-.3,0-.694-.423-1.058-1.164.35-.116.7-.25,1.058-.4.357.152.708.286,1.058.4C7.694,13.578,7.3,14,7,14ZM8.953,9.084A13.362,13.362,0,0,1,7,10.255,13.378,13.378,0,0,1,5.047,9.084a12.6,12.6,0,0,1,0-2.167A13.409,13.409,0,0,1,7,5.746,13.383,13.383,0,0,1,8.953,6.917,12.635,12.635,0,0,1,8.953,9.084ZM12.02,11c-.115.207-.594.369-1.362.342.086-.406.158-.824.211-1.252.239-.2.466-.4.683-.6C12.025,10.225,12.145,10.775,12.02,11Zm-.467-4.491c-.218-.2-.444-.4-.683-.6q-.079-.633-.212-1.257c.057,0,.124-.012.178-.012.673,0,1.078.167,1.185.358.126.226.006.775-.467,1.509ZM7,7A1,1,0,1,0,8,8,1,1,0,0,0,7,7Z" transform="translate(-5986.574 -9446.332)" fill="#7e5ee3"/>
    </g>
    <path id="Trazado_148255" data-name="Trazado 148255" d="M0,0H820V667H0Z" transform="translate(390 2257)" fill="none"/>
  </g>
</svg>
