<svg xmlns="http://www.w3.org/2000/svg" width="820" height="667" viewBox="0 0 820 667">
  <g id="Grupo_76146" data-name="Grupo 76146" transform="translate(-390 -2257)">
    <path id="Trazado_148222" data-name="Trazado 148222" d="M-6018-9325.619l402.934,199.353" transform="translate(6616.61 11776)" fill="none" stroke="#bdbaba" stroke-width="2"/>
    <g id="Trazado_148256" data-name="Trazado 148256" transform="translate(598.61 2257)" fill="#fff">
      <path d="M 176 182.5 L 33 182.5 C 28.74686050415039 182.5 24.62174987792969 181.6673583984375 20.73925018310547 180.0251922607422 C 16.98841667175293 178.438720703125 13.61952781677246 176.1672515869141 10.72613906860352 173.2738647460938 C 7.832749843597412 170.3804779052734 5.561277866363525 167.0115814208984 3.974805593490601 163.2607727050781 C 2.33263897895813 159.3782501220703 1.5 155.2531433105469 1.5 151 L 1.5 33 C 1.5 28.74686050415039 2.33263897895813 24.62174987792969 3.974805593490601 20.73925018310547 C 5.561277866363525 16.98841667175293 7.832749843597412 13.61952781677246 10.72613906860352 10.72613906860352 C 13.61952781677246 7.832749843597412 16.98841667175293 5.561277866363525 20.73925018310547 3.974805593490601 C 24.62174987792969 2.33263897895813 28.74686050415039 1.5 33 1.5 L 176 1.5 C 180.2531433105469 1.5 184.3782501220703 2.33263897895813 188.2607727050781 3.974805593490601 C 192.0115814208984 5.561277866363525 195.3804779052734 7.832749843597412 198.2738647460938 10.72613906860352 C 201.1672515869141 13.61952781677246 203.438720703125 16.98841667175293 205.0251922607422 20.73925018310547 C 206.6673583984375 24.62174987792969 207.5 28.74686050415039 207.5 33 L 207.5 151 C 207.5 155.2531433105469 206.6673583984375 159.3782501220703 205.0251922607422 163.2607727050781 C 203.438720703125 167.0115814208984 201.1672515869141 170.3804779052734 198.2738647460938 173.2738647460938 C 195.3804779052734 176.1672515869141 192.0115814208984 178.438720703125 188.2607727050781 180.0251922607422 C 184.3782501220703 181.6673583984375 180.2531433105469 182.5 176 182.5 Z" stroke="none"/>
      <path d="M 33 3 C 28.94869995117188 3 25.02017211914062 3.792770385742188 21.32356262207031 5.3563232421875 C 17.75152587890625 6.867141723632812 14.54290771484375 9.030670166015625 11.78678894042969 11.78678894042969 C 9.030670166015625 14.54290771484375 6.867141723632812 17.75152587890625 5.3563232421875 21.32356262207031 C 3.792770385742188 25.02017211914062 3 28.94869995117188 3 33 L 3 151 C 3 155.0513000488281 3.792770385742188 158.9798278808594 5.3563232421875 162.6764373779297 C 6.867141723632812 166.2484741210938 9.030670166015625 169.4570922851562 11.78678894042969 172.2132110595703 C 14.54290771484375 174.9693298339844 17.75152587890625 177.1328582763672 21.32356262207031 178.6436767578125 C 25.02017211914062 180.2072296142578 28.94869995117188 181 33 181 L 176 181 C 180.0513000488281 181 183.9798278808594 180.2072296142578 187.6764373779297 178.6436767578125 C 191.2484741210938 177.1328582763672 194.4570922851562 174.9693298339844 197.2132110595703 172.2132110595703 C 199.9693298339844 169.4570922851562 202.1328582763672 166.2484741210938 203.6436767578125 162.6764373779297 C 205.2072296142578 158.9798278808594 206 155.0513000488281 206 151 L 206 33 C 206 28.94869995117188 205.2072296142578 25.02017211914062 203.6436767578125 21.32356262207031 C 202.1328582763672 17.75152587890625 199.9693298339844 14.54290771484375 197.2132110595703 11.78678894042969 C 194.4570922851562 9.030670166015625 191.2484741210938 6.867141723632812 187.6764373779297 5.3563232421875 C 183.9798278808594 3.792770385742188 180.0513000488281 3 176 3 L 33 3 M 33 0 L 176 0 C 194.2254180908203 0 209 14.77458190917969 209 33 L 209 151 C 209 169.2254180908203 194.2254180908203 184 176 184 L 33 184 C 14.77458190917969 184 0 169.2254180908203 0 151 L 0 33 C 0 14.77458190917969 14.77458190917969 0 33 0 Z" stroke="none" fill="#81d4fa"/>
    </g>
    <g id="Trazado_148257" data-name="Trazado 148257" transform="translate(740.61 2688)" fill="#fff">
      <path d="M 269 234.5 L 33 234.5 C 28.74688529968262 234.5 24.62176895141602 233.6673431396484 20.73923110961914 232.0251922607422 C 16.98842239379883 230.4387359619141 13.61953830718994 228.1672668457031 10.72615337371826 225.2738800048828 C 7.832730770111084 222.3804931640625 5.561269283294678 219.0115814208984 3.974807739257812 215.2607727050781 C 2.332653760910034 211.3782653808594 1.5 207.2531585693359 1.5 203 L 1.5 33 C 1.5 28.74688529968262 2.332653760910034 24.62176895141602 3.974807739257812 20.73923110961914 C 5.561269283294678 16.98842239379883 7.832769393920898 13.61953830718994 10.72615337371826 10.72615337371826 C 13.61953830718994 7.832769393920898 16.98842239379883 5.561269283294678 20.73923110961914 3.974807739257812 C 24.62176895141602 2.332653760910034 28.74688529968262 1.5 33 1.5 L 269 1.5 C 273.2531433105469 1.5 277.3782653808594 2.332653760910034 281.2607727050781 3.974807739257812 C 285.0115661621094 5.561269283294678 288.3804931640625 7.832730770111084 291.2738952636719 10.72615337371826 C 294.1672668457031 13.61953830718994 296.438720703125 16.98842239379883 298.0252075195312 20.73923110961914 C 299.6673583984375 24.62176895141602 300.5 28.74688529968262 300.5 33 L 300.5 203 C 300.5 207.2531585693359 299.6673583984375 211.3782653808594 298.0252075195312 215.2607727050781 C 296.438720703125 219.0115814208984 294.1672668457031 222.3804931640625 291.2738952636719 225.2738800048828 C 288.3804931640625 228.1672668457031 285.0115661621094 230.4387359619141 281.2607727050781 232.0251922607422 C 277.3782653808594 233.6673431396484 273.2531433105469 234.5 269 234.5 Z" stroke="none"/>
      <path d="M 33 3 C 28.94869995117188 3 25.02017211914062 3.79278564453125 21.32354736328125 5.356338500976562 C 17.75155639648438 6.867172241210938 14.54290771484375 9.030670166015625 11.78680419921875 11.78678894042969 C 9.030670166015625 14.54292297363281 6.867156982421875 17.75154113769531 5.3563232421875 21.32354736328125 C 3.79278564453125 25.02017211914062 3 28.94871520996094 3 33 L 3 203 C 3 207.0513000488281 3.79278564453125 210.9798278808594 5.3563232421875 214.6764526367188 C 6.867156982421875 218.2484588623047 9.030670166015625 221.4570770263672 11.78680419921875 224.2132110595703 C 14.54290771484375 226.9693298339844 17.75155639648438 229.1328277587891 21.32354736328125 230.6436614990234 C 25.02017211914062 232.2072143554688 28.94869995117188 233 33 233 L 269 233 C 273.0513000488281 233 276.9798278808594 232.2072143554688 280.6764526367188 230.6436614990234 C 284.2484741210938 229.1328277587891 287.4570922851562 226.9693298339844 290.2131958007812 224.2132110595703 C 292.9693298339844 221.4570770263672 295.1328430175781 218.2484588623047 296.6436767578125 214.6764526367188 C 298.2072143554688 210.9798278808594 299 207.0513000488281 299 203 L 299 33 C 299 28.94871520996094 298.2072143554688 25.02017211914062 296.6436767578125 21.32354736328125 C 295.1328430175781 17.75154113769531 292.9693298339844 14.54292297363281 290.2131958007812 11.78678894042969 C 287.4570922851562 9.030670166015625 284.2484741210938 6.867172241210938 280.6764526367188 5.356338500976562 C 276.9798278808594 3.79278564453125 273.0513000488281 3 269 3 L 33 3 M 33 0 L 269 0 C 287.2254028320312 0 302 14.77458190917969 302 33 L 302 203 C 302 221.2254180908203 287.2254028320312 236 269 236 L 33 236 C 14.77459716796875 236 0 221.2254180908203 0 203 L 0 33 C 0 14.77458190917969 14.77459716796875 0 33 0 Z" stroke="none" fill="#00bcd4"/>
    </g>
    <path id="Trazado_145517" data-name="Trazado 145517" d="M235.537,378.108,177.779,278.066l57.758-100.042H351.053l57.762,100.042L351.053,378.108Z" transform="translate(235.221 2167.645)" fill="#b3e6fd"/>
    <path id="Trazado_145518" data-name="Trazado 145518" d="M357.409,447.073,299.651,347.031l57.758-100.042H472.926l57.762,100.042L472.926,447.073Z" transform="translate(405.396 2203.392)" fill="#d8ccfe"/>
    <path id="Trazado_145519" data-name="Trazado 145519" d="M477.317,374.818,419.559,274.776l57.758-100.042H592.834L650.6,274.776,592.834,374.818Z" transform="translate(537.015 2404.266)" fill="#4ee2f5"/>
    <path id="Trazado_148258" data-name="Trazado 148258" d="M6.592-3.867,9.424-14.219h3.828L8.467,0H4.717L-.029-14.219h3.8ZM17.607,0h-3.3V-10.566h3.3Zm-3.5-13.3a1.482,1.482,0,0,1,.508-1.159,1.909,1.909,0,0,1,1.318-.452,1.909,1.909,0,0,1,1.318.452,1.482,1.482,0,0,1,.508,1.159,1.482,1.482,0,0,1-.508,1.159,1.909,1.909,0,0,1-1.318.452,1.909,1.909,0,0,1-1.318-.452A1.482,1.482,0,0,1,14.111-13.3ZM25.166-2.969a.76.76,0,0,0-.439-.674,6.685,6.685,0,0,0-1.67-.527,7.615,7.615,0,0,1-2.031-.718A3.4,3.4,0,0,1,19.8-5.967a2.577,2.577,0,0,1-.42-1.455,2.92,2.92,0,0,1,1.2-2.4,4.948,4.948,0,0,1,3.145-.942,5.482,5.482,0,0,1,3.359.947,2.962,2.962,0,0,1,1.27,2.49h-3.3q0-1.27-1.338-1.27a1.326,1.326,0,0,0-.869.288.892.892,0,0,0-.352.718.819.819,0,0,0,.43.713,4.06,4.06,0,0,0,1.372.449,11.857,11.857,0,0,1,1.655.42A3.007,3.007,0,0,1,28.34-3.066,2.767,2.767,0,0,1,27.056-.713,5.631,5.631,0,0,1,23.73.2a5.747,5.747,0,0,1-2.422-.488,4.05,4.05,0,0,1-1.66-1.328,3.007,3.007,0,0,1-.6-1.768h3.076a1.272,1.272,0,0,0,.488,1.069,2.009,2.009,0,0,0,1.2.337,1.58,1.58,0,0,0,1.011-.273A.875.875,0,0,0,25.166-2.969ZM33.35,0h-3.3V-10.566h3.3Zm-3.5-13.3a1.482,1.482,0,0,1,.508-1.159,1.909,1.909,0,0,1,1.318-.452A1.909,1.909,0,0,1,33-14.46a1.482,1.482,0,0,1,.508,1.159A1.482,1.482,0,0,1,33-12.141a1.909,1.909,0,0,1-1.318.452,1.909,1.909,0,0,1-1.318-.452A1.482,1.482,0,0,1,29.854-13.3Zm5.107,7.92A6.236,6.236,0,0,1,35.576-8.2a4.4,4.4,0,0,1,1.768-1.9,5.323,5.323,0,0,1,2.705-.664,4.858,4.858,0,0,1,3.74,1.47,5.64,5.64,0,0,1,1.367,4v.117a5.472,5.472,0,0,1-1.372,3.921A4.871,4.871,0,0,1,40.068.2a4.927,4.927,0,0,1-3.623-1.353,5.29,5.29,0,0,1-1.475-3.667Zm3.291.205a3.932,3.932,0,0,0,.459,2.148,1.529,1.529,0,0,0,1.357.684q1.758,0,1.8-2.705v-.332q0-2.842-1.816-2.842-1.65,0-1.787,2.451ZM40.5-15h3.477L41.26-11.934l-2.686,0Zm9.131,4.434.107,1.24a3.583,3.583,0,0,1,3.018-1.436,3.015,3.015,0,0,1,2.466.986,4.7,4.7,0,0,1,.845,2.969V0h-3.3V-6.67a1.783,1.783,0,0,0-.322-1.177,1.491,1.491,0,0,0-1.172-.376,1.569,1.569,0,0,0-1.436.762V0H46.543V-10.566Z" transform="translate(788.849 2602.063)" fill="#12263f"/>
    <path id="Trazado_148259" data-name="Trazado 148259" d="M14.635,12.848a6.627,6.627,0,0,1-.3,2.251,3.362,3.362,0,0,1-1,1.382l-.645.6a2.547,2.547,0,0,0-.908,1.816A1.357,1.357,0,0,0,12.11,19.9a1.162,1.162,0,0,0,.845.317,1.29,1.29,0,0,0,1.021-.415,1.794,1.794,0,0,0,.386-1.177h3.311a4,4,0,0,1-1.245,3.047,4.9,4.9,0,0,1-3.394,1.084,5.039,5.039,0,0,1-3.364-1.011,3.547,3.547,0,0,1-1.187-2.856,3.281,3.281,0,0,1,.371-1.528,6.061,6.061,0,0,1,1.27-1.558l.83-.762a2.243,2.243,0,0,0,.84-1.494l.049-.7Zm-1.309-1.318a1.892,1.892,0,0,1-1.3-.464,1.609,1.609,0,0,1,0-2.373,1.892,1.892,0,0,1,1.3-.464A1.86,1.86,0,0,1,14.64,8.7a1.607,1.607,0,0,1,0,2.354A1.86,1.86,0,0,1,13.326,11.529Zm17.764.654a8.4,8.4,0,0,1-.654,3.442,5.984,5.984,0,0,1-1.807,2.358L30.924,19.8,28.8,21.6l-3.057-2.461a6.353,6.353,0,0,1-.859.059,6.163,6.163,0,0,1-3.223-.84,5.712,5.712,0,0,1-2.192-2.4,8.159,8.159,0,0,1-.815-3.594v-.752a8.414,8.414,0,0,1,.767-3.691,5.713,5.713,0,0,1,2.188-2.461,6.5,6.5,0,0,1,6.479-.01,5.79,5.79,0,0,1,2.2,2.446,8.18,8.18,0,0,1,.8,3.638Zm-3.486-.6A5.979,5.979,0,0,0,26.9,8.37a2.441,2.441,0,0,0-4.067-.015,6.057,6.057,0,0,0-.693,3.174v.654a6.145,6.145,0,0,0,.693,3.218,2.27,2.27,0,0,0,2.061,1.118,2.237,2.237,0,0,0,2.007-1.1,6.016,6.016,0,0,0,.708-3.174Zm11.377,6.27A3.393,3.393,0,0,1,36.158,19.2a3.328,3.328,0,0,1-2.632-1.011,4.251,4.251,0,0,1-.894-2.905V8.434h3.291V15.3a1.183,1.183,0,0,0,1.318,1.357,1.72,1.72,0,0,0,1.611-.811V8.434h3.311V19H39.078Zm10.1,1.338a5.432,5.432,0,0,1-3.936-1.45,5.008,5.008,0,0,1-1.5-3.774V13.7a6.489,6.489,0,0,1,.6-2.861,4.395,4.395,0,0,1,1.753-1.919,5.292,5.292,0,0,1,2.734-.679A4.574,4.574,0,0,1,52.242,9.62a5.43,5.43,0,0,1,1.289,3.853v1.279H46.988a2.372,2.372,0,0,0,.771,1.4,2.3,2.3,0,0,0,1.543.508,2.958,2.958,0,0,0,2.441-1.094l1.5,1.777A4.2,4.2,0,0,1,51.5,18.692,5.891,5.891,0,0,1,49.078,19.2Zm-.371-8.418q-1.445,0-1.719,1.914h3.32v-.254a1.63,1.63,0,0,0-.4-1.226A1.593,1.593,0,0,0,48.707,10.777ZM48.668,3.99h3.477L49.43,7.057l-2.686,0ZM64.947,19.2a5.432,5.432,0,0,1-3.936-1.45,5.008,5.008,0,0,1-1.5-3.774V13.7a6.489,6.489,0,0,1,.6-2.861,4.395,4.395,0,0,1,1.753-1.919A5.292,5.292,0,0,1,64.6,8.238,4.574,4.574,0,0,1,68.111,9.62,5.43,5.43,0,0,1,69.4,13.473v1.279H62.857a2.372,2.372,0,0,0,.771,1.4,2.3,2.3,0,0,0,1.543.508,2.958,2.958,0,0,0,2.441-1.094l1.5,1.777a4.2,4.2,0,0,1-1.743,1.353A5.891,5.891,0,0,1,64.947,19.2Zm-.371-8.418q-1.445,0-1.719,1.914h3.32v-.254a1.63,1.63,0,0,0-.4-1.226A1.593,1.593,0,0,0,64.576,10.777Zm11.68,5.254a.76.76,0,0,0-.439-.674,6.685,6.685,0,0,0-1.67-.527,7.615,7.615,0,0,1-2.031-.718,3.4,3.4,0,0,1-1.221-1.079,2.577,2.577,0,0,1-.42-1.455,2.92,2.92,0,0,1,1.2-2.4,4.948,4.948,0,0,1,3.145-.942,5.482,5.482,0,0,1,3.359.947,2.962,2.962,0,0,1,1.27,2.49h-3.3q0-1.27-1.338-1.27a1.326,1.326,0,0,0-.869.288.892.892,0,0,0-.352.718.819.819,0,0,0,.43.713,4.06,4.06,0,0,0,1.372.449,11.857,11.857,0,0,1,1.655.42,3.007,3.007,0,0,1,2.383,2.939,2.767,2.767,0,0,1-1.284,2.354,5.631,5.631,0,0,1-3.325.908,5.747,5.747,0,0,1-2.422-.488,4.05,4.05,0,0,1-1.66-1.328,3.007,3.007,0,0,1-.6-1.768h3.076a1.272,1.272,0,0,0,.488,1.069,2.009,2.009,0,0,0,1.2.337,1.58,1.58,0,0,0,1.011-.273A.875.875,0,0,0,76.256,16.031ZM83.4,14.5a6.356,6.356,0,0,1,.322-2.251,3.521,3.521,0,0,1,1.045-1.431,6.947,6.947,0,0,0,1.1-1.108A1.809,1.809,0,0,0,86.246,8.6q0-1.475-1.27-1.475a1.178,1.178,0,0,0-.947.43,1.828,1.828,0,0,0-.381,1.162h-3.3a3.937,3.937,0,0,1,1.23-3.042,4.906,4.906,0,0,1,3.4-1.089,5.1,5.1,0,0,1,3.374,1.006,3.53,3.53,0,0,1,1.2,2.861,3.333,3.333,0,0,1-.322,1.475,4.984,4.984,0,0,1-1.035,1.357L87.066,12.33a2.642,2.642,0,0,0-.664.942A3.735,3.735,0,0,0,86.2,14.5ZM83,17.467a1.516,1.516,0,0,1,.522-1.187,2.064,2.064,0,0,1,2.607,0,1.609,1.609,0,0,1,0,2.373,2.064,2.064,0,0,1-2.607,0A1.516,1.516,0,0,1,83,17.467Z" transform="translate(473.61 2485)" fill="#12263f"/>
    <path id="Trazado_148260" data-name="Trazado 148260" d="M2.828,13.773H8.219V15H1.32V3.625H2.828ZM14.922,15a3.036,3.036,0,0,1-.2-.891,3.225,3.225,0,0,1-2.406,1.047,2.984,2.984,0,0,1-2.051-.707,2.287,2.287,0,0,1-.8-1.793,2.39,2.39,0,0,1,1-2.051,4.733,4.733,0,0,1,2.824-.73H14.7V9.211A1.623,1.623,0,0,0,14.242,8a1.821,1.821,0,0,0-1.336-.449,2.107,2.107,0,0,0-1.3.391,1.151,1.151,0,0,0-.523.945H9.633a2,2,0,0,1,.449-1.223A3.066,3.066,0,0,1,11.3,6.734a4.1,4.1,0,0,1,1.691-.344,3.342,3.342,0,0,1,2.289.73,2.635,2.635,0,0,1,.859,2.012v3.891a4.757,4.757,0,0,0,.3,1.852V15Zm-2.4-1.1a2.54,2.54,0,0,0,1.289-.352,2.127,2.127,0,0,0,.883-.914V10.9H13.563q-2.656,0-2.656,1.555a1.316,1.316,0,0,0,.453,1.063A1.742,1.742,0,0,0,12.523,13.9Zm12.633-.859L27.25,6.547h1.477L25.7,15h-1.1L21.531,6.547h1.477ZM31.688,15H30.242V6.547h1.445ZM30.125,4.3a.863.863,0,0,1,.215-.594.807.807,0,0,1,.637-.242.819.819,0,0,1,.641.242.854.854,0,0,1,.219.594.826.826,0,0,1-.219.586.834.834,0,0,1-.641.234.821.821,0,0,1-.637-.234A.834.834,0,0,1,30.125,4.3Zm8.8,8.453a1.064,1.064,0,0,0-.441-.91,4.249,4.249,0,0,0-1.539-.559,7.277,7.277,0,0,1-1.742-.562,2.479,2.479,0,0,1-.953-.781,1.869,1.869,0,0,1-.309-1.078,2.193,2.193,0,0,1,.879-1.758,3.432,3.432,0,0,1,2.246-.719,3.532,3.532,0,0,1,2.332.742,2.357,2.357,0,0,1,.895,1.9H38.836a1.3,1.3,0,0,0-.5-1.023,1.888,1.888,0,0,0-1.27-.43,1.976,1.976,0,0,0-1.234.344,1.082,1.082,0,0,0-.445.9.877.877,0,0,0,.414.789,5.1,5.1,0,0,0,1.5.508,7.8,7.8,0,0,1,1.754.578,2.558,2.558,0,0,1,1,.809,1.988,1.988,0,0,1,.324,1.152,2.163,2.163,0,0,1-.906,1.816,3.8,3.8,0,0,1-2.352.684,4.257,4.257,0,0,1-1.8-.359,2.922,2.922,0,0,1-1.223-1,2.42,2.42,0,0,1-.441-1.395h1.445a1.5,1.5,0,0,0,.582,1.152,2.258,2.258,0,0,0,1.434.426,2.331,2.331,0,0,0,1.316-.332A1.02,1.02,0,0,0,38.922,12.758ZM44.211,4.5V6.547h1.578V7.664H44.211v5.249a1.173,1.173,0,0,0,.211.763.888.888,0,0,0,.719.254,3.5,3.5,0,0,0,.688-.094V15a4.215,4.215,0,0,1-1.109.155,1.8,1.8,0,0,1-1.461-.586,2.517,2.517,0,0,1-.492-1.664V7.664H41.227V6.547h1.539V4.5ZM52.7,15a3.036,3.036,0,0,1-.2-.891,3.225,3.225,0,0,1-2.406,1.047,2.984,2.984,0,0,1-2.051-.707,2.287,2.287,0,0,1-.8-1.793,2.39,2.39,0,0,1,1-2.051,4.733,4.733,0,0,1,2.824-.73h1.406V9.211A1.623,1.623,0,0,0,52.016,8a1.821,1.821,0,0,0-1.336-.449,2.107,2.107,0,0,0-1.3.391,1.151,1.151,0,0,0-.523.945H47.406a2,2,0,0,1,.449-1.223,3.066,3.066,0,0,1,1.219-.934,4.1,4.1,0,0,1,1.691-.344,3.342,3.342,0,0,1,2.289.73,2.635,2.635,0,0,1,.859,2.012v3.891a4.757,4.757,0,0,0,.3,1.852V15Zm-2.4-1.1a2.54,2.54,0,0,0,1.289-.352,2.127,2.127,0,0,0,.883-.914V10.9H51.336q-2.656,0-2.656,1.555a1.316,1.316,0,0,0,.453,1.063A1.742,1.742,0,0,0,50.3,13.9ZM65.359,15a3.036,3.036,0,0,1-.2-.891,3.225,3.225,0,0,1-2.406,1.047,2.984,2.984,0,0,1-2.051-.707,2.287,2.287,0,0,1-.8-1.793,2.39,2.39,0,0,1,1-2.051,4.733,4.733,0,0,1,2.824-.73h1.406V9.211A1.623,1.623,0,0,0,64.68,8a1.821,1.821,0,0,0-1.336-.449,2.107,2.107,0,0,0-1.3.391,1.151,1.151,0,0,0-.523.945H60.07a2,2,0,0,1,.449-1.223,3.066,3.066,0,0,1,1.219-.934,4.1,4.1,0,0,1,1.691-.344,3.342,3.342,0,0,1,2.289.73,2.635,2.635,0,0,1,.859,2.012v3.891a4.757,4.757,0,0,0,.3,1.852V15Zm-2.4-1.1a2.54,2.54,0,0,0,1.289-.352,2.127,2.127,0,0,0,.883-.914V10.9H64q-2.656,0-2.656,1.555a1.316,1.316,0,0,0,.453,1.063A1.742,1.742,0,0,0,62.961,13.9ZM70.414,15H68.969V3h1.445ZM77.4,15V7.664H76.063V6.547H77.4V5.68a2.878,2.878,0,0,1,.727-2.1,2.745,2.745,0,0,1,2.055-.742,3.816,3.816,0,0,1,.992.132l-.078,1.165a4.151,4.151,0,0,0-.781-.07,1.41,1.41,0,0,0-1.086.411,1.669,1.669,0,0,0-.383,1.18v.893h1.8V7.664h-1.8V15Zm10.063-.836a3.07,3.07,0,0,1-2.477.992,2.628,2.628,0,0,1-2.059-.785,3.4,3.4,0,0,1-.715-2.324v-5.5h1.445v5.461q0,1.922,1.563,1.922a2.163,2.163,0,0,0,2.2-1.234V6.547h1.445V15H87.492ZM93.023,4.5V6.547H94.6V7.664H93.023v5.249a1.173,1.173,0,0,0,.211.763.888.888,0,0,0,.719.254,3.5,3.5,0,0,0,.688-.094V15a4.215,4.215,0,0,1-1.109.155,1.8,1.8,0,0,1-1.461-.586,2.517,2.517,0,0,1-.492-1.664V7.664H90.039V6.547h1.539V4.5Zm8.484,9.664a3.07,3.07,0,0,1-2.477.992,2.628,2.628,0,0,1-2.059-.785,3.4,3.4,0,0,1-.715-2.324v-5.5H97.7v5.461q0,1.922,1.563,1.922a2.163,2.163,0,0,0,2.2-1.234V6.547h1.445V15h-1.375Zm7.688-6.32a4.331,4.331,0,0,0-.711-.055A1.9,1.9,0,0,0,106.555,9v6h-1.445V6.547h1.406l.023.977a2.251,2.251,0,0,1,2.016-1.133,1.477,1.477,0,0,1,.641.109Zm.789,2.852a4.993,4.993,0,0,1,.488-2.234,3.643,3.643,0,0,1,1.359-1.531,3.7,3.7,0,0,1,1.988-.539,3.565,3.565,0,0,1,2.793,1.2,4.6,4.6,0,0,1,1.066,3.18v.1a5.036,5.036,0,0,1-.473,2.215,3.589,3.589,0,0,1-1.352,1.527,3.743,3.743,0,0,1-2.02.547,3.556,3.556,0,0,1-2.785-1.2,4.575,4.575,0,0,1-1.066-3.164Zm1.453.172a3.616,3.616,0,0,0,.652,2.258,2.211,2.211,0,0,0,3.5-.012,3.955,3.955,0,0,0,.648-2.418,3.61,3.61,0,0,0-.66-2.254,2.1,2.1,0,0,0-1.754-.863,2.075,2.075,0,0,0-1.727.852A3.925,3.925,0,0,0,111.438,10.867Zm8.086,3.375a.905.905,0,0,1,.223-.625.848.848,0,0,1,.668-.25.874.874,0,0,1,.676.25.887.887,0,0,1,.23.625.839.839,0,0,1-.23.6.89.89,0,0,1-.676.242.8.8,0,0,1-.891-.844ZM7.75,57.742H2.82v4.031H8.547V63H1.32V51.625H8.469v1.227H2.82v3.664H7.75ZM11.758,63H10.313V51h1.445ZM19.6,63H18.156V51H19.6Zm7.531-.836a3.07,3.07,0,0,1-2.477.992,2.628,2.628,0,0,1-2.059-.785,3.4,3.4,0,0,1-.715-2.324v-5.5h1.445v5.461q0,1.922,1.563,1.922a2.163,2.163,0,0,0,2.2-1.234V54.547h1.445V63H27.164ZM30.391,58.7a4.968,4.968,0,0,1,.914-3.145,3.151,3.151,0,0,1,4.836-.074l.07-.937h1.32V62.8a3.439,3.439,0,0,1-.973,2.586,3.589,3.589,0,0,1-2.613.945,4.348,4.348,0,0,1-1.789-.391,3.08,3.08,0,0,1-1.336-1.07L31.57,64a2.826,2.826,0,0,0,2.273,1.148,2.214,2.214,0,0,0,1.645-.594,2.269,2.269,0,0,0,.59-1.672v-.727a2.971,2.971,0,0,1-2.367,1,2.887,2.887,0,0,1-2.4-1.2A5.224,5.224,0,0,1,30.391,58.7Zm1.453.164a3.79,3.79,0,0,0,.586,2.246,1.9,1.9,0,0,0,1.641.816,2.117,2.117,0,0,0,2.008-1.242V56.828a2.142,2.142,0,0,0-1.992-1.211,1.921,1.921,0,0,0-1.648.82A4.128,4.128,0,0,0,31.844,58.867ZM44.93,63a3.036,3.036,0,0,1-.2-.891,3.225,3.225,0,0,1-2.406,1.047,2.984,2.984,0,0,1-2.051-.707,2.287,2.287,0,0,1-.8-1.793,2.39,2.39,0,0,1,1-2.051,4.733,4.733,0,0,1,2.824-.73H44.7v-.664A1.623,1.623,0,0,0,44.25,56a1.821,1.821,0,0,0-1.336-.449,2.107,2.107,0,0,0-1.3.391,1.151,1.151,0,0,0-.523.945H39.641a2,2,0,0,1,.449-1.223,3.066,3.066,0,0,1,1.219-.934A4.1,4.1,0,0,1,43,54.391a3.342,3.342,0,0,1,2.289.73,2.635,2.635,0,0,1,.859,2.012v3.891a4.757,4.757,0,0,0,.3,1.852V63Zm-2.4-1.1a2.54,2.54,0,0,0,1.289-.352,2.127,2.127,0,0,0,.883-.914V58.9H43.57q-2.656,0-2.656,1.555a1.316,1.316,0,0,0,.453,1.063A1.742,1.742,0,0,0,42.531,61.9ZM52.5,55.844a4.331,4.331,0,0,0-.711-.055A1.9,1.9,0,0,0,49.859,57v6H48.414V54.547H49.82l.023.977a2.251,2.251,0,0,1,2.016-1.133,1.477,1.477,0,0,1,.641.109Zm6.734-.273a3.073,3.073,0,0,1,2.5-1.18q2.68,0,2.7,3.023V63H62.992V57.406a1.946,1.946,0,0,0-.418-1.352,1.675,1.675,0,0,0-1.277-.437,2.086,2.086,0,0,0-1.234.375,2.546,2.546,0,0,0-.828.984V63H57.789V51h1.445ZM71.82,63a3.036,3.036,0,0,1-.2-.891,3.225,3.225,0,0,1-2.406,1.047,2.984,2.984,0,0,1-2.051-.707,2.288,2.288,0,0,1-.8-1.793,2.39,2.39,0,0,1,1-2.051,4.733,4.733,0,0,1,2.824-.73h1.406v-.664A1.623,1.623,0,0,0,71.141,56a1.821,1.821,0,0,0-1.336-.449,2.107,2.107,0,0,0-1.3.391,1.151,1.151,0,0,0-.523.945H66.531a2,2,0,0,1,.449-1.223,3.066,3.066,0,0,1,1.219-.934,4.1,4.1,0,0,1,1.691-.344,3.342,3.342,0,0,1,2.289.73,2.635,2.635,0,0,1,.859,2.012v3.891a4.757,4.757,0,0,0,.3,1.852V63Zm-2.4-1.1a2.54,2.54,0,0,0,1.289-.352,2.127,2.127,0,0,0,.883-.914V58.9H70.461q-2.656,0-2.656,1.555a1.316,1.316,0,0,0,.453,1.063A1.742,1.742,0,0,0,69.422,61.9Zm9.273.078a2.082,2.082,0,0,0,1.352-.469,1.649,1.649,0,0,0,.641-1.172h1.367a2.621,2.621,0,0,1-.5,1.383,3.293,3.293,0,0,1-1.23,1.047,3.55,3.55,0,0,1-1.629.391A3.482,3.482,0,0,1,75.949,62a4.59,4.59,0,0,1-1.02-3.152v-.242a5.089,5.089,0,0,1,.453-2.2,3.451,3.451,0,0,1,1.3-1.492,3.7,3.7,0,0,1,2-.531,3.39,3.39,0,0,1,2.363.852,3.043,3.043,0,0,1,1,2.211H80.688a1.992,1.992,0,0,0-.621-1.348,1.932,1.932,0,0,0-1.379-.527,2.023,2.023,0,0,0-1.707.793,3.724,3.724,0,0,0-.605,2.293v.273a3.65,3.65,0,0,0,.6,2.25A2.033,2.033,0,0,0,78.7,61.977ZM85.25,63H83.8V54.547H85.25ZM83.688,52.3a.863.863,0,0,1,.215-.594.807.807,0,0,1,.637-.242.819.819,0,0,1,.641.242.854.854,0,0,1,.219.594.826.826,0,0,1-.219.586.834.834,0,0,1-.641.234.821.821,0,0,1-.637-.234A.834.834,0,0,1,83.688,52.3ZM92.781,63a3.036,3.036,0,0,1-.2-.891,3.225,3.225,0,0,1-2.406,1.047,2.984,2.984,0,0,1-2.051-.707,2.288,2.288,0,0,1-.8-1.793,2.39,2.39,0,0,1,1-2.051,4.733,4.733,0,0,1,2.824-.73h1.406v-.664A1.623,1.623,0,0,0,92.1,56a1.821,1.821,0,0,0-1.336-.449,2.107,2.107,0,0,0-1.3.391,1.151,1.151,0,0,0-.523.945H87.492a2,2,0,0,1,.449-1.223,3.066,3.066,0,0,1,1.219-.934,4.1,4.1,0,0,1,1.691-.344,3.342,3.342,0,0,1,2.289.73A2.635,2.635,0,0,1,94,57.133v3.891a4.757,4.757,0,0,0,.3,1.852V63Zm-2.4-1.1a2.54,2.54,0,0,0,1.289-.352,2.127,2.127,0,0,0,.883-.914V58.9H91.422q-2.656,0-2.656,1.555a1.316,1.316,0,0,0,.453,1.063A1.742,1.742,0,0,0,90.383,61.9ZM.742,82.7a4.952,4.952,0,0,1,.922-3.129,2.915,2.915,0,0,1,2.414-1.184A2.932,2.932,0,0,1,6.43,79.406V75H7.875V87H6.547l-.07-.906a2.943,2.943,0,0,1-2.414,1.063,2.887,2.887,0,0,1-2.395-1.2,5.008,5.008,0,0,1-.926-3.141Zm1.445.164a3.749,3.749,0,0,0,.594,2.25,1.92,1.92,0,0,0,1.641.813A2.109,2.109,0,0,0,6.43,84.7V80.813a2.125,2.125,0,0,0-1.992-1.2,1.929,1.929,0,0,0-1.656.82A4.128,4.128,0,0,0,2.188,82.867ZM9.734,82.7a4.993,4.993,0,0,1,.488-2.234,3.643,3.643,0,0,1,1.359-1.531,3.7,3.7,0,0,1,1.988-.539,3.565,3.565,0,0,1,2.793,1.2,4.6,4.6,0,0,1,1.066,3.18v.1a5.036,5.036,0,0,1-.473,2.215,3.589,3.589,0,0,1-1.352,1.527,3.743,3.743,0,0,1-2.02.547,3.556,3.556,0,0,1-2.785-1.2A4.575,4.575,0,0,1,9.734,82.8Zm1.453.172a3.616,3.616,0,0,0,.652,2.258,2.211,2.211,0,0,0,3.5-.012,3.955,3.955,0,0,0,.648-2.418,3.61,3.61,0,0,0-.66-2.254,2.1,2.1,0,0,0-1.754-.863,2.075,2.075,0,0,0-1.727.852A3.925,3.925,0,0,0,11.188,82.867Zm9.422-4.32.047,1.063a3.08,3.08,0,0,1,2.531-1.219q2.68,0,2.7,3.023V87H24.445V81.406a1.946,1.946,0,0,0-.418-1.352,1.675,1.675,0,0,0-1.277-.437,2.086,2.086,0,0,0-1.234.375,2.546,2.546,0,0,0-.828.984V87H19.242V78.547ZM27.719,82.7a4.952,4.952,0,0,1,.922-3.129,3.137,3.137,0,0,1,4.766-.168V75h1.445V87H33.523l-.07-.906a2.943,2.943,0,0,1-2.414,1.063,2.887,2.887,0,0,1-2.395-1.2,5.008,5.008,0,0,1-.926-3.141Zm1.445.164a3.749,3.749,0,0,0,.594,2.25,1.92,1.92,0,0,0,1.641.813A2.109,2.109,0,0,0,33.406,84.7V80.813a2.125,2.125,0,0,0-1.992-1.2,1.929,1.929,0,0,0-1.656.82A4.128,4.128,0,0,0,29.164,82.867ZM40.6,87.156a3.693,3.693,0,0,1-2.8-1.129,4.19,4.19,0,0,1-1.078-3.02v-.266a5.073,5.073,0,0,1,.48-2.246,3.748,3.748,0,0,1,1.344-1.547,3.378,3.378,0,0,1,1.871-.559,3.166,3.166,0,0,1,2.563,1.086,4.7,4.7,0,0,1,.914,3.109v.6H38.172a3,3,0,0,0,.73,2.02,2.3,2.3,0,0,0,1.777.77,2.517,2.517,0,0,0,1.3-.312,3.259,3.259,0,0,0,.93-.828l.883.688A3.55,3.55,0,0,1,40.6,87.156Zm-.18-7.578a1.928,1.928,0,0,0-1.469.637A3.1,3.1,0,0,0,38.219,82h4.234v-.109a2.753,2.753,0,0,0-.594-1.707A1.815,1.815,0,0,0,40.422,79.578ZM51.1,87H49.656V75H51.1Zm7.531,0a3.036,3.036,0,0,1-.2-.891,3.225,3.225,0,0,1-2.406,1.047,2.984,2.984,0,0,1-2.051-.707,2.287,2.287,0,0,1-.8-1.793,2.39,2.39,0,0,1,1-2.051A4.733,4.733,0,0,1,57,81.875h1.406v-.664A1.623,1.623,0,0,0,57.953,80a1.821,1.821,0,0,0-1.336-.449,2.108,2.108,0,0,0-1.3.391,1.151,1.151,0,0,0-.523.945H53.344a2,2,0,0,1,.449-1.223,3.066,3.066,0,0,1,1.219-.934,4.1,4.1,0,0,1,1.691-.344,3.342,3.342,0,0,1,2.289.73,2.635,2.635,0,0,1,.859,2.012v3.891a4.757,4.757,0,0,0,.3,1.852V87Zm-2.4-1.1a2.54,2.54,0,0,0,1.289-.352,2.127,2.127,0,0,0,.883-.914V82.9H57.273q-2.656,0-2.656,1.555a1.316,1.316,0,0,0,.453,1.063A1.742,1.742,0,0,0,56.234,85.9ZM4.6,111.156a3.693,3.693,0,0,1-2.8-1.129,4.19,4.19,0,0,1-1.078-3.02v-.266a5.073,5.073,0,0,1,.48-2.246,3.748,3.748,0,0,1,1.344-1.547,3.378,3.378,0,0,1,1.871-.559,3.166,3.166,0,0,1,2.563,1.086,4.7,4.7,0,0,1,.914,3.109v.6H2.172a3,3,0,0,0,.73,2.02,2.3,2.3,0,0,0,1.777.77,2.517,2.517,0,0,0,1.3-.312,3.259,3.259,0,0,0,.93-.828l.883.688A3.55,3.55,0,0,1,4.6,111.156Zm-.18-7.578a1.928,1.928,0,0,0-1.469.637A3.1,3.1,0,0,0,2.219,106H6.453v-.109a2.753,2.753,0,0,0-.594-1.707A1.815,1.815,0,0,0,4.422,103.578Zm6.508-1.031.039.938a3.122,3.122,0,0,1,2.508-1.094,2.417,2.417,0,0,1,2.414,1.359,3.2,3.2,0,0,1,1.1-.984,3.242,3.242,0,0,1,1.6-.375q2.781,0,2.828,2.945V111H19.969v-5.578a1.941,1.941,0,0,0-.414-1.355,1.823,1.823,0,0,0-1.391-.449,1.916,1.916,0,0,0-1.336.48,1.949,1.949,0,0,0-.617,1.293V111H14.758v-5.539a1.613,1.613,0,0,0-1.8-1.844,1.934,1.934,0,0,0-1.945,1.211V111H9.563v-8.453Zm19.8,4.32a5.062,5.062,0,0,1-.883,3.109,2.829,2.829,0,0,1-2.391,1.18,3.1,3.1,0,0,1-2.422-.977v4.07H23.594v-11.7h1.32l.07.938a2.977,2.977,0,0,1,2.453-1.094,2.882,2.882,0,0,1,2.41,1.148,5.117,5.117,0,0,1,.887,3.2Zm-1.445-.164a3.735,3.735,0,0,0-.609-2.258,1.963,1.963,0,0,0-1.672-.828,2.125,2.125,0,0,0-1.969,1.164v4.039a2.129,2.129,0,0,0,1.984,1.156,1.954,1.954,0,0,0,1.652-.824A4.077,4.077,0,0,0,29.289,106.7Zm7.367-2.859a4.331,4.331,0,0,0-.711-.055A1.9,1.9,0,0,0,34.016,105v6H32.57v-8.453h1.406l.023.977a2.251,2.251,0,0,1,2.016-1.133,1.477,1.477,0,0,1,.641.109Zm4.688,7.313a3.693,3.693,0,0,1-2.8-1.129,4.19,4.19,0,0,1-1.078-3.02v-.266a5.073,5.073,0,0,1,.48-2.246,3.748,3.748,0,0,1,1.344-1.547,3.378,3.378,0,0,1,1.871-.559,3.166,3.166,0,0,1,2.563,1.086,4.7,4.7,0,0,1,.914,3.109v.6H38.914a3,3,0,0,0,.73,2.02,2.3,2.3,0,0,0,1.777.77,2.517,2.517,0,0,0,1.3-.312,3.259,3.259,0,0,0,.93-.828l.883.688A3.55,3.55,0,0,1,41.344,111.156Zm-.18-7.578a1.928,1.928,0,0,0-1.469.637A3.1,3.1,0,0,0,38.961,106H43.2v-.109a2.753,2.753,0,0,0-.594-1.707A1.815,1.815,0,0,0,41.164,103.578Zm10.07,5.18a1.064,1.064,0,0,0-.441-.91,4.249,4.249,0,0,0-1.539-.559,7.277,7.277,0,0,1-1.742-.562,2.479,2.479,0,0,1-.953-.781,1.869,1.869,0,0,1-.309-1.078,2.193,2.193,0,0,1,.879-1.758,3.432,3.432,0,0,1,2.246-.719,3.532,3.532,0,0,1,2.332.742,2.357,2.357,0,0,1,.895,1.9H51.148a1.3,1.3,0,0,0-.5-1.023,1.888,1.888,0,0,0-1.27-.43,1.976,1.976,0,0,0-1.234.344,1.082,1.082,0,0,0-.445.9.877.877,0,0,0,.414.789,5.1,5.1,0,0,0,1.5.508,7.8,7.8,0,0,1,1.754.578,2.558,2.558,0,0,1,1,.809,1.988,1.988,0,0,1,.324,1.152,2.163,2.163,0,0,1-.906,1.816,3.8,3.8,0,0,1-2.352.684,4.257,4.257,0,0,1-1.8-.359,2.922,2.922,0,0,1-1.223-1,2.42,2.42,0,0,1-.441-1.395h1.445a1.5,1.5,0,0,0,.582,1.152,2.258,2.258,0,0,0,1.434.426,2.331,2.331,0,0,0,1.316-.332A1.02,1.02,0,0,0,51.234,108.758ZM59.781,111a3.036,3.036,0,0,1-.2-.891,3.225,3.225,0,0,1-2.406,1.047,2.984,2.984,0,0,1-2.051-.707,2.287,2.287,0,0,1-.8-1.793,2.39,2.39,0,0,1,1-2.051,4.733,4.733,0,0,1,2.824-.73h1.406v-.664A1.623,1.623,0,0,0,59.1,104a1.821,1.821,0,0,0-1.336-.449,2.108,2.108,0,0,0-1.3.391,1.151,1.151,0,0,0-.523.945H54.492a2,2,0,0,1,.449-1.223,3.066,3.066,0,0,1,1.219-.934,4.1,4.1,0,0,1,1.691-.344,3.342,3.342,0,0,1,2.289.73A2.635,2.635,0,0,1,61,105.133v3.891a4.757,4.757,0,0,0,.3,1.852V111Zm-2.4-1.1a2.54,2.54,0,0,0,1.289-.352,2.127,2.127,0,0,0,.883-.914V106.9H58.422q-2.656,0-2.656,1.555a1.316,1.316,0,0,0,.453,1.063A1.742,1.742,0,0,0,57.383,109.9ZM67.711,111v-7.336H66.375v-1.117h1.336v-.719a2.937,2.937,0,0,1,.809-2.2,3.136,3.136,0,0,1,2.285-.789,6.881,6.881,0,0,1,2.211.477l-.242,1.219a5.008,5.008,0,0,0-1.859-.391,1.819,1.819,0,0,0-1.34.418,1.723,1.723,0,0,0-.41,1.254v.734h1.727v1.117H69.164V111Zm6.023,0H72.281v-8.453h1.453Zm3.844-8.453v9.43q0,2.438-2.211,2.438a2.7,2.7,0,0,1-.883-.14v-1.149a2.794,2.794,0,0,0,.656.063.982.982,0,0,0,.738-.262,1.3,1.3,0,0,0,.254-.911v-9.468ZM75.984,100.3a.867.867,0,0,1,.215-.59.79.79,0,0,1,.629-.246.819.819,0,0,1,.641.242.854.854,0,0,1,.219.594.826.826,0,0,1-.219.586.834.834,0,0,1-.641.234.808.808,0,0,1-.633-.234A.843.843,0,0,1,75.984,100.3ZM85.125,111a3.036,3.036,0,0,1-.2-.891,3.225,3.225,0,0,1-2.406,1.047,2.984,2.984,0,0,1-2.051-.707,2.287,2.287,0,0,1-.8-1.793,2.39,2.39,0,0,1,1-2.051,4.733,4.733,0,0,1,2.824-.73H84.9v-.664A1.623,1.623,0,0,0,84.445,104a1.821,1.821,0,0,0-1.336-.449,2.108,2.108,0,0,0-1.3.391,1.151,1.151,0,0,0-.523.945H79.836a2,2,0,0,1,.449-1.223,3.066,3.066,0,0,1,1.219-.934,4.1,4.1,0,0,1,1.691-.344,3.342,3.342,0,0,1,2.289.73,2.635,2.635,0,0,1,.859,2.012v3.891a4.757,4.757,0,0,0,.3,1.852V111Zm-2.4-1.1a2.54,2.54,0,0,0,1.289-.352,2.127,2.127,0,0,0,.883-.914V106.9H83.766q-2.656,0-2.656,1.555a1.316,1.316,0,0,0,.453,1.063A1.742,1.742,0,0,0,82.727,109.9Zm14.766-1.141a1.064,1.064,0,0,0-.441-.91,4.249,4.249,0,0,0-1.539-.559,7.277,7.277,0,0,1-1.742-.562,2.478,2.478,0,0,1-.953-.781,1.869,1.869,0,0,1-.309-1.078,2.193,2.193,0,0,1,.879-1.758,3.432,3.432,0,0,1,2.246-.719,3.532,3.532,0,0,1,2.332.742,2.357,2.357,0,0,1,.895,1.9H97.406a1.3,1.3,0,0,0-.5-1.023,1.888,1.888,0,0,0-1.27-.43,1.976,1.976,0,0,0-1.234.344,1.082,1.082,0,0,0-.445.9.877.877,0,0,0,.414.789,5.1,5.1,0,0,0,1.5.508,7.8,7.8,0,0,1,1.754.578,2.559,2.559,0,0,1,1,.809,1.988,1.988,0,0,1,.324,1.152,2.163,2.163,0,0,1-.906,1.816,3.8,3.8,0,0,1-2.352.684,4.257,4.257,0,0,1-1.8-.359,2.922,2.922,0,0,1-1.223-1,2.42,2.42,0,0,1-.441-1.395h1.445a1.5,1.5,0,0,0,.582,1.152,2.258,2.258,0,0,0,1.434.426A2.331,2.331,0,0,0,97,109.645,1.02,1.02,0,0,0,97.492,108.758Zm8.547,1.406a3.07,3.07,0,0,1-2.477.992,2.628,2.628,0,0,1-2.059-.785,3.4,3.4,0,0,1-.715-2.324v-5.5h1.445v5.461q0,1.922,1.563,1.922A2.163,2.163,0,0,0,106,108.7v-6.148h1.445V111H106.07Zm8.523-1.406a1.064,1.064,0,0,0-.441-.91,4.249,4.249,0,0,0-1.539-.559,7.277,7.277,0,0,1-1.742-.562,2.478,2.478,0,0,1-.953-.781,1.869,1.869,0,0,1-.309-1.078,2.193,2.193,0,0,1,.879-1.758,3.432,3.432,0,0,1,2.246-.719,3.532,3.532,0,0,1,2.332.742,2.357,2.357,0,0,1,.895,1.9h-1.453a1.3,1.3,0,0,0-.5-1.023,1.888,1.888,0,0,0-1.27-.43,1.976,1.976,0,0,0-1.234.344,1.082,1.082,0,0,0-.445.9.877.877,0,0,0,.414.789,5.1,5.1,0,0,0,1.5.508,7.8,7.8,0,0,1,1.754.578,2.559,2.559,0,0,1,1,.809,1.988,1.988,0,0,1,.324,1.152,2.163,2.163,0,0,1-.906,1.816,3.8,3.8,0,0,1-2.352.684,4.257,4.257,0,0,1-1.8-.359,2.922,2.922,0,0,1-1.223-1,2.42,2.42,0,0,1-.441-1.395h1.445a1.5,1.5,0,0,0,.582,1.152,2.258,2.258,0,0,0,1.434.426,2.331,2.331,0,0,0,1.316-.332A1.02,1.02,0,0,0,114.563,108.758ZM.711,130.7a4.993,4.993,0,0,1,.488-2.234,3.643,3.643,0,0,1,1.359-1.531,3.7,3.7,0,0,1,1.988-.539,3.565,3.565,0,0,1,2.793,1.2,4.6,4.6,0,0,1,1.066,3.18v.1a5.036,5.036,0,0,1-.473,2.215,3.589,3.589,0,0,1-1.352,1.527,3.743,3.743,0,0,1-2.02.547,3.556,3.556,0,0,1-2.785-1.2A4.575,4.575,0,0,1,.711,130.8Zm1.453.172a3.616,3.616,0,0,0,.652,2.258,2.088,2.088,0,0,0,1.746.852,2.075,2.075,0,0,0,1.75-.863,3.955,3.955,0,0,0,.648-2.418,3.61,3.61,0,0,0-.66-2.254,2.1,2.1,0,0,0-1.754-.863,2.075,2.075,0,0,0-1.727.852A3.925,3.925,0,0,0,2.164,130.867Zm15.211,0a5.026,5.026,0,0,1-.891,3.113,2.846,2.846,0,0,1-2.391,1.176,2.947,2.947,0,0,1-2.477-1.133l-.07.977H10.219V123h1.445v4.477a2.93,2.93,0,0,1,2.414-1.086,2.863,2.863,0,0,1,2.418,1.164,5.177,5.177,0,0,1,.879,3.188ZM15.93,130.7a3.906,3.906,0,0,0-.57-2.281,1.888,1.888,0,0,0-1.641-.8,2.122,2.122,0,0,0-2.055,1.328V132.6a2.181,2.181,0,0,0,2.07,1.328,1.878,1.878,0,0,0,1.617-.8A4.153,4.153,0,0,0,15.93,130.7Zm4.758-4.156v9.43q0,2.438-2.211,2.438a2.7,2.7,0,0,1-.883-.14v-1.149a2.794,2.794,0,0,0,.656.063.982.982,0,0,0,.738-.262,1.3,1.3,0,0,0,.254-.911v-9.468ZM19.094,124.3a.867.867,0,0,1,.215-.59.79.79,0,0,1,.629-.246.819.819,0,0,1,.641.242.854.854,0,0,1,.219.594.826.826,0,0,1-.219.586.834.834,0,0,1-.641.234.808.808,0,0,1-.633-.234A.843.843,0,0,1,19.094,124.3Zm7.43,10.852a3.693,3.693,0,0,1-2.8-1.129,4.19,4.19,0,0,1-1.078-3.02v-.266a5.073,5.073,0,0,1,.48-2.246,3.748,3.748,0,0,1,1.344-1.547,3.378,3.378,0,0,1,1.871-.559,3.166,3.166,0,0,1,2.563,1.086,4.7,4.7,0,0,1,.914,3.109v.6H24.094a3,3,0,0,0,.73,2.02,2.3,2.3,0,0,0,1.777.77,2.517,2.517,0,0,0,1.3-.312,3.258,3.258,0,0,0,.93-.828l.883.688A3.55,3.55,0,0,1,26.523,135.156Zm-.18-7.578a1.928,1.928,0,0,0-1.469.637A3.1,3.1,0,0,0,24.141,130h4.234v-.109a2.753,2.753,0,0,0-.594-1.707A1.815,1.815,0,0,0,26.344,127.578Zm7.109-3.078v2.047h1.578v1.117H33.453v5.249a1.173,1.173,0,0,0,.211.763.888.888,0,0,0,.719.254,3.5,3.5,0,0,0,.688-.094V135a4.215,4.215,0,0,1-1.109.155,1.8,1.8,0,0,1-1.461-.586,2.517,2.517,0,0,1-.492-1.664v-5.242H30.469v-1.117h1.539V124.5ZM38.289,135H36.844v-8.453h1.445Zm-1.562-10.7a.863.863,0,0,1,.215-.594.807.807,0,0,1,.637-.242.819.819,0,0,1,.641.242.854.854,0,0,1,.219.594.826.826,0,0,1-.219.586.834.834,0,0,1-.641.234.821.821,0,0,1-.637-.234A.834.834,0,0,1,36.727,124.3Zm6.664,8.734,2.094-6.492h1.477L43.93,135h-1.1l-3.062-8.453h1.477Zm4.461-2.344a4.993,4.993,0,0,1,.488-2.234A3.642,3.642,0,0,1,49.7,126.93a3.7,3.7,0,0,1,1.988-.539,3.565,3.565,0,0,1,2.793,1.2,4.6,4.6,0,0,1,1.066,3.18v.1a5.036,5.036,0,0,1-.473,2.215,3.589,3.589,0,0,1-1.352,1.527,3.743,3.743,0,0,1-2.02.547,3.556,3.556,0,0,1-2.785-1.2,4.575,4.575,0,0,1-1.066-3.164Zm1.453.172a3.616,3.616,0,0,0,.652,2.258,2.211,2.211,0,0,0,3.5-.012A3.955,3.955,0,0,0,54.1,130.7a3.61,3.61,0,0,0-.66-2.254,2.1,2.1,0,0,0-1.754-.863,2.075,2.075,0,0,0-1.727.852A3.925,3.925,0,0,0,49.3,130.867Zm12.977,1.891a1.064,1.064,0,0,0-.441-.91,4.249,4.249,0,0,0-1.539-.559,7.277,7.277,0,0,1-1.742-.562,2.479,2.479,0,0,1-.953-.781,1.869,1.869,0,0,1-.309-1.078,2.193,2.193,0,0,1,.879-1.758,3.432,3.432,0,0,1,2.246-.719,3.532,3.532,0,0,1,2.332.742,2.357,2.357,0,0,1,.895,1.9H62.2a1.3,1.3,0,0,0-.5-1.023,1.888,1.888,0,0,0-1.27-.43,1.976,1.976,0,0,0-1.234.344,1.082,1.082,0,0,0-.445.9.877.877,0,0,0,.414.789,5.1,5.1,0,0,0,1.5.508,7.8,7.8,0,0,1,1.754.578,2.558,2.558,0,0,1,1,.809,1.988,1.988,0,0,1,.324,1.152,2.163,2.163,0,0,1-.906,1.816,3.8,3.8,0,0,1-2.352.684,4.257,4.257,0,0,1-1.8-.359,2.922,2.922,0,0,1-1.223-1,2.42,2.42,0,0,1-.441-1.395h1.445a1.5,1.5,0,0,0,.582,1.152,2.258,2.258,0,0,0,1.434.426,2.331,2.331,0,0,0,1.316-.332A1.02,1.02,0,0,0,62.281,132.758Zm3.359,1.484a.905.905,0,0,1,.223-.625.848.848,0,0,1,.668-.25.874.874,0,0,1,.676.25.887.887,0,0,1,.23.625.839.839,0,0,1-.23.6.89.89,0,0,1-.676.242.8.8,0,0,1-.891-.844Z" transform="translate(648.61 2280.021)" fill="#12263f"/>
    <path id="Trazado_148261" data-name="Trazado 148261" d="M2.82,10.547V15H1.32V3.625h4.2a4.215,4.215,0,0,1,2.926.953A3.231,3.231,0,0,1,9.5,7.1,3.189,3.189,0,0,1,8.465,9.652a4.4,4.4,0,0,1-2.965.895Zm0-1.227h2.7a2.7,2.7,0,0,0,1.844-.567A2.075,2.075,0,0,0,8,7.113a2.143,2.143,0,0,0-.641-1.628A2.525,2.525,0,0,0,5.6,4.852H2.82ZM15.273,7.844a4.331,4.331,0,0,0-.711-.055A1.9,1.9,0,0,0,12.633,9v6H11.188V6.547h1.406l.023.977a2.251,2.251,0,0,1,2.016-1.133,1.477,1.477,0,0,1,.641.109Zm.789,2.852a4.993,4.993,0,0,1,.488-2.234A3.643,3.643,0,0,1,17.91,6.93,3.7,3.7,0,0,1,19.9,6.391a3.565,3.565,0,0,1,2.793,1.2,4.6,4.6,0,0,1,1.066,3.18v.1a5.036,5.036,0,0,1-.473,2.215,3.589,3.589,0,0,1-1.352,1.527,3.743,3.743,0,0,1-2.02.547,3.556,3.556,0,0,1-2.785-1.2A4.575,4.575,0,0,1,16.063,10.8Zm1.453.172a3.616,3.616,0,0,0,.652,2.258,2.211,2.211,0,0,0,3.5-.012,3.955,3.955,0,0,0,.648-2.418,3.61,3.61,0,0,0-.66-2.254A2.1,2.1,0,0,0,19.9,7.578a2.075,2.075,0,0,0-1.727.852A3.925,3.925,0,0,0,17.516,10.867Zm10.7,2.016,1.969-6.336h1.547l-3.4,9.758q-.789,2.109-2.508,2.109l-.273-.023-.539-.1V17.117l.391.031a1.923,1.923,0,0,0,1.145-.3,2.148,2.148,0,0,0,.676-1.086l.32-.859L24.531,6.547h1.578Zm8.211,2.273a3.693,3.693,0,0,1-2.8-1.129,4.19,4.19,0,0,1-1.078-3.02v-.266a5.073,5.073,0,0,1,.48-2.246,3.748,3.748,0,0,1,1.344-1.547,3.378,3.378,0,0,1,1.871-.559,3.166,3.166,0,0,1,2.563,1.086,4.7,4.7,0,0,1,.914,3.109v.6H34a3,3,0,0,0,.73,2.02,2.3,2.3,0,0,0,1.777.77,2.517,2.517,0,0,0,1.3-.312,3.259,3.259,0,0,0,.93-.828l.883.688A3.55,3.55,0,0,1,36.43,15.156Zm-.18-7.578a1.928,1.928,0,0,0-1.469.637A3.1,3.1,0,0,0,34.047,10h4.234V9.891a2.753,2.753,0,0,0-.594-1.707A1.815,1.815,0,0,0,36.25,7.578Zm8.539,6.4a2.082,2.082,0,0,0,1.352-.469,1.649,1.649,0,0,0,.641-1.172h1.367a2.621,2.621,0,0,1-.5,1.383,3.293,3.293,0,0,1-1.23,1.047,3.55,3.55,0,0,1-1.629.391A3.482,3.482,0,0,1,42.043,14a4.59,4.59,0,0,1-1.02-3.152v-.242a5.089,5.089,0,0,1,.453-2.2,3.451,3.451,0,0,1,1.3-1.492,3.7,3.7,0,0,1,2-.531,3.39,3.39,0,0,1,2.363.852,3.043,3.043,0,0,1,1,2.211H46.781a1.992,1.992,0,0,0-.621-1.348,1.932,1.932,0,0,0-1.379-.527,2.023,2.023,0,0,0-1.707.793,3.724,3.724,0,0,0-.605,2.293v.273a3.65,3.65,0,0,0,.6,2.25A2.033,2.033,0,0,0,44.789,13.977ZM51.734,4.5V6.547h1.578V7.664H51.734v5.249a1.173,1.173,0,0,0,.211.763.888.888,0,0,0,.719.254,3.5,3.5,0,0,0,.688-.094V15a4.215,4.215,0,0,1-1.109.155,1.8,1.8,0,0,1-1.461-.586,2.517,2.517,0,0,1-.492-1.664V7.664H48.75V6.547h1.539V4.5ZM60.219,15a3.036,3.036,0,0,1-.2-.891,3.225,3.225,0,0,1-2.406,1.047,2.984,2.984,0,0,1-2.051-.707,2.287,2.287,0,0,1-.8-1.793,2.39,2.39,0,0,1,1-2.051,4.733,4.733,0,0,1,2.824-.73h1.406V9.211A1.623,1.623,0,0,0,59.539,8,1.821,1.821,0,0,0,58.2,7.555a2.107,2.107,0,0,0-1.3.391,1.151,1.151,0,0,0-.523.945H54.93a2,2,0,0,1,.449-1.223A3.066,3.066,0,0,1,56.6,6.734a4.1,4.1,0,0,1,1.691-.344,3.342,3.342,0,0,1,2.289.73,2.635,2.635,0,0,1,.859,2.012v3.891a4.757,4.757,0,0,0,.3,1.852V15Zm-2.4-1.1a2.54,2.54,0,0,0,1.289-.352,2.127,2.127,0,0,0,.883-.914V10.9H58.859q-2.656,0-2.656,1.555a1.316,1.316,0,0,0,.453,1.063A1.742,1.742,0,0,0,57.82,13.9Zm13.352,1.258a3.693,3.693,0,0,1-2.8-1.129,4.19,4.19,0,0,1-1.078-3.02v-.266a5.073,5.073,0,0,1,.48-2.246,3.748,3.748,0,0,1,1.344-1.547,3.378,3.378,0,0,1,1.871-.559,3.166,3.166,0,0,1,2.563,1.086,4.7,4.7,0,0,1,.914,3.109v.6H68.742a3,3,0,0,0,.73,2.02,2.3,2.3,0,0,0,1.777.77,2.517,2.517,0,0,0,1.3-.312,3.259,3.259,0,0,0,.93-.828l.883.688A3.55,3.55,0,0,1,71.172,15.156Zm-.18-7.578a1.928,1.928,0,0,0-1.469.637A3.1,3.1,0,0,0,68.789,10h4.234V9.891a2.753,2.753,0,0,0-.594-1.707A1.815,1.815,0,0,0,70.992,7.578ZM77.711,15H76.266V3h1.445ZM84.7,15V7.664H83.359V6.547H84.7V5.68a2.878,2.878,0,0,1,.727-2.1,2.745,2.745,0,0,1,2.055-.742,3.816,3.816,0,0,1,.992.132l-.078,1.165a4.151,4.151,0,0,0-.781-.07,1.41,1.41,0,0,0-1.086.411,1.669,1.669,0,0,0-.383,1.18v.893h1.8V7.664h-1.8V15Zm10.063-.836a3.07,3.07,0,0,1-2.477.992,2.628,2.628,0,0,1-2.059-.785,3.4,3.4,0,0,1-.715-2.324v-5.5h1.445v5.461q0,1.922,1.563,1.922a2.163,2.163,0,0,0,2.2-1.234V6.547h1.445V15H94.789ZM100.32,4.5V6.547H101.9V7.664H100.32v5.249a1.173,1.173,0,0,0,.211.763.888.888,0,0,0,.719.254,3.5,3.5,0,0,0,.688-.094V15a4.215,4.215,0,0,1-1.109.155,1.8,1.8,0,0,1-1.461-.586,2.517,2.517,0,0,1-.492-1.664V7.664H97.336V6.547h1.539V4.5Zm8.484,9.664a3.07,3.07,0,0,1-2.477.992,2.628,2.628,0,0,1-2.059-.785,3.4,3.4,0,0,1-.715-2.324v-5.5H105v5.461q0,1.922,1.563,1.922a2.163,2.163,0,0,0,2.2-1.234V6.547h1.445V15h-1.375Zm7.688-6.32a4.331,4.331,0,0,0-.711-.055A1.9,1.9,0,0,0,113.852,9v6h-1.445V6.547h1.406l.023.977a2.251,2.251,0,0,1,2.016-1.133,1.477,1.477,0,0,1,.641.109Zm.789,2.852a4.993,4.993,0,0,1,.488-2.234,3.643,3.643,0,0,1,1.359-1.531,3.7,3.7,0,0,1,1.988-.539,3.565,3.565,0,0,1,2.793,1.2,4.6,4.6,0,0,1,1.066,3.18v.1a5.036,5.036,0,0,1-.473,2.215,3.589,3.589,0,0,1-1.352,1.527,3.743,3.743,0,0,1-2.02.547,3.556,3.556,0,0,1-2.785-1.2,4.575,4.575,0,0,1-1.066-3.164Zm1.453.172a3.616,3.616,0,0,0,.652,2.258,2.211,2.211,0,0,0,3.5-.012,3.955,3.955,0,0,0,.648-2.418,3.61,3.61,0,0,0-.66-2.254,2.1,2.1,0,0,0-1.754-.863,2.075,2.075,0,0,0-1.727.852A3.925,3.925,0,0,0,118.734,10.867Zm11.961-.484a12.079,12.079,0,0,1,.473-3.391,9.85,9.85,0,0,1,1.41-2.953,6,6,0,0,1,1.945-1.875l.3.953a6.222,6.222,0,0,0-1.871,2.672,11.583,11.583,0,0,0-.8,4.023l-.008.664a11.643,11.643,0,0,0,1.1,5.234,6.252,6.252,0,0,0,1.578,2.078l-.3.883a6.192,6.192,0,0,1-1.984-1.937A10.859,10.859,0,0,1,130.7,10.383Zm8.914,3.594a2.082,2.082,0,0,0,1.352-.469,1.649,1.649,0,0,0,.641-1.172h1.367a2.621,2.621,0,0,1-.5,1.383,3.293,3.293,0,0,1-1.23,1.047,3.55,3.55,0,0,1-1.629.391A3.482,3.482,0,0,1,136.863,14a4.59,4.59,0,0,1-1.02-3.152v-.242a5.089,5.089,0,0,1,.453-2.2,3.451,3.451,0,0,1,1.3-1.492,3.7,3.7,0,0,1,2-.531,3.39,3.39,0,0,1,2.363.852,3.043,3.043,0,0,1,1,2.211H141.6a1.992,1.992,0,0,0-.621-1.348,1.932,1.932,0,0,0-1.379-.527,2.023,2.023,0,0,0-1.707.793,3.724,3.724,0,0,0-.605,2.293v.273a3.65,3.65,0,0,0,.6,2.25A2.033,2.033,0,0,0,139.609,13.977Zm4.6-3.281a4.993,4.993,0,0,1,.488-2.234,3.642,3.642,0,0,1,1.359-1.531,3.7,3.7,0,0,1,1.988-.539,3.565,3.565,0,0,1,2.793,1.2,4.6,4.6,0,0,1,1.066,3.18v.1a5.036,5.036,0,0,1-.473,2.215,3.589,3.589,0,0,1-1.352,1.527,3.743,3.743,0,0,1-2.02.547,3.556,3.556,0,0,1-2.785-1.2,4.575,4.575,0,0,1-1.066-3.164Zm1.453.172a3.616,3.616,0,0,0,.652,2.258,2.211,2.211,0,0,0,3.5-.012,3.954,3.954,0,0,0,.648-2.418,3.61,3.61,0,0,0-.66-2.254,2.1,2.1,0,0,0-1.754-.863,2.075,2.075,0,0,0-1.727.852A3.925,3.925,0,0,0,145.664,10.867ZM157.8,7.844a4.331,4.331,0,0,0-.711-.055A1.9,1.9,0,0,0,155.164,9v6h-1.445V6.547h1.406l.023.977a2.251,2.251,0,0,1,2.016-1.133,1.477,1.477,0,0,1,.641.109Zm3.68-3.344V6.547h1.578V7.664h-1.578v5.249a1.173,1.173,0,0,0,.211.763.888.888,0,0,0,.719.254,3.5,3.5,0,0,0,.688-.094V15a4.215,4.215,0,0,1-1.109.155,1.8,1.8,0,0,1-1.461-.586,2.517,2.517,0,0,1-.492-1.664V7.664H158.5V6.547h1.539V4.5Zm2.727,6.2a4.993,4.993,0,0,1,.488-2.234,3.642,3.642,0,0,1,1.359-1.531,3.7,3.7,0,0,1,1.988-.539,3.565,3.565,0,0,1,2.793,1.2,4.6,4.6,0,0,1,1.066,3.18v.1a5.036,5.036,0,0,1-.473,2.215,3.589,3.589,0,0,1-1.352,1.527,3.743,3.743,0,0,1-2.02.547,3.556,3.556,0,0,1-2.785-1.2,4.575,4.575,0,0,1-1.066-3.164Zm1.453.172a3.616,3.616,0,0,0,.652,2.258,2.211,2.211,0,0,0,3.5-.012,3.954,3.954,0,0,0,.648-2.418,3.61,3.61,0,0,0-.66-2.254,2.1,2.1,0,0,0-1.754-.863,2.075,2.075,0,0,0-1.727.852A3.925,3.925,0,0,0,165.664,10.867Zm8.008,6.4-.82-.562a3.77,3.77,0,0,0,.766-2.109v-1.3h1.414v1.133A3.559,3.559,0,0,1,174.645,16,3.7,3.7,0,0,1,173.672,17.266ZM2.453,30.547l.039.938A3.122,3.122,0,0,1,5,30.391,2.417,2.417,0,0,1,7.414,31.75a3.2,3.2,0,0,1,1.1-.984,3.242,3.242,0,0,1,1.6-.375q2.781,0,2.828,2.945V39H11.492V33.422a1.941,1.941,0,0,0-.414-1.355,1.823,1.823,0,0,0-1.391-.449,1.916,1.916,0,0,0-1.336.48,1.949,1.949,0,0,0-.617,1.293V39H6.281V33.461a1.613,1.613,0,0,0-1.8-1.844,1.934,1.934,0,0,0-1.945,1.211V39H1.086V30.547Zm16.172,8.609a3.693,3.693,0,0,1-2.8-1.129,4.19,4.19,0,0,1-1.078-3.02v-.266a5.073,5.073,0,0,1,.48-2.246,3.748,3.748,0,0,1,1.344-1.547,3.378,3.378,0,0,1,1.871-.559,3.166,3.166,0,0,1,2.563,1.086,4.7,4.7,0,0,1,.914,3.109v.6H16.2a3,3,0,0,0,.73,2.02,2.3,2.3,0,0,0,1.777.77,2.517,2.517,0,0,0,1.3-.312,3.259,3.259,0,0,0,.93-.828l.883.688A3.55,3.55,0,0,1,18.625,39.156Zm-.18-7.578a1.928,1.928,0,0,0-1.469.637A3.1,3.1,0,0,0,16.242,34h4.234v-.109a2.753,2.753,0,0,0-.594-1.707A1.815,1.815,0,0,0,18.445,31.578Zm4.8,3.125a4.952,4.952,0,0,1,.922-3.129,3.137,3.137,0,0,1,4.766-.168V27h1.445V39H29.047l-.07-.906a2.943,2.943,0,0,1-2.414,1.063,2.887,2.887,0,0,1-2.395-1.2,5.008,5.008,0,0,1-.926-3.141Zm1.445.164a3.749,3.749,0,0,0,.594,2.25,1.92,1.92,0,0,0,1.641.813A2.108,2.108,0,0,0,28.93,36.7V32.813a2.125,2.125,0,0,0-1.992-1.2,1.929,1.929,0,0,0-1.656.82A4.128,4.128,0,0,0,24.688,34.867ZM34.188,39H32.742V30.547h1.445ZM32.625,28.3a.863.863,0,0,1,.215-.594.807.807,0,0,1,.637-.242.819.819,0,0,1,.641.242.854.854,0,0,1,.219.594.826.826,0,0,1-.219.586.834.834,0,0,1-.641.234.821.821,0,0,1-.637-.234A.834.834,0,0,1,32.625,28.3ZM41.719,39a3.036,3.036,0,0,1-.2-.891,3.225,3.225,0,0,1-2.406,1.047,2.984,2.984,0,0,1-2.051-.707,2.287,2.287,0,0,1-.8-1.793,2.39,2.39,0,0,1,1-2.051,4.733,4.733,0,0,1,2.824-.73h1.406v-.664A1.623,1.623,0,0,0,41.039,32a1.821,1.821,0,0,0-1.336-.449,2.107,2.107,0,0,0-1.3.391,1.151,1.151,0,0,0-.523.945H36.43a2,2,0,0,1,.449-1.223,3.066,3.066,0,0,1,1.219-.934,4.1,4.1,0,0,1,1.691-.344,3.342,3.342,0,0,1,2.289.73,2.635,2.635,0,0,1,.859,2.012v3.891a4.757,4.757,0,0,0,.3,1.852V39Zm-2.4-1.1a2.54,2.54,0,0,0,1.289-.352,2.127,2.127,0,0,0,.883-.914V34.9H40.359q-2.656,0-2.656,1.555a1.316,1.316,0,0,0,.453,1.063A1.742,1.742,0,0,0,39.32,37.9Zm7.25-7.352.047,1.063a3.08,3.08,0,0,1,2.531-1.219q2.68,0,2.7,3.023V39H50.406V33.406a1.946,1.946,0,0,0-.418-1.352,1.675,1.675,0,0,0-1.277-.437,2.086,2.086,0,0,0-1.234.375,2.546,2.546,0,0,0-.828.984V39H45.2V30.547ZM53.648,34.7a4.993,4.993,0,0,1,.488-2.234A3.643,3.643,0,0,1,55.5,30.93a3.7,3.7,0,0,1,1.988-.539,3.565,3.565,0,0,1,2.793,1.2,4.6,4.6,0,0,1,1.066,3.18v.1a5.036,5.036,0,0,1-.473,2.215,3.589,3.589,0,0,1-1.352,1.527,3.743,3.743,0,0,1-2.02.547,3.556,3.556,0,0,1-2.785-1.2A4.575,4.575,0,0,1,53.648,34.8Zm1.453.172a3.616,3.616,0,0,0,.652,2.258,2.211,2.211,0,0,0,3.5-.012A3.955,3.955,0,0,0,59.9,34.7a3.61,3.61,0,0,0-.66-2.254,2.1,2.1,0,0,0-1.754-.863,2.075,2.075,0,0,0-1.727.852A3.925,3.925,0,0,0,55.1,34.867Zm14.781,2.016,1.969-6.336H73.4L70,40.3q-.789,2.109-2.508,2.109l-.273-.023-.539-.1V41.117l.391.031a1.923,1.923,0,0,0,1.145-.3,2.149,2.149,0,0,0,.676-1.086l.32-.859L66.2,30.547h1.578ZM80.219,39H78.773V27h1.445Zm7.531,0a3.036,3.036,0,0,1-.2-.891,3.225,3.225,0,0,1-2.406,1.047,2.984,2.984,0,0,1-2.051-.707,2.288,2.288,0,0,1-.8-1.793,2.39,2.39,0,0,1,1-2.051,4.733,4.733,0,0,1,2.824-.73h1.406v-.664A1.623,1.623,0,0,0,87.07,32a1.821,1.821,0,0,0-1.336-.449,2.108,2.108,0,0,0-1.3.391,1.151,1.151,0,0,0-.523.945H82.461a2,2,0,0,1,.449-1.223,3.066,3.066,0,0,1,1.219-.934,4.1,4.1,0,0,1,1.691-.344,3.342,3.342,0,0,1,2.289.73,2.635,2.635,0,0,1,.859,2.012v3.891a4.757,4.757,0,0,0,.3,1.852V39Zm-2.4-1.1a2.54,2.54,0,0,0,1.289-.352,2.127,2.127,0,0,0,.883-.914V34.9H86.391q-2.656,0-2.656,1.555a1.316,1.316,0,0,0,.453,1.063A1.742,1.742,0,0,0,85.352,37.9Zm9.969-6.055a4.331,4.331,0,0,0-.711-.055A1.9,1.9,0,0,0,92.68,33v6H91.234V30.547h1.406l.023.977a2.251,2.251,0,0,1,2.016-1.133,1.477,1.477,0,0,1,.641.109Zm.836,2.859a4.968,4.968,0,0,1,.914-3.145,3.151,3.151,0,0,1,4.836-.074l.07-.937h1.32V38.8a3.439,3.439,0,0,1-.973,2.586,3.589,3.589,0,0,1-2.613.945,4.348,4.348,0,0,1-1.789-.391,3.08,3.08,0,0,1-1.336-1.07l.75-.867a2.826,2.826,0,0,0,2.273,1.148,2.214,2.214,0,0,0,1.645-.594,2.269,2.269,0,0,0,.59-1.672v-.727a2.971,2.971,0,0,1-2.367,1,2.887,2.887,0,0,1-2.4-1.2A5.224,5.224,0,0,1,96.156,34.7Zm1.453.164a3.79,3.79,0,0,0,.586,2.246,1.9,1.9,0,0,0,1.641.816,2.117,2.117,0,0,0,2.008-1.242V32.828a2.142,2.142,0,0,0-1.992-1.211,1.921,1.921,0,0,0-1.648.82A4.128,4.128,0,0,0,97.609,34.867Zm7.484-.172a4.993,4.993,0,0,1,.488-2.234,3.643,3.643,0,0,1,1.359-1.531,3.7,3.7,0,0,1,1.988-.539,3.565,3.565,0,0,1,2.793,1.2,4.6,4.6,0,0,1,1.066,3.18v.1a5.036,5.036,0,0,1-.473,2.215,3.589,3.589,0,0,1-1.352,1.527,3.743,3.743,0,0,1-2.02.547,3.556,3.556,0,0,1-2.785-1.2,4.575,4.575,0,0,1-1.066-3.164Zm1.453.172a3.616,3.616,0,0,0,.652,2.258,2.211,2.211,0,0,0,3.5-.012,3.955,3.955,0,0,0,.648-2.418,3.61,3.61,0,0,0-.66-2.254,2.1,2.1,0,0,0-1.754-.863,2.075,2.075,0,0,0-1.727.852A3.925,3.925,0,0,0,106.547,34.867Zm19.156,0a5.062,5.062,0,0,1-.883,3.109,2.829,2.829,0,0,1-2.391,1.18,3.1,3.1,0,0,1-2.422-.977v4.07h-1.445v-11.7h1.32l.07.938a2.977,2.977,0,0,1,2.453-1.094,2.882,2.882,0,0,1,2.41,1.148,5.117,5.117,0,0,1,.887,3.2Zm-1.445-.164a3.735,3.735,0,0,0-.609-2.258,1.963,1.963,0,0,0-1.672-.828,2.125,2.125,0,0,0-1.969,1.164V36.82a2.129,2.129,0,0,0,1.984,1.156,1.954,1.954,0,0,0,1.652-.824A4.077,4.077,0,0,0,124.258,34.7Zm4.852,4.3h-1.445V27h1.445Zm7.531,0a3.036,3.036,0,0,1-.2-.891,3.225,3.225,0,0,1-2.406,1.047,2.984,2.984,0,0,1-2.051-.707,2.287,2.287,0,0,1-.8-1.793,2.39,2.39,0,0,1,1-2.051,4.733,4.733,0,0,1,2.824-.73h1.406v-.664A1.623,1.623,0,0,0,135.961,32a1.821,1.821,0,0,0-1.336-.449,2.107,2.107,0,0,0-1.3.391,1.151,1.151,0,0,0-.523.945h-1.453a2,2,0,0,1,.449-1.223,3.066,3.066,0,0,1,1.219-.934,4.1,4.1,0,0,1,1.691-.344,3.342,3.342,0,0,1,2.289.73,2.635,2.635,0,0,1,.859,2.012v3.891a4.757,4.757,0,0,0,.3,1.852V39Zm-2.4-1.1a2.54,2.54,0,0,0,1.289-.352,2.127,2.127,0,0,0,.883-.914V34.9h-1.133q-2.656,0-2.656,1.555a1.316,1.316,0,0,0,.453,1.063A1.742,1.742,0,0,0,134.242,37.9Zm7.242-.078h4.945V39h-6.711V37.938l4.664-6.2h-4.594v-1.2H146.2V31.57Zm6.063-3.125a4.993,4.993,0,0,1,.488-2.234,3.642,3.642,0,0,1,1.359-1.531,3.7,3.7,0,0,1,1.988-.539,3.565,3.565,0,0,1,2.793,1.2,4.6,4.6,0,0,1,1.066,3.18v.1a5.036,5.036,0,0,1-.473,2.215,3.589,3.589,0,0,1-1.352,1.527,3.743,3.743,0,0,1-2.02.547,3.556,3.556,0,0,1-2.785-1.2,4.575,4.575,0,0,1-1.066-3.164Zm1.453.172a3.616,3.616,0,0,0,.652,2.258,2.211,2.211,0,0,0,3.5-.012A3.954,3.954,0,0,0,153.8,34.7a3.61,3.61,0,0,0-.66-2.254,2.1,2.1,0,0,0-1.754-.863,2.075,2.075,0,0,0-1.727.852A3.925,3.925,0,0,0,149,34.867Zm11.391-.406a12.085,12.085,0,0,1-.457,3.34,9.876,9.876,0,0,1-1.4,2.949,6.127,6.127,0,0,1-1.973,1.922l-.3-.883a6.281,6.281,0,0,0,1.934-2.863,12.387,12.387,0,0,0,.746-4.309v-.25a12.861,12.861,0,0,0-.344-3.051,10.3,10.3,0,0,0-.957-2.527,5.838,5.838,0,0,0-1.379-1.742l.3-.883a6.1,6.1,0,0,1,1.965,1.906,9.9,9.9,0,0,1,1.4,2.945A12.364,12.364,0,0,1,160.391,34.461Zm2.258,3.781a.905.905,0,0,1,.223-.625.848.848,0,0,1,.668-.25.874.874,0,0,1,.676.25.887.887,0,0,1,.23.625.839.839,0,0,1-.23.6.89.89,0,0,1-.676.242.8.8,0,0,1-.891-.844ZM9.688,83.391a4.185,4.185,0,0,1-1.332,2.785,4.365,4.365,0,0,1-2.98.98,4.008,4.008,0,0,1-3.23-1.445A5.815,5.815,0,0,1,.93,81.844V80.75A6.481,6.481,0,0,1,1.5,77.961,4.231,4.231,0,0,1,3.1,76.113a4.47,4.47,0,0,1,2.406-.645A4.11,4.11,0,0,1,8.414,76.48a4.235,4.235,0,0,1,1.273,2.8H8.18a3.268,3.268,0,0,0-.848-1.975A2.565,2.565,0,0,0,5.508,76.7a2.684,2.684,0,0,0-2.254,1.063,4.882,4.882,0,0,0-.816,3.026v1.1a5.018,5.018,0,0,0,.773,2.948A2.5,2.5,0,0,0,5.375,85.93a2.887,2.887,0,0,0,1.918-.566,3.143,3.143,0,0,0,.887-1.973Zm1.438-.7a4.993,4.993,0,0,1,.488-2.234,3.643,3.643,0,0,1,1.359-1.531,3.7,3.7,0,0,1,1.988-.539,3.565,3.565,0,0,1,2.793,1.2,4.6,4.6,0,0,1,1.066,3.18v.1a5.036,5.036,0,0,1-.473,2.215A3.589,3.589,0,0,1,17,86.609a3.743,3.743,0,0,1-2.02.547,3.556,3.556,0,0,1-2.785-1.2A4.575,4.575,0,0,1,11.125,82.8Zm1.453.172a3.616,3.616,0,0,0,.652,2.258,2.211,2.211,0,0,0,3.5-.012,3.955,3.955,0,0,0,.648-2.418,3.61,3.61,0,0,0-.66-2.254,2.1,2.1,0,0,0-1.754-.863,2.075,2.075,0,0,0-1.727.852A3.925,3.925,0,0,0,12.578,82.867ZM22,78.547l.047,1.063a3.08,3.08,0,0,1,2.531-1.219q2.68,0,2.7,3.023V87H25.836V81.406a1.946,1.946,0,0,0-.418-1.352,1.675,1.675,0,0,0-1.277-.437,2.086,2.086,0,0,0-1.234.375,2.546,2.546,0,0,0-.828.984V87H20.633V78.547Zm12.383,6.211a1.064,1.064,0,0,0-.441-.91,4.249,4.249,0,0,0-1.539-.559,7.277,7.277,0,0,1-1.742-.562,2.478,2.478,0,0,1-.953-.781,1.869,1.869,0,0,1-.309-1.078,2.193,2.193,0,0,1,.879-1.758,3.432,3.432,0,0,1,2.246-.719,3.532,3.532,0,0,1,2.332.742,2.357,2.357,0,0,1,.895,1.9H34.3a1.3,1.3,0,0,0-.5-1.023,1.888,1.888,0,0,0-1.27-.43,1.976,1.976,0,0,0-1.234.344,1.082,1.082,0,0,0-.445.9.877.877,0,0,0,.414.789,5.1,5.1,0,0,0,1.5.508,7.8,7.8,0,0,1,1.754.578,2.558,2.558,0,0,1,1,.809,1.988,1.988,0,0,1,.324,1.152,2.163,2.163,0,0,1-.906,1.816,3.8,3.8,0,0,1-2.352.684,4.257,4.257,0,0,1-1.8-.359,2.922,2.922,0,0,1-1.223-1,2.42,2.42,0,0,1-.441-1.395h1.445a1.5,1.5,0,0,0,.582,1.152,2.258,2.258,0,0,0,1.434.426,2.331,2.331,0,0,0,1.316-.332A1.02,1.02,0,0,0,34.383,84.758Zm6.836,2.4a3.693,3.693,0,0,1-2.8-1.129,4.19,4.19,0,0,1-1.078-3.02v-.266a5.073,5.073,0,0,1,.48-2.246,3.748,3.748,0,0,1,1.344-1.547,3.378,3.378,0,0,1,1.871-.559A3.166,3.166,0,0,1,43.6,79.477a4.7,4.7,0,0,1,.914,3.109v.6H38.789a3,3,0,0,0,.73,2.02,2.3,2.3,0,0,0,1.777.77,2.517,2.517,0,0,0,1.3-.312,3.259,3.259,0,0,0,.93-.828l.883.688A3.55,3.55,0,0,1,41.219,87.156Zm-.18-7.578a1.928,1.928,0,0,0-1.469.637A3.1,3.1,0,0,0,38.836,82H43.07v-.109a2.753,2.753,0,0,0-.594-1.707A1.815,1.815,0,0,0,41.039,79.578Zm8.539,6.4a2.082,2.082,0,0,0,1.352-.469,1.649,1.649,0,0,0,.641-1.172h1.367a2.621,2.621,0,0,1-.5,1.383,3.293,3.293,0,0,1-1.23,1.047,3.55,3.55,0,0,1-1.629.391A3.482,3.482,0,0,1,46.832,86a4.59,4.59,0,0,1-1.02-3.152v-.242a5.089,5.089,0,0,1,.453-2.2,3.451,3.451,0,0,1,1.3-1.492,3.7,3.7,0,0,1,2-.531,3.39,3.39,0,0,1,2.363.852,3.043,3.043,0,0,1,1,2.211H51.57a1.992,1.992,0,0,0-.621-1.348,1.932,1.932,0,0,0-1.379-.527,2.023,2.023,0,0,0-1.707.793,3.724,3.724,0,0,0-.605,2.293v.273a3.65,3.65,0,0,0,.6,2.25A2.033,2.033,0,0,0,49.578,85.977Zm10.2.188a3.07,3.07,0,0,1-2.477.992,2.628,2.628,0,0,1-2.059-.785,3.4,3.4,0,0,1-.715-2.324v-5.5h1.445v5.461q0,1.922,1.563,1.922a2.163,2.163,0,0,0,2.2-1.234V78.547h1.445V87H59.813Zm7.109.992a3.693,3.693,0,0,1-2.8-1.129,4.19,4.19,0,0,1-1.078-3.02v-.266A5.073,5.073,0,0,1,63.5,80.5a3.748,3.748,0,0,1,1.344-1.547,3.378,3.378,0,0,1,1.871-.559,3.166,3.166,0,0,1,2.563,1.086,4.7,4.7,0,0,1,.914,3.109v.6H64.461a3,3,0,0,0,.73,2.02,2.3,2.3,0,0,0,1.777.77,2.517,2.517,0,0,0,1.3-.312,3.259,3.259,0,0,0,.93-.828l.883.688A3.55,3.55,0,0,1,66.891,87.156Zm-.18-7.578a1.928,1.928,0,0,0-1.469.637A3.1,3.1,0,0,0,64.508,82h4.234v-.109a2.753,2.753,0,0,0-.594-1.707A1.815,1.815,0,0,0,66.711,79.578Zm6.516-1.031.047,1.063A3.08,3.08,0,0,1,75.8,78.391q2.68,0,2.7,3.023V87H77.063V81.406a1.946,1.946,0,0,0-.418-1.352,1.675,1.675,0,0,0-1.277-.437,2.086,2.086,0,0,0-1.234.375,2.546,2.546,0,0,0-.828.984V87H71.859V78.547ZM82.648,76.5v2.047h1.578v1.117H82.648v5.249a1.173,1.173,0,0,0,.211.763.888.888,0,0,0,.719.254,3.5,3.5,0,0,0,.688-.094V87a4.215,4.215,0,0,1-1.109.155A1.8,1.8,0,0,1,81.7,86.57a2.517,2.517,0,0,1-.492-1.664V79.664H79.664V78.547H81.2V76.5Zm6.773,10.656a3.693,3.693,0,0,1-2.8-1.129,4.19,4.19,0,0,1-1.078-3.02v-.266a5.073,5.073,0,0,1,.48-2.246,3.748,3.748,0,0,1,1.344-1.547,3.378,3.378,0,0,1,1.871-.559A3.166,3.166,0,0,1,91.8,79.477a4.7,4.7,0,0,1,.914,3.109v.6H86.992a3,3,0,0,0,.73,2.02,2.3,2.3,0,0,0,1.777.77,2.517,2.517,0,0,0,1.3-.312,3.259,3.259,0,0,0,.93-.828l.883.688A3.55,3.55,0,0,1,89.422,87.156Zm-.18-7.578a1.928,1.928,0,0,0-1.469.637A3.1,3.1,0,0,0,87.039,82h4.234v-.109a2.753,2.753,0,0,0-.594-1.707A1.815,1.815,0,0,0,89.242,79.578Zm12.5,6.4a2.082,2.082,0,0,0,1.352-.469,1.649,1.649,0,0,0,.641-1.172H105.1a2.621,2.621,0,0,1-.5,1.383,3.293,3.293,0,0,1-1.23,1.047,3.55,3.55,0,0,1-1.629.391A3.482,3.482,0,0,1,99,86a4.59,4.59,0,0,1-1.02-3.152v-.242a5.089,5.089,0,0,1,.453-2.2,3.451,3.451,0,0,1,1.3-1.492,3.7,3.7,0,0,1,2-.531,3.39,3.39,0,0,1,2.363.852,3.043,3.043,0,0,1,1,2.211h-1.367a1.992,1.992,0,0,0-.621-1.348,1.932,1.932,0,0,0-1.379-.527,2.023,2.023,0,0,0-1.707.793,3.724,3.724,0,0,0-.605,2.293v.273a3.65,3.65,0,0,0,.6,2.25A2.033,2.033,0,0,0,101.742,85.977Zm4.6-3.281a4.993,4.993,0,0,1,.488-2.234,3.643,3.643,0,0,1,1.359-1.531,3.7,3.7,0,0,1,1.988-.539,3.565,3.565,0,0,1,2.793,1.2,4.6,4.6,0,0,1,1.066,3.18v.1a5.036,5.036,0,0,1-.473,2.215,3.589,3.589,0,0,1-1.352,1.527,3.743,3.743,0,0,1-2.02.547,3.556,3.556,0,0,1-2.785-1.2,4.575,4.575,0,0,1-1.066-3.164Zm1.453.172a3.616,3.616,0,0,0,.652,2.258,2.211,2.211,0,0,0,3.5-.012,3.955,3.955,0,0,0,.648-2.418,3.61,3.61,0,0,0-.66-2.254,2.1,2.1,0,0,0-1.754-.863,2.075,2.075,0,0,0-1.727.852A3.925,3.925,0,0,0,107.8,82.867Zm9.422-4.32.047,1.063a3.08,3.08,0,0,1,2.531-1.219q2.68,0,2.7,3.023V87h-1.445V81.406a1.946,1.946,0,0,0-.418-1.352,1.675,1.675,0,0,0-1.277-.437,2.086,2.086,0,0,0-1.234.375,2.546,2.546,0,0,0-.828.984V87h-1.445V78.547ZM130.211,87h-1.445V75h1.445Zm7.531,0a3.036,3.036,0,0,1-.2-.891,3.225,3.225,0,0,1-2.406,1.047,2.984,2.984,0,0,1-2.051-.707,2.287,2.287,0,0,1-.8-1.793,2.39,2.39,0,0,1,1-2.051,4.733,4.733,0,0,1,2.824-.73h1.406v-.664A1.623,1.623,0,0,0,137.063,80a1.821,1.821,0,0,0-1.336-.449,2.108,2.108,0,0,0-1.3.391,1.151,1.151,0,0,0-.523.945h-1.453a2,2,0,0,1,.449-1.223,3.066,3.066,0,0,1,1.219-.934,4.1,4.1,0,0,1,1.691-.344,3.342,3.342,0,0,1,2.289.73,2.635,2.635,0,0,1,.859,2.012v3.891a4.757,4.757,0,0,0,.3,1.852V87Zm-2.4-1.1a2.54,2.54,0,0,0,1.289-.352,2.127,2.127,0,0,0,.883-.914V82.9h-1.133q-2.656,0-2.656,1.555a1.316,1.316,0,0,0,.453,1.063A1.742,1.742,0,0,0,135.344,85.9Zm11.2-7.352.039.938a3.122,3.122,0,0,1,2.508-1.094,2.417,2.417,0,0,1,2.414,1.359,3.2,3.2,0,0,1,1.1-.984,3.242,3.242,0,0,1,1.6-.375q2.781,0,2.828,2.945V87h-1.445V81.422a1.941,1.941,0,0,0-.414-1.355,1.823,1.823,0,0,0-1.391-.449,1.917,1.917,0,0,0-1.336.48,1.949,1.949,0,0,0-.617,1.293V87h-1.453V81.461a1.613,1.613,0,0,0-1.8-1.844,1.934,1.934,0,0,0-1.945,1.211V87H145.18V78.547ZM160.781,87h-1.445V78.547h1.445Zm-1.562-10.7a.863.863,0,0,1,.215-.594.807.807,0,0,1,.637-.242.819.819,0,0,1,.641.242.854.854,0,0,1,.219.594.826.826,0,0,1-.219.586.834.834,0,0,1-.641.234.821.821,0,0,1-.637-.234A.834.834,0,0,1,159.219,76.3Zm8.8,8.453a1.064,1.064,0,0,0-.441-.91,4.249,4.249,0,0,0-1.539-.559,7.277,7.277,0,0,1-1.742-.562,2.479,2.479,0,0,1-.953-.781,1.869,1.869,0,0,1-.309-1.078,2.193,2.193,0,0,1,.879-1.758,3.432,3.432,0,0,1,2.246-.719,3.532,3.532,0,0,1,2.332.742,2.357,2.357,0,0,1,.895,1.9H167.93a1.3,1.3,0,0,0-.5-1.023,1.888,1.888,0,0,0-1.27-.43,1.976,1.976,0,0,0-1.234.344,1.082,1.082,0,0,0-.445.9.877.877,0,0,0,.414.789,5.1,5.1,0,0,0,1.5.508,7.8,7.8,0,0,1,1.754.578,2.558,2.558,0,0,1,1,.809,1.988,1.988,0,0,1,.324,1.152,2.163,2.163,0,0,1-.906,1.816,3.8,3.8,0,0,1-2.352.684,4.257,4.257,0,0,1-1.8-.359,2.922,2.922,0,0,1-1.223-1,2.42,2.42,0,0,1-.441-1.395h1.445a1.5,1.5,0,0,0,.582,1.152,2.258,2.258,0,0,0,1.434.426,2.331,2.331,0,0,0,1.316-.332A1.02,1.02,0,0,0,168.016,84.758Zm4.9,2.242h-1.445V78.547h1.445Zm-1.562-10.7a.863.863,0,0,1,.215-.594.807.807,0,0,1,.637-.242.819.819,0,0,1,.641.242.854.854,0,0,1,.219.594.826.826,0,0,1-.219.586.834.834,0,0,1-.641.234.821.821,0,0,1-.637-.234A.834.834,0,0,1,171.352,76.3Zm3.492,6.391a4.993,4.993,0,0,1,.488-2.234,3.642,3.642,0,0,1,1.359-1.531,3.7,3.7,0,0,1,1.988-.539,3.565,3.565,0,0,1,2.793,1.2,4.6,4.6,0,0,1,1.066,3.18v.1a5.036,5.036,0,0,1-.473,2.215,3.589,3.589,0,0,1-1.352,1.527,3.743,3.743,0,0,1-2.02.547,3.556,3.556,0,0,1-2.785-1.2,4.575,4.575,0,0,1-1.066-3.164Zm1.453.172a3.616,3.616,0,0,0,.652,2.258,2.211,2.211,0,0,0,3.5-.012,3.954,3.954,0,0,0,.648-2.418,3.61,3.61,0,0,0-.66-2.254,2.1,2.1,0,0,0-1.754-.863,2.075,2.075,0,0,0-1.727.852A3.925,3.925,0,0,0,176.3,82.867Zm3.039-7.852h1.75l-2.094,2.3-1.164,0Zm6.383,3.531.047,1.063a3.08,3.08,0,0,1,2.531-1.219q2.68,0,2.7,3.023V87h-1.445V81.406a1.946,1.946,0,0,0-.418-1.352,1.675,1.675,0,0,0-1.277-.437,2.086,2.086,0,0,0-1.234.375,2.546,2.546,0,0,0-.828.984V87h-1.445V78.547Zm7.414,10.719-.82-.562a3.77,3.77,0,0,0,.766-2.109v-1.3h1.414v1.133A3.559,3.559,0,0,1,194.105,88,3.7,3.7,0,0,1,193.133,89.266ZM1.32,135V123.625H4.531a5.169,5.169,0,0,1,2.625.656,4.438,4.438,0,0,1,1.762,1.867,6.078,6.078,0,0,1,.629,2.781v.727a6.1,6.1,0,0,1-.621,2.82,4.369,4.369,0,0,1-1.773,1.859A5.5,5.5,0,0,1,4.469,135Zm1.5-10.148v8.922H4.4a3.434,3.434,0,0,0,2.7-1.079,4.458,4.458,0,0,0,.965-3.073v-.665a4.529,4.529,0,0,0-.91-3.014,3.239,3.239,0,0,0-2.582-1.091ZM13.156,135H11.711v-8.453h1.445Zm-1.562-10.7a.863.863,0,0,1,.215-.594.807.807,0,0,1,.637-.242.819.819,0,0,1,.641.242.854.854,0,0,1,.219.594.826.826,0,0,1-.219.586.834.834,0,0,1-.641.234.821.821,0,0,1-.637-.234A.834.834,0,0,1,11.594,124.3Zm7.961,3.539a4.331,4.331,0,0,0-.711-.055A1.9,1.9,0,0,0,16.914,129v6H15.469v-8.453h1.406l.023.977a2.251,2.251,0,0,1,2.016-1.133,1.477,1.477,0,0,1,.641.109Zm2.9,7.156H21.008v-8.453h1.445Zm-1.562-10.7a.863.863,0,0,1,.215-.594.807.807,0,0,1,.637-.242.819.819,0,0,1,.641.242.854.854,0,0,1,.219.594.826.826,0,0,1-.219.586.834.834,0,0,1-.641.234.821.821,0,0,1-.637-.234A.834.834,0,0,1,20.891,124.3Zm3.531,6.4a4.968,4.968,0,0,1,.914-3.145,3.151,3.151,0,0,1,4.836-.074l.07-.937h1.32v8.25a3.439,3.439,0,0,1-.973,2.586,3.589,3.589,0,0,1-2.613.945,4.348,4.348,0,0,1-1.789-.391,3.08,3.08,0,0,1-1.336-1.07L25.6,136a2.826,2.826,0,0,0,2.273,1.148,2.214,2.214,0,0,0,1.645-.594,2.269,2.269,0,0,0,.59-1.672v-.727a2.971,2.971,0,0,1-2.367,1,2.887,2.887,0,0,1-2.4-1.2A5.224,5.224,0,0,1,24.422,130.7Zm1.453.164a3.79,3.79,0,0,0,.586,2.246,1.9,1.9,0,0,0,1.641.816,2.117,2.117,0,0,0,2.008-1.242v-3.859a2.142,2.142,0,0,0-1.992-1.211,1.921,1.921,0,0,0-1.648.82A4.128,4.128,0,0,0,25.875,130.867ZM35.313,135H33.867v-8.453h1.445ZM33.75,124.3a.863.863,0,0,1,.215-.594.807.807,0,0,1,.637-.242.819.819,0,0,1,.641.242.854.854,0,0,1,.219.594.826.826,0,0,1-.219.586.834.834,0,0,1-.641.234.821.821,0,0,1-.637-.234A.834.834,0,0,1,33.75,124.3Zm3.523,6.4a4.952,4.952,0,0,1,.922-3.129,3.137,3.137,0,0,1,4.766-.168V123h1.445v12H43.078l-.07-.906a2.943,2.943,0,0,1-2.414,1.063,2.887,2.887,0,0,1-2.395-1.2,5.008,5.008,0,0,1-.926-3.141Zm1.445.164a3.749,3.749,0,0,0,.594,2.25,1.919,1.919,0,0,0,1.641.813,2.108,2.108,0,0,0,2.008-1.234v-3.883a2.125,2.125,0,0,0-1.992-1.2,1.929,1.929,0,0,0-1.656.82A4.128,4.128,0,0,0,38.719,130.867ZM51.867,135a3.036,3.036,0,0,1-.2-.891,3.225,3.225,0,0,1-2.406,1.047,2.984,2.984,0,0,1-2.051-.707,2.288,2.288,0,0,1-.8-1.793,2.39,2.39,0,0,1,1-2.051,4.733,4.733,0,0,1,2.824-.73h1.406v-.664A1.623,1.623,0,0,0,51.188,128a1.821,1.821,0,0,0-1.336-.449,2.108,2.108,0,0,0-1.3.391,1.151,1.151,0,0,0-.523.945H46.578a2,2,0,0,1,.449-1.223,3.066,3.066,0,0,1,1.219-.934,4.1,4.1,0,0,1,1.691-.344,3.342,3.342,0,0,1,2.289.73,2.635,2.635,0,0,1,.859,2.012v3.891a4.757,4.757,0,0,0,.3,1.852V135Zm-2.4-1.1a2.54,2.54,0,0,0,1.289-.352,2.127,2.127,0,0,0,.883-.914V130.9H50.508q-2.656,0-2.656,1.555a1.316,1.316,0,0,0,.453,1.063A1.742,1.742,0,0,0,49.469,133.9ZM64.531,135a3.036,3.036,0,0,1-.2-.891,3.225,3.225,0,0,1-2.406,1.047,2.984,2.984,0,0,1-2.051-.707,2.288,2.288,0,0,1-.8-1.793,2.39,2.39,0,0,1,1-2.051,4.733,4.733,0,0,1,2.824-.73H64.3v-.664A1.623,1.623,0,0,0,63.852,128a1.821,1.821,0,0,0-1.336-.449,2.108,2.108,0,0,0-1.3.391,1.151,1.151,0,0,0-.523.945H59.242a2,2,0,0,1,.449-1.223,3.066,3.066,0,0,1,1.219-.934,4.1,4.1,0,0,1,1.691-.344,3.342,3.342,0,0,1,2.289.73,2.635,2.635,0,0,1,.859,2.012v3.891a4.757,4.757,0,0,0,.3,1.852V135Zm-2.4-1.1a2.54,2.54,0,0,0,1.289-.352,2.127,2.127,0,0,0,.883-.914V130.9H63.172q-2.656,0-2.656,1.555a1.316,1.316,0,0,0,.453,1.063A1.742,1.742,0,0,0,62.133,133.9Zm7.453,1.1H68.141V123h1.445Zm7.633-8.453.039.938a3.122,3.122,0,0,1,2.508-1.094,2.417,2.417,0,0,1,2.414,1.359,3.2,3.2,0,0,1,1.1-.984,3.242,3.242,0,0,1,1.6-.375q2.781,0,2.828,2.945V135H86.258v-5.578a1.941,1.941,0,0,0-.414-1.355,1.823,1.823,0,0,0-1.391-.449,1.916,1.916,0,0,0-1.336.48,1.949,1.949,0,0,0-.617,1.293V135H81.047v-5.539a1.613,1.613,0,0,0-1.8-1.844,1.934,1.934,0,0,0-1.945,1.211V135H75.852v-8.453Zm16.172,8.609a3.693,3.693,0,0,1-2.8-1.129,4.19,4.19,0,0,1-1.078-3.02v-.266A5.073,5.073,0,0,1,90,128.5a3.748,3.748,0,0,1,1.344-1.547,3.378,3.378,0,0,1,1.871-.559,3.166,3.166,0,0,1,2.563,1.086,4.7,4.7,0,0,1,.914,3.109v.6H90.961a3,3,0,0,0,.73,2.02,2.3,2.3,0,0,0,1.777.77,2.517,2.517,0,0,0,1.3-.312,3.258,3.258,0,0,0,.93-.828l.883.688A3.55,3.55,0,0,1,93.391,135.156Zm-.18-7.578a1.928,1.928,0,0,0-1.469.637A3.1,3.1,0,0,0,91.008,130h4.234v-.109a2.753,2.753,0,0,0-.594-1.707A1.815,1.815,0,0,0,93.211,127.578Zm9.234.266a4.331,4.331,0,0,0-.711-.055A1.9,1.9,0,0,0,99.8,129v6H98.359v-8.453h1.406l.023.977a2.251,2.251,0,0,1,2.016-1.133,1.477,1.477,0,0,1,.641.109Zm4.57,6.133a2.082,2.082,0,0,0,1.352-.469,1.649,1.649,0,0,0,.641-1.172h1.367a2.621,2.621,0,0,1-.5,1.383,3.293,3.293,0,0,1-1.23,1.047,3.55,3.55,0,0,1-1.629.391A3.482,3.482,0,0,1,104.27,134a4.59,4.59,0,0,1-1.02-3.152v-.242a5.089,5.089,0,0,1,.453-2.2,3.451,3.451,0,0,1,1.3-1.492,3.7,3.7,0,0,1,2-.531,3.39,3.39,0,0,1,2.363.852,3.043,3.043,0,0,1,1,2.211h-1.367a1.992,1.992,0,0,0-.621-1.348,1.932,1.932,0,0,0-1.379-.527,2.023,2.023,0,0,0-1.707.793,3.724,3.724,0,0,0-.605,2.293v.273a3.65,3.65,0,0,0,.6,2.25A2.033,2.033,0,0,0,107.016,133.977Zm10.2,1.023a3.036,3.036,0,0,1-.2-.891,3.225,3.225,0,0,1-2.406,1.047,2.984,2.984,0,0,1-2.051-.707,2.288,2.288,0,0,1-.8-1.793,2.39,2.39,0,0,1,1-2.051,4.733,4.733,0,0,1,2.824-.73h1.406v-.664a1.623,1.623,0,0,0-.453-1.207,1.821,1.821,0,0,0-1.336-.449,2.108,2.108,0,0,0-1.3.391,1.151,1.151,0,0,0-.523.945H111.93a2,2,0,0,1,.449-1.223,3.066,3.066,0,0,1,1.219-.934,4.1,4.1,0,0,1,1.691-.344,3.342,3.342,0,0,1,2.289.73,2.635,2.635,0,0,1,.859,2.012v3.891a4.757,4.757,0,0,0,.3,1.852V135Zm-2.4-1.1a2.54,2.54,0,0,0,1.289-.352,2.127,2.127,0,0,0,.883-.914V130.9h-1.133q-2.656,0-2.656,1.555a1.316,1.316,0,0,0,.453,1.063A1.742,1.742,0,0,0,114.82,133.9Zm5.531-3.2a4.952,4.952,0,0,1,.922-3.129,3.137,3.137,0,0,1,4.766-.168V123h1.445v12h-1.328l-.07-.906a2.943,2.943,0,0,1-2.414,1.063,2.887,2.887,0,0,1-2.395-1.2,5.008,5.008,0,0,1-.926-3.141Zm1.445.164a3.749,3.749,0,0,0,.594,2.25,1.919,1.919,0,0,0,1.641.813,2.108,2.108,0,0,0,2.008-1.234v-3.883a2.125,2.125,0,0,0-1.992-1.2,1.929,1.929,0,0,0-1.656.82A4.128,4.128,0,0,0,121.8,130.867Zm7.547-.172a4.993,4.993,0,0,1,.488-2.234,3.642,3.642,0,0,1,1.359-1.531,3.7,3.7,0,0,1,1.988-.539,3.565,3.565,0,0,1,2.793,1.2,4.6,4.6,0,0,1,1.066,3.18v.1a5.036,5.036,0,0,1-.473,2.215,3.589,3.589,0,0,1-1.352,1.527,3.743,3.743,0,0,1-2.02.547,3.556,3.556,0,0,1-2.785-1.2,4.575,4.575,0,0,1-1.066-3.164Zm1.453.172a3.616,3.616,0,0,0,.652,2.258,2.211,2.211,0,0,0,3.5-.012,3.954,3.954,0,0,0,.648-2.418,3.61,3.61,0,0,0-.66-2.254,2.1,2.1,0,0,0-1.754-.863,2.075,2.075,0,0,0-1.727.852A3.925,3.925,0,0,0,130.8,130.867Zm11.633-.172a4.993,4.993,0,0,1,.488-2.234,3.642,3.642,0,0,1,1.359-1.531,3.7,3.7,0,0,1,1.988-.539,3.565,3.565,0,0,1,2.793,1.2,4.6,4.6,0,0,1,1.066,3.18v.1a5.036,5.036,0,0,1-.473,2.215,3.589,3.589,0,0,1-1.352,1.527,3.743,3.743,0,0,1-2.02.547,3.556,3.556,0,0,1-2.785-1.2,4.575,4.575,0,0,1-1.066-3.164Zm1.453.172a3.616,3.616,0,0,0,.652,2.258,2.211,2.211,0,0,0,3.5-.012,3.954,3.954,0,0,0,.648-2.418,3.61,3.61,0,0,0-.66-2.254,2.1,2.1,0,0,0-1.754-.863,2.075,2.075,0,0,0-1.727.852A3.925,3.925,0,0,0,143.883,130.867Zm15.211,0a5.026,5.026,0,0,1-.891,3.113,2.846,2.846,0,0,1-2.391,1.176,2.947,2.947,0,0,1-2.477-1.133l-.07.977h-1.328V123h1.445v4.477a2.93,2.93,0,0,1,2.414-1.086,2.863,2.863,0,0,1,2.418,1.164,5.177,5.177,0,0,1,.879,3.188Zm-1.445-.164a3.906,3.906,0,0,0-.57-2.281,1.888,1.888,0,0,0-1.641-.8,2.122,2.122,0,0,0-2.055,1.328V132.6a2.181,2.181,0,0,0,2.07,1.328,1.878,1.878,0,0,0,1.617-.8A4.153,4.153,0,0,0,157.648,130.7Zm4.758-4.156v9.43q0,2.438-2.211,2.438a2.7,2.7,0,0,1-.883-.14v-1.149a2.794,2.794,0,0,0,.656.063.982.982,0,0,0,.738-.262,1.3,1.3,0,0,0,.254-.911v-9.468Zm-1.594-2.242a.867.867,0,0,1,.215-.59.79.79,0,0,1,.629-.246.819.819,0,0,1,.641.242.854.854,0,0,1,.219.594.826.826,0,0,1-.219.586.834.834,0,0,1-.641.234.808.808,0,0,1-.633-.234A.843.843,0,0,1,160.813,124.3Zm7.43,10.852a3.693,3.693,0,0,1-2.8-1.129,4.19,4.19,0,0,1-1.078-3.02v-.266a5.073,5.073,0,0,1,.48-2.246,3.748,3.748,0,0,1,1.344-1.547,3.378,3.378,0,0,1,1.871-.559,3.166,3.166,0,0,1,2.563,1.086,4.7,4.7,0,0,1,.914,3.109v.6h-5.727a3,3,0,0,0,.73,2.02,2.3,2.3,0,0,0,1.777.77,2.517,2.517,0,0,0,1.3-.312,3.258,3.258,0,0,0,.93-.828l.883.688A3.55,3.55,0,0,1,168.242,135.156Zm-.18-7.578a1.928,1.928,0,0,0-1.469.637,3.1,3.1,0,0,0-.734,1.785h4.234v-.109a2.753,2.753,0,0,0-.594-1.707A1.815,1.815,0,0,0,168.063,127.578Zm7.109-3.078v2.047h1.578v1.117h-1.578v5.249a1.173,1.173,0,0,0,.211.763.888.888,0,0,0,.719.254,3.5,3.5,0,0,0,.688-.094V135a4.215,4.215,0,0,1-1.109.155,1.8,1.8,0,0,1-1.461-.586,2.517,2.517,0,0,1-.492-1.664v-5.242h-1.539v-1.117h1.539V124.5Zm4.836,10.5h-1.445v-8.453h1.445Zm-1.562-10.7a.863.863,0,0,1,.215-.594.807.807,0,0,1,.637-.242.819.819,0,0,1,.641.242.854.854,0,0,1,.219.594.826.826,0,0,1-.219.586.834.834,0,0,1-.641.234.821.821,0,0,1-.637-.234A.834.834,0,0,1,178.445,124.3Zm6.664,8.734,2.094-6.492h1.477L185.648,135h-1.1l-3.062-8.453h1.477Zm4.461-2.344a4.993,4.993,0,0,1,.488-2.234,3.642,3.642,0,0,1,1.359-1.531,3.7,3.7,0,0,1,1.988-.539,3.565,3.565,0,0,1,2.793,1.2,4.6,4.6,0,0,1,1.066,3.18v.1a5.036,5.036,0,0,1-.473,2.215,3.589,3.589,0,0,1-1.352,1.527,3.743,3.743,0,0,1-2.02.547,3.556,3.556,0,0,1-2.785-1.2,4.575,4.575,0,0,1-1.066-3.164Zm1.453.172a3.616,3.616,0,0,0,.652,2.258,2.211,2.211,0,0,0,3.5-.012,3.954,3.954,0,0,0,.648-2.418,3.61,3.61,0,0,0-.66-2.254,2.1,2.1,0,0,0-1.754-.863,2.075,2.075,0,0,0-1.727.852A3.925,3.925,0,0,0,191.023,130.867Zm8.086,3.375a.905.905,0,0,1,.223-.625.848.848,0,0,1,.668-.25.874.874,0,0,1,.676.25.887.887,0,0,1,.23.625.839.839,0,0,1-.23.6.89.89,0,0,1-.676.242.8.8,0,0,1-.891-.844ZM5.492,178.4H2.82V183H1.313V171.625H5.078a4.457,4.457,0,0,1,2.957.875,3.148,3.148,0,0,1,1.035,2.547A3.062,3.062,0,0,1,8.5,176.9a3.428,3.428,0,0,1-1.6,1.18l2.672,4.828V183H7.961ZM2.82,177.172h2.3a2.6,2.6,0,0,0,1.777-.579,1.959,1.959,0,0,0,.66-1.55,2.062,2.062,0,0,0-.629-1.62,2.663,2.663,0,0,0-1.816-.571H2.82Zm11.633,5.984a3.693,3.693,0,0,1-2.8-1.129,4.19,4.19,0,0,1-1.078-3.02v-.266a5.073,5.073,0,0,1,.48-2.246,3.748,3.748,0,0,1,1.344-1.547,3.379,3.379,0,0,1,1.871-.559,3.166,3.166,0,0,1,2.563,1.086,4.7,4.7,0,0,1,.914,3.109v.6H12.023a3,3,0,0,0,.73,2.02,2.3,2.3,0,0,0,1.777.77,2.517,2.517,0,0,0,1.3-.312,3.258,3.258,0,0,0,.93-.828l.883.688A3.55,3.55,0,0,1,14.453,183.156Zm-.18-7.578a1.928,1.928,0,0,0-1.469.637A3.1,3.1,0,0,0,12.07,178H16.3v-.109a2.753,2.753,0,0,0-.594-1.707A1.815,1.815,0,0,0,14.273,175.578ZM24.641,183a3.036,3.036,0,0,1-.2-.891,3.225,3.225,0,0,1-2.406,1.047,2.984,2.984,0,0,1-2.051-.707,2.288,2.288,0,0,1-.8-1.793,2.39,2.39,0,0,1,1-2.051,4.733,4.733,0,0,1,2.824-.73h1.406v-.664A1.623,1.623,0,0,0,23.961,176a1.821,1.821,0,0,0-1.336-.449,2.107,2.107,0,0,0-1.3.391,1.151,1.151,0,0,0-.523.945H19.352a2,2,0,0,1,.449-1.223,3.066,3.066,0,0,1,1.219-.934,4.1,4.1,0,0,1,1.691-.344,3.342,3.342,0,0,1,2.289.73,2.635,2.635,0,0,1,.859,2.012v3.891a4.757,4.757,0,0,0,.3,1.852V183Zm-2.4-1.1a2.54,2.54,0,0,0,1.289-.352,2.127,2.127,0,0,0,.883-.914V178.9H23.281q-2.656,0-2.656,1.555a1.316,1.316,0,0,0,.453,1.063A1.742,1.742,0,0,0,22.242,181.9ZM29.7,183H28.25V171H29.7Zm3.883,0H32.133v-8.453h1.445Zm-1.562-10.7a.863.863,0,0,1,.215-.594.807.807,0,0,1,.637-.242.819.819,0,0,1,.641.242.854.854,0,0,1,.219.594.826.826,0,0,1-.219.586.834.834,0,0,1-.641.234.821.821,0,0,1-.637-.234A.834.834,0,0,1,32.016,172.3Zm8.8,8.453a1.064,1.064,0,0,0-.441-.91,4.249,4.249,0,0,0-1.539-.559,7.277,7.277,0,0,1-1.742-.562,2.479,2.479,0,0,1-.953-.781,1.869,1.869,0,0,1-.309-1.078,2.193,2.193,0,0,1,.879-1.758,3.432,3.432,0,0,1,2.246-.719,3.532,3.532,0,0,1,2.332.742,2.357,2.357,0,0,1,.895,1.9H40.727a1.3,1.3,0,0,0-.5-1.023,1.888,1.888,0,0,0-1.27-.43,1.976,1.976,0,0,0-1.234.344,1.082,1.082,0,0,0-.445.9.877.877,0,0,0,.414.789,5.1,5.1,0,0,0,1.5.508,7.8,7.8,0,0,1,1.754.578,2.558,2.558,0,0,1,1,.809,1.988,1.988,0,0,1,.324,1.152,2.163,2.163,0,0,1-.906,1.816,3.8,3.8,0,0,1-2.352.684,4.257,4.257,0,0,1-1.8-.359,2.922,2.922,0,0,1-1.223-1,2.42,2.42,0,0,1-.441-1.395h1.445a1.5,1.5,0,0,0,.582,1.152,2.258,2.258,0,0,0,1.434.426,2.331,2.331,0,0,0,1.316-.332A1.02,1.02,0,0,0,40.813,180.758ZM46.1,172.5v2.047H47.68v1.117H46.1v5.249a1.173,1.173,0,0,0,.211.763.888.888,0,0,0,.719.254,3.5,3.5,0,0,0,.688-.094V183a4.215,4.215,0,0,1-1.109.155,1.8,1.8,0,0,1-1.461-.586,2.517,2.517,0,0,1-.492-1.664v-5.242H43.117v-1.117h1.539V172.5ZM54.586,183a3.036,3.036,0,0,1-.2-.891,3.225,3.225,0,0,1-2.406,1.047,2.984,2.984,0,0,1-2.051-.707,2.288,2.288,0,0,1-.8-1.793,2.39,2.39,0,0,1,1-2.051,4.733,4.733,0,0,1,2.824-.73h1.406v-.664A1.623,1.623,0,0,0,53.906,176a1.821,1.821,0,0,0-1.336-.449,2.107,2.107,0,0,0-1.3.391,1.151,1.151,0,0,0-.523.945H49.3a2,2,0,0,1,.449-1.223,3.066,3.066,0,0,1,1.219-.934,4.1,4.1,0,0,1,1.691-.344,3.342,3.342,0,0,1,2.289.73,2.635,2.635,0,0,1,.859,2.012v3.891a4.757,4.757,0,0,0,.3,1.852V183Zm-2.4-1.1a2.54,2.54,0,0,0,1.289-.352,2.127,2.127,0,0,0,.883-.914V178.9H53.227q-2.656,0-2.656,1.555a1.316,1.316,0,0,0,.453,1.063A1.742,1.742,0,0,0,52.188,181.9Zm5.914.344a.905.905,0,0,1,.223-.625.848.848,0,0,1,.668-.25.874.874,0,0,1,.676.25.887.887,0,0,1,.23.625.839.839,0,0,1-.23.6.89.89,0,0,1-.676.242.8.8,0,0,1-.891-.844Z" transform="translate(788.849 2711)" fill="#12263f"/>
    <path id="Trazado_148262" data-name="Trazado 148262" d="M12.81,12.848a6.627,6.627,0,0,1-.3,2.251,3.362,3.362,0,0,1-1,1.382l-.645.6a2.547,2.547,0,0,0-.908,1.816,1.357,1.357,0,0,0,.327,1.011,1.162,1.162,0,0,0,.845.317,1.29,1.29,0,0,0,1.021-.415,1.794,1.794,0,0,0,.386-1.177h3.311A4,4,0,0,1,14.6,21.676a4.9,4.9,0,0,1-3.394,1.084,5.039,5.039,0,0,1-3.364-1.011,3.547,3.547,0,0,1-1.187-2.856,3.281,3.281,0,0,1,.371-1.528A6.061,6.061,0,0,1,8.3,15.807l.83-.762a2.243,2.243,0,0,0,.84-1.494l.049-.7ZM11.5,11.529a1.892,1.892,0,0,1-1.3-.464,1.609,1.609,0,0,1,0-2.373,1.892,1.892,0,0,1,1.3-.464,1.86,1.86,0,0,1,1.313.474,1.607,1.607,0,0,1,0,2.354A1.86,1.86,0,0,1,11.5,11.529Zm17.207,2.656a5.193,5.193,0,0,1-.8,2.622,4.833,4.833,0,0,1-2.056,1.763,7,7,0,0,1-3.022.625,5.584,5.584,0,0,1-4.414-1.826A7.54,7.54,0,0,1,16.8,12.213v-.7a8.607,8.607,0,0,1,.728-3.657,5.513,5.513,0,0,1,2.095-2.422,5.844,5.844,0,0,1,3.164-.854,6.129,6.129,0,0,1,4.16,1.362,5.383,5.383,0,0,1,1.787,3.755H25.319a2.547,2.547,0,0,0-.654-1.865,2.691,2.691,0,0,0-1.875-.566,2.048,2.048,0,0,0-1.875.957,6.151,6.151,0,0,0-.625,3.057v1.006a6.806,6.806,0,0,0,.571,3.252,2.091,2.091,0,0,0,1.968.977,2.632,2.632,0,0,0,1.807-.557,2.363,2.363,0,0,0,.664-1.768Zm1.055-.566a6.236,6.236,0,0,1,.615-2.817,4.4,4.4,0,0,1,1.768-1.9,5.323,5.323,0,0,1,2.705-.664,4.858,4.858,0,0,1,3.74,1.47,5.64,5.64,0,0,1,1.367,4v.117a5.472,5.472,0,0,1-1.372,3.921A4.871,4.871,0,0,1,34.87,19.2a4.927,4.927,0,0,1-3.623-1.353,5.29,5.29,0,0,1-1.475-3.667Zm3.291.205a3.932,3.932,0,0,0,.459,2.148,1.529,1.529,0,0,0,1.357.684q1.758,0,1.8-2.705v-.332q0-2.842-1.816-2.842-1.65,0-1.787,2.451ZM35.3,4h3.477L36.062,7.066l-2.686,0Zm9.219,4.434.107,1.24a3.633,3.633,0,0,1,3.018-1.436A2.675,2.675,0,0,1,50.349,9.83a3.516,3.516,0,0,1,3.105-1.592q3.213,0,3.3,3.887V19h-3.3V12.33a2.014,2.014,0,0,0-.273-1.182,1.164,1.164,0,0,0-1-.371,1.559,1.559,0,0,0-1.455.869l.01.137V19h-3.3V12.35a2.117,2.117,0,0,0-.264-1.2,1.161,1.161,0,0,0-1.006-.371,1.578,1.578,0,0,0-1.445.869V19H41.433V8.434Zm13.7,5.186a6.236,6.236,0,0,1,.615-2.817A4.4,4.4,0,0,1,60.6,8.9a5.323,5.323,0,0,1,2.705-.664,4.858,4.858,0,0,1,3.74,1.47,5.64,5.64,0,0,1,1.367,4v.117a5.472,5.472,0,0,1-1.372,3.921,4.871,4.871,0,0,1-3.716,1.45A4.927,4.927,0,0,1,59.7,17.843a5.29,5.29,0,0,1-1.475-3.667Zm3.291.205a3.932,3.932,0,0,0,.459,2.148,1.529,1.529,0,0,0,1.357.684q1.758,0,1.8-2.705v-.332q0-2.842-1.816-2.842-1.65,0-1.787,2.451Zm18.867,2.207a.76.76,0,0,0-.439-.674,6.685,6.685,0,0,0-1.67-.527,7.615,7.615,0,0,1-2.031-.718,3.4,3.4,0,0,1-1.221-1.079,2.577,2.577,0,0,1-.42-1.455,2.92,2.92,0,0,1,1.2-2.4,4.948,4.948,0,0,1,3.145-.942,5.482,5.482,0,0,1,3.359.947,2.962,2.962,0,0,1,1.27,2.49h-3.3q0-1.27-1.338-1.27a1.326,1.326,0,0,0-.869.288.892.892,0,0,0-.352.718.819.819,0,0,0,.43.713,4.06,4.06,0,0,0,1.372.449,11.857,11.857,0,0,1,1.655.42,3.007,3.007,0,0,1,2.383,2.939,2.767,2.767,0,0,1-1.284,2.354,5.631,5.631,0,0,1-3.325.908,5.747,5.747,0,0,1-2.422-.488,4.05,4.05,0,0,1-1.66-1.328,3.007,3.007,0,0,1-.6-1.768h3.076a1.272,1.272,0,0,0,.488,1.069,2.009,2.009,0,0,0,1.2.337,1.58,1.58,0,0,0,1.011-.273A.875.875,0,0,0,80.378,16.031ZM90.2,19.2a5.432,5.432,0,0,1-3.936-1.45,5.008,5.008,0,0,1-1.5-3.774V13.7a6.489,6.489,0,0,1,.6-2.861,4.395,4.395,0,0,1,1.753-1.919,5.292,5.292,0,0,1,2.734-.679A4.574,4.574,0,0,1,93.366,9.62a5.43,5.43,0,0,1,1.289,3.853v1.279H88.112a2.372,2.372,0,0,0,.771,1.4,2.3,2.3,0,0,0,1.543.508,2.958,2.958,0,0,0,2.441-1.094l1.5,1.777a4.2,4.2,0,0,1-1.743,1.353A5.891,5.891,0,0,1,90.2,19.2Zm-.371-8.418q-1.445,0-1.719,1.914h3.32v-.254a1.63,1.63,0,0,0-.4-1.226A1.593,1.593,0,0,0,89.831,10.777ZM11.721,46V37.719H10.188V35.434h1.533v-.84a3.651,3.651,0,0,1,1.064-2.8,4.206,4.206,0,0,1,2.988-1A6.544,6.544,0,0,1,17.316,31l.01,2.422a3.007,3.007,0,0,0-.811-.088q-1.494,0-1.494,1.289v.811h2.061v2.285H15.021V46Zm6.1-5.381a6.236,6.236,0,0,1,.615-2.817,4.4,4.4,0,0,1,1.768-1.9,5.323,5.323,0,0,1,2.705-.664,4.858,4.858,0,0,1,3.74,1.47,5.64,5.64,0,0,1,1.367,4v.117a5.472,5.472,0,0,1-1.372,3.921,4.871,4.871,0,0,1-3.716,1.45,4.927,4.927,0,0,1-3.623-1.353,5.29,5.29,0,0,1-1.475-3.667Zm3.291.205a3.932,3.932,0,0,0,.459,2.148,1.529,1.529,0,0,0,1.357.684q1.758,0,1.8-2.705v-.332q0-2.842-1.816-2.842-1.65,0-1.787,2.451Zm14.746-2.412-1.084-.078a1.947,1.947,0,0,0-1.992.977V46H29.494V35.434H32.58l.107,1.357A2.548,2.548,0,0,1,35,35.238a3.209,3.209,0,0,1,.918.117Zm4.3-2.979.107,1.24a3.633,3.633,0,0,1,3.018-1.436,2.675,2.675,0,0,1,2.705,1.592,3.516,3.516,0,0,1,3.105-1.592q3.213,0,3.3,3.887V46h-3.3V39.33a2.014,2.014,0,0,0-.273-1.182,1.164,1.164,0,0,0-1-.371,1.559,1.559,0,0,0-1.455.869l.01.137V46h-3.3V39.35a2.117,2.117,0,0,0-.264-1.2,1.161,1.161,0,0,0-1.006-.371,1.578,1.578,0,0,0-1.445.869V46H37.072V35.434Zm20.41,9.424A3.393,3.393,0,0,1,57.746,46.2a3.328,3.328,0,0,1-2.632-1.011,4.251,4.251,0,0,1-.894-2.905V35.434h3.291V42.3a1.183,1.183,0,0,0,1.318,1.357,1.72,1.72,0,0,0,1.611-.811V35.434h3.311V46H60.666ZM69.025,46h-3.3V31h3.3ZM77,46a3.716,3.716,0,0,1-.312-.947A3.06,3.06,0,0,1,74.152,46.2a3.749,3.749,0,0,1-2.539-.9,2.875,2.875,0,0,1-1.045-2.271,2.955,2.955,0,0,1,1.27-2.6,6.468,6.468,0,0,1,3.691-.879h1.016v-.559q0-1.462-1.26-1.462a1.03,1.03,0,0,0-1.172,1.158H70.822a2.95,2.95,0,0,1,1.3-2.487,5.479,5.479,0,0,1,3.325-.956,4.8,4.8,0,0,1,3.193.986,3.429,3.429,0,0,1,1.2,2.705v4.678a4.79,4.79,0,0,0,.449,2.227V46Zm-2.061-2.148a1.836,1.836,0,0,0,1.021-.264,1.653,1.653,0,0,0,.581-.6V41.3h-.957q-1.719,0-1.719,1.543a.942.942,0,0,0,.3.728A1.1,1.1,0,0,0,74.943,43.852ZM84.1,41.5a6.356,6.356,0,0,1,.322-2.251,3.521,3.521,0,0,1,1.045-1.431,6.947,6.947,0,0,0,1.1-1.108,1.809,1.809,0,0,0,.376-1.108q0-1.475-1.27-1.475a1.178,1.178,0,0,0-.947.43,1.828,1.828,0,0,0-.381,1.162h-3.3a3.937,3.937,0,0,1,1.23-3.042,4.906,4.906,0,0,1,3.4-1.089,5.1,5.1,0,0,1,3.374,1.006,3.53,3.53,0,0,1,1.2,2.861,3.333,3.333,0,0,1-.322,1.475,4.984,4.984,0,0,1-1.035,1.357L87.766,39.33a2.642,2.642,0,0,0-.664.942A3.735,3.735,0,0,0,86.9,41.5Zm-.4,2.969a1.516,1.516,0,0,1,.522-1.187,2.064,2.064,0,0,1,2.607,0,1.609,1.609,0,0,1,0,2.373,2.064,2.064,0,0,1-2.607,0A1.516,1.516,0,0,1,83.7,44.467Z" transform="translate(1020.576 2699.373)" fill="#12263f"/>
    <g id="Grupo_74058" data-name="Grupo 74058" transform="translate(-105.818 2426.847)">
      <circle id="Elipse_4574" data-name="Elipse 4574" cx="41" cy="41" r="41" transform="translate(593.428 -32.847)" fill="#fff"/>
      <g id="laptop-question" transform="translate(597.428 -29.711)">
        <rect id="Rectngulo_32668" data-name="Rectngulo 32668" width="67.419" height="46.675" transform="translate(3.89 20.744)" fill="#acabb1"/>
        <rect id="Rectngulo_32669" data-name="Rectngulo 32669" width="59.64" height="38.896" transform="translate(7.779 24.634)" fill="#00d7df"/>
        <path id="Trazado_145862" data-name="Trazado 145862" d="M691.021,199.513h15.558a2.6,2.6,0,0,0,2.593-2.593v-1.3H688.428v1.3A2.6,2.6,0,0,0,691.021,199.513Z" transform="translate(-661.201 -128.204)" fill="#7b7a82"/>
        <path id="Trazado_145863" data-name="Trazado 145863" d="M645.4,195.623v1.3a2.6,2.6,0,0,1-2.593,2.593H627.248a2.6,2.6,0,0,1-2.593-2.593v-1.3H597.428v2.593a5.186,5.186,0,0,0,5.186,5.186H667.44a5.186,5.186,0,0,0,5.186-5.186v-2.593Z" transform="translate(-597.428 -128.204)" fill="#acabb1"/>
        <path id="Trazado_145864" data-name="Trazado 145864" d="M665.4-29.711A24.634,24.634,0,0,0,640.762-5.077,24.634,24.634,0,0,0,665.4,19.556,24.634,24.634,0,0,0,690.029-5.077,24.634,24.634,0,0,0,665.4-29.711Zm2.593,44.082H662.8v-3.89h5.186Zm0-15.849v8.07H662.8V-6.374H665.4a6.483,6.483,0,0,0,6.483-6.483,6.483,6.483,0,0,0-6.483-6.483,6.483,6.483,0,0,0-6.483,6.483h-5.186A11.669,11.669,0,0,1,665.4-24.524a11.668,11.668,0,0,1,11.667,11.67A11.669,11.669,0,0,1,667.989-1.478Z" transform="translate(-627.797 29.711)" fill="#7e5ee3"/>
        <path id="Trazado_145865" data-name="Trazado 145865" d="M695.764-12.377A11.682,11.682,0,0,0,684.095-.708h5.186a6.483,6.483,0,0,1,6.483-6.483,6.483,6.483,0,0,1,6.483,6.483,6.483,6.483,0,0,1-6.483,6.483h-2.593V18.739h5.186V10.67A11.668,11.668,0,0,0,707.147-3.3,11.668,11.668,0,0,0,695.764-12.377Z" transform="translate(-658.165 17.563)" fill="#fff"/>
        <rect id="Rectngulo_32670" data-name="Rectngulo 32670" width="5.186" height="3.89" transform="translate(35.006 40.192)" fill="#fff"/>
      </g>
    </g>
    <g id="surface1" transform="translate(-80.561 2923.693)">
      <path id="Trazado_145866" data-name="Trazado 145866" d="M1189.137-269.32a38,38,0,0,1-38,38,38,38,0,0,1-38-38,38,38,0,0,1,38-38A38,38,0,0,1,1189.137-269.32Z" transform="translate(0)" fill="#fff"/>
      <path id="Trazado_145867" data-name="Trazado 145867" d="M1224.693-269.858v43.669a37.943,37.943,0,0,1-30.495,15.323,37.894,37.894,0,0,1-13.156-2.341q-.944-.346-1.864-.744a38.113,38.113,0,0,1-15.474-12.238V-283.3h47.546Z" transform="translate(-43.061 -20.454)" fill="#dcecf9"/>
      <path id="Trazado_145868" data-name="Trazado 145868" d="M1271.184-196.574h29.08v3.955h-29.08Z" transform="translate(-134.587 -94.307)" fill="#1b2c61"/>
      <path id="Trazado_145869" data-name="Trazado 145869" d="M1224.493-141.719h42.941v3.955h-42.941Z" transform="translate(-94.827 -141.02)" fill="#1b2c61"/>
      <path id="Trazado_145870" data-name="Trazado 145870" d="M1224.493-86.863h42.941v3.955h-42.941Z" transform="translate(-94.827 -187.733)" fill="#1b2c61"/>
      <path id="Trazado_145871" data-name="Trazado 145871" d="M1484.016-269.858V-283.3l13.443,13.443Z" transform="translate(-315.827 -20.454)" fill="#fff"/>
      <path id="Trazado_145872" data-name="Trazado 145872" d="M1277.915,6.731l2.71,8.717,2.845,9.153-9.29-2.362-8.847-2.25,1.177-3.536,3.168-9.506Z" transform="translate(-129.605 -267.434)" fill="#fee2ba"/>
      <path id="Trazado_145873" data-name="Trazado 145873" d="M1283.469,77.378l-9.29-2.362-8.847-2.25,1.177-3.536,3.9-.522Z" transform="translate(-129.605 -320.21)" fill="#dbc1a5"/>
      <path id="Trazado_145874" data-name="Trazado 145874" d="M1122.608-135.548l-8.572,8.572a3.071,3.071,0,0,0,.047,4.389l4.511,4.389,3.157-3.327,9.425-9.931-4.283-4.146A3.071,3.071,0,0,0,1122.608-135.548Z" transform="translate(0 -145.509)" fill="#da263e"/>
      <path id="Trazado_145875" data-name="Trazado 145875" d="M1141.215-135.548l-5.328,5.328a3.071,3.071,0,0,0,.047,4.389l4.425,4.306,9.425-9.931L1145.5-135.6A3.071,3.071,0,0,0,1141.215-135.548Z" transform="translate(-18.607 -145.509)" fill="#f24355"/>
      <path id="Trazado_145876" data-name="Trazado 145876" d="M1163.278-102.07l17.017,16.15a4.57,4.57,0,0,0,.169,6.46,4.57,4.57,0,0,0-6.461.169,4.57,4.57,0,0,0,.169,6.46,4.57,4.57,0,0,0-6.46.169L1150.7-88.812Z" transform="translate(-31.984 -174.783)" fill="#1b2c61"/>
      <path id="Trazado_145877" data-name="Trazado 145877" d="M1199.366-102.07l17.017,16.15a4.57,4.57,0,0,0,.169,6.46,4.57,4.57,0,0,0-6.461.169l-17.017-16.15Z" transform="translate(-68.072 -174.783)" fill="#3d5891"/>
      <path id="Trazado_145878" data-name="Trazado 145878" d="M1178.174-79.738l20.331,19.3a4.57,4.57,0,0,0-6.46.169,4.571,4.571,0,0,0,.169,6.46l-20.331-19.3Z" transform="translate(-50.026 -193.8)" fill="#2a407a"/>
      <path id="Trazado_145879" data-name="Trazado 145879" d="M1156.11-110.661a1.933,1.933,0,0,1,.605,1.357,1.931,1.931,0,0,1-.533,1.386l-11.469,12.085a1.941,1.941,0,0,1-2.744.072,1.936,1.936,0,0,1-.6-1.357,1.933,1.933,0,0,1,.533-1.387l11.469-12.084A1.94,1.94,0,0,1,1156.11-110.661Z" transform="translate(-24.037 -167.013)" fill="#dbc1a5"/>
      <path id="Trazado_145880" data-name="Trazado 145880" d="M1175.909-110.661a1.934,1.934,0,0,1,.605,1.357,1.931,1.931,0,0,1-.534,1.386l-8.017,8.448a1.941,1.941,0,0,1-2.744.072,1.938,1.938,0,0,1-.605-1.357,1.934,1.934,0,0,1,.534-1.387l8.017-8.448A1.94,1.94,0,0,1,1175.909-110.661Z" transform="translate(-43.836 -167.013)" fill="#fee2ba"/>
      <path id="Trazado_145881" data-name="Trazado 145881" d="M1331.379,65.457l2.845,9.153-9.29-2.362a9.516,9.516,0,0,1,1.3-2.939,9.6,9.6,0,0,1,5.14-3.852Z" transform="translate(-180.359 -317.443)" fill="#f24355"/>
      <path id="Trazado_145882" data-name="Trazado 145882" d="M1334.224,96.707l-9.29-2.362a9.516,9.516,0,0,1,1.3-2.939Z" transform="translate(-180.359 -339.54)" fill="#da263e"/>
      <path id="Trazado_145883" data-name="Trazado 145883" d="M1424.946,83.224l-5.168-5.168,2.194-2.194,2.974,2.975,7.279-7.278,2.193,2.193Z" transform="translate(-261.124 -322.639)" fill="#da263e"/>
    </g>
    <g id="Grupo_74062" data-name="Grupo 74062" transform="translate(-898.944 3290.698)">
      <circle id="Elipse_4576" data-name="Elipse 4576" cx="40.44" cy="40.44" r="40.44" transform="translate(1675.853 -796.915)" fill="#fff"/>
      <g id="Grupo_74061" data-name="Grupo 74061" transform="translate(1665.146 -791.926)">
        <path id="Trazado_146000" data-name="Trazado 146000" d="M1716.293-771.142c-23.333,0-43.255,11.443-51.147,27.563,7.893,16.122,27.815,27.566,51.147,27.566s43.254-11.445,51.147-27.566C1759.547-759.7,1739.625-771.142,1716.293-771.142Z" transform="translate(-1665.146 780.091)" fill="#f0f0f0"/>
        <path id="Trazado_146001" data-name="Trazado 146001" d="M1711.822-742.169a25.905,25.905,0,0,1,25.9-25.9,25.9,25.9,0,0,1,25.9,25.9,25.9,25.9,0,0,1-25.9,25.9A25.905,25.905,0,0,1,1711.822-742.169Z" transform="translate(-1686.579 778.681)" fill="#26bdcf"/>
        <path id="Trazado_146002" data-name="Trazado 146002" d="M1716.293-771.142c-23.333,0-43.255,11.443-51.147,27.563,7.893,16.122,27.815,27.566,51.147,27.566s43.254-11.445,51.147-27.566C1759.547-759.7,1739.625-771.142,1716.293-771.142Z" transform="translate(-1665.146 780.091)" fill="none"/>
        <path id="Trazado_146003" data-name="Trazado 146003" d="M1744.425-765.168c-7.072-2.194-14.067-3.89-22.232-3.517-23.309,1.061-43.629,15-50.776,31.465" transform="translate(-1668.026 778.987)" fill="none"/>
        <path id="Trazado_146004" data-name="Trazado 146004" d="M1761.926-735.332a18.176,18.176,0,0,1-18.178,18.191,18.18,18.18,0,0,1-18.184-18.191,18.186,18.186,0,0,1,18.184-18.174A18.182,18.182,0,0,1,1761.926-735.332Z" transform="translate(-1692.89 771.993)" fill="#fff"/>
        <path id="Trazado_146005" data-name="Trazado 146005" d="M1760.563-727.588a9.075,9.075,0,0,1-9.073,9.076,9.068,9.068,0,0,1-9.065-9.076,9.061,9.061,0,0,1,9.065-9.054A9.067,9.067,0,0,1,1760.563-727.588Z" transform="translate(-1700.632 764.249)" fill="#f9a729"/>
        <g id="Grupo_74060" data-name="Grupo 74060" transform="translate(49.771)">
          <g id="Grupo_74059" data-name="Grupo 74059" transform="translate(19.929)">
            <path id="Trazado_146006" data-name="Trazado 146006" d="M1795.241-772.514l-1.213-6.029,9.139-9.146,1.217,6.028Z" transform="translate(-1794.029 787.689)" fill="#f9a729"/>
            <path id="Trazado_146007" data-name="Trazado 146007" d="M1798.57-765.114l6.032,1.225,9.129-9.142-6.02-1.219Z" transform="translate(-1796.114 781.518)" fill="#f9a729"/>
          </g>
          <path id="Trazado_146008" data-name="Trazado 146008" d="M1759.244-747.219a1.2,1.2,0,0,1-1.707,0h0a1.2,1.2,0,0,1,0-1.713l31.28-31.285a1.228,1.228,0,0,1,1.719,0h0a1.206,1.206,0,0,1,0,1.717Z" transform="translate(-1757.178 784.419)"/>
        </g>
        <path id="Trazado_146009" data-name="Trazado 146009" d="M1784.323-724.376h-25.835a1.175,1.175,0,0,0-1.149,1.21,1.172,1.172,0,0,0,1.149,1.209l26.041.013A10.432,10.432,0,0,0,1784.323-724.376Z" transform="translate(-1707.48 758.616)" fill="#c6c6c6" style="mix-blend-mode: multiply;isolation: isolate"/>
      </g>
    </g>
    <path id="Icon_awesome-atom" data-name="Icon awesome-atom" d="M12.907,8c1.254-1.715,1.3-3.082.786-4-.341-.61-1.267-1.585-3.635-1.309C9.386,1.09,8.364,0,7,0S4.614,1.09,3.943,2.691C1.576,2.417.648,3.39.307,4c-.512.919-.469,2.284.786,4C-.161,9.715-.2,11.082.307,12c.913,1.636,3.178,1.362,3.635,1.309C4.614,14.91,5.636,16,7,16s2.387-1.091,3.058-2.691c.458.053,2.722.327,3.635-1.309C14.2,11.081,14.162,9.716,12.907,8ZM1.981,11c-.126-.225-.006-.775.467-1.509.218.2.444.4.683.6.053.428.125.846.211,1.253-.768.028-1.247-.137-1.362-.343ZM3.131,5.91c-.239.2-.466.4-.683.6C1.975,5.775,1.855,5.225,1.981,5c.107-.192.512-.358,1.185-.358.053,0,.121.009.178.012q-.133.624-.212,1.257ZM7,2c.3,0,.694.423,1.058,1.164-.35.116-.7.25-1.058.4-.357-.152-.708-.286-1.058-.4C6.306,2.423,6.7,2,7,2ZM7,14c-.3,0-.694-.423-1.058-1.164.35-.116.7-.25,1.058-.4.357.152.708.286,1.058.4C7.694,13.578,7.3,14,7,14ZM8.953,9.084A13.362,13.362,0,0,1,7,10.255,13.378,13.378,0,0,1,5.047,9.084a12.6,12.6,0,0,1,0-2.167A13.409,13.409,0,0,1,7,5.746,13.383,13.383,0,0,1,8.953,6.917,12.635,12.635,0,0,1,8.953,9.084ZM12.02,11c-.115.207-.594.369-1.362.342.086-.406.158-.824.211-1.252.239-.2.466-.4.683-.6C12.025,10.225,12.145,10.775,12.02,11Zm-.467-4.491c-.218-.2-.444-.4-.683-.6q-.079-.633-.212-1.257c.057,0,.124-.012.178-.012.673,0,1.078.167,1.185.358.126.226.006.775-.467,1.509ZM7,7A1,1,0,1,0,8,8,1,1,0,0,0,7,7Z" transform="translate(630.036 2281.79)" fill="#7e5ee3"/>
    <path id="Icon_awesome-atom-2" data-name="Icon awesome-atom" d="M12.907,8c1.254-1.715,1.3-3.082.786-4-.341-.61-1.267-1.585-3.635-1.309C9.386,1.09,8.364,0,7,0S4.614,1.09,3.943,2.691C1.576,2.417.648,3.39.307,4c-.512.919-.469,2.284.786,4C-.161,9.715-.2,11.082.307,12c.913,1.636,3.178,1.362,3.635,1.309C4.614,14.91,5.636,16,7,16s2.387-1.091,3.058-2.691c.458.053,2.722.327,3.635-1.309C14.2,11.081,14.162,9.716,12.907,8ZM1.981,11c-.126-.225-.006-.775.467-1.509.218.2.444.4.683.6.053.428.125.846.211,1.253-.768.028-1.247-.137-1.362-.343ZM3.131,5.91c-.239.2-.466.4-.683.6C1.975,5.775,1.855,5.225,1.981,5c.107-.192.512-.358,1.185-.358.053,0,.121.009.178.012q-.133.624-.212,1.257ZM7,2c.3,0,.694.423,1.058,1.164-.35.116-.7.25-1.058.4-.357-.152-.708-.286-1.058-.4C6.306,2.423,6.7,2,7,2ZM7,14c-.3,0-.694-.423-1.058-1.164.35-.116.7-.25,1.058-.4.357.152.708.286,1.058.4C7.694,13.578,7.3,14,7,14ZM8.953,9.084A13.362,13.362,0,0,1,7,10.255,13.378,13.378,0,0,1,5.047,9.084a12.6,12.6,0,0,1,0-2.167A13.409,13.409,0,0,1,7,5.746,13.383,13.383,0,0,1,8.953,6.917,12.635,12.635,0,0,1,8.953,9.084ZM12.02,11c-.115.207-.594.369-1.362.342.086-.406.158-.824.211-1.252.239-.2.466-.4.683-.6C12.025,10.225,12.145,10.775,12.02,11Zm-.467-4.491c-.218-.2-.444-.4-.683-.6q-.079-.633-.212-1.257c.057,0,.124-.012.178-.012.673,0,1.078.167,1.185.358.126.226.006.775-.467,1.509ZM7,7A1,1,0,1,0,8,8,1,1,0,0,0,7,7Z" transform="translate(766.202 2711)" fill="#7e5ee3"/>
    <path id="Icon_awesome-atom-3" data-name="Icon awesome-atom" d="M12.907,8c1.254-1.715,1.3-3.082.786-4-.341-.61-1.267-1.585-3.635-1.309C9.386,1.09,8.364,0,7,0S4.614,1.09,3.943,2.691C1.576,2.417.648,3.39.307,4c-.512.919-.469,2.284.786,4C-.161,9.715-.2,11.082.307,12c.913,1.636,3.178,1.362,3.635,1.309C4.614,14.91,5.636,16,7,16s2.387-1.091,3.058-2.691c.458.053,2.722.327,3.635-1.309C14.2,11.081,14.162,9.716,12.907,8ZM1.981,11c-.126-.225-.006-.775.467-1.509.218.2.444.4.683.6.053.428.125.846.211,1.253-.768.028-1.247-.137-1.362-.343ZM3.131,5.91c-.239.2-.466.4-.683.6C1.975,5.775,1.855,5.225,1.981,5c.107-.192.512-.358,1.185-.358.053,0,.121.009.178.012q-.133.624-.212,1.257ZM7,2c.3,0,.694.423,1.058,1.164-.35.116-.7.25-1.058.4-.357-.152-.708-.286-1.058-.4C6.306,2.423,6.7,2,7,2ZM7,14c-.3,0-.694-.423-1.058-1.164.35-.116.7-.25,1.058-.4.357.152.708.286,1.058.4C7.694,13.578,7.3,14,7,14ZM8.953,9.084A13.362,13.362,0,0,1,7,10.255,13.378,13.378,0,0,1,5.047,9.084a12.6,12.6,0,0,1,0-2.167A13.409,13.409,0,0,1,7,5.746,13.383,13.383,0,0,1,8.953,6.917,12.635,12.635,0,0,1,8.953,9.084ZM12.02,11c-.115.207-.594.369-1.362.342.086-.406.158-.824.211-1.252.239-.2.466-.4.683-.6C12.025,10.225,12.145,10.775,12.02,11Zm-.467-4.491c-.218-.2-.444-.4-.683-.6q-.079-.633-.212-1.257c.057,0,.124-.012.178-.012.673,0,1.078.167,1.185.358.126.226.006.775-.467,1.509ZM7,7A1,1,0,1,0,8,8,1,1,0,0,0,7,7Z" transform="translate(766.202 2783)" fill="#7e5ee3"/>
    <path id="Icon_awesome-atom-4" data-name="Icon awesome-atom" d="M12.907,8c1.254-1.715,1.3-3.082.786-4-.341-.61-1.267-1.585-3.635-1.309C9.386,1.09,8.364,0,7,0S4.614,1.09,3.943,2.691C1.576,2.417.648,3.39.307,4c-.512.919-.469,2.284.786,4C-.161,9.715-.2,11.082.307,12c.913,1.636,3.178,1.362,3.635,1.309C4.614,14.91,5.636,16,7,16s2.387-1.091,3.058-2.691c.458.053,2.722.327,3.635-1.309C14.2,11.081,14.162,9.716,12.907,8ZM1.981,11c-.126-.225-.006-.775.467-1.509.218.2.444.4.683.6.053.428.125.846.211,1.253-.768.028-1.247-.137-1.362-.343ZM3.131,5.91c-.239.2-.466.4-.683.6C1.975,5.775,1.855,5.225,1.981,5c.107-.192.512-.358,1.185-.358.053,0,.121.009.178.012q-.133.624-.212,1.257ZM7,2c.3,0,.694.423,1.058,1.164-.35.116-.7.25-1.058.4-.357-.152-.708-.286-1.058-.4C6.306,2.423,6.7,2,7,2ZM7,14c-.3,0-.694-.423-1.058-1.164.35-.116.7-.25,1.058-.4.357.152.708.286,1.058.4C7.694,13.578,7.3,14,7,14ZM8.953,9.084A13.362,13.362,0,0,1,7,10.255,13.378,13.378,0,0,1,5.047,9.084a12.6,12.6,0,0,1,0-2.167A13.409,13.409,0,0,1,7,5.746,13.383,13.383,0,0,1,8.953,6.917,12.635,12.635,0,0,1,8.953,9.084ZM12.02,11c-.115.207-.594.369-1.362.342.086-.406.158-.824.211-1.252.239-.2.466-.4.683-.6C12.025,10.225,12.145,10.775,12.02,11Zm-.467-4.491c-.218-.2-.444-.4-.683-.6q-.079-.633-.212-1.257c.057,0,.124-.012.178-.012.673,0,1.078.167,1.185.358.126.226.006.775-.467,1.509ZM7,7A1,1,0,1,0,8,8,1,1,0,0,0,7,7Z" transform="translate(766.202 2831)" fill="#7e5ee3"/>
    <path id="Icon_awesome-atom-5" data-name="Icon awesome-atom" d="M12.907,8c1.254-1.715,1.3-3.082.786-4-.341-.61-1.267-1.585-3.635-1.309C9.386,1.09,8.364,0,7,0S4.614,1.09,3.943,2.691C1.576,2.417.648,3.39.307,4c-.512.919-.469,2.284.786,4C-.161,9.715-.2,11.082.307,12c.913,1.636,3.178,1.362,3.635,1.309C4.614,14.91,5.636,16,7,16s2.387-1.091,3.058-2.691c.458.053,2.722.327,3.635-1.309C14.2,11.081,14.162,9.716,12.907,8ZM1.981,11c-.126-.225-.006-.775.467-1.509.218.2.444.4.683.6.053.428.125.846.211,1.253-.768.028-1.247-.137-1.362-.343ZM3.131,5.91c-.239.2-.466.4-.683.6C1.975,5.775,1.855,5.225,1.981,5c.107-.192.512-.358,1.185-.358.053,0,.121.009.178.012q-.133.624-.212,1.257ZM7,2c.3,0,.694.423,1.058,1.164-.35.116-.7.25-1.058.4-.357-.152-.708-.286-1.058-.4C6.306,2.423,6.7,2,7,2ZM7,14c-.3,0-.694-.423-1.058-1.164.35-.116.7-.25,1.058-.4.357.152.708.286,1.058.4C7.694,13.578,7.3,14,7,14ZM8.953,9.084A13.362,13.362,0,0,1,7,10.255,13.378,13.378,0,0,1,5.047,9.084a12.6,12.6,0,0,1,0-2.167A13.409,13.409,0,0,1,7,5.746,13.383,13.383,0,0,1,8.953,6.917,12.635,12.635,0,0,1,8.953,9.084ZM12.02,11c-.115.207-.594.369-1.362.342.086-.406.158-.824.211-1.252.239-.2.466-.4.683-.6C12.025,10.225,12.145,10.775,12.02,11Zm-.467-4.491c-.218-.2-.444-.4-.683-.6q-.079-.633-.212-1.257c.057,0,.124-.012.178-.012.673,0,1.078.167,1.185.358.126.226.006.775-.467,1.509ZM7,7A1,1,0,1,0,8,8,1,1,0,0,0,7,7Z" transform="translate(766.202 2880)" fill="#7e5ee3"/>
    <path id="Icon_awesome-atom-6" data-name="Icon awesome-atom" d="M12.907,8c1.254-1.715,1.3-3.082.786-4-.341-.61-1.267-1.585-3.635-1.309C9.386,1.09,8.364,0,7,0S4.614,1.09,3.943,2.691C1.576,2.417.648,3.39.307,4c-.512.919-.469,2.284.786,4C-.161,9.715-.2,11.082.307,12c.913,1.636,3.178,1.362,3.635,1.309C4.614,14.91,5.636,16,7,16s2.387-1.091,3.058-2.691c.458.053,2.722.327,3.635-1.309C14.2,11.081,14.162,9.716,12.907,8ZM1.981,11c-.126-.225-.006-.775.467-1.509.218.2.444.4.683.6.053.428.125.846.211,1.253-.768.028-1.247-.137-1.362-.343ZM3.131,5.91c-.239.2-.466.4-.683.6C1.975,5.775,1.855,5.225,1.981,5c.107-.192.512-.358,1.185-.358.053,0,.121.009.178.012q-.133.624-.212,1.257ZM7,2c.3,0,.694.423,1.058,1.164-.35.116-.7.25-1.058.4-.357-.152-.708-.286-1.058-.4C6.306,2.423,6.7,2,7,2ZM7,14c-.3,0-.694-.423-1.058-1.164.35-.116.7-.25,1.058-.4.357.152.708.286,1.058.4C7.694,13.578,7.3,14,7,14ZM8.953,9.084A13.362,13.362,0,0,1,7,10.255,13.378,13.378,0,0,1,5.047,9.084a12.6,12.6,0,0,1,0-2.167A13.409,13.409,0,0,1,7,5.746,13.383,13.383,0,0,1,8.953,6.917,12.635,12.635,0,0,1,8.953,9.084ZM12.02,11c-.115.207-.594.369-1.362.342.086-.406.158-.824.211-1.252.239-.2.466-.4.683-.6C12.025,10.225,12.145,10.775,12.02,11Zm-.467-4.491c-.218-.2-.444-.4-.683-.6q-.079-.633-.212-1.257c.057,0,.124-.012.178-.012.673,0,1.078.167,1.185.358.126.226.006.775-.467,1.509ZM7,7A1,1,0,1,0,8,8,1,1,0,0,0,7,7Z" transform="translate(630.036 2329.668)" fill="#7e5ee3"/>
    <path id="Trazado_148255" data-name="Trazado 148255" d="M0,0H820V667H0Z" transform="translate(390 2257)" fill="none"/>
  </g>
</svg>
