<svg xmlns="http://www.w3.org/2000/svg" width="558" height="258" viewBox="0 0 558 258">
  <g id="Grupo_76124" data-name="Grupo 76124" transform="translate(1190 9233)">
    <g id="Rectángulo_33276" data-name="Rectángulo 33276" transform="translate(-1099 -9233)" fill="#e8e8e8" stroke="#707070" stroke-width="2">
      <rect width="381" height="70" stroke="none"/>
      <rect x="1" y="1" width="379" height="68" fill="none"/>
    </g>
    <g id="Rectángulo_33279" data-name="Rectángulo 33279" transform="translate(-1099 -9049)" fill="#e8e8e8" stroke="#707070" stroke-width="2">
      <rect width="381" height="70" stroke="none"/>
      <rect x="1" y="1" width="379" height="68" fill="none"/>
    </g>
    <g id="Rectángulo_33277" data-name="Rectángulo 33277" transform="translate(-1151 -9154)" fill="#e8e8e8" stroke="#707070" stroke-width="2">
      <rect width="195" height="97" stroke="none"/>
      <rect x="1" y="1" width="193" height="95" fill="none"/>
    </g>
    <g id="Rectángulo_33278" data-name="Rectángulo 33278" transform="translate(-867 -9154)" fill="#e8e8e8" stroke="#707070" stroke-width="2">
      <rect width="195" height="97" stroke="none"/>
      <rect x="1" y="1" width="193" height="95" fill="none"/>
    </g>
    <rect id="Rectángulo_33265" data-name="Rectángulo 33265" width="33" height="258" transform="translate(-1190 -9233)" fill="#636363"/>
    <rect id="Rectángulo_33280" data-name="Rectángulo 33280" width="33" height="258" transform="translate(-665 -9233)" fill="#636363"/>
    <path id="Trazado_148341" data-name="Trazado 148341" d="M-75.684,0H-78.41l-4.031-7.078V0h-2.742V-11.375h2.742L-78.418-4.3v-7.078h2.734Zm5.7.156A4.345,4.345,0,0,1-73.129-1a4.006,4.006,0,0,1-1.2-3.02v-.219a5.191,5.191,0,0,1,.48-2.289,3.516,3.516,0,0,1,1.4-1.535,4.233,4.233,0,0,1,2.188-.543A3.659,3.659,0,0,1-67.449-7.5a4.344,4.344,0,0,1,1.031,3.082V-3.4h-5.234a1.9,1.9,0,0,0,.617,1.117,1.836,1.836,0,0,0,1.234.406,2.366,2.366,0,0,0,1.953-.875l1.2,1.422A3.363,3.363,0,0,1-68.039-.246,4.713,4.713,0,0,1-69.98.156Zm-.3-6.734q-1.156,0-1.375,1.531H-69v-.2a1.3,1.3,0,0,0-.32-.98A1.275,1.275,0,0,0-70.277-6.578Zm8.492,4.7a1.171,1.171,0,0,0,.859-.3,1.1,1.1,0,0,0,.3-.84h2.469a2.922,2.922,0,0,1-1,2.281,3.705,3.705,0,0,1-2.566.891A3.751,3.751,0,0,1-64.629-1a4.556,4.556,0,0,1-1.062-3.2v-.109a5.149,5.149,0,0,1,.473-2.262,3.441,3.441,0,0,1,1.363-1.508,4.065,4.065,0,0,1,2.109-.527,3.658,3.658,0,0,1,2.617.914,3.242,3.242,0,0,1,.969,2.477h-2.469a1.445,1.445,0,0,0-.32-1.008,1.106,1.106,0,0,0-.859-.352q-1.023,0-1.2,1.3a9.206,9.206,0,0,0-.055,1.141,3.616,3.616,0,0,0,.3,1.766A1.055,1.055,0,0,0-61.785-1.875ZM-52.957.156A4.345,4.345,0,0,1-56.105-1a4.006,4.006,0,0,1-1.2-3.02v-.219a5.191,5.191,0,0,1,.48-2.289,3.516,3.516,0,0,1,1.4-1.535,4.233,4.233,0,0,1,2.188-.543A3.659,3.659,0,0,1-50.426-7.5a4.344,4.344,0,0,1,1.031,3.082V-3.4h-5.234a1.9,1.9,0,0,0,.617,1.117,1.836,1.836,0,0,0,1.234.406,2.366,2.366,0,0,0,1.953-.875l1.2,1.422A3.363,3.363,0,0,1-51.016-.246,4.713,4.713,0,0,1-52.957.156Zm-.3-6.734q-1.156,0-1.375,1.531h2.656v-.2a1.3,1.3,0,0,0-.32-.98A1.275,1.275,0,0,0-53.254-6.578Zm9.344,4.2a.608.608,0,0,0-.352-.539A5.348,5.348,0,0,0-45.6-3.336a6.092,6.092,0,0,1-1.625-.574,2.722,2.722,0,0,1-.977-.863,2.061,2.061,0,0,1-.336-1.164,2.336,2.336,0,0,1,.961-1.918,3.958,3.958,0,0,1,2.516-.754,4.386,4.386,0,0,1,2.688.758,2.37,2.37,0,0,1,1.016,1.992H-44q0-1.016-1.07-1.016a1.061,1.061,0,0,0-.7.23.714.714,0,0,0-.281.574.655.655,0,0,0,.344.57,3.248,3.248,0,0,0,1.1.359,9.485,9.485,0,0,1,1.324.336,2.406,2.406,0,0,1,1.906,2.352A2.214,2.214,0,0,1-42.4-.57a4.505,4.505,0,0,1-2.66.727A4.6,4.6,0,0,1-47-.234,3.24,3.24,0,0,1-48.324-1.3,2.406,2.406,0,0,1-48.8-2.711h2.461a1.017,1.017,0,0,0,.391.855,1.607,1.607,0,0,0,.961.27A1.264,1.264,0,0,0-44.18-1.8.7.7,0,0,0-43.91-2.375ZM-37.363,0H-40V-8.453h2.641Zm-2.8-10.641a1.186,1.186,0,0,1,.406-.927A1.527,1.527,0,0,1-38.7-11.93a1.527,1.527,0,0,1,1.055.362,1.186,1.186,0,0,1,.406.927,1.186,1.186,0,0,1-.406.927,1.527,1.527,0,0,1-1.055.362,1.527,1.527,0,0,1-1.055-.362A1.186,1.186,0,0,1-40.16-10.641Zm4.086,6.352a5.164,5.164,0,0,1,.867-3.164,2.854,2.854,0,0,1,2.422-1.156,2.428,2.428,0,0,1,1.906.891V-12h2.641V0h-2.367l-.133-.906A2.493,2.493,0,0,1-32.8.156,2.849,2.849,0,0,1-35.191-1,5.327,5.327,0,0,1-36.074-4.289Zm2.633.164q0,2.25,1.313,2.25a1.3,1.3,0,0,0,1.25-.734V-5.828a1.261,1.261,0,0,0-1.234-.75q-1.219,0-1.32,1.969ZM-21.98,0a2.973,2.973,0,0,1-.25-.758,2.448,2.448,0,0,1-2.031.914,3,3,0,0,1-2.031-.723,2.3,2.3,0,0,1-.836-1.816,2.364,2.364,0,0,1,1.016-2.078,5.174,5.174,0,0,1,2.953-.7h.813v-.448q0-1.17-1.008-1.17a.824.824,0,0,0-.937.926h-2.633a2.36,2.36,0,0,1,1.043-1.99,4.383,4.383,0,0,1,2.66-.765,3.843,3.843,0,0,1,2.555.789,2.743,2.743,0,0,1,.961,2.164v3.742a3.832,3.832,0,0,0,.359,1.781V0Zm-1.648-1.719a1.469,1.469,0,0,0,.816-.211,1.322,1.322,0,0,0,.465-.477V-3.758h-.766q-1.375,0-1.375,1.234a.754.754,0,0,0,.242.582A.876.876,0,0,0-23.629-1.719Zm5.047-2.57a5.164,5.164,0,0,1,.867-3.164,2.854,2.854,0,0,1,2.422-1.156,2.428,2.428,0,0,1,1.906.891V-12h2.641V0h-2.367l-.133-.906A2.493,2.493,0,0,1-15.309.156,2.849,2.849,0,0,1-17.7-1,5.327,5.327,0,0,1-18.582-4.289Zm2.633.164q0,2.25,1.313,2.25a1.3,1.3,0,0,0,1.25-.734V-5.828a1.261,1.261,0,0,0-1.234-.75q-1.219,0-1.32,1.969ZM-5.16.156A4.345,4.345,0,0,1-8.309-1a4.006,4.006,0,0,1-1.2-3.02v-.219a5.191,5.191,0,0,1,.48-2.289,3.516,3.516,0,0,1,1.4-1.535,4.233,4.233,0,0,1,2.188-.543A3.659,3.659,0,0,1-2.629-7.5,4.344,4.344,0,0,1-1.6-4.422V-3.4H-6.832a1.9,1.9,0,0,0,.617,1.117,1.836,1.836,0,0,0,1.234.406A2.366,2.366,0,0,0-3.027-2.75l1.2,1.422A3.363,3.363,0,0,1-3.219-.246,4.713,4.713,0,0,1-5.16.156Zm-.3-6.734q-1.156,0-1.375,1.531h2.656v-.2a1.3,1.3,0,0,0-.32-.98A1.275,1.275,0,0,0-5.457-6.578Zm9.344,4.2a.608.608,0,0,0-.352-.539A5.348,5.348,0,0,0,2.2-3.336,6.092,6.092,0,0,1,.574-3.91,2.722,2.722,0,0,1-.4-4.773,2.061,2.061,0,0,1-.738-5.937,2.336,2.336,0,0,1,.223-7.855a3.958,3.958,0,0,1,2.516-.754,4.386,4.386,0,0,1,2.688.758A2.37,2.37,0,0,1,6.441-5.859H3.8q0-1.016-1.07-1.016a1.061,1.061,0,0,0-.7.23.714.714,0,0,0-.281.574A.655.655,0,0,0,2.1-5.5a3.248,3.248,0,0,0,1.1.359A9.485,9.485,0,0,1,4.52-4.8,2.406,2.406,0,0,1,6.426-2.453,2.214,2.214,0,0,1,5.4-.57a4.505,4.505,0,0,1-2.66.727A4.6,4.6,0,0,1,.8-.234,3.24,3.24,0,0,1-.527-1.3,2.406,2.406,0,0,1-1-2.711H1.457a1.017,1.017,0,0,0,.391.855,1.607,1.607,0,0,0,.961.27A1.264,1.264,0,0,0,3.617-1.8.7.7,0,0,0,3.887-2.375Zm7.422-1.914a5.164,5.164,0,0,1,.867-3.164A2.854,2.854,0,0,1,14.6-8.609a2.428,2.428,0,0,1,1.906.891V-12h2.641V0H16.777l-.133-.906A2.493,2.493,0,0,1,14.582.156,2.849,2.849,0,0,1,12.191-1,5.327,5.327,0,0,1,11.309-4.289Zm2.633.164q0,2.25,1.313,2.25a1.3,1.3,0,0,0,1.25-.734V-5.828a1.261,1.261,0,0,0-1.234-.75q-1.219,0-1.32,1.969ZM24.73.156A4.345,4.345,0,0,1,21.582-1a4.006,4.006,0,0,1-1.2-3.02v-.219a5.191,5.191,0,0,1,.48-2.289,3.516,3.516,0,0,1,1.4-1.535,4.233,4.233,0,0,1,2.188-.543A3.659,3.659,0,0,1,27.262-7.5a4.344,4.344,0,0,1,1.031,3.082V-3.4H23.059a1.9,1.9,0,0,0,.617,1.117,1.836,1.836,0,0,0,1.234.406,2.366,2.366,0,0,0,1.953-.875l1.2,1.422A3.363,3.363,0,0,1,26.672-.246,4.713,4.713,0,0,1,24.73.156Zm-.3-6.734q-1.156,0-1.375,1.531h2.656v-.2a1.3,1.3,0,0,0-.32-.98A1.275,1.275,0,0,0,24.434-6.578ZM32.129,0H29.488V-12h2.641Zm9.18-1.875a1.171,1.171,0,0,0,.859-.3,1.1,1.1,0,0,0,.3-.84h2.469a2.922,2.922,0,0,1-1,2.281,3.705,3.705,0,0,1-2.566.891A3.751,3.751,0,0,1,38.465-1,4.556,4.556,0,0,1,37.4-4.2v-.109a5.149,5.149,0,0,1,.473-2.262,3.441,3.441,0,0,1,1.363-1.508,4.065,4.065,0,0,1,2.109-.527,3.658,3.658,0,0,1,2.617.914,3.242,3.242,0,0,1,.969,2.477H42.465a1.445,1.445,0,0,0-.32-1.008,1.106,1.106,0,0,0-.859-.352q-1.023,0-1.2,1.3a9.206,9.206,0,0,0-.055,1.141,3.616,3.616,0,0,0,.3,1.766A1.055,1.055,0,0,0,41.309-1.875ZM48.824,0H46.184V-12h2.641Zm4.4,0H50.582V-8.453h2.641Zm-2.8-10.641a1.186,1.186,0,0,1,.406-.927,1.527,1.527,0,0,1,1.055-.362,1.527,1.527,0,0,1,1.055.362,1.186,1.186,0,0,1,.406.927,1.186,1.186,0,0,1-.406.927,1.527,1.527,0,0,1-1.055.362,1.527,1.527,0,0,1-1.055-.362A1.186,1.186,0,0,1,50.426-10.641ZM58.934.156A4.345,4.345,0,0,1,55.785-1a4.006,4.006,0,0,1-1.2-3.02v-.219a5.191,5.191,0,0,1,.48-2.289,3.516,3.516,0,0,1,1.4-1.535,4.233,4.233,0,0,1,2.188-.543A3.659,3.659,0,0,1,61.465-7.5,4.344,4.344,0,0,1,62.5-4.422V-3.4H57.262a1.9,1.9,0,0,0,.617,1.117,1.836,1.836,0,0,0,1.234.406,2.366,2.366,0,0,0,1.953-.875l1.2,1.422A3.363,3.363,0,0,1,60.875-.246,4.713,4.713,0,0,1,58.934.156Zm-.3-6.734q-1.156,0-1.375,1.531h2.656v-.2a1.3,1.3,0,0,0-.32-.98A1.275,1.275,0,0,0,58.637-6.578Zm7.336-1.875.086.992a2.867,2.867,0,0,1,2.414-1.148,2.412,2.412,0,0,1,1.973.789,3.757,3.757,0,0,1,.676,2.375V0H68.48V-5.336a1.426,1.426,0,0,0-.258-.941,1.193,1.193,0,0,0-.937-.3,1.256,1.256,0,0,0-1.148.609V0H63.5V-8.453Zm9.672-2.1v2.1h1.391v1.828H75.645v3.867a.987.987,0,0,0,.172.664.922.922,0,0,0,.68.188,3.862,3.862,0,0,0,.656-.047V-.07a4.859,4.859,0,0,1-1.484.227A2.758,2.758,0,0,1,73.66-.484a2.626,2.626,0,0,1-.648-1.945v-4.2H71.934V-8.453h1.078v-2.1ZM82.16.156A4.345,4.345,0,0,1,79.012-1a4.006,4.006,0,0,1-1.2-3.02v-.219a5.191,5.191,0,0,1,.48-2.289,3.516,3.516,0,0,1,1.4-1.535,4.233,4.233,0,0,1,2.188-.543A3.659,3.659,0,0,1,84.691-7.5a4.344,4.344,0,0,1,1.031,3.082V-3.4H80.488a1.9,1.9,0,0,0,.617,1.117,1.836,1.836,0,0,0,1.234.406,2.366,2.366,0,0,0,1.953-.875l1.2,1.422A3.363,3.363,0,0,1,84.1-.246,4.713,4.713,0,0,1,82.16.156Zm-.3-6.734q-1.156,0-1.375,1.531h2.656v-.2a1.3,1.3,0,0,0-.32-.98A1.275,1.275,0,0,0,81.863-6.578Z" transform="translate(-1168 -9104) rotate(-90)" fill="#fff"/>
    <path id="Trazado_148346" data-name="Trazado 148346" d="M-77.793-3.023a1.127,1.127,0,0,0-.426-.937,5.292,5.292,0,0,0-1.5-.7,14.353,14.353,0,0,1-1.75-.7,3.314,3.314,0,0,1-2.211-2.984A2.676,2.676,0,0,1-83.125-10a3.562,3.562,0,0,1,1.559-1.125,6.065,6.065,0,0,1,2.266-.4,5.305,5.305,0,0,1,2.2.438A3.482,3.482,0,0,1-75.59-9.848,3.254,3.254,0,0,1-75.051-8h-2.734a1.375,1.375,0,0,0-.426-1.078,1.66,1.66,0,0,0-1.152-.383,1.872,1.872,0,0,0-1.16.324,1,1,0,0,0-.426.824,1,1,0,0,0,.469.793,5.911,5.911,0,0,0,1.648.734,10.1,10.1,0,0,1,1.938.816,3.256,3.256,0,0,1,1.844,2.93A2.778,2.778,0,0,1-76.176-.7a5,5,0,0,1-3.086.852,6.122,6.122,0,0,1-2.5-.5A3.775,3.775,0,0,1-83.453-1.7a3.542,3.542,0,0,1-.566-1.988h2.75A1.745,1.745,0,0,0-80.8-2.34a2.234,2.234,0,0,0,1.535.434A1.765,1.765,0,0,0-78.187-2.2.967.967,0,0,0-77.793-3.023ZM-69,0a2.973,2.973,0,0,1-.25-.758,2.448,2.448,0,0,1-2.031.914,3,3,0,0,1-2.031-.723,2.3,2.3,0,0,1-.836-1.816,2.364,2.364,0,0,1,1.016-2.078,5.174,5.174,0,0,1,2.953-.7h.813v-.448q0-1.17-1.008-1.17a.824.824,0,0,0-.937.926h-2.633a2.36,2.36,0,0,1,1.043-1.99,4.383,4.383,0,0,1,2.66-.765,3.843,3.843,0,0,1,2.555.789,2.743,2.743,0,0,1,.961,2.164v3.742a3.832,3.832,0,0,0,.359,1.781V0Zm-1.648-1.719a1.469,1.469,0,0,0,.816-.211,1.322,1.322,0,0,0,.465-.477V-3.758h-.766q-1.375,0-1.375,1.234a.754.754,0,0,0,.242.582A.876.876,0,0,0-70.652-1.719Zm8.445-8.836v2.1h1.391v1.828h-1.391v3.867a.987.987,0,0,0,.172.664.922.922,0,0,0,.68.188,3.862,3.862,0,0,0,.656-.047V-.07a4.859,4.859,0,0,1-1.484.227,2.758,2.758,0,0,1-2.008-.641A2.626,2.626,0,0,1-64.84-2.43v-4.2h-1.078V-8.453h1.078v-2.1ZM-57,0h-2.641V-8.453H-57Zm-2.8-10.641a1.186,1.186,0,0,1,.406-.927,1.527,1.527,0,0,1,1.055-.362,1.527,1.527,0,0,1,1.055.362,1.186,1.186,0,0,1,.406.927,1.186,1.186,0,0,1-.406.927,1.527,1.527,0,0,1-1.055.362,1.527,1.527,0,0,1-1.055-.362A1.186,1.186,0,0,1-59.8-10.641Zm8.844,8.266a.608.608,0,0,0-.352-.539,5.348,5.348,0,0,0-1.336-.422A6.092,6.092,0,0,1-54.27-3.91a2.722,2.722,0,0,1-.977-.863,2.061,2.061,0,0,1-.336-1.164,2.336,2.336,0,0,1,.961-1.918,3.958,3.958,0,0,1,2.516-.754,4.386,4.386,0,0,1,2.688.758A2.37,2.37,0,0,1-48.4-5.859h-2.641q0-1.016-1.07-1.016a1.061,1.061,0,0,0-.7.23.714.714,0,0,0-.281.574.655.655,0,0,0,.344.57,3.248,3.248,0,0,0,1.1.359,9.485,9.485,0,0,1,1.324.336,2.406,2.406,0,0,1,1.906,2.352A2.214,2.214,0,0,1-49.445-.57a4.505,4.505,0,0,1-2.66.727,4.6,4.6,0,0,1-1.937-.391A3.24,3.24,0,0,1-55.371-1.3a2.406,2.406,0,0,1-.477-1.414h2.461A1.017,1.017,0,0,0-53-1.855a1.607,1.607,0,0,0,.961.27,1.264,1.264,0,0,0,.809-.219A.7.7,0,0,0-50.957-2.375ZM-46.605,0V-6.625h-1.227V-8.453h1.227v-.672a2.921,2.921,0,0,1,.852-2.242,3.364,3.364,0,0,1,2.391-.8A5.235,5.235,0,0,1-42.129-12l.008,1.938a2.4,2.4,0,0,0-.648-.07q-1.2,0-1.2,1.031v.648h1.648v1.828h-1.648V0Zm9.977,0a2.973,2.973,0,0,1-.25-.758A2.448,2.448,0,0,1-38.91.156a3,3,0,0,1-2.031-.723,2.3,2.3,0,0,1-.836-1.816,2.364,2.364,0,0,1,1.016-2.078,5.174,5.174,0,0,1,2.953-.7H-37v-.448q0-1.17-1.008-1.17a.824.824,0,0,0-.937.926h-2.633a2.36,2.36,0,0,1,1.043-1.99,4.383,4.383,0,0,1,2.66-.765,3.843,3.843,0,0,1,2.555.789,2.743,2.743,0,0,1,.961,2.164v3.742A3.832,3.832,0,0,0-34-.133V0Zm-1.648-1.719a1.469,1.469,0,0,0,.816-.211A1.322,1.322,0,0,0-37-2.406V-3.758h-.766q-1.375,0-1.375,1.234a.754.754,0,0,0,.242.582A.876.876,0,0,0-38.277-1.719Zm8.953-.156a1.171,1.171,0,0,0,.859-.3,1.1,1.1,0,0,0,.3-.84H-25.7a2.922,2.922,0,0,1-1,2.281,3.705,3.705,0,0,1-2.566.891A3.751,3.751,0,0,1-32.168-1,4.556,4.556,0,0,1-33.23-4.2v-.109a5.149,5.149,0,0,1,.473-2.262,3.441,3.441,0,0,1,1.363-1.508,4.065,4.065,0,0,1,2.109-.527,3.658,3.658,0,0,1,2.617.914A3.242,3.242,0,0,1-25.7-5.219h-2.469a1.445,1.445,0,0,0-.32-1.008,1.106,1.106,0,0,0-.859-.352q-1.023,0-1.2,1.3A9.206,9.206,0,0,0-30.6-4.133a3.616,3.616,0,0,0,.3,1.766A1.055,1.055,0,0,0-29.324-1.875Zm8.313,0a1.171,1.171,0,0,0,.859-.3,1.1,1.1,0,0,0,.3-.84h2.469a2.922,2.922,0,0,1-1,2.281,3.705,3.705,0,0,1-2.566.891A3.751,3.751,0,0,1-23.855-1a4.556,4.556,0,0,1-1.062-3.2v-.109a5.149,5.149,0,0,1,.473-2.262,3.441,3.441,0,0,1,1.363-1.508,4.065,4.065,0,0,1,2.109-.527,3.658,3.658,0,0,1,2.617.914,3.242,3.242,0,0,1,.969,2.477h-2.469a1.445,1.445,0,0,0-.32-1.008,1.106,1.106,0,0,0-.859-.352q-1.023,0-1.2,1.3a9.206,9.206,0,0,0-.055,1.141,3.616,3.616,0,0,0,.3,1.766A1.055,1.055,0,0,0-21.012-1.875ZM-13.5,0h-2.641V-8.453H-13.5Zm-2.8-10.641a1.186,1.186,0,0,1,.406-.927,1.527,1.527,0,0,1,1.055-.362,1.527,1.527,0,0,1,1.055.362,1.186,1.186,0,0,1,.406.927,1.186,1.186,0,0,1-.406.927,1.527,1.527,0,0,1-1.055.362,1.527,1.527,0,0,1-1.055-.362A1.186,1.186,0,0,1-16.293-10.641ZM-12.207-4.3a4.989,4.989,0,0,1,.492-2.254A3.52,3.52,0,0,1-10.3-8.078a4.259,4.259,0,0,1,2.164-.531A3.887,3.887,0,0,1-5.145-7.434a4.512,4.512,0,0,1,1.094,3.2v.094A4.378,4.378,0,0,1-5.148-1,3.9,3.9,0,0,1-8.121.156a3.942,3.942,0,0,1-2.9-1.082A4.232,4.232,0,0,1-12.2-3.859Zm2.633.164a3.145,3.145,0,0,0,.367,1.719,1.223,1.223,0,0,0,1.086.547q1.406,0,1.438-2.164V-4.3q0-2.273-1.453-2.273-1.32,0-1.43,1.961ZM-7.777-12H-5L-7.168-9.547l-2.148,0Zm7.3,3.547.086.992A2.867,2.867,0,0,1,2.027-8.609,2.412,2.412,0,0,1,4-7.82a3.757,3.757,0,0,1,.676,2.375V0H2.035V-5.336a1.426,1.426,0,0,0-.258-.941,1.193,1.193,0,0,0-.937-.3,1.256,1.256,0,0,0-1.148.609V0H-2.941V-8.453ZM9.785-4.289a5.164,5.164,0,0,1,.867-3.164,2.854,2.854,0,0,1,2.422-1.156,2.428,2.428,0,0,1,1.906.891V-12h2.641V0H15.254l-.133-.906A2.493,2.493,0,0,1,13.059.156,2.849,2.849,0,0,1,10.668-1,5.327,5.327,0,0,1,9.785-4.289Zm2.633.164q0,2.25,1.313,2.25a1.3,1.3,0,0,0,1.25-.734V-5.828a1.261,1.261,0,0,0-1.234-.75q-1.219,0-1.32,1.969ZM23.207.156A4.345,4.345,0,0,1,20.059-1a4.006,4.006,0,0,1-1.2-3.02v-.219a5.191,5.191,0,0,1,.48-2.289,3.516,3.516,0,0,1,1.4-1.535,4.233,4.233,0,0,1,2.188-.543A3.659,3.659,0,0,1,25.738-7.5,4.344,4.344,0,0,1,26.77-4.422V-3.4H21.535a1.9,1.9,0,0,0,.617,1.117,1.836,1.836,0,0,0,1.234.406A2.366,2.366,0,0,0,25.34-2.75l1.2,1.422A3.363,3.363,0,0,1,25.148-.246,4.713,4.713,0,0,1,23.207.156Zm-.3-6.734q-1.156,0-1.375,1.531h2.656v-.2a1.3,1.3,0,0,0-.32-.98A1.275,1.275,0,0,0,22.91-6.578ZM30.605,0H27.965V-12h2.641Zm9.18-1.875a1.171,1.171,0,0,0,.859-.3,1.1,1.1,0,0,0,.3-.84H43.41a2.922,2.922,0,0,1-1,2.281,3.705,3.705,0,0,1-2.566.891A3.751,3.751,0,0,1,36.941-1a4.556,4.556,0,0,1-1.062-3.2v-.109a5.149,5.149,0,0,1,.473-2.262,3.441,3.441,0,0,1,1.363-1.508,4.065,4.065,0,0,1,2.109-.527,3.658,3.658,0,0,1,2.617.914,3.242,3.242,0,0,1,.969,2.477H40.941a1.445,1.445,0,0,0-.32-1.008,1.106,1.106,0,0,0-.859-.352q-1.023,0-1.2,1.3a9.206,9.206,0,0,0-.055,1.141,3.616,3.616,0,0,0,.3,1.766A1.055,1.055,0,0,0,39.785-1.875ZM47.3,0H44.66V-12H47.3Zm4.4,0H49.059V-8.453H51.7ZM48.9-10.641a1.186,1.186,0,0,1,.406-.927,1.527,1.527,0,0,1,1.055-.362,1.527,1.527,0,0,1,1.055.362,1.186,1.186,0,0,1,.406.927,1.186,1.186,0,0,1-.406.927,1.527,1.527,0,0,1-1.055.362,1.527,1.527,0,0,1-1.055-.362A1.186,1.186,0,0,1,48.9-10.641ZM57.41.156A4.345,4.345,0,0,1,54.262-1a4.006,4.006,0,0,1-1.2-3.02v-.219a5.191,5.191,0,0,1,.48-2.289,3.516,3.516,0,0,1,1.4-1.535,4.233,4.233,0,0,1,2.188-.543A3.659,3.659,0,0,1,59.941-7.5a4.344,4.344,0,0,1,1.031,3.082V-3.4H55.738a1.9,1.9,0,0,0,.617,1.117,1.836,1.836,0,0,0,1.234.406,2.366,2.366,0,0,0,1.953-.875l1.2,1.422A3.363,3.363,0,0,1,59.352-.246,4.713,4.713,0,0,1,57.41.156Zm-.3-6.734q-1.156,0-1.375,1.531h2.656v-.2a1.3,1.3,0,0,0-.32-.98A1.275,1.275,0,0,0,57.113-6.578Zm7.336-1.875.086.992a2.867,2.867,0,0,1,2.414-1.148,2.412,2.412,0,0,1,1.973.789A3.757,3.757,0,0,1,69.6-5.445V0H66.957V-5.336a1.426,1.426,0,0,0-.258-.941,1.193,1.193,0,0,0-.937-.3,1.256,1.256,0,0,0-1.148.609V0H61.98V-8.453Zm9.672-2.1v2.1h1.391v1.828H74.121v3.867a.987.987,0,0,0,.172.664.922.922,0,0,0,.68.188,3.862,3.862,0,0,0,.656-.047V-.07a4.859,4.859,0,0,1-1.484.227,2.758,2.758,0,0,1-2.008-.641,2.626,2.626,0,0,1-.648-1.945v-4.2H70.41V-8.453h1.078v-2.1ZM80.637.156A4.345,4.345,0,0,1,77.488-1a4.006,4.006,0,0,1-1.2-3.02v-.219a5.191,5.191,0,0,1,.48-2.289,3.516,3.516,0,0,1,1.4-1.535,4.233,4.233,0,0,1,2.188-.543A3.659,3.659,0,0,1,83.168-7.5,4.344,4.344,0,0,1,84.2-4.422V-3.4H78.965a1.9,1.9,0,0,0,.617,1.117,1.836,1.836,0,0,0,1.234.406A2.366,2.366,0,0,0,82.77-2.75l1.2,1.422A3.363,3.363,0,0,1,82.578-.246,4.713,4.713,0,0,1,80.637.156Zm-.3-6.734q-1.156,0-1.375,1.531h2.656v-.2a1.3,1.3,0,0,0-.32-.98A1.275,1.275,0,0,0,80.34-6.578Z" transform="translate(-654 -9104) rotate(90)" fill="#fff"/>
    <path id="Trazado_148340" data-name="Trazado 148340" d="M-138.951-3.377V0h-2.4V-9.953h3.972a4.626,4.626,0,0,1,2.02.42,3.168,3.168,0,0,1,1.36,1.2,3.267,3.267,0,0,1,.482,1.76,2.88,2.88,0,0,1-1.042,2.328,4.326,4.326,0,0,1-2.861.872Zm0-1.853h1.572a1.483,1.483,0,0,0,1.063-.349,1.3,1.3,0,0,0,.366-.984,1.6,1.6,0,0,0-.376-1.114,1.331,1.331,0,0,0-1.025-.424h-1.6Zm11.081-.082-.759-.055a1.363,1.363,0,0,0-1.395.684V0h-2.3V-7.4h2.16l.075.95a1.784,1.784,0,0,1,1.62-1.087,2.247,2.247,0,0,1,.643.082Zm.294,1.545a4.366,4.366,0,0,1,.431-1.972,3.08,3.08,0,0,1,1.237-1.33,3.726,3.726,0,0,1,1.894-.465A3.4,3.4,0,0,1-121.4-6.5a3.948,3.948,0,0,1,.957,2.8v.082a3.83,3.83,0,0,1-.96,2.745A3.41,3.41,0,0,1-124,.137a3.449,3.449,0,0,1-2.536-.947,3.7,3.7,0,0,1-1.032-2.567Zm2.3.144a2.752,2.752,0,0,0,.321,1.5,1.07,1.07,0,0,0,.95.479q1.23,0,1.258-1.894v-.232q0-1.989-1.271-1.989-1.155,0-1.251,1.716Zm8.976,1.982a1.025,1.025,0,0,0,.752-.263.965.965,0,0,0,.26-.735h2.16a2.557,2.557,0,0,1-.872,2,3.242,3.242,0,0,1-2.246.779,3.282,3.282,0,0,1-2.543-1.012,3.986,3.986,0,0,1-.93-2.8v-.1a4.505,4.505,0,0,1,.414-1.979,3.011,3.011,0,0,1,1.193-1.319,3.557,3.557,0,0,1,1.846-.461,3.2,3.2,0,0,1,2.29.8,2.837,2.837,0,0,1,.848,2.167h-2.16a1.265,1.265,0,0,0-.28-.882.967.967,0,0,0-.752-.308q-.9,0-1.046,1.142a8.056,8.056,0,0,0-.048,1,3.164,3.164,0,0,0,.267,1.545A.923.923,0,0,0-116.3-1.641Zm7.725,1.777a3.8,3.8,0,0,1-2.755-1.015,3.506,3.506,0,0,1-1.053-2.642v-.191a4.542,4.542,0,0,1,.42-2,3.076,3.076,0,0,1,1.227-1.343,3.7,3.7,0,0,1,1.914-.475,3.2,3.2,0,0,1,2.461.967,3.8,3.8,0,0,1,.9,2.7v.9h-4.58a1.66,1.66,0,0,0,.54.978,1.607,1.607,0,0,0,1.08.355,2.07,2.07,0,0,0,1.709-.766l1.053,1.244a2.943,2.943,0,0,1-1.22.947A4.124,4.124,0,0,1-108.572.137Zm-.26-5.893q-1.012,0-1.2,1.34h2.324v-.178a1.141,1.141,0,0,0-.28-.858A1.115,1.115,0,0,0-108.832-5.756Zm8.176,3.678a.532.532,0,0,0-.308-.472,4.679,4.679,0,0,0-1.169-.369,5.33,5.33,0,0,1-1.422-.5,2.382,2.382,0,0,1-.854-.755A1.8,1.8,0,0,1-104.7-5.2a2.044,2.044,0,0,1,.841-1.678,3.464,3.464,0,0,1,2.2-.66,3.837,3.837,0,0,1,2.352.663,2.074,2.074,0,0,1,.889,1.743h-2.311q0-.889-.937-.889a.928.928,0,0,0-.608.2.624.624,0,0,0-.246.5.573.573,0,0,0,.3.5,2.842,2.842,0,0,0,.96.314A8.3,8.3,0,0,1-100.1-4.2a2.105,2.105,0,0,1,1.668,2.058,1.937,1.937,0,0,1-.9,1.647,3.942,3.942,0,0,1-2.328.636,4.023,4.023,0,0,1-1.7-.342,2.835,2.835,0,0,1-1.162-.93,2.105,2.105,0,0,1-.417-1.237h2.153a.89.89,0,0,0,.342.749,1.406,1.406,0,0,0,.841.236,1.106,1.106,0,0,0,.708-.191A.612.612,0,0,0-100.656-2.078Zm3.008-1.688a4.366,4.366,0,0,1,.431-1.972,3.08,3.08,0,0,1,1.237-1.33,3.726,3.726,0,0,1,1.894-.465A3.4,3.4,0,0,1-91.468-6.5a3.948,3.948,0,0,1,.957,2.8v.082a3.83,3.83,0,0,1-.96,2.745,3.41,3.41,0,0,1-2.6,1.015A3.449,3.449,0,0,1-96.609-.81a3.7,3.7,0,0,1-1.032-2.567Zm2.3.144a2.752,2.752,0,0,0,.321,1.5,1.07,1.07,0,0,0,.95.479q1.23,0,1.258-1.894v-.232q0-1.989-1.271-1.989-1.155,0-1.251,1.716Zm9.721,1.545a.532.532,0,0,0-.308-.472A4.679,4.679,0,0,0-87.1-2.919a5.33,5.33,0,0,1-1.422-.5,2.382,2.382,0,0,1-.854-.755A1.8,1.8,0,0,1-89.67-5.2a2.044,2.044,0,0,1,.841-1.678,3.464,3.464,0,0,1,2.2-.66,3.837,3.837,0,0,1,2.352.663,2.074,2.074,0,0,1,.889,1.743H-85.7q0-.889-.937-.889a.928.928,0,0,0-.608.2.624.624,0,0,0-.246.5.573.573,0,0,0,.3.5,2.842,2.842,0,0,0,.96.314A8.3,8.3,0,0,1-85.07-4.2,2.105,2.105,0,0,1-83.4-2.146,1.937,1.937,0,0,1-84.3-.5a3.942,3.942,0,0,1-2.328.636,4.023,4.023,0,0,1-1.7-.342,2.835,2.835,0,0,1-1.162-.93A2.105,2.105,0,0,1-89.9-2.372h2.153a.89.89,0,0,0,.342.749,1.406,1.406,0,0,0,.841.236,1.106,1.106,0,0,0,.708-.191A.612.612,0,0,0-85.624-2.078Zm13.651-1.565a4.46,4.46,0,0,1-.776,2.751,2.488,2.488,0,0,1-2.1,1.029,2.132,2.132,0,0,1-1.675-.745V2.844h-2.3V-7.4h2.153l.068.684a2.132,2.132,0,0,1,1.743-.82,2.508,2.508,0,0,1,2.126,1.008,4.515,4.515,0,0,1,.759,2.772Zm-2.3-.144q0-1.969-1.148-1.969a1.084,1.084,0,0,0-1.094.588v2.912a1.119,1.119,0,0,0,1.107.615q1.1,0,1.135-1.9ZM-66.791,0a2.6,2.6,0,0,1-.219-.663,2.142,2.142,0,0,1-1.777.8A2.624,2.624,0,0,1-70.564-.5,2.013,2.013,0,0,1-71.3-2.085,2.069,2.069,0,0,1-70.407-3.9a4.527,4.527,0,0,1,2.584-.615h.711V-4.91q0-1.023-.882-1.023a.721.721,0,0,0-.82.811h-2.3a2.065,2.065,0,0,1,.913-1.741,3.835,3.835,0,0,1,2.328-.669,3.363,3.363,0,0,1,2.235.69A2.4,2.4,0,0,1-64.8-4.949v3.274a3.353,3.353,0,0,0,.314,1.559V0Zm-1.442-1.5a1.285,1.285,0,0,0,.714-.185,1.157,1.157,0,0,0,.407-.417V-3.288h-.67q-1.2,0-1.2,1.08a.659.659,0,0,0,.212.509A.767.767,0,0,0-68.233-1.5Zm9.181-3.808-.759-.055a1.363,1.363,0,0,0-1.395.684V0h-2.3V-7.4h2.16l.075.95a1.784,1.784,0,0,1,1.62-1.087,2.247,2.247,0,0,1,.643.082ZM-54.26,0a2.6,2.6,0,0,1-.219-.663,2.142,2.142,0,0,1-1.777.8A2.624,2.624,0,0,1-58.034-.5a2.013,2.013,0,0,1-.731-1.589A2.069,2.069,0,0,1-57.876-3.9a4.527,4.527,0,0,1,2.584-.615h.711V-4.91q0-1.023-.882-1.023a.721.721,0,0,0-.82.811h-2.3a2.065,2.065,0,0,1,.913-1.741,3.835,3.835,0,0,1,2.328-.669,3.363,3.363,0,0,1,2.235.69,2.4,2.4,0,0,1,.841,1.894v3.274a3.353,3.353,0,0,0,.314,1.559V0ZM-55.7-1.5a1.285,1.285,0,0,0,.714-.185,1.157,1.157,0,0,0,.407-.417V-3.288h-.67q-1.2,0-1.2,1.08a.659.659,0,0,0,.212.509A.767.767,0,0,0-55.7-1.5ZM-45.08,0H-47.39V-10.5h2.311Zm5.585,0a2.6,2.6,0,0,1-.219-.663,2.142,2.142,0,0,1-1.777.8A2.624,2.624,0,0,1-43.268-.5,2.013,2.013,0,0,1-44-2.085,2.069,2.069,0,0,1-43.111-3.9a4.527,4.527,0,0,1,2.584-.615h.711V-4.91q0-1.023-.882-1.023a.721.721,0,0,0-.82.811h-2.3a2.065,2.065,0,0,1,.913-1.741,3.835,3.835,0,0,1,2.328-.669,3.363,3.363,0,0,1,2.235.69,2.4,2.4,0,0,1,.841,1.894v3.274a3.353,3.353,0,0,0,.314,1.559V0Zm-1.442-1.5a1.285,1.285,0,0,0,.714-.185,1.157,1.157,0,0,0,.407-.417V-3.288h-.67q-1.2,0-1.2,1.08a.659.659,0,0,0,.212.509A.767.767,0,0,0-40.937-1.5Zm8.579-.574a.532.532,0,0,0-.308-.472,4.679,4.679,0,0,0-1.169-.369,5.33,5.33,0,0,1-1.422-.5,2.382,2.382,0,0,1-.854-.755A1.8,1.8,0,0,1-36.4-5.2a2.044,2.044,0,0,1,.841-1.678,3.464,3.464,0,0,1,2.2-.66,3.837,3.837,0,0,1,2.352.663,2.074,2.074,0,0,1,.889,1.743h-2.311q0-.889-.937-.889a.928.928,0,0,0-.608.2.624.624,0,0,0-.246.5.573.573,0,0,0,.3.5,2.842,2.842,0,0,0,.96.314A8.3,8.3,0,0,1-31.8-4.2a2.105,2.105,0,0,1,1.668,2.058,1.937,1.937,0,0,1-.9,1.647,3.942,3.942,0,0,1-2.328.636,4.023,4.023,0,0,1-1.7-.342,2.835,2.835,0,0,1-1.162-.93,2.105,2.105,0,0,1-.417-1.237h2.153a.89.89,0,0,0,.342.749,1.406,1.406,0,0,0,.841.236,1.106,1.106,0,0,0,.708-.191A.612.612,0,0,0-32.358-2.078ZM-21.407,0a2.6,2.6,0,0,1-.219-.663,2.142,2.142,0,0,1-1.777.8A2.624,2.624,0,0,1-25.18-.5a2.013,2.013,0,0,1-.731-1.589A2.069,2.069,0,0,1-25.023-3.9a4.527,4.527,0,0,1,2.584-.615h.711V-4.91q0-1.023-.882-1.023a.721.721,0,0,0-.82.811h-2.3a2.065,2.065,0,0,1,.913-1.741,3.835,3.835,0,0,1,2.328-.669,3.363,3.363,0,0,1,2.235.69,2.4,2.4,0,0,1,.841,1.894v3.274A3.353,3.353,0,0,0-19.1-.116V0Zm-1.442-1.5a1.285,1.285,0,0,0,.714-.185,1.157,1.157,0,0,0,.407-.417V-3.288h-.67q-1.2,0-1.2,1.08a.659.659,0,0,0,.212.509A.767.767,0,0,0-22.849-1.5Zm7.834-.137a1.025,1.025,0,0,0,.752-.263A.965.965,0,0,0-14-2.639h2.16a2.557,2.557,0,0,1-.872,2A3.242,3.242,0,0,1-14.96.137,3.282,3.282,0,0,1-17.5-.875a3.986,3.986,0,0,1-.93-2.8v-.1a4.505,4.505,0,0,1,.414-1.979,3.011,3.011,0,0,1,1.193-1.319,3.557,3.557,0,0,1,1.846-.461,3.2,3.2,0,0,1,2.29.8,2.837,2.837,0,0,1,.848,2.167H-14a1.265,1.265,0,0,0-.28-.882.967.967,0,0,0-.752-.308q-.9,0-1.046,1.142a8.056,8.056,0,0,0-.048,1,3.164,3.164,0,0,0,.267,1.545A.923.923,0,0,0-15.015-1.641Zm6.829-7.595V-7.4h1.217v1.6H-8.186v3.384a.864.864,0,0,0,.15.581.807.807,0,0,0,.595.164,3.38,3.38,0,0,0,.574-.041V-.062a4.252,4.252,0,0,1-1.3.2A2.413,2.413,0,0,1-9.922-.424a2.3,2.3,0,0,1-.567-1.7V-5.8h-.943V-7.4h.943V-9.235ZM-3.633,0H-5.944V-7.4h2.311ZM-6.081-9.311a1.037,1.037,0,0,1,.355-.812,1.336,1.336,0,0,1,.923-.316,1.336,1.336,0,0,1,.923.316,1.037,1.037,0,0,1,.355.812,1.037,1.037,0,0,1-.355.812,1.336,1.336,0,0,1-.923.316A1.336,1.336,0,0,1-5.725-8.5,1.037,1.037,0,0,1-6.081-9.311ZM.735-2.741,1.9-7.4H4.331L1.917,0H-.434L-2.847-7.4H-.414ZM7.448,0H5.137V-7.4H7.448ZM5-9.311a1.037,1.037,0,0,1,.355-.812,1.336,1.336,0,0,1,.923-.316,1.336,1.336,0,0,1,.923.316,1.037,1.037,0,0,1,.355.812A1.037,1.037,0,0,1,7.2-8.5a1.336,1.336,0,0,1-.923.316A1.336,1.336,0,0,1,5.356-8.5,1.037,1.037,0,0,1,5-9.311ZM8.576-3.753a4.518,4.518,0,0,1,.759-2.769,2.5,2.5,0,0,1,2.119-1.012,2.124,2.124,0,0,1,1.668.779V-10.5h2.311V0H13.361l-.116-.793a2.181,2.181,0,0,1-1.8.93A2.493,2.493,0,0,1,9.348-.875,4.662,4.662,0,0,1,8.576-3.753Zm2.3.144q0,1.969,1.148,1.969a1.134,1.134,0,0,0,1.094-.643V-5.1a1.1,1.1,0,0,0-1.08-.656q-1.066,0-1.155,1.723ZM20.908,0a2.6,2.6,0,0,1-.219-.663,2.142,2.142,0,0,1-1.777.8A2.624,2.624,0,0,1,17.134-.5,2.013,2.013,0,0,1,16.4-2.085,2.069,2.069,0,0,1,17.292-3.9a4.527,4.527,0,0,1,2.584-.615h.711V-4.91q0-1.023-.882-1.023a.721.721,0,0,0-.82.811h-2.3a2.065,2.065,0,0,1,.913-1.741,3.835,3.835,0,0,1,2.328-.669,3.363,3.363,0,0,1,2.235.69A2.4,2.4,0,0,1,22.9-4.949v3.274a3.353,3.353,0,0,0,.314,1.559V0ZM19.465-1.5a1.285,1.285,0,0,0,.714-.185,1.157,1.157,0,0,0,.407-.417V-3.288h-.67q-1.2,0-1.2,1.08a.659.659,0,0,0,.212.509A.767.767,0,0,0,19.465-1.5Zm4.416-2.249a4.518,4.518,0,0,1,.759-2.769,2.5,2.5,0,0,1,2.119-1.012,2.124,2.124,0,0,1,1.668.779V-10.5h2.311V0H28.667L28.55-.793a2.181,2.181,0,0,1-1.8.93A2.493,2.493,0,0,1,24.654-.875,4.661,4.661,0,0,1,23.881-3.753Zm2.3.144q0,1.969,1.148,1.969a1.134,1.134,0,0,0,1.094-.643V-5.1a1.1,1.1,0,0,0-1.08-.656q-1.066,0-1.155,1.723ZM35.625.137A3.8,3.8,0,0,1,32.871-.878a3.506,3.506,0,0,1-1.053-2.642v-.191a4.542,4.542,0,0,1,.42-2,3.076,3.076,0,0,1,1.227-1.343,3.7,3.7,0,0,1,1.914-.475,3.2,3.2,0,0,1,2.461.967,3.8,3.8,0,0,1,.9,2.7v.9h-4.58A1.66,1.66,0,0,0,34.7-2a1.607,1.607,0,0,0,1.08.355,2.07,2.07,0,0,0,1.709-.766l1.053,1.244a2.943,2.943,0,0,1-1.22.947A4.123,4.123,0,0,1,35.625.137Zm-.26-5.893q-1.012,0-1.2,1.34h2.324v-.178a1.141,1.141,0,0,0-.28-.858A1.115,1.115,0,0,0,35.366-5.756Zm8.176,3.678a.532.532,0,0,0-.308-.472,4.679,4.679,0,0,0-1.169-.369,5.33,5.33,0,0,1-1.422-.5,2.382,2.382,0,0,1-.854-.755A1.8,1.8,0,0,1,39.495-5.2a2.044,2.044,0,0,1,.841-1.678,3.464,3.464,0,0,1,2.2-.66,3.837,3.837,0,0,1,2.352.663,2.074,2.074,0,0,1,.889,1.743H43.466q0-.889-.937-.889a.928.928,0,0,0-.608.2.624.624,0,0,0-.246.5.573.573,0,0,0,.3.5,2.842,2.842,0,0,0,.96.314A8.3,8.3,0,0,1,44.1-4.2a2.105,2.105,0,0,1,1.668,2.058,1.937,1.937,0,0,1-.9,1.647,3.942,3.942,0,0,1-2.328.636,4.023,4.023,0,0,1-1.7-.342,2.835,2.835,0,0,1-1.162-.93,2.105,2.105,0,0,1-.417-1.237h2.153a.89.89,0,0,0,.342.749,1.406,1.406,0,0,0,.841.236,1.106,1.106,0,0,0,.708-.191A.612.612,0,0,0,43.542-2.078Zm6.494-1.675a4.518,4.518,0,0,1,.759-2.769,2.5,2.5,0,0,1,2.119-1.012,2.124,2.124,0,0,1,1.668.779V-10.5h2.311V0H54.821L54.7-.793a2.181,2.181,0,0,1-1.8.93A2.493,2.493,0,0,1,50.808-.875,4.662,4.662,0,0,1,50.036-3.753Zm2.3.144q0,1.969,1.148,1.969a1.134,1.134,0,0,0,1.094-.643V-5.1a1.1,1.1,0,0,0-1.08-.656q-1.066,0-1.155,1.723ZM61.78.137A3.8,3.8,0,0,1,59.025-.878a3.506,3.506,0,0,1-1.053-2.642v-.191a4.542,4.542,0,0,1,.42-2A3.076,3.076,0,0,1,59.62-7.058a3.7,3.7,0,0,1,1.914-.475,3.2,3.2,0,0,1,2.461.967,3.8,3.8,0,0,1,.9,2.7v.9h-4.58a1.66,1.66,0,0,0,.54.978,1.607,1.607,0,0,0,1.08.355,2.07,2.07,0,0,0,1.709-.766L64.7-1.162a2.943,2.943,0,0,1-1.22.947A4.123,4.123,0,0,1,61.78.137Zm-.26-5.893q-1.012,0-1.2,1.34h2.324v-.178a1.141,1.141,0,0,0-.28-.858A1.115,1.115,0,0,0,61.52-5.756ZM71.74,0H69.429V-10.5H71.74Zm5.585,0a2.6,2.6,0,0,1-.219-.663,2.142,2.142,0,0,1-1.777.8A2.624,2.624,0,0,1,73.551-.5a2.013,2.013,0,0,1-.731-1.589A2.069,2.069,0,0,1,73.708-3.9a4.527,4.527,0,0,1,2.584-.615H77V-4.91q0-1.023-.882-1.023a.721.721,0,0,0-.82.811H73a2.065,2.065,0,0,1,.913-1.741,3.835,3.835,0,0,1,2.328-.669,3.363,3.363,0,0,1,2.235.69,2.4,2.4,0,0,1,.841,1.894v3.274a3.353,3.353,0,0,0,.314,1.559V0ZM75.882-1.5a1.285,1.285,0,0,0,.714-.185A1.157,1.157,0,0,0,77-2.105V-3.288h-.67q-1.2,0-1.2,1.08a.659.659,0,0,0,.212.509A.767.767,0,0,0,75.882-1.5Zm7.9-2.249a4.518,4.518,0,0,1,.759-2.769,2.5,2.5,0,0,1,2.119-1.012,2.124,2.124,0,0,1,1.668.779V-10.5h2.311V0H88.57l-.116-.793a2.181,2.181,0,0,1-1.8.93A2.493,2.493,0,0,1,84.557-.875,4.661,4.661,0,0,1,83.785-3.753Zm2.3.144q0,1.969,1.148,1.969a1.134,1.134,0,0,0,1.094-.643V-5.1a1.1,1.1,0,0,0-1.08-.656q-1.066,0-1.155,1.723ZM94.38,0H92.07V-7.4H94.38ZM91.933-9.311a1.037,1.037,0,0,1,.355-.812,1.336,1.336,0,0,1,.923-.316,1.336,1.336,0,0,1,.923.316,1.037,1.037,0,0,1,.355.812,1.037,1.037,0,0,1-.355.812,1.336,1.336,0,0,1-.923.316,1.336,1.336,0,0,1-.923-.316A1.037,1.037,0,0,1,91.933-9.311Zm8.34,4-.759-.055a1.363,1.363,0,0,0-1.395.684V0h-2.3V-7.4h2.16l.075.95a1.784,1.784,0,0,1,1.62-1.087,2.246,2.246,0,0,1,.643.082ZM104.552.137A3.8,3.8,0,0,1,101.8-.878a3.506,3.506,0,0,1-1.053-2.642v-.191a4.542,4.542,0,0,1,.42-2,3.076,3.076,0,0,1,1.227-1.343,3.7,3.7,0,0,1,1.914-.475,3.2,3.2,0,0,1,2.461.967,3.8,3.8,0,0,1,.9,2.7v.9h-4.58a1.66,1.66,0,0,0,.54.978,1.607,1.607,0,0,0,1.08.355,2.07,2.07,0,0,0,1.709-.766l1.053,1.244a2.943,2.943,0,0,1-1.22.947A4.124,4.124,0,0,1,104.552.137Zm-.26-5.893q-1.012,0-1.2,1.34h2.324v-.178a1.141,1.141,0,0,0-.28-.858A1.115,1.115,0,0,0,104.292-5.756Zm7.431,4.115a1.025,1.025,0,0,0,.752-.263.965.965,0,0,0,.26-.735h2.16a2.557,2.557,0,0,1-.872,2,3.242,3.242,0,0,1-2.246.779,3.282,3.282,0,0,1-2.543-1.012,3.986,3.986,0,0,1-.93-2.8v-.1a4.505,4.505,0,0,1,.414-1.979,3.011,3.011,0,0,1,1.193-1.319,3.557,3.557,0,0,1,1.846-.461,3.2,3.2,0,0,1,2.29.8,2.837,2.837,0,0,1,.848,2.167h-2.16a1.265,1.265,0,0,0-.28-.882.967.967,0,0,0-.752-.308q-.9,0-1.046,1.142a8.056,8.056,0,0,0-.048,1,3.164,3.164,0,0,0,.267,1.545A.923.923,0,0,0,111.723-1.641Zm7.273,0a1.025,1.025,0,0,0,.752-.263.965.965,0,0,0,.26-.735h2.16a2.557,2.557,0,0,1-.872,2,3.242,3.242,0,0,1-2.246.779,3.282,3.282,0,0,1-2.543-1.012,3.986,3.986,0,0,1-.93-2.8v-.1a4.505,4.505,0,0,1,.414-1.979,3.011,3.011,0,0,1,1.193-1.319,3.557,3.557,0,0,1,1.846-.461,3.2,3.2,0,0,1,2.29.8,2.837,2.837,0,0,1,.848,2.167h-2.16a1.265,1.265,0,0,0-.28-.882.967.967,0,0,0-.752-.308q-.9,0-1.046,1.142a8.056,8.056,0,0,0-.048,1,3.164,3.164,0,0,0,.267,1.545A.923.923,0,0,0,119-1.641ZM125.573,0h-2.311V-7.4h2.311Zm-2.447-9.311a1.037,1.037,0,0,1,.355-.812,1.336,1.336,0,0,1,.923-.316,1.336,1.336,0,0,1,.923.316,1.037,1.037,0,0,1,.355.812,1.037,1.037,0,0,1-.355.812,1.336,1.336,0,0,1-.923.316,1.336,1.336,0,0,1-.923-.316A1.037,1.037,0,0,1,123.125-9.311ZM126.7-3.767a4.366,4.366,0,0,1,.431-1.972,3.08,3.08,0,0,1,1.237-1.33,3.726,3.726,0,0,1,1.894-.465A3.4,3.4,0,0,1,132.88-6.5a3.948,3.948,0,0,1,.957,2.8v.082a3.83,3.83,0,0,1-.96,2.745,3.41,3.41,0,0,1-2.6,1.015A3.449,3.449,0,0,1,127.74-.81a3.7,3.7,0,0,1-1.032-2.567Zm2.3.144a2.752,2.752,0,0,0,.321,1.5,1.07,1.07,0,0,0,.95.479q1.23,0,1.258-1.894v-.232q0-1.989-1.271-1.989-1.155,0-1.251,1.716Zm1.572-6.877h2.434l-1.9,2.146-1.88,0Zm6.392,3.1.075.868a2.508,2.508,0,0,1,2.112-1,2.11,2.11,0,0,1,1.726.69,3.287,3.287,0,0,1,.591,2.078V0h-2.311V-4.669a1.248,1.248,0,0,0-.226-.824,1.044,1.044,0,0,0-.82-.263,1.1,1.1,0,0,0-1,.533V0h-2.3V-7.4Z" transform="translate(-901 -9213)" fill="#12263f"/>
    <path id="Trazado_148345" data-name="Trazado 148345" d="M-127.237-3.377V0h-2.4V-9.953h3.972a4.626,4.626,0,0,1,2.02.42,3.168,3.168,0,0,1,1.36,1.2,3.267,3.267,0,0,1,.482,1.76,2.88,2.88,0,0,1-1.042,2.328,4.326,4.326,0,0,1-2.861.872Zm0-1.853h1.572a1.483,1.483,0,0,0,1.063-.349,1.3,1.3,0,0,0,.366-.984,1.6,1.6,0,0,0-.376-1.114,1.331,1.331,0,0,0-1.025-.424h-1.6Zm11.081-.082-.759-.055a1.363,1.363,0,0,0-1.395.684V0h-2.3V-7.4h2.16l.075.95a1.784,1.784,0,0,1,1.62-1.087,2.246,2.246,0,0,1,.643.082Zm.294,1.545a4.366,4.366,0,0,1,.431-1.972,3.08,3.08,0,0,1,1.237-1.33,3.726,3.726,0,0,1,1.894-.465A3.4,3.4,0,0,1-109.683-6.5a3.948,3.948,0,0,1,.957,2.8v.082a3.83,3.83,0,0,1-.96,2.745,3.41,3.41,0,0,1-2.6,1.015,3.449,3.449,0,0,1-2.536-.947,3.7,3.7,0,0,1-1.032-2.567Zm2.3.144a2.752,2.752,0,0,0,.321,1.5,1.07,1.07,0,0,0,.95.479q1.23,0,1.258-1.894v-.232q0-1.989-1.271-1.989-1.155,0-1.251,1.716Zm8.976,1.982a1.025,1.025,0,0,0,.752-.263.965.965,0,0,0,.26-.735h2.16a2.557,2.557,0,0,1-.872,2,3.242,3.242,0,0,1-2.246.779,3.282,3.282,0,0,1-2.543-1.012,3.986,3.986,0,0,1-.93-2.8v-.1a4.505,4.505,0,0,1,.414-1.979,3.011,3.011,0,0,1,1.193-1.319,3.557,3.557,0,0,1,1.846-.461,3.2,3.2,0,0,1,2.29.8,2.837,2.837,0,0,1,.848,2.167h-2.16a1.265,1.265,0,0,0-.28-.882.967.967,0,0,0-.752-.308q-.9,0-1.046,1.142a8.056,8.056,0,0,0-.048,1,3.164,3.164,0,0,0,.267,1.545A.923.923,0,0,0-104.583-1.641ZM-96.858.137A3.8,3.8,0,0,1-99.613-.878a3.506,3.506,0,0,1-1.053-2.642v-.191a4.542,4.542,0,0,1,.42-2,3.076,3.076,0,0,1,1.227-1.343A3.7,3.7,0,0,1-97.1-7.533a3.2,3.2,0,0,1,2.461.967,3.8,3.8,0,0,1,.9,2.7v.9h-4.58a1.66,1.66,0,0,0,.54.978,1.607,1.607,0,0,0,1.08.355,2.07,2.07,0,0,0,1.709-.766l1.053,1.244a2.943,2.943,0,0,1-1.22.947A4.124,4.124,0,0,1-96.858.137Zm-.26-5.893q-1.012,0-1.2,1.34H-96v-.178a1.141,1.141,0,0,0-.28-.858A1.115,1.115,0,0,0-97.118-5.756Zm8.176,3.678a.532.532,0,0,0-.308-.472,4.679,4.679,0,0,0-1.169-.369,5.33,5.33,0,0,1-1.422-.5,2.382,2.382,0,0,1-.854-.755A1.8,1.8,0,0,1-92.989-5.2a2.044,2.044,0,0,1,.841-1.678,3.464,3.464,0,0,1,2.2-.66A3.837,3.837,0,0,1-87.6-6.87a2.074,2.074,0,0,1,.889,1.743h-2.311q0-.889-.937-.889a.928.928,0,0,0-.608.2.624.624,0,0,0-.246.5.573.573,0,0,0,.3.5,2.842,2.842,0,0,0,.96.314,8.3,8.3,0,0,1,1.159.294,2.105,2.105,0,0,1,1.668,2.058A1.937,1.937,0,0,1-87.62-.5a3.942,3.942,0,0,1-2.328.636,4.023,4.023,0,0,1-1.7-.342,2.835,2.835,0,0,1-1.162-.93,2.105,2.105,0,0,1-.417-1.237h2.153a.89.89,0,0,0,.342.749,1.406,1.406,0,0,0,.841.236,1.106,1.106,0,0,0,.708-.191A.612.612,0,0,0-88.942-2.078Zm3.008-1.688A4.366,4.366,0,0,1-85.5-5.739a3.08,3.08,0,0,1,1.237-1.33,3.726,3.726,0,0,1,1.894-.465A3.4,3.4,0,0,1-79.755-6.5a3.948,3.948,0,0,1,.957,2.8v.082a3.83,3.83,0,0,1-.96,2.745,3.41,3.41,0,0,1-2.6,1.015A3.449,3.449,0,0,1-84.9-.81a3.7,3.7,0,0,1-1.032-2.567Zm2.3.144a2.752,2.752,0,0,0,.321,1.5,1.07,1.07,0,0,0,.95.479q1.23,0,1.258-1.894v-.232q0-1.989-1.271-1.989-1.155,0-1.251,1.716Zm9.721,1.545a.532.532,0,0,0-.308-.472,4.679,4.679,0,0,0-1.169-.369,5.33,5.33,0,0,1-1.422-.5,2.382,2.382,0,0,1-.854-.755A1.8,1.8,0,0,1-77.957-5.2a2.044,2.044,0,0,1,.841-1.678,3.464,3.464,0,0,1,2.2-.66,3.837,3.837,0,0,1,2.352.663,2.074,2.074,0,0,1,.889,1.743h-2.311q0-.889-.937-.889a.928.928,0,0,0-.608.2.624.624,0,0,0-.246.5.573.573,0,0,0,.3.5,2.842,2.842,0,0,0,.96.314,8.3,8.3,0,0,1,1.159.294,2.105,2.105,0,0,1,1.668,2.058,1.937,1.937,0,0,1-.9,1.647,3.942,3.942,0,0,1-2.328.636,4.023,4.023,0,0,1-1.7-.342,2.835,2.835,0,0,1-1.162-.93,2.105,2.105,0,0,1-.417-1.237h2.153a.89.89,0,0,0,.342.749,1.406,1.406,0,0,0,.841.236,1.106,1.106,0,0,0,.708-.191A.612.612,0,0,0-73.91-2.078Zm13.651-1.565a4.46,4.46,0,0,1-.776,2.751A2.488,2.488,0,0,1-63.13.137,2.132,2.132,0,0,1-64.8-.608V2.844h-2.3V-7.4h2.153l.068.684a2.132,2.132,0,0,1,1.743-.82,2.508,2.508,0,0,1,2.126,1.008,4.515,4.515,0,0,1,.759,2.772Zm-2.3-.144q0-1.969-1.148-1.969a1.084,1.084,0,0,0-1.094.588v2.912a1.119,1.119,0,0,0,1.107.615q1.1,0,1.135-1.9ZM-55.077,0A2.6,2.6,0,0,1-55.3-.663a2.142,2.142,0,0,1-1.777.8A2.624,2.624,0,0,1-58.851-.5a2.013,2.013,0,0,1-.731-1.589A2.069,2.069,0,0,1-58.693-3.9a4.527,4.527,0,0,1,2.584-.615h.711V-4.91q0-1.023-.882-1.023a.721.721,0,0,0-.82.811h-2.3a2.065,2.065,0,0,1,.913-1.741,3.835,3.835,0,0,1,2.328-.669,3.363,3.363,0,0,1,2.235.69,2.4,2.4,0,0,1,.841,1.894v3.274a3.353,3.353,0,0,0,.314,1.559V0ZM-56.52-1.5a1.285,1.285,0,0,0,.714-.185,1.157,1.157,0,0,0,.407-.417V-3.288h-.67q-1.2,0-1.2,1.08a.659.659,0,0,0,.212.509A.767.767,0,0,0-56.52-1.5Zm9.181-3.808-.759-.055a1.363,1.363,0,0,0-1.395.684V0h-2.3V-7.4h2.16l.075.95a1.784,1.784,0,0,1,1.62-1.087,2.247,2.247,0,0,1,.643.082ZM-42.547,0a2.6,2.6,0,0,1-.219-.663,2.142,2.142,0,0,1-1.777.8A2.624,2.624,0,0,1-46.32-.5a2.013,2.013,0,0,1-.731-1.589A2.069,2.069,0,0,1-46.163-3.9a4.527,4.527,0,0,1,2.584-.615h.711V-4.91q0-1.023-.882-1.023a.721.721,0,0,0-.82.811h-2.3a2.065,2.065,0,0,1,.913-1.741,3.835,3.835,0,0,1,2.328-.669,3.363,3.363,0,0,1,2.235.69,2.4,2.4,0,0,1,.841,1.894v3.274a3.353,3.353,0,0,0,.314,1.559V0Zm-1.442-1.5a1.285,1.285,0,0,0,.714-.185,1.157,1.157,0,0,0,.407-.417V-3.288h-.67q-1.2,0-1.2,1.08a.659.659,0,0,0,.212.509A.767.767,0,0,0-43.989-1.5ZM-33.366,0h-2.311V-10.5h2.311Zm5.585,0A2.6,2.6,0,0,1-28-.663a2.142,2.142,0,0,1-1.777.8A2.624,2.624,0,0,1-31.555-.5a2.013,2.013,0,0,1-.731-1.589A2.069,2.069,0,0,1-31.4-3.9a4.527,4.527,0,0,1,2.584-.615h.711V-4.91q0-1.023-.882-1.023a.721.721,0,0,0-.82.811h-2.3A2.065,2.065,0,0,1-31.2-6.864a3.835,3.835,0,0,1,2.328-.669,3.363,3.363,0,0,1,2.235.69,2.4,2.4,0,0,1,.841,1.894v3.274a3.353,3.353,0,0,0,.314,1.559V0Zm-1.442-1.5a1.285,1.285,0,0,0,.714-.185,1.157,1.157,0,0,0,.407-.417V-3.288h-.67q-1.2,0-1.2,1.08a.659.659,0,0,0,.212.509A.767.767,0,0,0-29.224-1.5Zm12.667-3.808-.759-.055a1.363,1.363,0,0,0-1.395.684V0h-2.3V-7.4h2.16l.075.95a1.784,1.784,0,0,1,1.62-1.087,2.247,2.247,0,0,1,.643.082ZM-12.277.137A3.8,3.8,0,0,1-15.032-.878a3.506,3.506,0,0,1-1.053-2.642v-.191a4.542,4.542,0,0,1,.42-2,3.076,3.076,0,0,1,1.227-1.343,3.7,3.7,0,0,1,1.914-.475,3.2,3.2,0,0,1,2.461.967,3.8,3.8,0,0,1,.9,2.7v.9h-4.58A1.66,1.66,0,0,0-13.2-2a1.607,1.607,0,0,0,1.08.355,2.07,2.07,0,0,0,1.709-.766l1.053,1.244a2.943,2.943,0,0,1-1.22.947A4.123,4.123,0,0,1-12.277.137Zm-.26-5.893q-1.012,0-1.2,1.34h2.324v-.178a1.141,1.141,0,0,0-.28-.858A1.115,1.115,0,0,0-12.537-5.756ZM-4.067,0a2.6,2.6,0,0,1-.219-.663,2.142,2.142,0,0,1-1.777.8A2.624,2.624,0,0,1-7.841-.5a2.013,2.013,0,0,1-.731-1.589A2.069,2.069,0,0,1-7.684-3.9,4.527,4.527,0,0,1-5.1-4.519h.711V-4.91q0-1.023-.882-1.023a.721.721,0,0,0-.82.811h-2.3a2.065,2.065,0,0,1,.913-1.741,3.835,3.835,0,0,1,2.328-.669,3.363,3.363,0,0,1,2.235.69,2.4,2.4,0,0,1,.841,1.894v3.274A3.353,3.353,0,0,0-1.764-.116V0ZM-5.51-1.5A1.285,1.285,0,0,0-4.8-1.688a1.157,1.157,0,0,0,.407-.417V-3.288h-.67q-1.2,0-1.2,1.08A.659.659,0,0,0-6.05-1.7.767.767,0,0,0-5.51-1.5ZM1.627,0H-.684V-10.5H1.627ZM5.476,0H3.165V-7.4H5.476ZM3.028-9.311a1.037,1.037,0,0,1,.355-.812,1.336,1.336,0,0,1,.923-.316,1.336,1.336,0,0,1,.923.316,1.037,1.037,0,0,1,.355.812,1.037,1.037,0,0,1-.355.812,1.336,1.336,0,0,1-.923.316A1.336,1.336,0,0,1,3.384-8.5,1.037,1.037,0,0,1,3.028-9.311ZM9.611-1.777h3.37V0H6.7V-1.285L9.98-5.619H6.843V-7.4h6.063v1.244ZM18.266,0a2.6,2.6,0,0,1-.219-.663,2.142,2.142,0,0,1-1.777.8A2.624,2.624,0,0,1,14.492-.5a2.013,2.013,0,0,1-.731-1.589A2.069,2.069,0,0,1,14.649-3.9a4.527,4.527,0,0,1,2.584-.615h.711V-4.91q0-1.023-.882-1.023a.721.721,0,0,0-.82.811h-2.3a2.065,2.065,0,0,1,.913-1.741,3.835,3.835,0,0,1,2.328-.669,3.363,3.363,0,0,1,2.235.69,2.4,2.4,0,0,1,.841,1.894v3.274a3.353,3.353,0,0,0,.314,1.559V0ZM16.823-1.5a1.285,1.285,0,0,0,.714-.185,1.157,1.157,0,0,0,.407-.417V-3.288h-.67q-1.2,0-1.2,1.08a.659.659,0,0,0,.212.509A.767.767,0,0,0,16.823-1.5Zm7.834-.137a1.025,1.025,0,0,0,.752-.263.965.965,0,0,0,.26-.735h2.16a2.557,2.557,0,0,1-.872,2,3.242,3.242,0,0,1-2.246.779A3.282,3.282,0,0,1,22.169-.875a3.986,3.986,0,0,1-.93-2.8v-.1a4.505,4.505,0,0,1,.414-1.979,3.011,3.011,0,0,1,1.193-1.319,3.557,3.557,0,0,1,1.846-.461,3.2,3.2,0,0,1,2.29.8,2.837,2.837,0,0,1,.848,2.167h-2.16a1.265,1.265,0,0,0-.28-.882.967.967,0,0,0-.752-.308q-.9,0-1.046,1.142a8.056,8.056,0,0,0-.048,1,3.164,3.164,0,0,0,.267,1.545A.923.923,0,0,0,24.657-1.641ZM31.233,0H28.923V-7.4h2.311ZM28.786-9.311a1.037,1.037,0,0,1,.355-.812,1.336,1.336,0,0,1,.923-.316,1.336,1.336,0,0,1,.923.316,1.037,1.037,0,0,1,.355.812,1.037,1.037,0,0,1-.355.812,1.336,1.336,0,0,1-.923.316,1.336,1.336,0,0,1-.923-.316A1.037,1.037,0,0,1,28.786-9.311Zm3.575,5.544a4.366,4.366,0,0,1,.431-1.972,3.08,3.08,0,0,1,1.237-1.33,3.726,3.726,0,0,1,1.894-.465A3.4,3.4,0,0,1,38.541-6.5a3.948,3.948,0,0,1,.957,2.8v.082a3.83,3.83,0,0,1-.96,2.745,3.41,3.41,0,0,1-2.6,1.015A3.449,3.449,0,0,1,33.4-.81a3.7,3.7,0,0,1-1.032-2.567Zm2.3.144a2.752,2.752,0,0,0,.321,1.5,1.07,1.07,0,0,0,.95.479q1.23,0,1.258-1.894v-.232q0-1.989-1.271-1.989-1.155,0-1.251,1.716ZM36.237-10.5h2.434l-1.9,2.146-1.88,0Zm6.392,3.1.075.868a2.508,2.508,0,0,1,2.112-1,2.11,2.11,0,0,1,1.726.69,3.287,3.287,0,0,1,.591,2.078V0H44.823V-4.669a1.248,1.248,0,0,0-.226-.824,1.044,1.044,0,0,0-.82-.263,1.1,1.1,0,0,0-1,.533V0h-2.3V-7.4ZM51.6-3.753a4.518,4.518,0,0,1,.759-2.769,2.5,2.5,0,0,1,2.119-1.012,2.124,2.124,0,0,1,1.668.779V-10.5h2.311V0H56.39l-.116-.793a2.181,2.181,0,0,1-1.8.93A2.493,2.493,0,0,1,52.377-.875,4.662,4.662,0,0,1,51.6-3.753Zm2.3.144q0,1.969,1.148,1.969a1.134,1.134,0,0,0,1.094-.643V-5.1a1.1,1.1,0,0,0-1.08-.656q-1.066,0-1.155,1.723ZM63.349.137A3.8,3.8,0,0,1,60.594-.878a3.506,3.506,0,0,1-1.053-2.642v-.191a4.542,4.542,0,0,1,.42-2,3.076,3.076,0,0,1,1.227-1.343A3.7,3.7,0,0,1,63.1-7.533a3.2,3.2,0,0,1,2.461.967,3.8,3.8,0,0,1,.9,2.7v.9h-4.58a1.66,1.66,0,0,0,.54.978,1.607,1.607,0,0,0,1.08.355,2.07,2.07,0,0,0,1.709-.766l1.053,1.244a2.943,2.943,0,0,1-1.22.947A4.123,4.123,0,0,1,63.349.137Zm-.26-5.893q-1.012,0-1.2,1.34H64.21v-.178a1.141,1.141,0,0,0-.28-.858A1.115,1.115,0,0,0,63.089-5.756ZM69.822,0H67.512V-10.5h2.311ZM81.594-3.644a4.46,4.46,0,0,1-.776,2.751,2.488,2.488,0,0,1-2.1,1.029,2.132,2.132,0,0,1-1.675-.745V2.844h-2.3V-7.4H76.9l.068.684a2.132,2.132,0,0,1,1.743-.82,2.508,2.508,0,0,1,2.126,1.008,4.515,4.515,0,0,1,.759,2.772Zm-2.3-.144q0-1.969-1.148-1.969a1.084,1.084,0,0,0-1.094.588v2.912a1.119,1.119,0,0,0,1.107.615q1.1,0,1.135-1.9Zm7.793-1.524-.759-.055a1.363,1.363,0,0,0-1.395.684V0h-2.3V-7.4h2.16l.075.95a1.784,1.784,0,0,1,1.62-1.087,2.246,2.246,0,0,1,.643.082Zm.294,1.545a4.366,4.366,0,0,1,.431-1.972,3.08,3.08,0,0,1,1.237-1.33,3.726,3.726,0,0,1,1.894-.465A3.4,3.4,0,0,1,93.557-6.5a3.948,3.948,0,0,1,.957,2.8v.082a3.83,3.83,0,0,1-.96,2.745,3.41,3.41,0,0,1-2.6,1.015A3.449,3.449,0,0,1,88.416-.81a3.7,3.7,0,0,1-1.032-2.567Zm2.3.144A2.752,2.752,0,0,0,90-2.119a1.07,1.07,0,0,0,.95.479q1.23,0,1.258-1.894v-.232q0-1.989-1.271-1.989-1.155,0-1.251,1.716Zm5.558-.13A4.518,4.518,0,0,1,96-6.521a2.5,2.5,0,0,1,2.119-1.012,2.124,2.124,0,0,1,1.668.779V-10.5h2.311V0h-2.071l-.116-.793a2.181,2.181,0,0,1-1.8.93A2.493,2.493,0,0,1,96.011-.875,4.661,4.661,0,0,1,95.238-3.753Zm2.3.144q0,1.969,1.148,1.969a1.134,1.134,0,0,0,1.094-.643V-5.1a1.1,1.1,0,0,0-1.08-.656q-1.066,0-1.155,1.723ZM107.81-.8a2.375,2.375,0,0,1-1.976.937,2.329,2.329,0,0,1-1.842-.708,2.976,2.976,0,0,1-.625-2.034V-7.4h2.3v4.806a.828.828,0,0,0,.923.95,1.2,1.2,0,0,0,1.128-.567V-7.4h2.317V0h-2.16Zm6.617-.841a1.025,1.025,0,0,0,.752-.263.965.965,0,0,0,.26-.735h2.16a2.557,2.557,0,0,1-.872,2,3.242,3.242,0,0,1-2.246.779,3.282,3.282,0,0,1-2.543-1.012,3.986,3.986,0,0,1-.93-2.8v-.1a4.505,4.505,0,0,1,.414-1.979,3.011,3.011,0,0,1,1.193-1.319,3.557,3.557,0,0,1,1.846-.461,3.2,3.2,0,0,1,2.29.8,2.837,2.837,0,0,1,.848,2.167h-2.16a1.265,1.265,0,0,0-.28-.882.967.967,0,0,0-.752-.308q-.9,0-1.046,1.142a8.056,8.056,0,0,0-.048,1,3.164,3.164,0,0,0,.267,1.545A.923.923,0,0,0,114.427-1.641Zm6.829-7.595V-7.4h1.217v1.6h-1.217v3.384a.864.864,0,0,0,.15.581.807.807,0,0,0,.595.164,3.379,3.379,0,0,0,.574-.041V-.062a4.252,4.252,0,0,1-1.3.2,2.413,2.413,0,0,1-1.757-.561,2.3,2.3,0,0,1-.567-1.7V-5.8h-.943V-7.4h.943V-9.235Zm1.627,5.469a4.366,4.366,0,0,1,.431-1.972,3.08,3.08,0,0,1,1.237-1.33,3.726,3.726,0,0,1,1.894-.465A3.4,3.4,0,0,1,129.063-6.5a3.948,3.948,0,0,1,.957,2.8v.082a3.83,3.83,0,0,1-.96,2.745,3.41,3.41,0,0,1-2.6,1.015,3.449,3.449,0,0,1-2.536-.947,3.7,3.7,0,0,1-1.032-2.567Zm2.3.144a2.752,2.752,0,0,0,.321,1.5,1.07,1.07,0,0,0,.95.479q1.23,0,1.258-1.894v-.232q0-1.989-1.271-1.989-1.155,0-1.251,1.716Z" transform="translate(-908 -9031)" fill="#12263f"/>
    <path id="Trazado_148342" data-name="Trazado 148342" d="M-66.927-3.377V0h-2.4V-9.953h3.972a4.626,4.626,0,0,1,2.02.42,3.168,3.168,0,0,1,1.36,1.2,3.267,3.267,0,0,1,.482,1.76,2.88,2.88,0,0,1-1.042,2.328,4.326,4.326,0,0,1-2.861.872Zm0-1.853h1.572a1.483,1.483,0,0,0,1.063-.349,1.3,1.3,0,0,0,.366-.984A1.6,1.6,0,0,0-64.3-7.677,1.331,1.331,0,0,0-65.328-8.1h-1.6Zm11.081-.082-.759-.055A1.363,1.363,0,0,0-58-4.683V0h-2.3V-7.4h2.16l.075.95a1.784,1.784,0,0,1,1.62-1.087,2.247,2.247,0,0,1,.643.082Zm.294,1.545a4.366,4.366,0,0,1,.431-1.972,3.08,3.08,0,0,1,1.237-1.33,3.726,3.726,0,0,1,1.894-.465A3.4,3.4,0,0,1-49.373-6.5a3.948,3.948,0,0,1,.957,2.8v.082a3.83,3.83,0,0,1-.96,2.745,3.41,3.41,0,0,1-2.6,1.015A3.449,3.449,0,0,1-54.513-.81a3.7,3.7,0,0,1-1.032-2.567Zm2.3.144a2.752,2.752,0,0,0,.321,1.5,1.07,1.07,0,0,0,.95.479q1.23,0,1.258-1.894v-.232q0-1.989-1.271-1.989-1.155,0-1.251,1.716Zm8.976,1.982a1.025,1.025,0,0,0,.752-.263.965.965,0,0,0,.26-.735h2.16a2.557,2.557,0,0,1-.872,2,3.242,3.242,0,0,1-2.246.779A3.282,3.282,0,0,1-46.761-.875a3.986,3.986,0,0,1-.93-2.8v-.1a4.505,4.505,0,0,1,.414-1.979,3.011,3.011,0,0,1,1.193-1.319,3.557,3.557,0,0,1,1.846-.461,3.2,3.2,0,0,1,2.29.8A2.837,2.837,0,0,1-41.1-4.566h-2.16a1.265,1.265,0,0,0-.28-.882.967.967,0,0,0-.752-.308q-.9,0-1.046,1.142a8.055,8.055,0,0,0-.048,1,3.164,3.164,0,0,0,.267,1.545A.923.923,0,0,0-44.273-1.641ZM-36.548.137A3.8,3.8,0,0,1-39.3-.878a3.506,3.506,0,0,1-1.053-2.642v-.191a4.542,4.542,0,0,1,.42-2,3.076,3.076,0,0,1,1.227-1.343,3.7,3.7,0,0,1,1.914-.475,3.2,3.2,0,0,1,2.461.967,3.8,3.8,0,0,1,.9,2.7v.9h-4.58a1.66,1.66,0,0,0,.54.978,1.607,1.607,0,0,0,1.08.355,2.07,2.07,0,0,0,1.709-.766l1.053,1.244a2.943,2.943,0,0,1-1.22.947A4.123,4.123,0,0,1-36.548.137Zm-.26-5.893q-1.012,0-1.2,1.34h2.324v-.178a1.141,1.141,0,0,0-.28-.858A1.115,1.115,0,0,0-36.808-5.756Zm8.176,3.678a.532.532,0,0,0-.308-.472,4.679,4.679,0,0,0-1.169-.369,5.33,5.33,0,0,1-1.422-.5,2.382,2.382,0,0,1-.854-.755A1.8,1.8,0,0,1-32.679-5.2a2.044,2.044,0,0,1,.841-1.678,3.464,3.464,0,0,1,2.2-.66,3.837,3.837,0,0,1,2.352.663A2.074,2.074,0,0,1-26.4-5.127h-2.311q0-.889-.937-.889a.928.928,0,0,0-.608.2.624.624,0,0,0-.246.5.573.573,0,0,0,.3.5,2.842,2.842,0,0,0,.96.314,8.3,8.3,0,0,1,1.159.294,2.105,2.105,0,0,1,1.668,2.058A1.937,1.937,0,0,1-27.31-.5a3.942,3.942,0,0,1-2.328.636,4.023,4.023,0,0,1-1.7-.342,2.835,2.835,0,0,1-1.162-.93,2.105,2.105,0,0,1-.417-1.237h2.153a.89.89,0,0,0,.342.749,1.406,1.406,0,0,0,.841.236,1.106,1.106,0,0,0,.708-.191A.612.612,0,0,0-28.632-2.078Zm3.008-1.688a4.366,4.366,0,0,1,.431-1.972,3.08,3.08,0,0,1,1.237-1.33,3.726,3.726,0,0,1,1.894-.465A3.4,3.4,0,0,1-19.445-6.5a3.948,3.948,0,0,1,.957,2.8v.082a3.83,3.83,0,0,1-.96,2.745,3.41,3.41,0,0,1-2.6,1.015A3.449,3.449,0,0,1-24.585-.81a3.7,3.7,0,0,1-1.032-2.567Zm2.3.144A2.752,2.752,0,0,0-23-2.119a1.07,1.07,0,0,0,.95.479q1.23,0,1.258-1.894v-.232q0-1.989-1.271-1.989-1.155,0-1.251,1.716ZM-13.6-2.078a.532.532,0,0,0-.308-.472,4.679,4.679,0,0,0-1.169-.369,5.33,5.33,0,0,1-1.422-.5,2.382,2.382,0,0,1-.854-.755A1.8,1.8,0,0,1-17.647-5.2a2.044,2.044,0,0,1,.841-1.678,3.464,3.464,0,0,1,2.2-.66,3.837,3.837,0,0,1,2.352.663,2.074,2.074,0,0,1,.889,1.743h-2.311q0-.889-.937-.889a.928.928,0,0,0-.608.2.624.624,0,0,0-.246.5.573.573,0,0,0,.3.5,2.842,2.842,0,0,0,.96.314,8.3,8.3,0,0,1,1.159.294,2.105,2.105,0,0,1,1.668,2.058,1.937,1.937,0,0,1-.9,1.647A3.942,3.942,0,0,1-14.6.137a4.023,4.023,0,0,1-1.7-.342,2.835,2.835,0,0,1-1.162-.93,2.105,2.105,0,0,1-.417-1.237h2.153a.89.89,0,0,0,.342.749,1.406,1.406,0,0,0,.841.236,1.106,1.106,0,0,0,.708-.191A.612.612,0,0,0-13.6-2.078Zm6.494-1.675a4.518,4.518,0,0,1,.759-2.769A2.5,2.5,0,0,1-4.228-7.533a2.124,2.124,0,0,1,1.668.779V-10.5H-.25V0H-2.321l-.116-.793a2.181,2.181,0,0,1-1.8.93A2.493,2.493,0,0,1-6.333-.875,4.661,4.661,0,0,1-7.106-3.753Zm2.3.144q0,1.969,1.148,1.969A1.134,1.134,0,0,0-2.56-2.283V-5.1a1.1,1.1,0,0,0-1.08-.656q-1.066,0-1.155,1.723ZM4.638.137A3.8,3.8,0,0,1,1.883-.878,3.506,3.506,0,0,1,.831-3.521v-.191a4.542,4.542,0,0,1,.42-2A3.076,3.076,0,0,1,2.478-7.058a3.7,3.7,0,0,1,1.914-.475,3.2,3.2,0,0,1,2.461.967,3.8,3.8,0,0,1,.9,2.7v.9H3.175A1.66,1.66,0,0,0,3.715-2a1.607,1.607,0,0,0,1.08.355A2.07,2.07,0,0,0,6.5-2.406L7.557-1.162a2.943,2.943,0,0,1-1.22.947A4.123,4.123,0,0,1,4.638.137Zm-.26-5.893q-1.012,0-1.2,1.34H5.5v-.178a1.141,1.141,0,0,0-.28-.858A1.115,1.115,0,0,0,4.378-5.756ZM19.035-3.644a4.46,4.46,0,0,1-.776,2.751,2.488,2.488,0,0,1-2.1,1.029,2.132,2.132,0,0,1-1.675-.745V2.844h-2.3V-7.4h2.153l.068.684a2.132,2.132,0,0,1,1.743-.82,2.508,2.508,0,0,1,2.126,1.008,4.515,4.515,0,0,1,.759,2.772Zm-2.3-.144q0-1.969-1.148-1.969a1.084,1.084,0,0,0-1.094.588v2.912a1.119,1.119,0,0,0,1.107.615q1.1,0,1.135-1.9Zm7.793-1.524-.759-.055a1.363,1.363,0,0,0-1.395.684V0h-2.3V-7.4h2.16l.075.95a1.784,1.784,0,0,1,1.62-1.087,2.247,2.247,0,0,1,.643.082Zm.294,1.545a4.366,4.366,0,0,1,.431-1.972,3.08,3.08,0,0,1,1.237-1.33,3.726,3.726,0,0,1,1.894-.465A3.4,3.4,0,0,1,31-6.5a3.948,3.948,0,0,1,.957,2.8v.082a3.83,3.83,0,0,1-.96,2.745,3.41,3.41,0,0,1-2.6,1.015A3.449,3.449,0,0,1,25.857-.81a3.7,3.7,0,0,1-1.032-2.567Zm2.3.144a2.752,2.752,0,0,0,.321,1.5,1.07,1.07,0,0,0,.95.479q1.23,0,1.258-1.894v-.232q0-1.989-1.271-1.989-1.155,0-1.251,1.716Zm8.7.882L36.986-7.4h2.427L37,0H34.648L32.235-7.4h2.434ZM42.53,0H40.219V-7.4H42.53ZM40.083-9.311a1.037,1.037,0,0,1,.355-.812,1.336,1.336,0,0,1,.923-.316,1.336,1.336,0,0,1,.923.316,1.037,1.037,0,0,1,.355.812,1.037,1.037,0,0,1-.355.812,1.336,1.336,0,0,1-.923.316,1.336,1.336,0,0,1-.923-.316A1.037,1.037,0,0,1,40.083-9.311Zm7.738,7.232a.532.532,0,0,0-.308-.472,4.679,4.679,0,0,0-1.169-.369,5.33,5.33,0,0,1-1.422-.5,2.382,2.382,0,0,1-.854-.755A1.8,1.8,0,0,1,43.774-5.2a2.044,2.044,0,0,1,.841-1.678,3.464,3.464,0,0,1,2.2-.66,3.837,3.837,0,0,1,2.352.663,2.074,2.074,0,0,1,.889,1.743H47.746q0-.889-.937-.889a.928.928,0,0,0-.608.2.624.624,0,0,0-.246.5.573.573,0,0,0,.3.5,2.842,2.842,0,0,0,.96.314,8.3,8.3,0,0,1,1.159.294,2.105,2.105,0,0,1,1.668,2.058,1.937,1.937,0,0,1-.9,1.647,3.942,3.942,0,0,1-2.328.636,4.023,4.023,0,0,1-1.7-.342,2.835,2.835,0,0,1-1.162-.93,2.105,2.105,0,0,1-.417-1.237h2.153a.89.89,0,0,0,.342.749,1.406,1.406,0,0,0,.841.236,1.106,1.106,0,0,0,.708-.191A.612.612,0,0,0,47.821-2.078ZM53.549,0H51.239V-7.4h2.311ZM51.1-9.311a1.037,1.037,0,0,1,.355-.812,1.336,1.336,0,0,1,.923-.316,1.336,1.336,0,0,1,.923.316,1.037,1.037,0,0,1,.355.812A1.037,1.037,0,0,1,53.3-8.5a1.336,1.336,0,0,1-.923.316,1.336,1.336,0,0,1-.923-.316A1.037,1.037,0,0,1,51.1-9.311Zm3.575,5.544a4.366,4.366,0,0,1,.431-1.972,3.08,3.08,0,0,1,1.237-1.33,3.726,3.726,0,0,1,1.894-.465A3.4,3.4,0,0,1,60.857-6.5a3.948,3.948,0,0,1,.957,2.8v.082a3.83,3.83,0,0,1-.96,2.745,3.41,3.41,0,0,1-2.6,1.015A3.449,3.449,0,0,1,55.716-.81a3.7,3.7,0,0,1-1.032-2.567Zm2.3.144a2.752,2.752,0,0,0,.321,1.5,1.07,1.07,0,0,0,.95.479q1.23,0,1.258-1.894v-.232q0-1.989-1.271-1.989-1.155,0-1.251,1.716ZM58.553-10.5h2.434l-1.9,2.146-1.88,0Zm6.392,3.1.075.868a2.508,2.508,0,0,1,2.112-1,2.11,2.11,0,0,1,1.726.69,3.287,3.287,0,0,1,.591,2.078V0H67.139V-4.669a1.248,1.248,0,0,0-.226-.824,1.044,1.044,0,0,0-.82-.263,1.1,1.1,0,0,0-1,.533V0h-2.3V-7.4ZM-36.873,14.247a4.518,4.518,0,0,1,.759-2.769A2.5,2.5,0,0,1-34,10.467a2.124,2.124,0,0,1,1.668.779V7.5h2.311V18h-2.071l-.116-.793a2.181,2.181,0,0,1-1.8.93A2.493,2.493,0,0,1-36.1,17.125,4.662,4.662,0,0,1-36.873,14.247Zm2.3.144q0,1.969,1.148,1.969a1.134,1.134,0,0,0,1.094-.643V12.9a1.1,1.1,0,0,0-1.08-.656q-1.066,0-1.155,1.723Zm9.44,3.746a3.8,3.8,0,0,1-2.755-1.015,3.506,3.506,0,0,1-1.053-2.642v-.191a4.542,4.542,0,0,1,.42-2,3.076,3.076,0,0,1,1.227-1.343,3.7,3.7,0,0,1,1.914-.475,3.2,3.2,0,0,1,2.461.967,3.8,3.8,0,0,1,.9,2.7v.9h-4.58a1.66,1.66,0,0,0,.54.978,1.607,1.607,0,0,0,1.08.355,2.07,2.07,0,0,0,1.709-.766l1.053,1.244a2.943,2.943,0,0,1-1.22.947A4.123,4.123,0,0,1-25.129,18.137Zm-.26-5.893q-1.012,0-1.2,1.34h2.324v-.178a1.141,1.141,0,0,0-.28-.858A1.115,1.115,0,0,0-25.389,12.244Zm12.264.444-.759-.055a1.363,1.363,0,0,0-1.395.684V18h-2.3V10.6h2.16l.075.95a1.784,1.784,0,0,1,1.62-1.087,2.247,2.247,0,0,1,.643.082Zm4.279,5.448A3.8,3.8,0,0,1-11.6,17.122a3.506,3.506,0,0,1-1.053-2.642v-.191a4.542,4.542,0,0,1,.42-2,3.076,3.076,0,0,1,1.227-1.343,3.7,3.7,0,0,1,1.914-.475,3.2,3.2,0,0,1,2.461.967,3.8,3.8,0,0,1,.9,2.7v.9h-4.58a1.66,1.66,0,0,0,.54.978,1.607,1.607,0,0,0,1.08.355,2.07,2.07,0,0,0,1.709-.766l1.053,1.244a2.943,2.943,0,0,1-1.22.947A4.123,4.123,0,0,1-8.846,18.137Zm-.26-5.893q-1.012,0-1.2,1.34h2.324v-.178a1.141,1.141,0,0,0-.28-.858A1.115,1.115,0,0,0-9.105,12.244Zm7.431,4.115A1.025,1.025,0,0,0-.923,16.1a.965.965,0,0,0,.26-.735H1.5a2.557,2.557,0,0,1-.872,2,3.242,3.242,0,0,1-2.246.779,3.282,3.282,0,0,1-2.543-1.012,3.986,3.986,0,0,1-.93-2.8v-.1a4.505,4.505,0,0,1,.414-1.979,3.011,3.011,0,0,1,1.193-1.319,3.557,3.557,0,0,1,1.846-.461,3.2,3.2,0,0,1,2.29.8A2.837,2.837,0,0,1,1.5,13.434H-.663a1.265,1.265,0,0,0-.28-.882.967.967,0,0,0-.752-.308q-.9,0-1.046,1.142a8.055,8.055,0,0,0-.048,1,3.164,3.164,0,0,0,.267,1.545A.923.923,0,0,0-1.675,16.359Zm8.552.841a2.375,2.375,0,0,1-1.976.937,2.329,2.329,0,0,1-1.842-.708A2.976,2.976,0,0,1,2.434,15.4V10.6h2.3v4.806a.828.828,0,0,0,.923.95,1.2,1.2,0,0,0,1.128-.567V10.6H9.105V18H6.945Zm7.964-4.512-.759-.055a1.363,1.363,0,0,0-1.395.684V18h-2.3V10.6h2.16l.075.95a1.784,1.784,0,0,1,1.62-1.087,2.247,2.247,0,0,1,.643.082Zm4.7,3.233a.532.532,0,0,0-.308-.472,4.679,4.679,0,0,0-1.169-.369,5.33,5.33,0,0,1-1.422-.5,2.382,2.382,0,0,1-.854-.755A1.8,1.8,0,0,1,15.5,12.8a2.044,2.044,0,0,1,.841-1.678,3.464,3.464,0,0,1,2.2-.66,3.837,3.837,0,0,1,2.352.663,2.074,2.074,0,0,1,.889,1.743H19.469q0-.889-.937-.889a.928.928,0,0,0-.608.2.624.624,0,0,0-.246.5.573.573,0,0,0,.3.5,2.842,2.842,0,0,0,.96.314A8.3,8.3,0,0,1,20.1,13.8a2.105,2.105,0,0,1,1.668,2.058,1.937,1.937,0,0,1-.9,1.647,3.942,3.942,0,0,1-2.328.636,4.023,4.023,0,0,1-1.7-.342,2.835,2.835,0,0,1-1.162-.93,2.105,2.105,0,0,1-.417-1.237h2.153a.89.89,0,0,0,.342.749,1.406,1.406,0,0,0,.841.236,1.106,1.106,0,0,0,.708-.191A.612.612,0,0,0,19.544,15.922Zm3.008-1.688a4.366,4.366,0,0,1,.431-1.972,3.08,3.08,0,0,1,1.237-1.33,3.726,3.726,0,0,1,1.894-.465A3.4,3.4,0,0,1,28.731,11.5a3.948,3.948,0,0,1,.957,2.8v.082a3.83,3.83,0,0,1-.96,2.745,3.41,3.41,0,0,1-2.6,1.015,3.449,3.449,0,0,1-2.536-.947,3.7,3.7,0,0,1-1.032-2.567Zm2.3.144a2.752,2.752,0,0,0,.321,1.5,1.07,1.07,0,0,0,.95.479q1.23,0,1.258-1.894v-.232q0-1.989-1.271-1.989-1.155,0-1.251,1.716Zm9.721,1.545a.532.532,0,0,0-.308-.472,4.679,4.679,0,0,0-1.169-.369,5.33,5.33,0,0,1-1.422-.5,2.382,2.382,0,0,1-.854-.755,1.8,1.8,0,0,1-.294-1.019,2.044,2.044,0,0,1,.841-1.678,3.464,3.464,0,0,1,2.2-.66,3.837,3.837,0,0,1,2.352.663,2.074,2.074,0,0,1,.889,1.743H34.5q0-.889-.937-.889a.928.928,0,0,0-.608.2.624.624,0,0,0-.246.5.573.573,0,0,0,.3.5,2.842,2.842,0,0,0,.96.314,8.3,8.3,0,0,1,1.159.294A2.105,2.105,0,0,1,36.8,15.854a1.937,1.937,0,0,1-.9,1.647,3.942,3.942,0,0,1-2.328.636,4.023,4.023,0,0,1-1.7-.342,2.835,2.835,0,0,1-1.162-.93,2.105,2.105,0,0,1-.417-1.237H32.45a.89.89,0,0,0,.342.749,1.406,1.406,0,0,0,.841.236,1.106,1.106,0,0,0,.708-.191A.612.612,0,0,0,34.576,15.922Z" transform="translate(-1053 -9127.041)" fill="#12263f"/>
    <path id="Trazado_148343" data-name="Trazado 148343" d="M-68.677-3.377V0h-2.4V-9.953H-67.1a4.626,4.626,0,0,1,2.02.42,3.168,3.168,0,0,1,1.36,1.2,3.267,3.267,0,0,1,.482,1.76,2.88,2.88,0,0,1-1.042,2.328,4.326,4.326,0,0,1-2.861.872Zm0-1.853H-67.1a1.483,1.483,0,0,0,1.063-.349,1.3,1.3,0,0,0,.366-.984,1.6,1.6,0,0,0-.376-1.114A1.331,1.331,0,0,0-67.078-8.1h-1.6ZM-57.6-5.312l-.759-.055a1.363,1.363,0,0,0-1.395.684V0h-2.3V-7.4h2.16l.075.95A1.784,1.784,0,0,1-58.2-7.533a2.247,2.247,0,0,1,.643.082Zm.294,1.545a4.366,4.366,0,0,1,.431-1.972,3.08,3.08,0,0,1,1.237-1.33,3.726,3.726,0,0,1,1.894-.465A3.4,3.4,0,0,1-51.123-6.5a3.948,3.948,0,0,1,.957,2.8v.082a3.83,3.83,0,0,1-.96,2.745,3.41,3.41,0,0,1-2.6,1.015A3.449,3.449,0,0,1-56.263-.81,3.7,3.7,0,0,1-57.3-3.377Zm2.3.144a2.752,2.752,0,0,0,.321,1.5,1.07,1.07,0,0,0,.95.479q1.23,0,1.258-1.894v-.232q0-1.989-1.271-1.989-1.155,0-1.251,1.716Zm8.976,1.982a1.025,1.025,0,0,0,.752-.263.965.965,0,0,0,.26-.735h2.16a2.557,2.557,0,0,1-.872,2,3.242,3.242,0,0,1-2.246.779A3.282,3.282,0,0,1-48.511-.875a3.986,3.986,0,0,1-.93-2.8v-.1a4.505,4.505,0,0,1,.414-1.979,3.011,3.011,0,0,1,1.193-1.319,3.557,3.557,0,0,1,1.846-.461,3.2,3.2,0,0,1,2.29.8,2.837,2.837,0,0,1,.848,2.167h-2.16a1.265,1.265,0,0,0-.28-.882.967.967,0,0,0-.752-.308q-.9,0-1.046,1.142a8.055,8.055,0,0,0-.048,1,3.164,3.164,0,0,0,.267,1.545A.923.923,0,0,0-46.023-1.641ZM-38.3.137A3.8,3.8,0,0,1-41.053-.878a3.506,3.506,0,0,1-1.053-2.642v-.191a4.542,4.542,0,0,1,.42-2,3.076,3.076,0,0,1,1.227-1.343,3.7,3.7,0,0,1,1.914-.475,3.2,3.2,0,0,1,2.461.967,3.8,3.8,0,0,1,.9,2.7v.9h-4.58a1.66,1.66,0,0,0,.54.978,1.607,1.607,0,0,0,1.08.355,2.07,2.07,0,0,0,1.709-.766l1.053,1.244a2.943,2.943,0,0,1-1.22.947A4.123,4.123,0,0,1-38.3.137Zm-.26-5.893q-1.012,0-1.2,1.34h2.324v-.178a1.141,1.141,0,0,0-.28-.858A1.115,1.115,0,0,0-38.558-5.756Zm8.176,3.678a.532.532,0,0,0-.308-.472,4.679,4.679,0,0,0-1.169-.369,5.33,5.33,0,0,1-1.422-.5,2.382,2.382,0,0,1-.854-.755A1.8,1.8,0,0,1-34.429-5.2a2.044,2.044,0,0,1,.841-1.678,3.464,3.464,0,0,1,2.2-.66,3.837,3.837,0,0,1,2.352.663,2.074,2.074,0,0,1,.889,1.743h-2.311q0-.889-.937-.889a.928.928,0,0,0-.608.2.624.624,0,0,0-.246.5.573.573,0,0,0,.3.5,2.842,2.842,0,0,0,.96.314,8.3,8.3,0,0,1,1.159.294,2.105,2.105,0,0,1,1.668,2.058A1.937,1.937,0,0,1-29.06-.5a3.942,3.942,0,0,1-2.328.636,4.023,4.023,0,0,1-1.7-.342,2.835,2.835,0,0,1-1.162-.93,2.105,2.105,0,0,1-.417-1.237h2.153a.89.89,0,0,0,.342.749,1.406,1.406,0,0,0,.841.236,1.106,1.106,0,0,0,.708-.191A.612.612,0,0,0-30.382-2.078Zm3.008-1.688a4.366,4.366,0,0,1,.431-1.972,3.08,3.08,0,0,1,1.237-1.33,3.726,3.726,0,0,1,1.894-.465A3.4,3.4,0,0,1-21.195-6.5a3.948,3.948,0,0,1,.957,2.8v.082A3.83,3.83,0,0,1-21.2-.878,3.41,3.41,0,0,1-23.8.137,3.449,3.449,0,0,1-26.335-.81a3.7,3.7,0,0,1-1.032-2.567Zm2.3.144a2.752,2.752,0,0,0,.321,1.5,1.07,1.07,0,0,0,.95.479q1.23,0,1.258-1.894v-.232q0-1.989-1.271-1.989-1.155,0-1.251,1.716Zm9.721,1.545a.532.532,0,0,0-.308-.472,4.679,4.679,0,0,0-1.169-.369,5.33,5.33,0,0,1-1.422-.5,2.382,2.382,0,0,1-.854-.755A1.8,1.8,0,0,1-19.4-5.2a2.044,2.044,0,0,1,.841-1.678,3.464,3.464,0,0,1,2.2-.66A3.837,3.837,0,0,1-14-6.87a2.074,2.074,0,0,1,.889,1.743h-2.311q0-.889-.937-.889a.928.928,0,0,0-.608.2.624.624,0,0,0-.246.5.573.573,0,0,0,.3.5,2.842,2.842,0,0,0,.96.314A8.3,8.3,0,0,1-14.8-4.2a2.105,2.105,0,0,1,1.668,2.058,1.937,1.937,0,0,1-.9,1.647,3.942,3.942,0,0,1-2.328.636,4.023,4.023,0,0,1-1.7-.342,2.835,2.835,0,0,1-1.162-.93,2.105,2.105,0,0,1-.417-1.237h2.153a.89.89,0,0,0,.342.749,1.406,1.406,0,0,0,.841.236,1.106,1.106,0,0,0,.708-.191A.612.612,0,0,0-15.35-2.078Zm6.494-1.675A4.518,4.518,0,0,1-8.1-6.521,2.5,2.5,0,0,1-5.978-7.533a2.124,2.124,0,0,1,1.668.779V-10.5H-2V0H-4.071l-.116-.793a2.181,2.181,0,0,1-1.8.93A2.493,2.493,0,0,1-8.083-.875,4.662,4.662,0,0,1-8.856-3.753Zm2.3.144q0,1.969,1.148,1.969A1.134,1.134,0,0,0-4.31-2.283V-5.1a1.1,1.1,0,0,0-1.08-.656q-1.066,0-1.155,1.723ZM2.888.137A3.8,3.8,0,0,1,.133-.878,3.506,3.506,0,0,1-.919-3.521v-.191a4.542,4.542,0,0,1,.42-2A3.076,3.076,0,0,1,.728-7.058a3.7,3.7,0,0,1,1.914-.475A3.2,3.2,0,0,1,5.1-6.566a3.8,3.8,0,0,1,.9,2.7v.9H1.425A1.66,1.66,0,0,0,1.965-2a1.607,1.607,0,0,0,1.08.355,2.07,2.07,0,0,0,1.709-.766L5.807-1.162a2.943,2.943,0,0,1-1.22.947A4.123,4.123,0,0,1,2.888.137Zm-.26-5.893q-1.012,0-1.2,1.34H3.75v-.178a1.141,1.141,0,0,0-.28-.858A1.115,1.115,0,0,0,2.628-5.756ZM12.6-7.4l.075.868a2.543,2.543,0,0,1,2.112-1,1.872,1.872,0,0,1,1.894,1.114A2.462,2.462,0,0,1,18.85-7.533q2.249,0,2.311,2.721V0H18.85V-4.669a1.41,1.41,0,0,0-.191-.827.815.815,0,0,0-.7-.26,1.091,1.091,0,0,0-1.019.608l.007.1V0H14.639V-4.655a1.482,1.482,0,0,0-.185-.841.812.812,0,0,0-.7-.26,1.1,1.1,0,0,0-1.012.608V0h-2.3V-7.4ZM26.055.137A3.8,3.8,0,0,1,23.3-.878a3.506,3.506,0,0,1-1.053-2.642v-.191a4.542,4.542,0,0,1,.42-2A3.076,3.076,0,0,1,23.9-7.058a3.7,3.7,0,0,1,1.914-.475,3.2,3.2,0,0,1,2.461.967,3.8,3.8,0,0,1,.9,2.7v.9h-4.58a1.66,1.66,0,0,0,.54.978,1.607,1.607,0,0,0,1.08.355,2.07,2.07,0,0,0,1.709-.766l1.053,1.244a2.943,2.943,0,0,1-1.22.947A4.123,4.123,0,0,1,26.055.137ZM25.8-5.756q-1.012,0-1.2,1.34h2.324v-.178a1.141,1.141,0,0,0-.28-.858A1.115,1.115,0,0,0,25.8-5.756Zm4.013,2a4.518,4.518,0,0,1,.759-2.769,2.5,2.5,0,0,1,2.119-1.012,2.124,2.124,0,0,1,1.668.779V-10.5h2.311V0H34.593l-.116-.793a2.181,2.181,0,0,1-1.8.93A2.493,2.493,0,0,1,30.581-.875,4.661,4.661,0,0,1,29.808-3.753Zm2.3.144q0,1.969,1.148,1.969a1.134,1.134,0,0,0,1.094-.643V-5.1a1.1,1.1,0,0,0-1.08-.656q-1.066,0-1.155,1.723ZM40.4,0H38.093V-7.4H40.4ZM37.957-9.311a1.037,1.037,0,0,1,.355-.812,1.336,1.336,0,0,1,.923-.316,1.336,1.336,0,0,1,.923.316,1.037,1.037,0,0,1,.355.812,1.037,1.037,0,0,1-.355.812,1.336,1.336,0,0,1-.923.316,1.336,1.336,0,0,1-.923-.316A1.037,1.037,0,0,1,37.957-9.311Zm6.993,7.67A1.025,1.025,0,0,0,45.7-1.9a.965.965,0,0,0,.26-.735h2.16a2.557,2.557,0,0,1-.872,2A3.242,3.242,0,0,1,45,.137,3.282,3.282,0,0,1,42.461-.875a3.986,3.986,0,0,1-.93-2.8v-.1a4.505,4.505,0,0,1,.414-1.979,3.011,3.011,0,0,1,1.193-1.319,3.557,3.557,0,0,1,1.846-.461,3.2,3.2,0,0,1,2.29.8,2.837,2.837,0,0,1,.848,2.167h-2.16a1.265,1.265,0,0,0-.28-.882.967.967,0,0,0-.752-.308q-.9,0-1.046,1.142a8.055,8.055,0,0,0-.048,1A3.164,3.164,0,0,0,44.1-2.071.923.923,0,0,0,44.95-1.641ZM51.526,0H49.215V-7.4h2.311ZM49.079-9.311a1.037,1.037,0,0,1,.355-.812,1.336,1.336,0,0,1,.923-.316,1.336,1.336,0,0,1,.923.316,1.037,1.037,0,0,1,.355.812,1.037,1.037,0,0,1-.355.812,1.336,1.336,0,0,1-.923.316,1.336,1.336,0,0,1-.923-.316A1.037,1.037,0,0,1,49.079-9.311Zm3.575,5.544a4.366,4.366,0,0,1,.431-1.972,3.08,3.08,0,0,1,1.237-1.33,3.726,3.726,0,0,1,1.894-.465A3.4,3.4,0,0,1,58.833-6.5a3.948,3.948,0,0,1,.957,2.8v.082a3.83,3.83,0,0,1-.96,2.745,3.41,3.41,0,0,1-2.6,1.015A3.449,3.449,0,0,1,53.693-.81a3.7,3.7,0,0,1-1.032-2.567Zm2.3.144a2.752,2.752,0,0,0,.321,1.5,1.07,1.07,0,0,0,.95.479q1.23,0,1.258-1.894v-.232q0-1.989-1.271-1.989-1.155,0-1.251,1.716ZM56.53-10.5h2.434l-1.9,2.146-1.88,0Zm6.392,3.1L63-6.528a2.508,2.508,0,0,1,2.112-1,2.11,2.11,0,0,1,1.726.69,3.287,3.287,0,0,1,.591,2.078V0H65.116V-4.669a1.248,1.248,0,0,0-.226-.824,1.044,1.044,0,0,0-.82-.263,1.1,1.1,0,0,0-1,.533V0h-2.3V-7.4ZM69.511,2.68l-1.162-.547.232-.465a3.791,3.791,0,0,0,.5-1.7V-1.736h1.846L70.919-.253a3.708,3.708,0,0,1-.4,1.6A4.064,4.064,0,0,1,69.511,2.68ZM-50.292,18a2.6,2.6,0,0,1-.219-.663,2.142,2.142,0,0,1-1.777.8,2.624,2.624,0,0,1-1.777-.632,2.013,2.013,0,0,1-.731-1.589,2.069,2.069,0,0,1,.889-1.818,4.527,4.527,0,0,1,2.584-.615h.711V13.09q0-1.023-.882-1.023a.721.721,0,0,0-.82.811h-2.3a2.065,2.065,0,0,1,.913-1.741,3.835,3.835,0,0,1,2.328-.669,3.363,3.363,0,0,1,2.235.69,2.4,2.4,0,0,1,.841,1.894v3.274a3.353,3.353,0,0,0,.314,1.559V18Zm-1.442-1.5a1.285,1.285,0,0,0,.714-.185,1.157,1.157,0,0,0,.407-.417V14.712h-.67q-1.2,0-1.2,1.08a.659.659,0,0,0,.212.509A.767.767,0,0,0-51.734,16.5Zm6.822-5.893.075.868a2.508,2.508,0,0,1,2.112-1,2.11,2.11,0,0,1,1.726.69,3.287,3.287,0,0,1,.591,2.078V18h-2.311V13.331a1.248,1.248,0,0,0-.226-.824,1.044,1.044,0,0,0-.82-.263,1.1,1.1,0,0,0-1,.533V18h-2.3V10.6Zm9.946,7.4a2.6,2.6,0,0,1-.219-.663,2.142,2.142,0,0,1-1.777.8,2.624,2.624,0,0,1-1.777-.632,2.013,2.013,0,0,1-.731-1.589,2.069,2.069,0,0,1,.889-1.818A4.527,4.527,0,0,1-36,13.481h.711V13.09q0-1.023-.882-1.023a.721.721,0,0,0-.82.811h-2.3a2.065,2.065,0,0,1,.913-1.741,3.835,3.835,0,0,1,2.328-.669,3.363,3.363,0,0,1,2.235.69,2.4,2.4,0,0,1,.841,1.894v3.274a3.353,3.353,0,0,0,.314,1.559V18Zm-1.442-1.5a1.285,1.285,0,0,0,.714-.185,1.157,1.157,0,0,0,.407-.417V14.712h-.67q-1.2,0-1.2,1.08a.659.659,0,0,0,.212.509A.767.767,0,0,0-36.408,16.5Zm.574-9H-33.4l-1.9,2.146-1.88,0ZM-29.271,18h-2.311V7.5h2.311Zm3.849,0h-2.311V10.6h2.311ZM-27.87,8.689a1.037,1.037,0,0,1,.355-.812,1.336,1.336,0,0,1,.923-.316,1.336,1.336,0,0,1,.923.316,1.037,1.037,0,0,1,.355.812,1.037,1.037,0,0,1-.355.812,1.336,1.336,0,0,1-.923.316,1.336,1.336,0,0,1-.923-.316A1.037,1.037,0,0,1-27.87,8.689Zm7.738,7.232a.532.532,0,0,0-.308-.472,4.679,4.679,0,0,0-1.169-.369,5.33,5.33,0,0,1-1.422-.5,2.382,2.382,0,0,1-.854-.755,1.8,1.8,0,0,1-.294-1.019,2.044,2.044,0,0,1,.841-1.678,3.464,3.464,0,0,1,2.2-.66,3.837,3.837,0,0,1,2.352.663,2.074,2.074,0,0,1,.889,1.743h-2.311q0-.889-.937-.889a.928.928,0,0,0-.608.2.624.624,0,0,0-.246.5.573.573,0,0,0,.3.5,2.842,2.842,0,0,0,.96.314,8.3,8.3,0,0,1,1.159.294,2.105,2.105,0,0,1,1.668,2.058,1.937,1.937,0,0,1-.9,1.647,3.942,3.942,0,0,1-2.328.636,4.023,4.023,0,0,1-1.7-.342,2.835,2.835,0,0,1-1.162-.93,2.105,2.105,0,0,1-.417-1.237h2.153a.89.89,0,0,0,.342.749,1.406,1.406,0,0,0,.841.236,1.106,1.106,0,0,0,.708-.191A.612.612,0,0,0-20.132,15.922ZM-14.4,18h-2.311V10.6H-14.4Zm-2.447-9.311a1.037,1.037,0,0,1,.355-.812,1.336,1.336,0,0,1,.923-.316,1.336,1.336,0,0,1,.923.316,1.037,1.037,0,0,1,.355.812,1.037,1.037,0,0,1-.355.812,1.336,1.336,0,0,1-.923.316A1.336,1.336,0,0,1-16.5,9.5,1.037,1.037,0,0,1-16.851,8.689Zm7.738,7.232a.532.532,0,0,0-.308-.472,4.679,4.679,0,0,0-1.169-.369,5.33,5.33,0,0,1-1.422-.5,2.382,2.382,0,0,1-.854-.755,1.8,1.8,0,0,1-.294-1.019,2.044,2.044,0,0,1,.841-1.678,3.464,3.464,0,0,1,2.2-.66,3.837,3.837,0,0,1,2.352.663,2.074,2.074,0,0,1,.889,1.743H-9.187q0-.889-.937-.889a.928.928,0,0,0-.608.2.624.624,0,0,0-.246.5.573.573,0,0,0,.3.5,2.842,2.842,0,0,0,.96.314,8.3,8.3,0,0,1,1.159.294,2.105,2.105,0,0,1,1.668,2.058,1.937,1.937,0,0,1-.9,1.647,3.942,3.942,0,0,1-2.328.636,4.023,4.023,0,0,1-1.7-.342,2.835,2.835,0,0,1-1.162-.93,2.105,2.105,0,0,1-.417-1.237h2.153a.89.89,0,0,0,.342.749,1.406,1.406,0,0,0,.841.236,1.106,1.106,0,0,0,.708-.191A.612.612,0,0,0-9.112,15.922ZM.629,14.773l1.23-4.17H4.327L1.313,19.237l-.13.314a2.29,2.29,0,0,1-2.27,1.436,3.61,3.61,0,0,1-.95-.136V19.21h.3a1.576,1.576,0,0,0,.742-.14.851.851,0,0,0,.379-.5l.185-.493L-3,10.6H-.54Zm9.96-4.17.075.868a2.543,2.543,0,0,1,2.112-1,1.872,1.872,0,0,1,1.894,1.114,2.462,2.462,0,0,1,2.174-1.114q2.249,0,2.311,2.721V18H16.844V13.331a1.41,1.41,0,0,0-.191-.827.815.815,0,0,0-.7-.26,1.091,1.091,0,0,0-1.019.608l.007.1V18H12.633V13.345a1.482,1.482,0,0,0-.185-.841.812.812,0,0,0-.7-.26,1.1,1.1,0,0,0-1.012.608V18h-2.3V10.6Zm13.46,7.533a3.8,3.8,0,0,1-2.755-1.015,3.506,3.506,0,0,1-1.053-2.642v-.191a4.542,4.542,0,0,1,.42-2,3.076,3.076,0,0,1,1.227-1.343,3.7,3.7,0,0,1,1.914-.475,3.2,3.2,0,0,1,2.461.967,3.8,3.8,0,0,1,.9,2.7v.9h-4.58a1.66,1.66,0,0,0,.54.978,1.607,1.607,0,0,0,1.08.355,2.07,2.07,0,0,0,1.709-.766l1.053,1.244a2.943,2.943,0,0,1-1.22.947A4.123,4.123,0,0,1,24.049,18.137Zm-.26-5.893q-1.012,0-1.2,1.34H24.91v-.178a1.141,1.141,0,0,0-.28-.858A1.115,1.115,0,0,0,23.789,12.244ZM30.57,10.6v7.649a2.685,2.685,0,0,1-.752,2.023,2.889,2.889,0,0,1-2.078.711,4.906,4.906,0,0,1-1.087-.116V19.128a4.408,4.408,0,0,0,.649.062.843.843,0,0,0,.957-.95V10.6ZM28.089,8.689a1.037,1.037,0,0,1,.355-.812,1.5,1.5,0,0,1,1.846,0,1.1,1.1,0,0,1,0,1.623,1.5,1.5,0,0,1-1.846,0A1.037,1.037,0,0,1,28.089,8.689Zm3.493,5.544a4.366,4.366,0,0,1,.431-1.972,3.08,3.08,0,0,1,1.237-1.33,3.726,3.726,0,0,1,1.894-.465A3.4,3.4,0,0,1,37.762,11.5a3.948,3.948,0,0,1,.957,2.8v.082a3.83,3.83,0,0,1-.96,2.745,3.41,3.41,0,0,1-2.6,1.015,3.449,3.449,0,0,1-2.536-.947,3.7,3.7,0,0,1-1.032-2.567Zm2.3.144a2.752,2.752,0,0,0,.321,1.5,1.07,1.07,0,0,0,.95.479q1.23,0,1.258-1.894v-.232q0-1.989-1.271-1.989-1.155,0-1.251,1.716Zm10.322-1.688-.759-.055a1.363,1.363,0,0,0-1.395.684V18h-2.3V10.6h2.16l.075.95a1.784,1.784,0,0,1,1.62-1.087,2.247,2.247,0,0,1,.643.082ZM49,18a2.6,2.6,0,0,1-.219-.663,2.142,2.142,0,0,1-1.777.8,2.624,2.624,0,0,1-1.777-.632,2.013,2.013,0,0,1-.731-1.589,2.069,2.069,0,0,1,.889-1.818,4.527,4.527,0,0,1,2.584-.615h.711V13.09q0-1.023-.882-1.023a.721.721,0,0,0-.82.811h-2.3a2.065,2.065,0,0,1,.913-1.741,3.835,3.835,0,0,1,2.328-.669,3.363,3.363,0,0,1,2.235.69,2.4,2.4,0,0,1,.841,1.894v3.274a3.353,3.353,0,0,0,.314,1.559V18Zm-1.442-1.5a1.285,1.285,0,0,0,.714-.185,1.157,1.157,0,0,0,.407-.417V14.712h-.67q-1.2,0-1.2,1.08a.659.659,0,0,0,.212.509A.767.767,0,0,0,47.558,16.5Z" transform="translate(-769 -9126.582)" fill="#12263f"/>
    <path id="Trazado_148344" data-name="Trazado 148344" d="M-15.539-8.531l1.9,5.936,1.9-5.936h2.707V0h-2.062V-1.992l.2-4.078L-12.955,0h-1.359l-2.068-6.076.2,4.084V0H-18.24V-8.531ZM-4.746.117a3.259,3.259,0,0,1-2.361-.87,3,3,0,0,1-.9-2.265v-.164A3.893,3.893,0,0,1-7.649-4.9,2.637,2.637,0,0,1-6.6-6.05a3.175,3.175,0,0,1,1.641-.407,2.744,2.744,0,0,1,2.109.829,3.258,3.258,0,0,1,.773,2.312v.768H-6a1.423,1.423,0,0,0,.463.838,1.377,1.377,0,0,0,.926.3,1.775,1.775,0,0,0,1.465-.656L-2.244-1A2.522,2.522,0,0,1-3.29-.185,3.534,3.534,0,0,1-4.746.117Zm-.223-5.051q-.867,0-1.031,1.148h1.992v-.152a.978.978,0,0,0-.24-.735A.956.956,0,0,0-4.969-4.934ZM.844-6.34V.217A2.3,2.3,0,0,1,.2,1.951a2.476,2.476,0,0,1-1.781.609,4.205,4.205,0,0,1-.932-.1V.967a3.778,3.778,0,0,0,.557.053.722.722,0,0,0,.82-.814V-6.34ZM-1.283-7.98a.889.889,0,0,1,.3-.7,1.145,1.145,0,0,1,.791-.271A1.145,1.145,0,0,1,.6-8.676a.889.889,0,0,1,.3.7.889.889,0,0,1-.3.7,1.145,1.145,0,0,1-.791.271,1.145,1.145,0,0,1-.791-.271A.889.889,0,0,1-1.283-7.98ZM1.711-3.229a3.742,3.742,0,0,1,.369-1.69,2.64,2.64,0,0,1,1.061-1.14,3.194,3.194,0,0,1,1.623-.4,2.915,2.915,0,0,1,2.244.882,3.384,3.384,0,0,1,.82,2.4v.07A3.283,3.283,0,0,1,7-.753a2.923,2.923,0,0,1-2.229.87A2.956,2.956,0,0,1,2.6-.694a3.174,3.174,0,0,1-.885-2.2Zm1.975.123a2.359,2.359,0,0,0,.275,1.289.917.917,0,0,0,.814.41q1.055,0,1.078-1.623v-.2q0-1.705-1.09-1.705-.99,0-1.072,1.471Zm8.848-1.447-.65-.047a1.168,1.168,0,0,0-1.2.586V0H8.713V-6.34h1.852l.064.814a1.529,1.529,0,0,1,1.389-.932,1.926,1.926,0,0,1,.551.07ZM16.641,0a2.23,2.23,0,0,1-.187-.568A1.836,1.836,0,0,1,14.93.117a2.249,2.249,0,0,1-1.523-.542,1.725,1.725,0,0,1-.627-1.362,1.773,1.773,0,0,1,.762-1.559,3.881,3.881,0,0,1,2.215-.527h.609v-.336q0-.877-.756-.877a.618.618,0,0,0-.7.695H12.932a1.77,1.77,0,0,1,.782-1.492,3.287,3.287,0,0,1,2-.574,2.882,2.882,0,0,1,1.916.592,2.058,2.058,0,0,1,.721,1.623v2.807A2.874,2.874,0,0,0,18.615-.1V0ZM15.4-1.289a1.1,1.1,0,0,0,.612-.158.992.992,0,0,0,.349-.357V-2.818h-.574q-1.031,0-1.031.926a.565.565,0,0,0,.182.437A.657.657,0,0,0,15.4-1.289ZM-20.3,13.594a.878.878,0,0,0,.645-.226.827.827,0,0,0,.223-.63h1.852a2.192,2.192,0,0,1-.747,1.711,2.779,2.779,0,0,1-1.925.668,2.814,2.814,0,0,1-2.18-.867,3.417,3.417,0,0,1-.8-2.4v-.082a3.862,3.862,0,0,1,.354-1.7A2.581,2.581,0,0,1-21.85,8.938a3.049,3.049,0,0,1,1.582-.4,2.744,2.744,0,0,1,1.963.686,2.432,2.432,0,0,1,.727,1.857H-19.43a1.084,1.084,0,0,0-.24-.756.829.829,0,0,0-.645-.264q-.768,0-.9.979a6.9,6.9,0,0,0-.041.855,2.712,2.712,0,0,0,.229,1.324A.791.791,0,0,0-20.3,13.594Zm3.3-1.822a3.742,3.742,0,0,1,.369-1.69,2.64,2.64,0,0,1,1.061-1.14,3.194,3.194,0,0,1,1.623-.4,2.915,2.915,0,0,1,2.244.882,3.384,3.384,0,0,1,.82,2.4v.07a3.283,3.283,0,0,1-.823,2.353,2.923,2.923,0,0,1-2.229.87,2.956,2.956,0,0,1-2.174-.812,3.174,3.174,0,0,1-.885-2.2Zm1.975.123a2.359,2.359,0,0,0,.275,1.289.917.917,0,0,0,.814.41q1.055,0,1.078-1.623v-.2q0-1.705-1.09-1.705-.99,0-1.072,1.471ZM-8.191,8.66l.064.744a2.15,2.15,0,0,1,1.811-.861,1.809,1.809,0,0,1,1.479.592,2.817,2.817,0,0,1,.507,1.781V15h-1.98V11a1.07,1.07,0,0,0-.193-.706.894.894,0,0,0-.7-.226.942.942,0,0,0-.861.457V15h-1.975V8.66ZM-.937,7.084V8.66H.105v1.371H-.937v2.9a.741.741,0,0,0,.129.5.691.691,0,0,0,.51.141,2.9,2.9,0,0,0,.492-.035v1.412a3.644,3.644,0,0,1-1.113.17,2.069,2.069,0,0,1-1.506-.48,1.969,1.969,0,0,1-.486-1.459V10.031h-.809V8.66h.809V7.084ZM2.965,15H.984V8.66h1.98ZM.867,7.02a.889.889,0,0,1,.3-.7,1.145,1.145,0,0,1,.791-.271,1.145,1.145,0,0,1,.791.271.946.946,0,0,1,0,1.391,1.145,1.145,0,0,1-.791.271,1.145,1.145,0,0,1-.791-.271A.889.889,0,0,1,.867,7.02ZM5.994,8.66l.064.744a2.15,2.15,0,0,1,1.811-.861,1.809,1.809,0,0,1,1.479.592,2.817,2.817,0,0,1,.507,1.781V15H7.875V11a1.07,1.07,0,0,0-.193-.706.894.894,0,0,0-.7-.226.942.942,0,0,0-.861.457V15H4.143V8.66Zm8.73,5.654a2.036,2.036,0,0,1-1.693.8,2,2,0,0,1-1.579-.606,2.551,2.551,0,0,1-.536-1.743V8.66h1.975v4.119a.71.71,0,0,0,.791.814,1.032,1.032,0,0,0,.967-.486V8.66h1.986V15H14.783ZM21.287,15a2.23,2.23,0,0,1-.187-.568,1.836,1.836,0,0,1-1.523.686,2.249,2.249,0,0,1-1.523-.542,1.725,1.725,0,0,1-.627-1.362,1.773,1.773,0,0,1,.762-1.559,3.881,3.881,0,0,1,2.215-.527h.609v-.336q0-.877-.756-.877a.618.618,0,0,0-.7.695H17.578a1.77,1.77,0,0,1,.782-1.492,3.287,3.287,0,0,1,2-.574,2.882,2.882,0,0,1,1.916.592,2.058,2.058,0,0,1,.721,1.623v2.807a2.874,2.874,0,0,0,.27,1.336V15Zm-1.236-1.289a1.1,1.1,0,0,0,.612-.158.992.992,0,0,0,.349-.357V12.182h-.574q-1.031,0-1.031.926a.565.565,0,0,0,.182.437A.657.657,0,0,0,20.051,13.711Z" transform="translate(-911 -9110)" fill="#12263f"/>
    <g id="Grupo_76129" data-name="Grupo 76129" transform="translate(-4.425)">
      <path id="Trazado_148236" data-name="Trazado 148236" d="M-1071-9158.7v-38.252l19.41-12.049,18.108,12.049v38.252l-18.108-13.388Z" transform="translate(-10013.698 -7951.219) rotate(90)" fill="#afafaf" stroke="#707070" stroke-width="2"/>
      <path id="Trazado_148239" data-name="Trazado 148239" d="M-1071-9158.7v-38.252l19.41-12.049,18.108,12.049v38.252l-18.108-13.388Z" transform="translate(-10088.673 -7951.219) rotate(90)" fill="#afafaf" stroke="#707070" stroke-width="2"/>
      <path id="Trazado_148237" data-name="Trazado 148237" d="M-1071-9158.7v-38.252l19.41-12.049,18.108,12.049v38.252l-18.108-13.388Z" transform="translate(-10051.423 -7951.219) rotate(90)" fill="#afafaf" stroke="#707070" stroke-width="2"/>
      <path id="Trazado_148238" data-name="Trazado 148238" d="M-1071-9158.7v-38.252l19.41-12.049,18.108,12.049v38.252l-18.108-13.388Z" transform="translate(-10125.397 -7951.219) rotate(90)" fill="#afafaf" stroke="#707070" stroke-width="2"/>
      <path id="Trazado_148240" data-name="Trazado 148240" d="M-1071-9158.7v-38.252l19.41-12.049,18.108,12.049v38.252l-18.108-13.388Z" transform="translate(-10162.272 -7951.219) rotate(90)" fill="#afafaf" stroke="#707070" stroke-width="2"/>
    </g>
    <g id="Grupo_76126" data-name="Grupo 76126" transform="translate(0.575 7.959)">
      <path id="Trazado_148228" data-name="Trazado 148228" d="M-1071-9182.7v-20l17.15-6.3,16,6.3v20l-16-7Z" transform="translate(-67.575 103.781)" fill="#e8e8e8" stroke="#707070" stroke-width="2"/>
      <path id="Trazado_148231" data-name="Trazado 148231" d="M-1071-9182.7v-20l17.15-6.3,16,6.3v20l-16-7Z" transform="translate(23.575 103.781)" fill="#e8e8e8" stroke="#707070" stroke-width="2"/>
      <path id="Trazado_148229" data-name="Trazado 148229" d="M-1071-9182.7v-20l17.15-6.3,16,6.3v20l-16-7Z" transform="translate(-22 103.781)" fill="#e8e8e8" stroke="#707070" stroke-width="2"/>
      <path id="Trazado_148230" data-name="Trazado 148230" d="M-1071-9182.7v-20l17.15-6.3,16,6.3v20l-16-7Z" transform="translate(69.15 103.781)" fill="#e8e8e8" stroke="#707070" stroke-width="2"/>
    </g>
    <g id="Grupo_76127" data-name="Grupo 76127" transform="translate(0)">
      <path id="Trazado_148233" data-name="Trazado 148233" d="M-1071-9182.7v-20l17.15-6.3,16,6.3v20l-16-7Z" transform="translate(216 112.199)" fill="#e8e8e8" stroke="#707070" stroke-width="2"/>
      <path id="Trazado_148234" data-name="Trazado 148234" d="M-1071-9182.7v-20l17.15-6.3,16,6.3v20l-16-7Z" transform="translate(307.725 112.199)" fill="#e8e8e8" stroke="#707070" stroke-width="2"/>
      <path id="Trazado_148232" data-name="Trazado 148232" d="M-1071-9182.7v-20l17.15-6.3,16,6.3v20l-16-7Z" transform="translate(262.15 112.199)" fill="#e8e8e8" stroke="#707070" stroke-width="2"/>
      <path id="Trazado_148235" data-name="Trazado 148235" d="M-1071-9182.7v-20l17.15-6.3,16,6.3v20l-16-7Z" transform="translate(353.3 112.199)" fill="#e8e8e8" stroke="#707070" stroke-width="2"/>
    </g>
    <g id="Grupo_76128" data-name="Grupo 76128" transform="translate(4)">
      <path id="Trazado_148223" data-name="Trazado 148223" d="M-1071-9209v20l17.15,6.3,16-6.3v-20l-16,7Z" transform="translate(0 7.2)" fill="#e8e8e8" stroke="#707070" stroke-width="2"/>
      <path id="Trazado_148226" data-name="Trazado 148226" d="M-1071-9209v20l17.15,6.3,16-6.3v-20l-16,7Z" transform="translate(144 7.2)" fill="#e8e8e8" stroke="#707070" stroke-width="2"/>
      <path id="Trazado_148224" data-name="Trazado 148224" d="M-1071-9209v20l17.15,6.3,16-6.3v-20l-16,7Z" transform="translate(72 7.2)" fill="#e8e8e8" stroke="#707070" stroke-width="2"/>
      <path id="Trazado_148225" data-name="Trazado 148225" d="M-1071-9209v20l17.15,6.3,16-6.3v-20l-16,7Z" transform="translate(216 7.2)" fill="#e8e8e8" stroke="#707070" stroke-width="2"/>
      <path id="Trazado_148227" data-name="Trazado 148227" d="M-1071-9209v20l17.15,6.3,16-6.3v-20l-16,7Z" transform="translate(284 7.2)" fill="#e8e8e8" stroke="#707070" stroke-width="2"/>
    </g>
    <g id="Grupo_76130" data-name="Grupo 76130" transform="translate(-1664.484 -10895.109)">
      <line id="Línea_159" data-name="Línea 159" x2="21.846" transform="translate(522.984 1885.097)" fill="none" stroke="#12263f" stroke-linecap="round" stroke-width="4"/>
      <line id="Línea_233" data-name="Línea 233" y1="22.975" transform="translate(522.984 1861.359)" fill="none" stroke="#12263f" stroke-linecap="round" stroke-width="4"/>
      <path id="Polígono_39" data-name="Polígono 39" d="M5.763,0l5.763,5.6H0Z" transform="translate(548.818 1879.334) rotate(90)" fill="#12263f"/>
    </g>
    <g id="Grupo_76133" data-name="Grupo 76133" transform="translate(-157.849 -7318.891) rotate(180)">
      <line id="Línea_159-2" data-name="Línea 159" x2="21.846" transform="translate(522.984 1885.097)" fill="none" stroke="#12263f" stroke-linecap="round" stroke-width="4"/>
      <line id="Línea_233-2" data-name="Línea 233" y1="22.975" transform="translate(522.984 1861.359)" fill="none" stroke="#12263f" stroke-linecap="round" stroke-width="4"/>
      <path id="Polígono_39-2" data-name="Polígono 39" d="M5.763,0l5.763,5.6H0Z" transform="translate(548.818 1879.334) rotate(90)" fill="#12263f"/>
    </g>
    <g id="Grupo_76131" data-name="Grupo 76131" transform="translate(-2571.692 -8483.099) rotate(-90)">
      <line id="Línea_159-3" data-name="Línea 159" x2="21.846" transform="translate(522.984 1885.097)" fill="none" stroke="#12263f" stroke-linecap="round" stroke-width="4"/>
      <line id="Línea_233-3" data-name="Línea 233" y1="22.975" transform="translate(522.984 1861.359)" fill="none" stroke="#12263f" stroke-linecap="round" stroke-width="4"/>
      <path id="Polígono_39-3" data-name="Polígono 39" d="M5.763,0l5.763,5.6H0Z" transform="translate(548.818 1879.334) rotate(90)" fill="#12263f"/>
    </g>
    <g id="Grupo_76132" data-name="Grupo 76132" transform="translate(749.359 -9730.901) rotate(90)">
      <line id="Línea_159-4" data-name="Línea 159" x2="21.846" transform="translate(522.984 1885.097)" fill="none" stroke="#12263f" stroke-linecap="round" stroke-width="4"/>
      <line id="Línea_233-4" data-name="Línea 233" y1="22.975" transform="translate(522.984 1861.359)" fill="none" stroke="#12263f" stroke-linecap="round" stroke-width="4"/>
      <path id="Polígono_39-4" data-name="Polígono 39" d="M5.763,0l5.763,5.6H0Z" transform="translate(548.818 1879.334) rotate(90)" fill="#12263f"/>
    </g>
    <g id="Grupo_76134" data-name="Grupo 76134">
      <path id="Sustracción_2" data-name="Sustracción 2" d="M40.5,93.791a40.5,40.5,0,1,1,0-81,41.247,41.247,0,0,1,4.706.269l-3.781,5.2c-.3-.008-.614-.012-.925-.012a35.07,35.07,0,1,0,28.51,14.689L72.379,28.3A40.488,40.488,0,0,1,40.5,93.791Z" transform="translate(-952 -9158.791)" fill="#12263f"/>
      <path id="Polígono_76" data-name="Polígono 76" d="M9.109,0l9.109,7.9H0Z" transform="translate(-892.611 -9125.626) rotate(-50)" fill="#12263f"/>
    </g>
  </g>
</svg>
