<svg xmlns="http://www.w3.org/2000/svg" width="652" height="384.675" viewBox="0 0 652 384.675">
  <g id="Grupo_76149" data-name="Grupo 76149" transform="translate(-683.333 -2061.022)">
    <path id="Trazado_148288" data-name="Trazado 148288" d="M0,0H226.674V226.675H0Z" transform="translate(1108.659 2061.022)" fill="#f2eefc"/>
    <path id="Trazado_148289" data-name="Trazado 148289" d="M0,0H226.674V226.675H0Z" transform="translate(683.333 2219.022)" fill="#f2eefc"/>
    <path id="Trazado_148290" data-name="Trazado 148290" d="M0,0H610V340H0Z" transform="translate(705 2085)" fill="#fff"/>
    <path id="Trazado_148291" data-name="Trazado 148291" d="M0,0H268V61H0Z" transform="translate(876 2091)" fill="#afafaf"/>
    <path id="Trazado_148292" data-name="Trazado 148292" d="M0,0H268V61H0Z" transform="translate(876 2358)" fill="#afafaf"/>
    <path id="Trazado_148293" data-name="Trazado 148293" d="M0,0H268V197H0Z" transform="translate(876 2157)" fill="#afafaf"/>
    <g id="Trazado_148294" data-name="Trazado 148294" transform="translate(890 2119)" fill="#e8e8e8">
      <path d="M 101 24 L 1 24 L 1 1 L 101 1 L 101 24 Z" stroke="none"/>
      <path d="M 2 2 L 2 23 L 100 23 L 100 2 L 2 2 M 0 0 L 102 0 L 102 25 L 0 25 L 0 0 Z" stroke="none" fill="#707070"/>
    </g>
    <g id="Trazado_148295" data-name="Trazado 148295" transform="translate(890 2385)" fill="#e8e8e8">
      <path d="M 101 24 L 1 24 L 1 1 L 101 1 L 101 24 Z" stroke="none"/>
      <path d="M 2 2 L 2 23 L 100 23 L 100 2 L 2 2 M 0 0 L 102 0 L 102 25 L 0 25 L 0 0 Z" stroke="none" fill="#707070"/>
    </g>
    <g id="Trazado_148296" data-name="Trazado 148296" transform="translate(1026 2119)" fill="#e8e8e8">
      <path d="M 101 24 L 1 24 L 1 1 L 101 1 L 101 24 Z" stroke="none"/>
      <path d="M 2 2 L 2 23 L 100 23 L 100 2 L 2 2 M 0 0 L 102 0 L 102 25 L 0 25 L 0 0 Z" stroke="none" fill="#707070"/>
    </g>
    <g id="Trazado_148297" data-name="Trazado 148297" transform="translate(959 2179)" fill="#e8e8e8">
      <path d="M 101 24 L 1 24 L 1 1 L 101 1 L 101 24 Z" stroke="none"/>
      <path d="M 2 2 L 2 23 L 100 23 L 100 2 L 2 2 M 0 0 L 102 0 L 102 25 L 0 25 L 0 0 Z" stroke="none" fill="#707070"/>
    </g>
    <g id="Trazado_148298" data-name="Trazado 148298" transform="translate(959 2216)" fill="#e8e8e8">
      <path d="M 101 24 L 1 24 L 1 1 L 101 1 L 101 24 Z" stroke="none"/>
      <path d="M 2 2 L 2 23 L 100 23 L 100 2 L 2 2 M 0 0 L 102 0 L 102 25 L 0 25 L 0 0 Z" stroke="none" fill="#707070"/>
    </g>
    <g id="Trazado_148299" data-name="Trazado 148299" transform="translate(959 2253)" fill="#e8e8e8">
      <path d="M 101 24 L 1 24 L 1 1 L 101 1 L 101 24 Z" stroke="none"/>
      <path d="M 2 2 L 2 23 L 100 23 L 100 2 L 2 2 M 0 0 L 102 0 L 102 25 L 0 25 L 0 0 Z" stroke="none" fill="#707070"/>
    </g>
    <g id="Trazado_148300" data-name="Trazado 148300" transform="translate(959 2321)" fill="#e8e8e8">
      <path d="M 101 24 L 1 24 L 1 1 L 101 1 L 101 24 Z" stroke="none"/>
      <path d="M 2 2 L 2 23 L 100 23 L 100 2 L 2 2 M 0 0 L 102 0 L 102 25 L 0 25 L 0 0 Z" stroke="none" fill="#707070"/>
    </g>
    <g id="Trazado_148301" data-name="Trazado 148301" transform="translate(1026 2385)" fill="#e8e8e8">
      <path d="M 101 24 L 1 24 L 1 1 L 101 1 L 101 24 Z" stroke="none"/>
      <path d="M 2 2 L 2 23 L 100 23 L 100 2 L 2 2 M 0 0 L 102 0 L 102 25 L 0 25 L 0 0 Z" stroke="none" fill="#707070"/>
    </g>
    <path id="Trazado_148302" data-name="Trazado 148302" d="M-57.416-2.895V0h-2.057V-8.531h3.4a3.965,3.965,0,0,1,1.731.36,2.716,2.716,0,0,1,1.166,1.025,2.8,2.8,0,0,1,.413,1.509,2.469,2.469,0,0,1-.894,2,3.708,3.708,0,0,1-2.452.747Zm0-1.588h1.348a1.271,1.271,0,0,0,.911-.3,1.11,1.11,0,0,0,.313-.844,1.372,1.372,0,0,0-.322-.955,1.141,1.141,0,0,0-.879-.363h-1.371Zm9.5-.07-.65-.047a1.168,1.168,0,0,0-1.2.586V0h-1.975V-6.34h1.852l.064.814a1.529,1.529,0,0,1,1.389-.932,1.926,1.926,0,0,1,.551.07Zm.252,1.324a3.742,3.742,0,0,1,.369-1.69,2.64,2.64,0,0,1,1.061-1.14,3.194,3.194,0,0,1,1.623-.4,2.915,2.915,0,0,1,2.244.882,3.384,3.384,0,0,1,.82,2.4v.07a3.283,3.283,0,0,1-.823,2.353A2.923,2.923,0,0,1-44.6.117a2.956,2.956,0,0,1-2.174-.812,3.174,3.174,0,0,1-.885-2.2Zm1.975.123a2.359,2.359,0,0,0,.275,1.289.917.917,0,0,0,.814.41q1.055,0,1.078-1.623v-.2q0-1.705-1.09-1.705-.99,0-1.072,1.471ZM-38-1.406a.878.878,0,0,0,.645-.226.827.827,0,0,0,.223-.63h1.852a2.192,2.192,0,0,1-.747,1.711,2.779,2.779,0,0,1-1.925.668,2.814,2.814,0,0,1-2.18-.867,3.417,3.417,0,0,1-.8-2.4v-.082a3.862,3.862,0,0,1,.354-1.7,2.581,2.581,0,0,1,1.022-1.131,3.049,3.049,0,0,1,1.582-.4,2.744,2.744,0,0,1,1.963.686,2.432,2.432,0,0,1,.727,1.857h-1.852a1.084,1.084,0,0,0-.24-.756.829.829,0,0,0-.645-.264q-.768,0-.9.979a6.9,6.9,0,0,0-.041.855,2.712,2.712,0,0,0,.229,1.324A.791.791,0,0,0-38-1.406ZM-31.377.117a3.259,3.259,0,0,1-2.361-.87,3,3,0,0,1-.9-2.265v-.164A3.893,3.893,0,0,1-34.28-4.9,2.637,2.637,0,0,1-33.229-6.05a3.175,3.175,0,0,1,1.641-.407,2.744,2.744,0,0,1,2.109.829,3.258,3.258,0,0,1,.773,2.312v.768h-3.926a1.423,1.423,0,0,0,.463.838,1.377,1.377,0,0,0,.926.3,1.775,1.775,0,0,0,1.465-.656l.9,1.066a2.522,2.522,0,0,1-1.046.812A3.534,3.534,0,0,1-31.377.117ZM-31.6-4.934q-.867,0-1.031,1.148h1.992v-.152a.978.978,0,0,0-.24-.735A.956.956,0,0,0-31.6-4.934Zm7.008,3.152a.456.456,0,0,0-.264-.4,4.011,4.011,0,0,0-1-.316,4.569,4.569,0,0,1-1.219-.431,2.041,2.041,0,0,1-.732-.647,1.546,1.546,0,0,1-.252-.873,1.752,1.752,0,0,1,.721-1.438,2.969,2.969,0,0,1,1.887-.565,3.289,3.289,0,0,1,2.016.568,1.777,1.777,0,0,1,.762,1.494h-1.98q0-.762-.8-.762a.8.8,0,0,0-.521.173.535.535,0,0,0-.211.431.491.491,0,0,0,.258.428,2.436,2.436,0,0,0,.823.27,7.114,7.114,0,0,1,.993.252,1.8,1.8,0,0,1,1.43,1.764,1.66,1.66,0,0,1-.771,1.412,3.379,3.379,0,0,1-2,.545,3.448,3.448,0,0,1-1.453-.293,2.43,2.43,0,0,1-1-.8,1.8,1.8,0,0,1-.357-1.061h1.846a.763.763,0,0,0,.293.642,1.205,1.205,0,0,0,.721.2.948.948,0,0,0,.606-.164A.525.525,0,0,0-24.592-1.781Zm2.578-1.447a3.742,3.742,0,0,1,.369-1.69,2.64,2.64,0,0,1,1.061-1.14,3.194,3.194,0,0,1,1.623-.4,2.915,2.915,0,0,1,2.244.882,3.384,3.384,0,0,1,.82,2.4v.07A3.283,3.283,0,0,1-16.72-.753a2.923,2.923,0,0,1-2.229.87,2.956,2.956,0,0,1-2.174-.812,3.174,3.174,0,0,1-.885-2.2Zm1.975.123a2.359,2.359,0,0,0,.275,1.289.917.917,0,0,0,.814.41q1.055,0,1.078-1.623v-.2q0-1.705-1.09-1.705-.99,0-1.072,1.471Zm8.332,1.324a.456.456,0,0,0-.264-.4,4.011,4.011,0,0,0-1-.316,4.569,4.569,0,0,1-1.219-.431,2.041,2.041,0,0,1-.732-.647,1.546,1.546,0,0,1-.252-.873,1.752,1.752,0,0,1,.721-1.438,2.969,2.969,0,0,1,1.887-.565,3.289,3.289,0,0,1,2.016.568,1.777,1.777,0,0,1,.762,1.494h-1.98q0-.762-.8-.762a.8.8,0,0,0-.521.173.535.535,0,0,0-.211.431.491.491,0,0,0,.258.428,2.436,2.436,0,0,0,.823.27,7.114,7.114,0,0,1,.993.252A1.8,1.8,0,0,1-9.8-1.84a1.66,1.66,0,0,1-.771,1.412,3.379,3.379,0,0,1-2,.545,3.448,3.448,0,0,1-1.453-.293,2.43,2.43,0,0,1-1-.8,1.8,1.8,0,0,1-.357-1.061h1.846a.763.763,0,0,0,.293.642,1.205,1.205,0,0,0,.721.2.948.948,0,0,0,.606-.164A.525.525,0,0,0-11.707-1.781Zm5.566-1.436A3.873,3.873,0,0,1-5.49-5.59a2.141,2.141,0,0,1,1.816-.867,1.821,1.821,0,0,1,1.43.668V-9h1.98V0H-2.039l-.1-.68a1.87,1.87,0,0,1-1.547.8A2.137,2.137,0,0,1-5.479-.75,4,4,0,0,1-6.141-3.217Zm1.975.123q0,1.688.984,1.688a.972.972,0,0,0,.938-.551V-4.371a.946.946,0,0,0-.926-.562q-.914,0-.99,1.477ZM3.926.117a3.259,3.259,0,0,1-2.361-.87,3,3,0,0,1-.9-2.265v-.164A3.893,3.893,0,0,1,1.022-4.9,2.637,2.637,0,0,1,2.074-6.05a3.175,3.175,0,0,1,1.641-.407,2.744,2.744,0,0,1,2.109.829A3.258,3.258,0,0,1,6.6-3.316v.768H2.672a1.423,1.423,0,0,0,.463.838,1.377,1.377,0,0,0,.926.3,1.775,1.775,0,0,0,1.465-.656L6.428-1a2.522,2.522,0,0,1-1.046.812A3.534,3.534,0,0,1,3.926.117ZM3.7-4.934q-.867,0-1.031,1.148H4.664v-.152a.978.978,0,0,0-.24-.735A.956.956,0,0,0,3.7-4.934Zm6.428,1.717a3.873,3.873,0,0,1,.65-2.373A2.141,2.141,0,0,1,12.6-6.457a1.821,1.821,0,0,1,1.43.668V-9h1.98V0H14.232l-.1-.68a1.87,1.87,0,0,1-1.547.8A2.137,2.137,0,0,1,10.793-.75,4,4,0,0,1,10.131-3.217Zm1.975.123q0,1.688.984,1.688a.972.972,0,0,0,.938-.551V-4.371a.946.946,0,0,0-.926-.562q-.914,0-.99,1.477ZM19.213,0h-1.98V-6.34h1.98Zm-2.1-7.98a.889.889,0,0,1,.3-.7,1.145,1.145,0,0,1,.791-.271A1.145,1.145,0,0,1,19-8.676a.889.889,0,0,1,.3.7.889.889,0,0,1-.3.7,1.145,1.145,0,0,1-.791.271,1.145,1.145,0,0,1-.791-.271A.889.889,0,0,1,17.115-7.98Zm7.148,3.428-.65-.047a1.168,1.168,0,0,0-1.2.586V0H20.443V-6.34h1.852l.064.814a1.529,1.529,0,0,1,1.389-.932,1.926,1.926,0,0,1,.551.07ZM27.932.117a3.259,3.259,0,0,1-2.361-.87,3,3,0,0,1-.9-2.265v-.164a3.893,3.893,0,0,1,.36-1.717A2.637,2.637,0,0,1,26.08-6.05a3.175,3.175,0,0,1,1.641-.407,2.744,2.744,0,0,1,2.109.829A3.258,3.258,0,0,1,30.6-3.316v.768H26.678a1.423,1.423,0,0,0,.463.838,1.377,1.377,0,0,0,.926.3,1.775,1.775,0,0,0,1.465-.656L30.434-1a2.522,2.522,0,0,1-1.046.812A3.534,3.534,0,0,1,27.932.117Zm-.223-5.051q-.867,0-1.031,1.148H28.67v-.152a.978.978,0,0,0-.24-.735A.956.956,0,0,0,27.709-4.934Zm6.369,3.527a.878.878,0,0,0,.645-.226.827.827,0,0,0,.223-.63H36.8A2.192,2.192,0,0,1,36.05-.551a2.779,2.779,0,0,1-1.925.668,2.814,2.814,0,0,1-2.18-.867,3.417,3.417,0,0,1-.8-2.4v-.082a3.862,3.862,0,0,1,.354-1.7,2.581,2.581,0,0,1,1.022-1.131,3.049,3.049,0,0,1,1.582-.4,2.744,2.744,0,0,1,1.963.686A2.432,2.432,0,0,1,36.8-3.914H34.945a1.084,1.084,0,0,0-.24-.756.829.829,0,0,0-.645-.264q-.768,0-.9.979a6.9,6.9,0,0,0-.041.855,2.712,2.712,0,0,0,.229,1.324A.791.791,0,0,0,34.078-1.406Zm6.234,0a.878.878,0,0,0,.645-.226.827.827,0,0,0,.223-.63h1.852a2.192,2.192,0,0,1-.747,1.711,2.779,2.779,0,0,1-1.925.668A2.814,2.814,0,0,1,38.18-.75a3.417,3.417,0,0,1-.8-2.4v-.082a3.862,3.862,0,0,1,.354-1.7A2.581,2.581,0,0,1,38.76-6.062a3.049,3.049,0,0,1,1.582-.4,2.744,2.744,0,0,1,1.963.686,2.432,2.432,0,0,1,.727,1.857H41.18a1.084,1.084,0,0,0-.24-.756.829.829,0,0,0-.645-.264q-.768,0-.9.979a6.9,6.9,0,0,0-.041.855,2.712,2.712,0,0,0,.229,1.324A.791.791,0,0,0,40.313-1.406ZM45.949,0h-1.98V-6.34h1.98Zm-2.1-7.98a.889.889,0,0,1,.3-.7,1.145,1.145,0,0,1,.791-.271,1.145,1.145,0,0,1,.791.271.889.889,0,0,1,.3.7.889.889,0,0,1-.3.7,1.145,1.145,0,0,1-.791.271,1.145,1.145,0,0,1-.791-.271A.889.889,0,0,1,43.852-7.98Zm3.064,4.752a3.742,3.742,0,0,1,.369-1.69,2.64,2.64,0,0,1,1.061-1.14,3.194,3.194,0,0,1,1.623-.4,2.915,2.915,0,0,1,2.244.882,3.384,3.384,0,0,1,.82,2.4v.07A3.283,3.283,0,0,1,52.21-.753a2.923,2.923,0,0,1-2.229.87,2.956,2.956,0,0,1-2.174-.812,3.174,3.174,0,0,1-.885-2.2Zm1.975.123a2.359,2.359,0,0,0,.275,1.289.917.917,0,0,0,.814.41q1.055,0,1.078-1.623v-.2q0-1.705-1.09-1.705-.99,0-1.072,1.471ZM50.238-9h2.086L50.7-7.16l-1.611,0Zm5.479,2.66.064.744a2.15,2.15,0,0,1,1.811-.861,1.809,1.809,0,0,1,1.479.592,2.817,2.817,0,0,1,.507,1.781V0H57.6V-4a1.07,1.07,0,0,0-.193-.706.9.9,0,0,0-.7-.226.942.942,0,0,0-.861.457V0H53.865V-6.34Z" transform="translate(1010 2107)" fill="#12263f"/>
    <path id="Trazado_148303" data-name="Trazado 148303" d="M-52.726-2.895V0h-2.057V-8.531h3.4a3.965,3.965,0,0,1,1.731.36A2.716,2.716,0,0,1-48.48-7.146a2.8,2.8,0,0,1,.413,1.509,2.469,2.469,0,0,1-.894,2,3.708,3.708,0,0,1-2.452.747Zm0-1.588h1.348a1.271,1.271,0,0,0,.911-.3,1.11,1.11,0,0,0,.313-.844,1.372,1.372,0,0,0-.322-.955,1.141,1.141,0,0,0-.879-.363h-1.371Zm9.5-.07-.65-.047a1.168,1.168,0,0,0-1.2.586V0h-1.975V-6.34H-45.2l.064.814a1.529,1.529,0,0,1,1.389-.932,1.926,1.926,0,0,1,.551.07Zm.252,1.324a3.742,3.742,0,0,1,.369-1.69,2.64,2.64,0,0,1,1.061-1.14,3.194,3.194,0,0,1,1.623-.4,2.915,2.915,0,0,1,2.244.882,3.384,3.384,0,0,1,.82,2.4v.07a3.283,3.283,0,0,1-.823,2.353,2.923,2.923,0,0,1-2.229.87,2.956,2.956,0,0,1-2.174-.812,3.174,3.174,0,0,1-.885-2.2ZM-41-3.105a2.359,2.359,0,0,0,.275,1.289.917.917,0,0,0,.814.41q1.055,0,1.078-1.623v-.2q0-1.705-1.09-1.705-.99,0-1.072,1.471Zm7.693,1.7a.878.878,0,0,0,.645-.226.827.827,0,0,0,.223-.63h1.852a2.192,2.192,0,0,1-.747,1.711,2.779,2.779,0,0,1-1.925.668A2.814,2.814,0,0,1-35.44-.75a3.417,3.417,0,0,1-.8-2.4v-.082a3.862,3.862,0,0,1,.354-1.7A2.581,2.581,0,0,1-34.86-6.062a3.049,3.049,0,0,1,1.582-.4,2.744,2.744,0,0,1,1.963.686,2.432,2.432,0,0,1,.727,1.857H-32.44a1.084,1.084,0,0,0-.24-.756.829.829,0,0,0-.645-.264q-.768,0-.9.979a6.9,6.9,0,0,0-.041.855,2.712,2.712,0,0,0,.229,1.324A.791.791,0,0,0-33.308-1.406ZM-26.687.117a3.259,3.259,0,0,1-2.361-.87,3,3,0,0,1-.9-2.265v-.164A3.893,3.893,0,0,1-29.59-4.9,2.637,2.637,0,0,1-28.538-6.05,3.175,3.175,0,0,1-26.9-6.457a2.744,2.744,0,0,1,2.109.829,3.258,3.258,0,0,1,.773,2.312v.768H-27.94a1.423,1.423,0,0,0,.463.838,1.377,1.377,0,0,0,.926.3,1.775,1.775,0,0,0,1.465-.656l.9,1.066a2.522,2.522,0,0,1-1.046.812A3.534,3.534,0,0,1-26.687.117Zm-.223-5.051q-.867,0-1.031,1.148h1.992v-.152a.978.978,0,0,0-.24-.735A.956.956,0,0,0-26.909-4.934ZM-19.9-1.781a.456.456,0,0,0-.264-.4,4.011,4.011,0,0,0-1-.316,4.569,4.569,0,0,1-1.219-.431,2.041,2.041,0,0,1-.732-.647,1.546,1.546,0,0,1-.252-.873,1.752,1.752,0,0,1,.721-1.438,2.969,2.969,0,0,1,1.887-.565,3.289,3.289,0,0,1,2.016.568,1.777,1.777,0,0,1,.762,1.494h-1.98q0-.762-.8-.762a.8.8,0,0,0-.521.173.535.535,0,0,0-.211.431.491.491,0,0,0,.258.428,2.436,2.436,0,0,0,.823.27,7.114,7.114,0,0,1,.993.252A1.8,1.8,0,0,1-18-1.84a1.66,1.66,0,0,1-.771,1.412,3.379,3.379,0,0,1-2,.545,3.448,3.448,0,0,1-1.453-.293,2.43,2.43,0,0,1-1-.8,1.8,1.8,0,0,1-.357-1.061h1.846a.763.763,0,0,0,.293.642,1.205,1.205,0,0,0,.721.2.948.948,0,0,0,.606-.164A.525.525,0,0,0-19.9-1.781Zm2.578-1.447a3.742,3.742,0,0,1,.369-1.69,2.64,2.64,0,0,1,1.061-1.14,3.194,3.194,0,0,1,1.623-.4,2.915,2.915,0,0,1,2.244.882,3.384,3.384,0,0,1,.82,2.4v.07a3.283,3.283,0,0,1-.823,2.353,2.923,2.923,0,0,1-2.229.87,2.956,2.956,0,0,1-2.174-.812,3.174,3.174,0,0,1-.885-2.2Zm1.975.123a2.359,2.359,0,0,0,.275,1.289.917.917,0,0,0,.814.41q1.055,0,1.078-1.623v-.2q0-1.705-1.09-1.705-.99,0-1.072,1.471Zm8.332,1.324a.456.456,0,0,0-.264-.4,4.011,4.011,0,0,0-1-.316A4.569,4.569,0,0,1-9.5-2.933a2.041,2.041,0,0,1-.732-.647,1.546,1.546,0,0,1-.252-.873,1.752,1.752,0,0,1,.721-1.438,2.969,2.969,0,0,1,1.887-.565,3.289,3.289,0,0,1,2.016.568A1.777,1.777,0,0,1-5.1-4.395h-1.98q0-.762-.8-.762a.8.8,0,0,0-.521.173.535.535,0,0,0-.211.431.491.491,0,0,0,.258.428,2.436,2.436,0,0,0,.823.27,7.114,7.114,0,0,1,.993.252A1.8,1.8,0,0,1-5.112-1.84,1.66,1.66,0,0,1-5.883-.428a3.379,3.379,0,0,1-2,.545A3.448,3.448,0,0,1-9.331-.176a2.43,2.43,0,0,1-1-.8,1.8,1.8,0,0,1-.357-1.061h1.846a.763.763,0,0,0,.293.642,1.205,1.205,0,0,0,.721.2.948.948,0,0,0,.606-.164A.525.525,0,0,0-7.017-1.781ZM-1.45-3.229a3.742,3.742,0,0,1,.369-1.69A2.64,2.64,0,0,1-.021-6.059a3.194,3.194,0,0,1,1.623-.4,2.915,2.915,0,0,1,2.244.882,3.384,3.384,0,0,1,.82,2.4v.07A3.283,3.283,0,0,1,3.844-.753a2.923,2.923,0,0,1-2.229.87A2.956,2.956,0,0,1-.56-.694a3.174,3.174,0,0,1-.885-2.2Zm1.975.123A2.359,2.359,0,0,0,.8-1.816a.917.917,0,0,0,.814.41q1.055,0,1.078-1.623v-.2q0-1.705-1.09-1.705-.99,0-1.072,1.471Zm10.9-.018a3.823,3.823,0,0,1-.665,2.358,2.132,2.132,0,0,1-1.8.882A1.828,1.828,0,0,1,7.526-.521V2.438H5.552V-6.34H7.4l.059.586a1.828,1.828,0,0,1,1.494-.7,2.149,2.149,0,0,1,1.822.864,3.87,3.87,0,0,1,.65,2.376ZM9.448-3.246q0-1.687-.984-1.687a.929.929,0,0,0-.937.5v2.5a.96.96,0,0,0,.949.527q.943,0,.973-1.629ZM15.36.117A3.259,3.259,0,0,1,13-.753a3,3,0,0,1-.9-2.265v-.164a3.893,3.893,0,0,1,.36-1.717A2.637,2.637,0,0,1,13.509-6.05a3.175,3.175,0,0,1,1.641-.407,2.744,2.744,0,0,1,2.109.829,3.258,3.258,0,0,1,.773,2.312v.768H14.106a1.423,1.423,0,0,0,.463.838,1.377,1.377,0,0,0,.926.3,1.775,1.775,0,0,0,1.465-.656L17.862-1a2.522,2.522,0,0,1-1.046.812A3.534,3.534,0,0,1,15.36.117Zm-.223-5.051q-.867,0-1.031,1.148H16.1v-.152a.978.978,0,0,0-.24-.735A.956.956,0,0,0,15.138-4.934Zm7.523.381-.65-.047a1.168,1.168,0,0,0-1.2.586V0H18.841V-6.34h1.852l.064.814a1.529,1.529,0,0,1,1.389-.932,1.926,1.926,0,0,1,.551.07ZM26.769,0a2.23,2.23,0,0,1-.187-.568,1.836,1.836,0,0,1-1.523.686,2.249,2.249,0,0,1-1.523-.542,1.725,1.725,0,0,1-.627-1.362,1.773,1.773,0,0,1,.762-1.559,3.881,3.881,0,0,1,2.215-.527h.609v-.336q0-.877-.756-.877a.618.618,0,0,0-.7.695H23.06a1.77,1.77,0,0,1,.782-1.492,3.287,3.287,0,0,1,2-.574,2.882,2.882,0,0,1,1.916.592,2.058,2.058,0,0,1,.721,1.623v2.807A2.874,2.874,0,0,0,28.743-.1V0ZM25.532-1.289a1.1,1.1,0,0,0,.612-.158.992.992,0,0,0,.349-.357V-2.818h-.574q-1.031,0-1.031.926a.565.565,0,0,0,.182.437A.657.657,0,0,0,25.532-1.289Zm6.334-6.627V-6.34h1.043v1.371H31.866v2.9a.741.741,0,0,0,.129.5.691.691,0,0,0,.51.141A2.9,2.9,0,0,0,33-1.465V-.053a3.644,3.644,0,0,1-1.113.17,2.069,2.069,0,0,1-1.506-.48,1.969,1.969,0,0,1-.486-1.459V-4.969h-.809V-6.34h.809V-7.916ZM35.769,0h-1.98V-6.34h1.98Zm-2.1-7.98a.889.889,0,0,1,.3-.7,1.145,1.145,0,0,1,.791-.271,1.145,1.145,0,0,1,.791.271.889.889,0,0,1,.3.7.889.889,0,0,1-.3.7,1.145,1.145,0,0,1-.791.271,1.145,1.145,0,0,1-.791-.271A.889.889,0,0,1,33.671-7.98ZM39.513-2.35l1-3.99h2.08L40.526,0H38.511L36.442-6.34h2.086Zm3.334-.879a3.742,3.742,0,0,1,.369-1.69,2.64,2.64,0,0,1,1.061-1.14,3.194,3.194,0,0,1,1.623-.4,2.915,2.915,0,0,1,2.244.882,3.384,3.384,0,0,1,.82,2.4v.07a3.283,3.283,0,0,1-.823,2.353,2.923,2.923,0,0,1-2.229.87,2.956,2.956,0,0,1-2.174-.812,3.174,3.174,0,0,1-.885-2.2Zm1.975.123A2.359,2.359,0,0,0,45.1-1.816a.917.917,0,0,0,.814.41q1.055,0,1.078-1.623v-.2q0-1.705-1.09-1.705-.99,0-1.072,1.471Zm8.332,1.324a.456.456,0,0,0-.264-.4,4.011,4.011,0,0,0-1-.316,4.569,4.569,0,0,1-1.219-.431,2.041,2.041,0,0,1-.732-.647,1.546,1.546,0,0,1-.252-.873,1.752,1.752,0,0,1,.721-1.438,2.969,2.969,0,0,1,1.887-.565,3.289,3.289,0,0,1,2.016.568,1.777,1.777,0,0,1,.762,1.494h-1.98q0-.762-.8-.762a.8.8,0,0,0-.521.173.535.535,0,0,0-.211.431.491.491,0,0,0,.258.428,2.436,2.436,0,0,0,.823.27,7.114,7.114,0,0,1,.993.252,1.8,1.8,0,0,1,1.43,1.764,1.66,1.66,0,0,1-.771,1.412,3.379,3.379,0,0,1-2,.545,3.448,3.448,0,0,1-1.453-.293,2.43,2.43,0,0,1-1-.8,1.8,1.8,0,0,1-.357-1.061h1.846a.763.763,0,0,0,.293.642,1.205,1.205,0,0,0,.721.2.948.948,0,0,0,.606-.164A.525.525,0,0,0,53.153-1.781Z" transform="translate(1010 2173)" fill="#12263f"/>
    <path id="Trazado_148304" data-name="Trazado 148304" d="M-53.206-2.895V0h-2.057V-8.531h3.4a3.965,3.965,0,0,1,1.731.36,2.716,2.716,0,0,1,1.166,1.025,2.8,2.8,0,0,1,.413,1.509,2.469,2.469,0,0,1-.894,2,3.708,3.708,0,0,1-2.452.747Zm0-1.588h1.348a1.271,1.271,0,0,0,.911-.3,1.11,1.11,0,0,0,.313-.844,1.372,1.372,0,0,0-.322-.955,1.141,1.141,0,0,0-.879-.363h-1.371Zm9.5-.07-.65-.047a1.168,1.168,0,0,0-1.2.586V0h-1.975V-6.34h1.852l.064.814a1.529,1.529,0,0,1,1.389-.932,1.926,1.926,0,0,1,.551.07Zm.252,1.324a3.742,3.742,0,0,1,.369-1.69,2.64,2.64,0,0,1,1.061-1.14,3.194,3.194,0,0,1,1.623-.4,2.915,2.915,0,0,1,2.244.882,3.384,3.384,0,0,1,.82,2.4v.07a3.283,3.283,0,0,1-.823,2.353,2.923,2.923,0,0,1-2.229.87,2.956,2.956,0,0,1-2.174-.812,3.174,3.174,0,0,1-.885-2.2Zm1.975.123a2.359,2.359,0,0,0,.275,1.289.917.917,0,0,0,.814.41q1.055,0,1.078-1.623v-.2q0-1.705-1.09-1.705-.99,0-1.072,1.471Zm7.693,1.7a.878.878,0,0,0,.645-.226.827.827,0,0,0,.223-.63h1.852a2.192,2.192,0,0,1-.747,1.711,2.779,2.779,0,0,1-1.925.668,2.814,2.814,0,0,1-2.18-.867,3.417,3.417,0,0,1-.8-2.4v-.082a3.862,3.862,0,0,1,.354-1.7,2.581,2.581,0,0,1,1.022-1.131,3.049,3.049,0,0,1,1.582-.4,2.744,2.744,0,0,1,1.963.686,2.432,2.432,0,0,1,.727,1.857h-1.852a1.084,1.084,0,0,0-.24-.756.829.829,0,0,0-.645-.264q-.768,0-.9.979a6.9,6.9,0,0,0-.041.855,2.712,2.712,0,0,0,.229,1.324A.791.791,0,0,0-33.788-1.406ZM-27.167.117a3.259,3.259,0,0,1-2.361-.87,3,3,0,0,1-.9-2.265v-.164A3.893,3.893,0,0,1-30.07-4.9,2.637,2.637,0,0,1-29.019-6.05a3.175,3.175,0,0,1,1.641-.407,2.744,2.744,0,0,1,2.109.829A3.258,3.258,0,0,1-24.5-3.316v.768h-3.926a1.423,1.423,0,0,0,.463.838,1.377,1.377,0,0,0,.926.3,1.775,1.775,0,0,0,1.465-.656l.9,1.066a2.522,2.522,0,0,1-1.046.812A3.534,3.534,0,0,1-27.167.117Zm-.223-5.051q-.867,0-1.031,1.148h1.992v-.152a.978.978,0,0,0-.24-.735A.956.956,0,0,0-27.39-4.934Zm7.008,3.152a.456.456,0,0,0-.264-.4,4.011,4.011,0,0,0-1-.316,4.569,4.569,0,0,1-1.219-.431A2.041,2.041,0,0,1-23.6-3.58a1.546,1.546,0,0,1-.252-.873,1.752,1.752,0,0,1,.721-1.438,2.969,2.969,0,0,1,1.887-.565,3.289,3.289,0,0,1,2.016.568,1.777,1.777,0,0,1,.762,1.494h-1.98q0-.762-.8-.762a.8.8,0,0,0-.521.173.535.535,0,0,0-.211.431.491.491,0,0,0,.258.428,2.436,2.436,0,0,0,.823.27,7.114,7.114,0,0,1,.993.252,1.8,1.8,0,0,1,1.43,1.764,1.66,1.66,0,0,1-.771,1.412,3.379,3.379,0,0,1-2,.545A3.448,3.448,0,0,1-22.7-.176a2.43,2.43,0,0,1-1-.8,1.8,1.8,0,0,1-.357-1.061H-22.2a.763.763,0,0,0,.293.642,1.205,1.205,0,0,0,.721.2.948.948,0,0,0,.606-.164A.525.525,0,0,0-20.382-1.781ZM-17.8-3.229a3.742,3.742,0,0,1,.369-1.69,2.64,2.64,0,0,1,1.061-1.14,3.194,3.194,0,0,1,1.623-.4,2.915,2.915,0,0,1,2.244.882,3.384,3.384,0,0,1,.82,2.4v.07A3.283,3.283,0,0,1-12.51-.753a2.923,2.923,0,0,1-2.229.87,2.956,2.956,0,0,1-2.174-.812,3.174,3.174,0,0,1-.885-2.2Zm1.975.123a2.359,2.359,0,0,0,.275,1.289.917.917,0,0,0,.814.41q1.055,0,1.078-1.623v-.2q0-1.705-1.09-1.705-.99,0-1.072,1.471ZM-7.5-1.781a.456.456,0,0,0-.264-.4,4.011,4.011,0,0,0-1-.316,4.569,4.569,0,0,1-1.219-.431,2.041,2.041,0,0,1-.732-.647,1.546,1.546,0,0,1-.252-.873,1.752,1.752,0,0,1,.721-1.438,2.969,2.969,0,0,1,1.887-.565,3.289,3.289,0,0,1,2.016.568,1.777,1.777,0,0,1,.762,1.494h-1.98q0-.762-.8-.762a.8.8,0,0,0-.521.173.535.535,0,0,0-.211.431.491.491,0,0,0,.258.428,2.436,2.436,0,0,0,.823.27,7.114,7.114,0,0,1,.993.252A1.8,1.8,0,0,1-5.593-1.84,1.66,1.66,0,0,1-6.363-.428a3.379,3.379,0,0,1-2,.545A3.448,3.448,0,0,1-9.812-.176a2.43,2.43,0,0,1-1-.8,1.8,1.8,0,0,1-.357-1.061h1.846a.763.763,0,0,0,.293.642,1.205,1.205,0,0,0,.721.2A.948.948,0,0,0-7.7-1.354.525.525,0,0,0-7.5-1.781Zm5.566-1.436A3.873,3.873,0,0,1-1.28-5.59,2.141,2.141,0,0,1,.536-6.457a1.821,1.821,0,0,1,1.43.668V-9h1.98V0H2.171l-.1-.68a1.87,1.87,0,0,1-1.547.8A2.137,2.137,0,0,1-1.269-.75,4,4,0,0,1-1.931-3.217Zm1.975.123q0,1.688.984,1.688a.972.972,0,0,0,.938-.551V-4.371a.946.946,0,0,0-.926-.562q-.914,0-.99,1.477ZM8.136.117a3.259,3.259,0,0,1-2.361-.87,3,3,0,0,1-.9-2.265v-.164A3.893,3.893,0,0,1,5.232-4.9,2.637,2.637,0,0,1,6.284-6.05a3.175,3.175,0,0,1,1.641-.407,2.744,2.744,0,0,1,2.109.829,3.258,3.258,0,0,1,.773,2.312v.768H6.882a1.423,1.423,0,0,0,.463.838,1.377,1.377,0,0,0,.926.3,1.775,1.775,0,0,0,1.465-.656L10.638-1a2.522,2.522,0,0,1-1.046.812A3.534,3.534,0,0,1,8.136.117ZM7.913-4.934q-.867,0-1.031,1.148H8.874v-.152a.978.978,0,0,0-.24-.735A.956.956,0,0,0,7.913-4.934Zm10,3.152a.456.456,0,0,0-.264-.4,4.011,4.011,0,0,0-1-.316,4.569,4.569,0,0,1-1.219-.431,2.041,2.041,0,0,1-.732-.647,1.546,1.546,0,0,1-.252-.873,1.752,1.752,0,0,1,.721-1.438,2.969,2.969,0,0,1,1.887-.565,3.289,3.289,0,0,1,2.016.568,1.777,1.777,0,0,1,.762,1.494h-1.98q0-.762-.8-.762a.8.8,0,0,0-.521.173.535.535,0,0,0-.211.431.491.491,0,0,0,.258.428,2.436,2.436,0,0,0,.823.27,7.114,7.114,0,0,1,.993.252,1.8,1.8,0,0,1,1.43,1.764,1.66,1.66,0,0,1-.771,1.412,3.379,3.379,0,0,1-2,.545,3.448,3.448,0,0,1-1.453-.293,2.43,2.43,0,0,1-1-.8,1.8,1.8,0,0,1-.357-1.061h1.846a.763.763,0,0,0,.293.642,1.205,1.205,0,0,0,.721.2.948.948,0,0,0,.606-.164A.525.525,0,0,0,17.909-1.781Zm2.578-1.447a3.742,3.742,0,0,1,.369-1.69,2.64,2.64,0,0,1,1.061-1.14,3.194,3.194,0,0,1,1.623-.4,2.915,2.915,0,0,1,2.244.882,3.384,3.384,0,0,1,.82,2.4v.07a3.283,3.283,0,0,1-.823,2.353,2.923,2.923,0,0,1-2.229.87,2.956,2.956,0,0,1-2.174-.812,3.174,3.174,0,0,1-.885-2.2Zm1.975.123a2.359,2.359,0,0,0,.275,1.289.917.917,0,0,0,.814.41q1.055,0,1.078-1.623v-.2q0-1.705-1.09-1.705-.99,0-1.072,1.471Zm10.9-.018A3.823,3.823,0,0,1,32.7-.765a2.132,2.132,0,0,1-1.8.882,1.828,1.828,0,0,1-1.436-.639V2.438H27.489V-6.34h1.846l.059.586a1.828,1.828,0,0,1,1.494-.7,2.149,2.149,0,0,1,1.822.864,3.87,3.87,0,0,1,.65,2.376Zm-1.975-.123q0-1.687-.984-1.687a.929.929,0,0,0-.937.5v2.5a.96.96,0,0,0,.949.527q.943,0,.973-1.629Zm2.6.018a3.742,3.742,0,0,1,.369-1.69,2.64,2.64,0,0,1,1.061-1.14,3.194,3.194,0,0,1,1.623-.4,2.915,2.915,0,0,1,2.244.882,3.384,3.384,0,0,1,.82,2.4v.07a3.283,3.283,0,0,1-.823,2.353,2.923,2.923,0,0,1-2.229.87,2.956,2.956,0,0,1-2.174-.812,3.174,3.174,0,0,1-.885-2.2Zm1.975.123a2.359,2.359,0,0,0,.275,1.289.917.917,0,0,0,.814.41q1.055,0,1.078-1.623v-.2q0-1.705-1.09-1.705-.99,0-1.072,1.471ZM44.8-4.553l-.65-.047a1.168,1.168,0,0,0-1.2.586V0H40.983V-6.34h1.852l.064.814a1.529,1.529,0,0,1,1.389-.932,1.926,1.926,0,0,1,.551.07Zm3.3-3.363V-6.34h1.043v1.371H48.108v2.9a.741.741,0,0,0,.129.5.691.691,0,0,0,.51.141,2.9,2.9,0,0,0,.492-.035V-.053a3.644,3.644,0,0,1-1.113.17,2.069,2.069,0,0,1-1.506-.48,1.969,1.969,0,0,1-.486-1.459V-4.969h-.809V-6.34h.809V-7.916ZM53,.117a3.259,3.259,0,0,1-2.361-.87,3,3,0,0,1-.9-2.265v-.164a3.893,3.893,0,0,1,.36-1.717A2.637,2.637,0,0,1,51.144-6.05a3.175,3.175,0,0,1,1.641-.407,2.744,2.744,0,0,1,2.109.829,3.258,3.258,0,0,1,.773,2.312v.768H51.741a1.423,1.423,0,0,0,.463.838,1.377,1.377,0,0,0,.926.3,1.775,1.775,0,0,0,1.465-.656L55.5-1a2.522,2.522,0,0,1-1.046.812A3.534,3.534,0,0,1,53,.117Zm-.223-5.051q-.867,0-1.031,1.148h1.992v-.152a.978.978,0,0,0-.24-.735A.956.956,0,0,0,52.772-4.934Z" transform="translate(1010 2374)" fill="#12263f"/>
    <path id="Trazado_148305" data-name="Trazado 148305" d="M-19.567-2.895V0h-2.057V-8.531h3.4a3.965,3.965,0,0,1,1.731.36,2.716,2.716,0,0,1,1.166,1.025,2.8,2.8,0,0,1,.413,1.509,2.469,2.469,0,0,1-.894,2,3.708,3.708,0,0,1-2.452.747Zm0-1.588h1.348a1.271,1.271,0,0,0,.911-.3A1.11,1.11,0,0,0-17-5.625a1.372,1.372,0,0,0-.322-.955,1.141,1.141,0,0,0-.879-.363h-1.371Zm9.5-.07-.65-.047a1.168,1.168,0,0,0-1.2.586V0H-13.89V-6.34h1.852l.064.814a1.529,1.529,0,0,1,1.389-.932,1.926,1.926,0,0,1,.551.07Zm.252,1.324a3.742,3.742,0,0,1,.369-1.69,2.64,2.64,0,0,1,1.061-1.14,3.194,3.194,0,0,1,1.623-.4,2.915,2.915,0,0,1,2.244.882,3.384,3.384,0,0,1,.82,2.4v.07A3.283,3.283,0,0,1-4.523-.753a2.923,2.923,0,0,1-2.229.87A2.956,2.956,0,0,1-8.927-.694a3.174,3.174,0,0,1-.885-2.2Zm1.975.123a2.359,2.359,0,0,0,.275,1.289.917.917,0,0,0,.814.41q1.055,0,1.078-1.623v-.2q0-1.705-1.09-1.705-.99,0-1.072,1.471Zm7.693,1.7A.878.878,0,0,0,.5-1.632a.827.827,0,0,0,.223-.63H2.569A2.192,2.192,0,0,1,1.822-.551,2.779,2.779,0,0,1-.1.117,2.814,2.814,0,0,1-2.282-.75a3.417,3.417,0,0,1-.8-2.4v-.082a3.862,3.862,0,0,1,.354-1.7A2.581,2.581,0,0,1-1.7-6.062a3.049,3.049,0,0,1,1.582-.4,2.744,2.744,0,0,1,1.963.686,2.432,2.432,0,0,1,.727,1.857H.718a1.084,1.084,0,0,0-.24-.756.829.829,0,0,0-.645-.264q-.768,0-.9.979A6.9,6.9,0,0,0-1.1-3.1,2.712,2.712,0,0,0-.876-1.775.791.791,0,0,0-.149-1.406ZM6.472.117A3.259,3.259,0,0,1,4.11-.753a3,3,0,0,1-.9-2.265v-.164A3.893,3.893,0,0,1,3.568-4.9,2.637,2.637,0,0,1,4.62-6.05a3.175,3.175,0,0,1,1.641-.407,2.744,2.744,0,0,1,2.109.829,3.258,3.258,0,0,1,.773,2.312v.768H5.218a1.423,1.423,0,0,0,.463.838,1.377,1.377,0,0,0,.926.3,1.775,1.775,0,0,0,1.465-.656L8.974-1a2.522,2.522,0,0,1-1.046.812A3.534,3.534,0,0,1,6.472.117ZM6.249-4.934q-.867,0-1.031,1.148H7.21v-.152a.978.978,0,0,0-.24-.735A.956.956,0,0,0,6.249-4.934Zm7.008,3.152a.456.456,0,0,0-.264-.4,4.011,4.011,0,0,0-1-.316,4.569,4.569,0,0,1-1.219-.431,2.041,2.041,0,0,1-.732-.647,1.546,1.546,0,0,1-.252-.873,1.752,1.752,0,0,1,.721-1.438A2.969,2.969,0,0,1,12.4-6.457a3.289,3.289,0,0,1,2.016.568,1.777,1.777,0,0,1,.762,1.494h-1.98q0-.762-.8-.762a.8.8,0,0,0-.521.173.535.535,0,0,0-.211.431.491.491,0,0,0,.258.428,2.436,2.436,0,0,0,.823.27,7.114,7.114,0,0,1,.993.252,1.8,1.8,0,0,1,1.43,1.764,1.66,1.66,0,0,1-.771,1.412,3.379,3.379,0,0,1-2,.545,3.448,3.448,0,0,1-1.453-.293,2.43,2.43,0,0,1-1-.8,1.8,1.8,0,0,1-.357-1.061h1.846a.763.763,0,0,0,.293.642,1.205,1.205,0,0,0,.721.2.948.948,0,0,0,.606-.164A.525.525,0,0,0,13.257-1.781Zm2.578-1.447a3.742,3.742,0,0,1,.369-1.69,2.64,2.64,0,0,1,1.061-1.14,3.194,3.194,0,0,1,1.623-.4,2.915,2.915,0,0,1,2.244.882,3.384,3.384,0,0,1,.82,2.4v.07a3.283,3.283,0,0,1-.823,2.353A2.923,2.923,0,0,1,18.9.117a2.956,2.956,0,0,1-2.174-.812,3.174,3.174,0,0,1-.885-2.2Zm1.975.123a2.359,2.359,0,0,0,.275,1.289.917.917,0,0,0,.814.41q1.055,0,1.078-1.623v-.2q0-1.705-1.09-1.705-.99,0-1.072,1.471Z" transform="translate(941 2136)" fill="#12263f"/>
    <path id="Trazado_148306" data-name="Trazado 148306" d="M-19.567-2.895V0h-2.057V-8.531h3.4a3.965,3.965,0,0,1,1.731.36,2.716,2.716,0,0,1,1.166,1.025,2.8,2.8,0,0,1,.413,1.509,2.469,2.469,0,0,1-.894,2,3.708,3.708,0,0,1-2.452.747Zm0-1.588h1.348a1.271,1.271,0,0,0,.911-.3A1.11,1.11,0,0,0-17-5.625a1.372,1.372,0,0,0-.322-.955,1.141,1.141,0,0,0-.879-.363h-1.371Zm9.5-.07-.65-.047a1.168,1.168,0,0,0-1.2.586V0H-13.89V-6.34h1.852l.064.814a1.529,1.529,0,0,1,1.389-.932,1.926,1.926,0,0,1,.551.07Zm.252,1.324a3.742,3.742,0,0,1,.369-1.69,2.64,2.64,0,0,1,1.061-1.14,3.194,3.194,0,0,1,1.623-.4,2.915,2.915,0,0,1,2.244.882,3.384,3.384,0,0,1,.82,2.4v.07A3.283,3.283,0,0,1-4.523-.753a2.923,2.923,0,0,1-2.229.87A2.956,2.956,0,0,1-8.927-.694a3.174,3.174,0,0,1-.885-2.2Zm1.975.123a2.359,2.359,0,0,0,.275,1.289.917.917,0,0,0,.814.41q1.055,0,1.078-1.623v-.2q0-1.705-1.09-1.705-.99,0-1.072,1.471Zm7.693,1.7A.878.878,0,0,0,.5-1.632a.827.827,0,0,0,.223-.63H2.569A2.192,2.192,0,0,1,1.822-.551,2.779,2.779,0,0,1-.1.117,2.814,2.814,0,0,1-2.282-.75a3.417,3.417,0,0,1-.8-2.4v-.082a3.862,3.862,0,0,1,.354-1.7A2.581,2.581,0,0,1-1.7-6.062a3.049,3.049,0,0,1,1.582-.4,2.744,2.744,0,0,1,1.963.686,2.432,2.432,0,0,1,.727,1.857H.718a1.084,1.084,0,0,0-.24-.756.829.829,0,0,0-.645-.264q-.768,0-.9.979A6.9,6.9,0,0,0-1.1-3.1,2.712,2.712,0,0,0-.876-1.775.791.791,0,0,0-.149-1.406ZM6.472.117A3.259,3.259,0,0,1,4.11-.753a3,3,0,0,1-.9-2.265v-.164A3.893,3.893,0,0,1,3.568-4.9,2.637,2.637,0,0,1,4.62-6.05a3.175,3.175,0,0,1,1.641-.407,2.744,2.744,0,0,1,2.109.829,3.258,3.258,0,0,1,.773,2.312v.768H5.218a1.423,1.423,0,0,0,.463.838,1.377,1.377,0,0,0,.926.3,1.775,1.775,0,0,0,1.465-.656L8.974-1a2.522,2.522,0,0,1-1.046.812A3.534,3.534,0,0,1,6.472.117ZM6.249-4.934q-.867,0-1.031,1.148H7.21v-.152a.978.978,0,0,0-.24-.735A.956.956,0,0,0,6.249-4.934Zm7.008,3.152a.456.456,0,0,0-.264-.4,4.011,4.011,0,0,0-1-.316,4.569,4.569,0,0,1-1.219-.431,2.041,2.041,0,0,1-.732-.647,1.546,1.546,0,0,1-.252-.873,1.752,1.752,0,0,1,.721-1.438A2.969,2.969,0,0,1,12.4-6.457a3.289,3.289,0,0,1,2.016.568,1.777,1.777,0,0,1,.762,1.494h-1.98q0-.762-.8-.762a.8.8,0,0,0-.521.173.535.535,0,0,0-.211.431.491.491,0,0,0,.258.428,2.436,2.436,0,0,0,.823.27,7.114,7.114,0,0,1,.993.252,1.8,1.8,0,0,1,1.43,1.764,1.66,1.66,0,0,1-.771,1.412,3.379,3.379,0,0,1-2,.545,3.448,3.448,0,0,1-1.453-.293,2.43,2.43,0,0,1-1-.8,1.8,1.8,0,0,1-.357-1.061h1.846a.763.763,0,0,0,.293.642,1.205,1.205,0,0,0,.721.2.948.948,0,0,0,.606-.164A.525.525,0,0,0,13.257-1.781Zm2.578-1.447a3.742,3.742,0,0,1,.369-1.69,2.64,2.64,0,0,1,1.061-1.14,3.194,3.194,0,0,1,1.623-.4,2.915,2.915,0,0,1,2.244.882,3.384,3.384,0,0,1,.82,2.4v.07a3.283,3.283,0,0,1-.823,2.353A2.923,2.923,0,0,1,18.9.117a2.956,2.956,0,0,1-2.174-.812,3.174,3.174,0,0,1-.885-2.2Zm1.975.123a2.359,2.359,0,0,0,.275,1.289.917.917,0,0,0,.814.41q1.055,0,1.078-1.623v-.2q0-1.705-1.09-1.705-.99,0-1.072,1.471Z" transform="translate(941 2402)" fill="#12263f"/>
    <path id="Trazado_148307" data-name="Trazado 148307" d="M-3.665-1.916a1.124,1.124,0,0,1,.779.278.913.913,0,0,1,.311.712.913.913,0,0,1-.311.712,1.124,1.124,0,0,1-.779.278,1.115,1.115,0,0,1-.782-.281.92.92,0,0,1-.308-.709.92.92,0,0,1,.308-.709A1.115,1.115,0,0,1-3.665-1.916Zm3.627,0a1.124,1.124,0,0,1,.779.278.913.913,0,0,1,.311.712.913.913,0,0,1-.311.712A1.124,1.124,0,0,1-.038.064,1.115,1.115,0,0,1-.82-.217a.92.92,0,0,1-.308-.709A.92.92,0,0,1-.82-1.635,1.115,1.115,0,0,1-.038-1.916Zm3.627,0a1.124,1.124,0,0,1,.779.278.913.913,0,0,1,.311.712.913.913,0,0,1-.311.712,1.124,1.124,0,0,1-.779.278,1.115,1.115,0,0,1-.782-.281A.92.92,0,0,1,2.5-.926a.92.92,0,0,1,.308-.709A1.115,1.115,0,0,1,3.589-1.916Z" transform="translate(1010 2139)" fill="#12263f"/>
    <path id="Trazado_148308" data-name="Trazado 148308" d="M-3.665-1.916a1.124,1.124,0,0,1,.779.278.913.913,0,0,1,.311.712.913.913,0,0,1-.311.712,1.124,1.124,0,0,1-.779.278,1.115,1.115,0,0,1-.782-.281.92.92,0,0,1-.308-.709.92.92,0,0,1,.308-.709A1.115,1.115,0,0,1-3.665-1.916Zm3.627,0a1.124,1.124,0,0,1,.779.278.913.913,0,0,1,.311.712.913.913,0,0,1-.311.712A1.124,1.124,0,0,1-.038.064,1.115,1.115,0,0,1-.82-.217a.92.92,0,0,1-.308-.709A.92.92,0,0,1-.82-1.635,1.115,1.115,0,0,1-.038-1.916Zm3.627,0a1.124,1.124,0,0,1,.779.278.913.913,0,0,1,.311.712.913.913,0,0,1-.311.712,1.124,1.124,0,0,1-.779.278,1.115,1.115,0,0,1-.782-.281A.92.92,0,0,1,2.5-.926a.92.92,0,0,1,.308-.709A1.115,1.115,0,0,1,3.589-1.916Z" transform="translate(1010 2403)" fill="#12263f"/>
    <path id="Trazado_148309" data-name="Trazado 148309" d="M-3.665-1.916a1.124,1.124,0,0,1,.779.278.913.913,0,0,1,.311.712.913.913,0,0,1-.311.712,1.124,1.124,0,0,1-.779.278,1.115,1.115,0,0,1-.782-.281.92.92,0,0,1-.308-.709.92.92,0,0,1,.308-.709A1.115,1.115,0,0,1-3.665-1.916Zm3.627,0a1.124,1.124,0,0,1,.779.278.913.913,0,0,1,.311.712.913.913,0,0,1-.311.712A1.124,1.124,0,0,1-.038.064,1.115,1.115,0,0,1-.82-.217a.92.92,0,0,1-.308-.709A.92.92,0,0,1-.82-1.635,1.115,1.115,0,0,1-.038-1.916Zm3.627,0a1.124,1.124,0,0,1,.779.278.913.913,0,0,1,.311.712.913.913,0,0,1-.311.712,1.124,1.124,0,0,1-.779.278,1.115,1.115,0,0,1-.782-.281A.92.92,0,0,1,2.5-.926a.92.92,0,0,1,.308-.709A1.115,1.115,0,0,1,3.589-1.916Z" transform="translate(1010 2300)" fill="#12263f"/>
    <path id="Trazado_148310" data-name="Trazado 148310" d="M-24.536-2.895V0h-2.057V-8.531h3.4a3.965,3.965,0,0,1,1.731.36,2.716,2.716,0,0,1,1.166,1.025,2.8,2.8,0,0,1,.413,1.509,2.469,2.469,0,0,1-.894,2,3.708,3.708,0,0,1-2.452.747Zm0-1.588h1.348a1.271,1.271,0,0,0,.911-.3,1.11,1.11,0,0,0,.313-.844,1.372,1.372,0,0,0-.322-.955,1.141,1.141,0,0,0-.879-.363h-1.371Zm9.5-.07-.65-.047a1.168,1.168,0,0,0-1.2.586V0h-1.975V-6.34h1.852l.064.814a1.529,1.529,0,0,1,1.389-.932,1.926,1.926,0,0,1,.551.07Zm.252,1.324a3.742,3.742,0,0,1,.369-1.69,2.64,2.64,0,0,1,1.061-1.14,3.194,3.194,0,0,1,1.623-.4,2.915,2.915,0,0,1,2.244.882,3.384,3.384,0,0,1,.82,2.4v.07A3.283,3.283,0,0,1-9.492-.753a2.923,2.923,0,0,1-2.229.87A2.956,2.956,0,0,1-13.9-.694a3.174,3.174,0,0,1-.885-2.2Zm1.975.123a2.359,2.359,0,0,0,.275,1.289.917.917,0,0,0,.814.41q1.055,0,1.078-1.623v-.2q0-1.705-1.09-1.705-.99,0-1.072,1.471Zm7.693,1.7a.878.878,0,0,0,.645-.226.827.827,0,0,0,.223-.63H-2.4A2.192,2.192,0,0,1-3.146-.551,2.779,2.779,0,0,1-5.071.117,2.814,2.814,0,0,1-7.251-.75a3.417,3.417,0,0,1-.8-2.4v-.082a3.862,3.862,0,0,1,.354-1.7A2.581,2.581,0,0,1-6.671-6.062a3.049,3.049,0,0,1,1.582-.4,2.744,2.744,0,0,1,1.963.686A2.432,2.432,0,0,1-2.4-3.914H-4.251a1.084,1.084,0,0,0-.24-.756.829.829,0,0,0-.645-.264q-.768,0-.9.979a6.9,6.9,0,0,0-.041.855,2.712,2.712,0,0,0,.229,1.324A.791.791,0,0,0-5.118-1.406ZM1.5.117A3.259,3.259,0,0,1-.858-.753a3,3,0,0,1-.9-2.265v-.164A3.893,3.893,0,0,1-1.4-4.9,2.637,2.637,0,0,1-.349-6.05a3.175,3.175,0,0,1,1.641-.407A2.744,2.744,0,0,1,3.4-5.628a3.258,3.258,0,0,1,.773,2.312v.768H.249a1.423,1.423,0,0,0,.463.838,1.377,1.377,0,0,0,.926.3A1.775,1.775,0,0,0,3.1-2.062L4-1a2.522,2.522,0,0,1-1.046.812A3.534,3.534,0,0,1,1.5.117ZM1.28-4.934q-.867,0-1.031,1.148H2.241v-.152A.978.978,0,0,0,2-4.673.956.956,0,0,0,1.28-4.934ZM8.288-1.781a.456.456,0,0,0-.264-.4,4.011,4.011,0,0,0-1-.316A4.569,4.569,0,0,1,5.8-2.933a2.041,2.041,0,0,1-.732-.647,1.546,1.546,0,0,1-.252-.873A1.752,1.752,0,0,1,5.54-5.892a2.969,2.969,0,0,1,1.887-.565,3.289,3.289,0,0,1,2.016.568A1.777,1.777,0,0,1,10.2-4.395H8.224q0-.762-.8-.762a.8.8,0,0,0-.521.173.535.535,0,0,0-.211.431.491.491,0,0,0,.258.428,2.436,2.436,0,0,0,.823.27,7.114,7.114,0,0,1,.993.252,1.8,1.8,0,0,1,1.43,1.764A1.66,1.66,0,0,1,9.422-.428a3.379,3.379,0,0,1-2,.545A3.448,3.448,0,0,1,5.974-.176a2.43,2.43,0,0,1-1-.8A1.8,1.8,0,0,1,4.62-2.033H6.466a.763.763,0,0,0,.293.642,1.205,1.205,0,0,0,.721.2.948.948,0,0,0,.606-.164A.525.525,0,0,0,8.288-1.781Zm2.578-1.447a3.742,3.742,0,0,1,.369-1.69A2.64,2.64,0,0,1,12.3-6.059a3.194,3.194,0,0,1,1.623-.4,2.915,2.915,0,0,1,2.244.882,3.384,3.384,0,0,1,.82,2.4v.07A3.283,3.283,0,0,1,16.16-.753a2.923,2.923,0,0,1-2.229.87,2.956,2.956,0,0,1-2.174-.812,3.174,3.174,0,0,1-.885-2.2Zm1.975.123a2.359,2.359,0,0,0,.275,1.289.917.917,0,0,0,.814.41q1.055,0,1.078-1.623v-.2q0-1.705-1.09-1.705-.99,0-1.072,1.471ZM25.187,0h-1.98V-6.3l-1.945.568v-1.5L25-8.531h.182Z" transform="translate(1010 2196)" fill="#12263f"/>
    <path id="Trazado_148311" data-name="Trazado 148311" d="M-24.536-2.895V0h-2.057V-8.531h3.4a3.965,3.965,0,0,1,1.731.36,2.716,2.716,0,0,1,1.166,1.025,2.8,2.8,0,0,1,.413,1.509,2.469,2.469,0,0,1-.894,2,3.708,3.708,0,0,1-2.452.747Zm0-1.588h1.348a1.271,1.271,0,0,0,.911-.3,1.11,1.11,0,0,0,.313-.844,1.372,1.372,0,0,0-.322-.955,1.141,1.141,0,0,0-.879-.363h-1.371Zm9.5-.07-.65-.047a1.168,1.168,0,0,0-1.2.586V0h-1.975V-6.34h1.852l.064.814a1.529,1.529,0,0,1,1.389-.932,1.926,1.926,0,0,1,.551.07Zm.252,1.324a3.742,3.742,0,0,1,.369-1.69,2.64,2.64,0,0,1,1.061-1.14,3.194,3.194,0,0,1,1.623-.4,2.915,2.915,0,0,1,2.244.882,3.384,3.384,0,0,1,.82,2.4v.07A3.283,3.283,0,0,1-9.492-.753a2.923,2.923,0,0,1-2.229.87A2.956,2.956,0,0,1-13.9-.694a3.174,3.174,0,0,1-.885-2.2Zm1.975.123a2.359,2.359,0,0,0,.275,1.289.917.917,0,0,0,.814.41q1.055,0,1.078-1.623v-.2q0-1.705-1.09-1.705-.99,0-1.072,1.471Zm7.693,1.7a.878.878,0,0,0,.645-.226.827.827,0,0,0,.223-.63H-2.4A2.192,2.192,0,0,1-3.146-.551,2.779,2.779,0,0,1-5.071.117,2.814,2.814,0,0,1-7.251-.75a3.417,3.417,0,0,1-.8-2.4v-.082a3.862,3.862,0,0,1,.354-1.7A2.581,2.581,0,0,1-6.671-6.062a3.049,3.049,0,0,1,1.582-.4,2.744,2.744,0,0,1,1.963.686A2.432,2.432,0,0,1-2.4-3.914H-4.251a1.084,1.084,0,0,0-.24-.756.829.829,0,0,0-.645-.264q-.768,0-.9.979a6.9,6.9,0,0,0-.041.855,2.712,2.712,0,0,0,.229,1.324A.791.791,0,0,0-5.118-1.406ZM1.5.117A3.259,3.259,0,0,1-.858-.753a3,3,0,0,1-.9-2.265v-.164A3.893,3.893,0,0,1-1.4-4.9,2.637,2.637,0,0,1-.349-6.05a3.175,3.175,0,0,1,1.641-.407A2.744,2.744,0,0,1,3.4-5.628a3.258,3.258,0,0,1,.773,2.312v.768H.249a1.423,1.423,0,0,0,.463.838,1.377,1.377,0,0,0,.926.3A1.775,1.775,0,0,0,3.1-2.062L4-1a2.522,2.522,0,0,1-1.046.812A3.534,3.534,0,0,1,1.5.117ZM1.28-4.934q-.867,0-1.031,1.148H2.241v-.152A.978.978,0,0,0,2-4.673.956.956,0,0,0,1.28-4.934ZM8.288-1.781a.456.456,0,0,0-.264-.4,4.011,4.011,0,0,0-1-.316A4.569,4.569,0,0,1,5.8-2.933a2.041,2.041,0,0,1-.732-.647,1.546,1.546,0,0,1-.252-.873A1.752,1.752,0,0,1,5.54-5.892a2.969,2.969,0,0,1,1.887-.565,3.289,3.289,0,0,1,2.016.568A1.777,1.777,0,0,1,10.2-4.395H8.224q0-.762-.8-.762a.8.8,0,0,0-.521.173.535.535,0,0,0-.211.431.491.491,0,0,0,.258.428,2.436,2.436,0,0,0,.823.27,7.114,7.114,0,0,1,.993.252,1.8,1.8,0,0,1,1.43,1.764A1.66,1.66,0,0,1,9.422-.428a3.379,3.379,0,0,1-2,.545A3.448,3.448,0,0,1,5.974-.176a2.43,2.43,0,0,1-1-.8A1.8,1.8,0,0,1,4.62-2.033H6.466a.763.763,0,0,0,.293.642,1.205,1.205,0,0,0,.721.2.948.948,0,0,0,.606-.164A.525.525,0,0,0,8.288-1.781Zm2.578-1.447a3.742,3.742,0,0,1,.369-1.69A2.64,2.64,0,0,1,12.3-6.059a3.194,3.194,0,0,1,1.623-.4,2.915,2.915,0,0,1,2.244.882,3.384,3.384,0,0,1,.82,2.4v.07A3.283,3.283,0,0,1,16.16-.753a2.923,2.923,0,0,1-2.229.87,2.956,2.956,0,0,1-2.174-.812,3.174,3.174,0,0,1-.885-2.2Zm1.975.123a2.359,2.359,0,0,0,.275,1.289.917.917,0,0,0,.814.41q1.055,0,1.078-1.623v-.2q0-1.705-1.09-1.705-.99,0-1.072,1.471ZM26.763,0H20.81V-1.289l2.742-2.883a3.273,3.273,0,0,0,1.014-1.834,1.276,1.276,0,0,0-.24-.838.858.858,0,0,0-.7-.287.868.868,0,0,0-.732.384,1.577,1.577,0,0,0-.281.958h-1.98a2.8,2.8,0,0,1,.393-1.45,2.753,2.753,0,0,1,1.09-1.04,3.237,3.237,0,0,1,1.559-.375,3.185,3.185,0,0,1,2.13.639,2.28,2.28,0,0,1,.747,1.834,2.663,2.663,0,0,1-.187.981,4.3,4.3,0,0,1-.583,1,14.686,14.686,0,0,1-1.274,1.4l-1.1,1.271h3.357Z" transform="translate(1010 2233)" fill="#12263f"/>
    <path id="Trazado_148312" data-name="Trazado 148312" d="M-24.536-2.895V0h-2.057V-8.531h3.4a3.965,3.965,0,0,1,1.731.36,2.716,2.716,0,0,1,1.166,1.025,2.8,2.8,0,0,1,.413,1.509,2.469,2.469,0,0,1-.894,2,3.708,3.708,0,0,1-2.452.747Zm0-1.588h1.348a1.271,1.271,0,0,0,.911-.3,1.11,1.11,0,0,0,.313-.844,1.372,1.372,0,0,0-.322-.955,1.141,1.141,0,0,0-.879-.363h-1.371Zm9.5-.07-.65-.047a1.168,1.168,0,0,0-1.2.586V0h-1.975V-6.34h1.852l.064.814a1.529,1.529,0,0,1,1.389-.932,1.926,1.926,0,0,1,.551.07Zm.252,1.324a3.742,3.742,0,0,1,.369-1.69,2.64,2.64,0,0,1,1.061-1.14,3.194,3.194,0,0,1,1.623-.4,2.915,2.915,0,0,1,2.244.882,3.384,3.384,0,0,1,.82,2.4v.07A3.283,3.283,0,0,1-9.492-.753a2.923,2.923,0,0,1-2.229.87A2.956,2.956,0,0,1-13.9-.694a3.174,3.174,0,0,1-.885-2.2Zm1.975.123a2.359,2.359,0,0,0,.275,1.289.917.917,0,0,0,.814.41q1.055,0,1.078-1.623v-.2q0-1.705-1.09-1.705-.99,0-1.072,1.471Zm7.693,1.7a.878.878,0,0,0,.645-.226.827.827,0,0,0,.223-.63H-2.4A2.192,2.192,0,0,1-3.146-.551,2.779,2.779,0,0,1-5.071.117,2.814,2.814,0,0,1-7.251-.75a3.417,3.417,0,0,1-.8-2.4v-.082a3.862,3.862,0,0,1,.354-1.7A2.581,2.581,0,0,1-6.671-6.062a3.049,3.049,0,0,1,1.582-.4,2.744,2.744,0,0,1,1.963.686A2.432,2.432,0,0,1-2.4-3.914H-4.251a1.084,1.084,0,0,0-.24-.756.829.829,0,0,0-.645-.264q-.768,0-.9.979a6.9,6.9,0,0,0-.041.855,2.712,2.712,0,0,0,.229,1.324A.791.791,0,0,0-5.118-1.406ZM1.5.117A3.259,3.259,0,0,1-.858-.753a3,3,0,0,1-.9-2.265v-.164A3.893,3.893,0,0,1-1.4-4.9,2.637,2.637,0,0,1-.349-6.05a3.175,3.175,0,0,1,1.641-.407A2.744,2.744,0,0,1,3.4-5.628a3.258,3.258,0,0,1,.773,2.312v.768H.249a1.423,1.423,0,0,0,.463.838,1.377,1.377,0,0,0,.926.3A1.775,1.775,0,0,0,3.1-2.062L4-1a2.522,2.522,0,0,1-1.046.812A3.534,3.534,0,0,1,1.5.117ZM1.28-4.934q-.867,0-1.031,1.148H2.241v-.152A.978.978,0,0,0,2-4.673.956.956,0,0,0,1.28-4.934ZM8.288-1.781a.456.456,0,0,0-.264-.4,4.011,4.011,0,0,0-1-.316A4.569,4.569,0,0,1,5.8-2.933a2.041,2.041,0,0,1-.732-.647,1.546,1.546,0,0,1-.252-.873A1.752,1.752,0,0,1,5.54-5.892a2.969,2.969,0,0,1,1.887-.565,3.289,3.289,0,0,1,2.016.568A1.777,1.777,0,0,1,10.2-4.395H8.224q0-.762-.8-.762a.8.8,0,0,0-.521.173.535.535,0,0,0-.211.431.491.491,0,0,0,.258.428,2.436,2.436,0,0,0,.823.27,7.114,7.114,0,0,1,.993.252,1.8,1.8,0,0,1,1.43,1.764A1.66,1.66,0,0,1,9.422-.428a3.379,3.379,0,0,1-2,.545A3.448,3.448,0,0,1,5.974-.176a2.43,2.43,0,0,1-1-.8A1.8,1.8,0,0,1,4.62-2.033H6.466a.763.763,0,0,0,.293.642,1.205,1.205,0,0,0,.721.2.948.948,0,0,0,.606-.164A.525.525,0,0,0,8.288-1.781Zm2.578-1.447a3.742,3.742,0,0,1,.369-1.69A2.64,2.64,0,0,1,12.3-6.059a3.194,3.194,0,0,1,1.623-.4,2.915,2.915,0,0,1,2.244.882,3.384,3.384,0,0,1,.82,2.4v.07A3.283,3.283,0,0,1,16.16-.753a2.923,2.923,0,0,1-2.229.87,2.956,2.956,0,0,1-2.174-.812,3.174,3.174,0,0,1-.885-2.2Zm1.975.123a2.359,2.359,0,0,0,.275,1.289.917.917,0,0,0,.814.41q1.055,0,1.078-1.623v-.2q0-1.705-1.09-1.705-.99,0-1.072,1.471Zm9.773-1.986h.932a.969.969,0,0,0,1.107-1.084.937.937,0,0,0-.264-.688,1,1,0,0,0-.744-.267,1.07,1.07,0,0,0-.683.229.7.7,0,0,0-.29.568H20.7a2.021,2.021,0,0,1,.375-1.2,2.476,2.476,0,0,1,1.04-.823,3.556,3.556,0,0,1,1.462-.3A3.494,3.494,0,0,1,25.813-8a2.162,2.162,0,0,1,.814,1.787,1.8,1.8,0,0,1-.337,1.04,2.4,2.4,0,0,1-.981.794,2.294,2.294,0,0,1,1.066.747A1.967,1.967,0,0,1,26.763-2.4a2.2,2.2,0,0,1-.879,1.828,3.648,3.648,0,0,1-2.309.686A3.783,3.783,0,0,1,22.02-.2a2.437,2.437,0,0,1-1.087-.885,2.3,2.3,0,0,1-.369-1.286H22.55a.889.889,0,0,0,.316.68,1.117,1.117,0,0,0,.779.287,1.17,1.17,0,0,0,.832-.29.969.969,0,0,0,.311-.741,1.133,1.133,0,0,0-.322-.914,1.347,1.347,0,0,0-.891-.27h-.961Z" transform="translate(1010 2270)" fill="#12263f"/>
    <path id="Trazado_148313" data-name="Trazado 148313" d="M-24.445-2.895V0H-26.5V-8.531h3.4a3.965,3.965,0,0,1,1.731.36A2.716,2.716,0,0,1-20.2-7.146a2.8,2.8,0,0,1,.413,1.509,2.469,2.469,0,0,1-.894,2,3.708,3.708,0,0,1-2.452.747Zm0-1.588H-23.1a1.271,1.271,0,0,0,.911-.3,1.11,1.11,0,0,0,.313-.844A1.372,1.372,0,0,0-22.2-6.58a1.141,1.141,0,0,0-.879-.363h-1.371Zm9.5-.07L-15.6-4.6a1.168,1.168,0,0,0-1.2.586V0h-1.975V-6.34h1.852l.064.814a1.529,1.529,0,0,1,1.389-.932,1.926,1.926,0,0,1,.551.07Zm.252,1.324a3.742,3.742,0,0,1,.369-1.69,2.64,2.64,0,0,1,1.061-1.14,3.194,3.194,0,0,1,1.623-.4A2.915,2.915,0,0,1-9.4-5.575a3.384,3.384,0,0,1,.82,2.4v.07A3.283,3.283,0,0,1-9.4-.753a2.923,2.923,0,0,1-2.229.87A2.956,2.956,0,0,1-13.8-.694a3.174,3.174,0,0,1-.885-2.2Zm1.975.123a2.359,2.359,0,0,0,.275,1.289.917.917,0,0,0,.814.41q1.055,0,1.078-1.623v-.2q0-1.705-1.09-1.705-.99,0-1.072,1.471Zm7.693,1.7a.878.878,0,0,0,.645-.226.827.827,0,0,0,.223-.63h1.852A2.192,2.192,0,0,1-3.056-.551,2.779,2.779,0,0,1-4.98.117,2.814,2.814,0,0,1-7.16-.75a3.417,3.417,0,0,1-.8-2.4v-.082a3.862,3.862,0,0,1,.354-1.7A2.581,2.581,0,0,1-6.58-6.062,3.049,3.049,0,0,1-5-6.457a2.744,2.744,0,0,1,1.963.686,2.432,2.432,0,0,1,.727,1.857H-4.16A1.084,1.084,0,0,0-4.4-4.67a.829.829,0,0,0-.645-.264q-.768,0-.9.979a6.9,6.9,0,0,0-.041.855,2.712,2.712,0,0,0,.229,1.324A.791.791,0,0,0-5.027-1.406ZM1.594.117A3.259,3.259,0,0,1-.768-.753a3,3,0,0,1-.9-2.265v-.164A3.893,3.893,0,0,1-1.31-4.9,2.637,2.637,0,0,1-.258-6.05a3.175,3.175,0,0,1,1.641-.407,2.744,2.744,0,0,1,2.109.829,3.258,3.258,0,0,1,.773,2.312v.768H.34A1.423,1.423,0,0,0,.8-1.711a1.377,1.377,0,0,0,.926.3,1.775,1.775,0,0,0,1.465-.656L4.1-1A2.522,2.522,0,0,1,3.05-.185,3.534,3.534,0,0,1,1.594.117ZM1.371-4.934Q.5-4.934.34-3.785H2.332v-.152a.978.978,0,0,0-.24-.735A.956.956,0,0,0,1.371-4.934ZM8.379-1.781a.456.456,0,0,0-.264-.4,4.011,4.011,0,0,0-1-.316,4.569,4.569,0,0,1-1.219-.431,2.041,2.041,0,0,1-.732-.647,1.546,1.546,0,0,1-.252-.873,1.752,1.752,0,0,1,.721-1.438,2.969,2.969,0,0,1,1.887-.565,3.289,3.289,0,0,1,2.016.568,1.777,1.777,0,0,1,.762,1.494H8.314q0-.762-.8-.762a.8.8,0,0,0-.521.173.535.535,0,0,0-.211.431.491.491,0,0,0,.258.428,2.436,2.436,0,0,0,.823.27,7.114,7.114,0,0,1,.993.252,1.8,1.8,0,0,1,1.43,1.764A1.66,1.66,0,0,1,9.513-.428a3.379,3.379,0,0,1-2,.545A3.448,3.448,0,0,1,6.064-.176a2.43,2.43,0,0,1-1-.8,1.8,1.8,0,0,1-.357-1.061H6.557a.763.763,0,0,0,.293.642,1.205,1.205,0,0,0,.721.2.948.948,0,0,0,.606-.164A.525.525,0,0,0,8.379-1.781Zm2.578-1.447a3.742,3.742,0,0,1,.369-1.69,2.64,2.64,0,0,1,1.061-1.14,3.194,3.194,0,0,1,1.623-.4,2.915,2.915,0,0,1,2.244.882,3.384,3.384,0,0,1,.82,2.4v.07a3.283,3.283,0,0,1-.823,2.353,2.923,2.923,0,0,1-2.229.87,2.956,2.956,0,0,1-2.174-.812,3.174,3.174,0,0,1-.885-2.2Zm1.975.123a2.359,2.359,0,0,0,.275,1.289.917.917,0,0,0,.814.41q1.055,0,1.078-1.623v-.2q0-1.705-1.09-1.705-.99,0-1.072,1.471ZM22.746-6.34l.064.744a2.15,2.15,0,0,1,1.811-.861,1.809,1.809,0,0,1,1.479.592,2.817,2.817,0,0,1,.507,1.781V0h-1.98V-4a1.07,1.07,0,0,0-.193-.706.9.9,0,0,0-.7-.226.942.942,0,0,0-.861.457V0H20.895V-6.34Z" transform="translate(1010 2338)" fill="#12263f"/>
    <path id="Trazado_148314" data-name="Trazado 148314" d="M-19.567-2.895V0h-2.057V-8.531h3.4a3.965,3.965,0,0,1,1.731.36,2.716,2.716,0,0,1,1.166,1.025,2.8,2.8,0,0,1,.413,1.509,2.469,2.469,0,0,1-.894,2,3.708,3.708,0,0,1-2.452.747Zm0-1.588h1.348a1.271,1.271,0,0,0,.911-.3A1.11,1.11,0,0,0-17-5.625a1.372,1.372,0,0,0-.322-.955,1.141,1.141,0,0,0-.879-.363h-1.371Zm9.5-.07-.65-.047a1.168,1.168,0,0,0-1.2.586V0H-13.89V-6.34h1.852l.064.814a1.529,1.529,0,0,1,1.389-.932,1.926,1.926,0,0,1,.551.07Zm.252,1.324a3.742,3.742,0,0,1,.369-1.69,2.64,2.64,0,0,1,1.061-1.14,3.194,3.194,0,0,1,1.623-.4,2.915,2.915,0,0,1,2.244.882,3.384,3.384,0,0,1,.82,2.4v.07A3.283,3.283,0,0,1-4.523-.753a2.923,2.923,0,0,1-2.229.87A2.956,2.956,0,0,1-8.927-.694a3.174,3.174,0,0,1-.885-2.2Zm1.975.123a2.359,2.359,0,0,0,.275,1.289.917.917,0,0,0,.814.41q1.055,0,1.078-1.623v-.2q0-1.705-1.09-1.705-.99,0-1.072,1.471Zm7.693,1.7A.878.878,0,0,0,.5-1.632a.827.827,0,0,0,.223-.63H2.569A2.192,2.192,0,0,1,1.822-.551,2.779,2.779,0,0,1-.1.117,2.814,2.814,0,0,1-2.282-.75a3.417,3.417,0,0,1-.8-2.4v-.082a3.862,3.862,0,0,1,.354-1.7A2.581,2.581,0,0,1-1.7-6.062a3.049,3.049,0,0,1,1.582-.4,2.744,2.744,0,0,1,1.963.686,2.432,2.432,0,0,1,.727,1.857H.718a1.084,1.084,0,0,0-.24-.756.829.829,0,0,0-.645-.264q-.768,0-.9.979A6.9,6.9,0,0,0-1.1-3.1,2.712,2.712,0,0,0-.876-1.775.791.791,0,0,0-.149-1.406ZM6.472.117A3.259,3.259,0,0,1,4.11-.753a3,3,0,0,1-.9-2.265v-.164A3.893,3.893,0,0,1,3.568-4.9,2.637,2.637,0,0,1,4.62-6.05a3.175,3.175,0,0,1,1.641-.407,2.744,2.744,0,0,1,2.109.829,3.258,3.258,0,0,1,.773,2.312v.768H5.218a1.423,1.423,0,0,0,.463.838,1.377,1.377,0,0,0,.926.3,1.775,1.775,0,0,0,1.465-.656L8.974-1a2.522,2.522,0,0,1-1.046.812A3.534,3.534,0,0,1,6.472.117ZM6.249-4.934q-.867,0-1.031,1.148H7.21v-.152a.978.978,0,0,0-.24-.735A.956.956,0,0,0,6.249-4.934Zm7.008,3.152a.456.456,0,0,0-.264-.4,4.011,4.011,0,0,0-1-.316,4.569,4.569,0,0,1-1.219-.431,2.041,2.041,0,0,1-.732-.647,1.546,1.546,0,0,1-.252-.873,1.752,1.752,0,0,1,.721-1.438A2.969,2.969,0,0,1,12.4-6.457a3.289,3.289,0,0,1,2.016.568,1.777,1.777,0,0,1,.762,1.494h-1.98q0-.762-.8-.762a.8.8,0,0,0-.521.173.535.535,0,0,0-.211.431.491.491,0,0,0,.258.428,2.436,2.436,0,0,0,.823.27,7.114,7.114,0,0,1,.993.252,1.8,1.8,0,0,1,1.43,1.764,1.66,1.66,0,0,1-.771,1.412,3.379,3.379,0,0,1-2,.545,3.448,3.448,0,0,1-1.453-.293,2.43,2.43,0,0,1-1-.8,1.8,1.8,0,0,1-.357-1.061h1.846a.763.763,0,0,0,.293.642,1.205,1.205,0,0,0,.721.2.948.948,0,0,0,.606-.164A.525.525,0,0,0,13.257-1.781Zm2.578-1.447a3.742,3.742,0,0,1,.369-1.69,2.64,2.64,0,0,1,1.061-1.14,3.194,3.194,0,0,1,1.623-.4,2.915,2.915,0,0,1,2.244.882,3.384,3.384,0,0,1,.82,2.4v.07a3.283,3.283,0,0,1-.823,2.353A2.923,2.923,0,0,1,18.9.117a2.956,2.956,0,0,1-2.174-.812,3.174,3.174,0,0,1-.885-2.2Zm1.975.123a2.359,2.359,0,0,0,.275,1.289.917.917,0,0,0,.814.41q1.055,0,1.078-1.623v-.2q0-1.705-1.09-1.705-.99,0-1.072,1.471Z" transform="translate(1077 2136)" fill="#12263f"/>
    <path id="Trazado_148315" data-name="Trazado 148315" d="M-19.567-2.895V0h-2.057V-8.531h3.4a3.965,3.965,0,0,1,1.731.36,2.716,2.716,0,0,1,1.166,1.025,2.8,2.8,0,0,1,.413,1.509,2.469,2.469,0,0,1-.894,2,3.708,3.708,0,0,1-2.452.747Zm0-1.588h1.348a1.271,1.271,0,0,0,.911-.3A1.11,1.11,0,0,0-17-5.625a1.372,1.372,0,0,0-.322-.955,1.141,1.141,0,0,0-.879-.363h-1.371Zm9.5-.07-.65-.047a1.168,1.168,0,0,0-1.2.586V0H-13.89V-6.34h1.852l.064.814a1.529,1.529,0,0,1,1.389-.932,1.926,1.926,0,0,1,.551.07Zm.252,1.324a3.742,3.742,0,0,1,.369-1.69,2.64,2.64,0,0,1,1.061-1.14,3.194,3.194,0,0,1,1.623-.4,2.915,2.915,0,0,1,2.244.882,3.384,3.384,0,0,1,.82,2.4v.07A3.283,3.283,0,0,1-4.523-.753a2.923,2.923,0,0,1-2.229.87A2.956,2.956,0,0,1-8.927-.694a3.174,3.174,0,0,1-.885-2.2Zm1.975.123a2.359,2.359,0,0,0,.275,1.289.917.917,0,0,0,.814.41q1.055,0,1.078-1.623v-.2q0-1.705-1.09-1.705-.99,0-1.072,1.471Zm7.693,1.7A.878.878,0,0,0,.5-1.632a.827.827,0,0,0,.223-.63H2.569A2.192,2.192,0,0,1,1.822-.551,2.779,2.779,0,0,1-.1.117,2.814,2.814,0,0,1-2.282-.75a3.417,3.417,0,0,1-.8-2.4v-.082a3.862,3.862,0,0,1,.354-1.7A2.581,2.581,0,0,1-1.7-6.062a3.049,3.049,0,0,1,1.582-.4,2.744,2.744,0,0,1,1.963.686,2.432,2.432,0,0,1,.727,1.857H.718a1.084,1.084,0,0,0-.24-.756.829.829,0,0,0-.645-.264q-.768,0-.9.979A6.9,6.9,0,0,0-1.1-3.1,2.712,2.712,0,0,0-.876-1.775.791.791,0,0,0-.149-1.406ZM6.472.117A3.259,3.259,0,0,1,4.11-.753a3,3,0,0,1-.9-2.265v-.164A3.893,3.893,0,0,1,3.568-4.9,2.637,2.637,0,0,1,4.62-6.05a3.175,3.175,0,0,1,1.641-.407,2.744,2.744,0,0,1,2.109.829,3.258,3.258,0,0,1,.773,2.312v.768H5.218a1.423,1.423,0,0,0,.463.838,1.377,1.377,0,0,0,.926.3,1.775,1.775,0,0,0,1.465-.656L8.974-1a2.522,2.522,0,0,1-1.046.812A3.534,3.534,0,0,1,6.472.117ZM6.249-4.934q-.867,0-1.031,1.148H7.21v-.152a.978.978,0,0,0-.24-.735A.956.956,0,0,0,6.249-4.934Zm7.008,3.152a.456.456,0,0,0-.264-.4,4.011,4.011,0,0,0-1-.316,4.569,4.569,0,0,1-1.219-.431,2.041,2.041,0,0,1-.732-.647,1.546,1.546,0,0,1-.252-.873,1.752,1.752,0,0,1,.721-1.438A2.969,2.969,0,0,1,12.4-6.457a3.289,3.289,0,0,1,2.016.568,1.777,1.777,0,0,1,.762,1.494h-1.98q0-.762-.8-.762a.8.8,0,0,0-.521.173.535.535,0,0,0-.211.431.491.491,0,0,0,.258.428,2.436,2.436,0,0,0,.823.27,7.114,7.114,0,0,1,.993.252,1.8,1.8,0,0,1,1.43,1.764,1.66,1.66,0,0,1-.771,1.412,3.379,3.379,0,0,1-2,.545,3.448,3.448,0,0,1-1.453-.293,2.43,2.43,0,0,1-1-.8,1.8,1.8,0,0,1-.357-1.061h1.846a.763.763,0,0,0,.293.642,1.205,1.205,0,0,0,.721.2.948.948,0,0,0,.606-.164A.525.525,0,0,0,13.257-1.781Zm2.578-1.447a3.742,3.742,0,0,1,.369-1.69,2.64,2.64,0,0,1,1.061-1.14,3.194,3.194,0,0,1,1.623-.4,2.915,2.915,0,0,1,2.244.882,3.384,3.384,0,0,1,.82,2.4v.07a3.283,3.283,0,0,1-.823,2.353A2.923,2.923,0,0,1,18.9.117a2.956,2.956,0,0,1-2.174-.812,3.174,3.174,0,0,1-.885-2.2Zm1.975.123a2.359,2.359,0,0,0,.275,1.289.917.917,0,0,0,.814.41q1.055,0,1.078-1.623v-.2q0-1.705-1.09-1.705-.99,0-1.072,1.471Z" transform="translate(1077 2402)" fill="#12263f"/>
    <path id="Trazado_148316" data-name="Trazado 148316" d="M0,0H9.68" transform="translate(1009.762 2203.5) rotate(90)" fill="none" stroke="#12263f" stroke-width="4"/>
    <path id="Trazado_148317" data-name="Trazado 148317" d="M4.763,0,9.525,4.6H0Z" transform="translate(1014.525 2216.168) rotate(180)" fill="#12263f"/>
    <path id="Trazado_148318" data-name="Trazado 148318" d="M0,0H9.68" transform="translate(1009.762 2240.5) rotate(90)" fill="none" stroke="#12263f" stroke-width="4"/>
    <path id="Trazado_148319" data-name="Trazado 148319" d="M4.763,0,9.525,4.6H0Z" transform="translate(1014.525 2253.168) rotate(180)" fill="#12263f"/>
    <path id="Trazado_148320" data-name="Trazado 148320" d="M0,0H9.68" transform="translate(1009.762 2277.5) rotate(90)" fill="none" stroke="#12263f" stroke-width="4"/>
    <path id="Trazado_148321" data-name="Trazado 148321" d="M4.763,0,9.525,4.6H0Z" transform="translate(1014.525 2290.168) rotate(180)" fill="#12263f"/>
    <path id="Trazado_148322" data-name="Trazado 148322" d="M0,0H9.68" transform="translate(1009.762 2308.5) rotate(90)" fill="none" stroke="#12263f" stroke-width="4"/>
    <path id="Trazado_148323" data-name="Trazado 148323" d="M4.763,0,9.525,4.6H0Z" transform="translate(1014.525 2321.168) rotate(180)" fill="#12263f"/>
  </g>
</svg>
