<svg xmlns="http://www.w3.org/2000/svg" width="652" height="384.675" viewBox="0 0 652 384.675">
  <g id="Grupo_76145" data-name="Grupo 76145" transform="translate(-683 -933)">
    <path id="Trazado_148255" data-name="Trazado 148255" d="M0,0H226.674V226.675H0Z" transform="translate(1108.326 933)" fill="#f2eefc"/>
    <path id="Trazado_148256" data-name="Trazado 148256" d="M0,0H226.674V226.675H0Z" transform="translate(683 1091)" fill="#f2eefc"/>
    <path id="Trazado_148257" data-name="Trazado 148257" d="M0,0H610V340H0Z" transform="translate(704 957)" fill="#fff"/>
    <g id="Grupo_76140" data-name="Grupo 76140" transform="translate(1925 10947)">
      <g id="Grupo_76137" data-name="Grupo 76137" transform="translate(798.859 -10447.65) rotate(90)">
        <line id="Línea_159" data-name="Línea 159" x2="9.68" transform="translate(535.15 1885.097)" fill="none" stroke="#12263f" stroke-width="4"/>
        <path id="Polígono_39" data-name="Polígono 39" d="M4.763,0,9.525,4.6H0Z" transform="translate(547.818 1880.334) rotate(90)" fill="#12263f"/>
      </g>
      <g id="Grupo_76139" data-name="Grupo 76139" transform="translate(1149.097 -10447.65) rotate(90)">
        <line id="Línea_159-2" data-name="Línea 159" x2="9.68" transform="translate(535.15 1885.097)" fill="none" stroke="#12263f" stroke-width="4"/>
        <path id="Polígono_39-2" data-name="Polígono 39" d="M4.763,0,9.525,4.6H0Z" transform="translate(547.818 1880.334) rotate(90)" fill="#12263f"/>
      </g>
      <g id="Grupo_76138" data-name="Grupo 76138" transform="translate(976.859 -10447.65) rotate(90)">
        <line id="Línea_159-3" data-name="Línea 159" x2="9.68" transform="translate(535.15 1885.097)" fill="none" stroke="#12263f" stroke-width="4"/>
        <path id="Polígono_39-3" data-name="Polígono 39" d="M4.763,0,9.525,4.6H0Z" transform="translate(547.818 1880.334) rotate(90)" fill="#12263f"/>
      </g>
    </g>
    <g id="Grupo_76141" data-name="Grupo 76141" transform="translate(834 1207.5)">
      <g id="Grupo_76137-2" data-name="Grupo 76137" transform="translate(0 12.668) rotate(-90)">
        <line id="Línea_159-4" data-name="Línea 159" x2="9.68" transform="translate(0 4.763)" fill="none" stroke="#12263f" stroke-width="4"/>
        <path id="Polígono_39-4" data-name="Polígono 39" d="M4.763,0,9.525,4.6H0Z" transform="translate(12.668) rotate(90)" fill="#12263f"/>
      </g>
      <g id="Grupo_76139-2" data-name="Grupo 76139" transform="translate(350.238 12.668) rotate(-90)">
        <line id="Línea_159-5" data-name="Línea 159" x2="9.68" transform="translate(0 4.763)" fill="none" stroke="#12263f" stroke-width="4"/>
        <path id="Polígono_39-5" data-name="Polígono 39" d="M4.763,0,9.525,4.6H0Z" transform="translate(12.668) rotate(90)" fill="#12263f"/>
      </g>
      <g id="Grupo_76138-2" data-name="Grupo 76138" transform="translate(178 12.668) rotate(-90)">
        <line id="Línea_159-6" data-name="Línea 159" x2="9.68" transform="translate(0 4.763)" fill="none" stroke="#12263f" stroke-width="4"/>
        <path id="Polígono_39-6" data-name="Polígono 39" d="M4.763,0,9.525,4.6H0Z" transform="translate(12.668) rotate(90)" fill="#12263f"/>
      </g>
    </g>
    <g id="Grupo_76144" data-name="Grupo 76144" transform="translate(1929.3 10947)">
      <path id="Trazado_148236" data-name="Trazado 148236" d="M0,119.743V24.811L59.091,0l55.128,24.811v94.933L59.091,92.177Z" transform="translate(-661.123 -9859.219) rotate(90)" fill="#afafaf" stroke="#707070" stroke-width="2"/>
      <path id="Trazado_148243" data-name="Trazado 148243" d="M0,128.754V26.678L59.091,0l55.128,26.678V128.754L59.091,99.113Z" transform="translate(-848.7 -9859.219) rotate(90)" fill="#afafaf" stroke="#707070" stroke-width="2"/>
      <path id="Trazado_148241" data-name="Trazado 148241" d="M0,129.175V26.765L59.091,0l55.128,26.765v102.41L59.091,99.438Z" transform="translate(-752.7 -9859.219) rotate(90)" fill="#afafaf" stroke="#707070" stroke-width="2"/>
      <path id="Trazado_148242" data-name="Trazado 148242" d="M0,132V27.35L59.091,0l55.128,27.35V132L59.091,101.612Z" transform="translate(-948.7 -9859.219) rotate(90)" fill="#afafaf" stroke="#707070" stroke-width="2"/>
      <path id="Trazado_148244" data-name="Trazado 148244" d="M0,127.3V26.376L59.091,0l55.128,26.376V127.3L59.091,97.994Z" transform="translate(-1050 -9859.219) rotate(90)" fill="#afafaf" stroke="#707070" stroke-width="2"/>
    </g>
    <g id="Trazado_148258" data-name="Trazado 148258" transform="translate(712 968)" fill="#636363">
      <path d="M 32.5 318.5 L 0.5 318.5 L 0.5 0.5 L 32.5 0.5 L 32.5 318.5 Z" stroke="none"/>
      <path d="M 1 1 L 1 318 L 32 318 L 32 1 L 1 1 M 0 0 L 33 0 L 33 319 L 0 319 L 0 0 Z" stroke="none" fill="#707070"/>
    </g>
    <g id="Trazado_148259" data-name="Trazado 148259" transform="translate(1273 968)" fill="#afafaf">
      <path d="M 33.5 318.5 L 0.5 318.5 L 0.5 0.5 L 33.5 0.5 L 33.5 318.5 Z" stroke="none"/>
      <path d="M 1 1 L 1 318 L 33 318 L 33 1 L 1 1 M 0 0 L 34 0 L 34 319 L 0 319 L 0 0 Z" stroke="none" fill="#707070"/>
    </g>
    <g id="Trazado_148260" data-name="Trazado 148260" transform="translate(752 968)" fill="#e8e8e8">
      <path d="M 515 61 L 1 61 L 1 1 L 515 1 L 515 61 Z" stroke="none"/>
      <path d="M 2 2 L 2 60 L 514 60 L 514 2 L 2 2 M 0 0 L 516 0 L 516 62 L 0 62 L 0 0 Z" stroke="none" fill="#707070"/>
    </g>
    <g id="Trazado_148261" data-name="Trazado 148261" transform="translate(752 1225)" fill="#e8e8e8">
      <path d="M 515 61 L 1 61 L 1 1 L 515 1 L 515 61 Z" stroke="none"/>
      <path d="M 2 2 L 2 60 L 514 60 L 514 2 L 2 2 M 0 0 L 516 0 L 516 62 L 0 62 L 0 0 Z" stroke="none" fill="#707070"/>
    </g>
    <g id="Grupo_76142" data-name="Grupo 76142" transform="translate(1911.65 10953)">
      <path id="Trazado_148251" data-name="Trazado 148251" d="M-1147-9688v-22.7h58.7v22.7l-30.1,6Z" transform="translate(33.35 -247.001)" fill="#e8e8e8" stroke="#707070" stroke-width="2"/>
      <path id="Trazado_148254" data-name="Trazado 148254" d="M-1147-9688v-22.7h58.7v22.7l-30.1,6Z" transform="translate(277.45 -247.001)" fill="#e8e8e8" stroke="#707070" stroke-width="2"/>
      <path id="Trazado_148252" data-name="Trazado 148252" d="M-1147-9688v-22.7h58.7v22.7l-30.1,6Z" transform="translate(155.4 -247.001)" fill="#e8e8e8" stroke="#707070" stroke-width="2"/>
      <path id="Trazado_148253" data-name="Trazado 148253" d="M-1147-9688v-22.7h58.7v22.7l-30.1,6Z" transform="translate(399.5 -247.001)" fill="#e8e8e8" stroke="#707070" stroke-width="2"/>
    </g>
    <g id="Grupo_76143" data-name="Grupo 76143" transform="translate(1928 10944)">
      <path id="Trazado_148245" data-name="Trazado 148245" d="M-1147-9704.7v22.7h58.7v-22.7l-30.1-6Z" fill="#e8e8e8" stroke="#707070" stroke-width="2"/>
      <path id="Trazado_148248" data-name="Trazado 148248" d="M-1147-9704.7v22.7h58.7v-22.7l-30.1-6Z" transform="translate(160)" fill="#e8e8e8" stroke="#707070" stroke-width="2"/>
      <path id="Trazado_148250" data-name="Trazado 148250" d="M-1147-9704.7v22.7h58.7v-22.7l-30.1-6Z" transform="translate(320)" fill="#e8e8e8" stroke="#707070" stroke-width="2"/>
      <path id="Trazado_148246" data-name="Trazado 148246" d="M-1147-9704.7v22.7h58.7v-22.7l-30.1-6Z" transform="translate(80)" fill="#e8e8e8" stroke="#707070" stroke-width="2"/>
      <path id="Trazado_148247" data-name="Trazado 148247" d="M-1147-9704.7v22.7h58.7v-22.7l-30.1-6Z" transform="translate(240)" fill="#e8e8e8" stroke="#707070" stroke-width="2"/>
      <path id="Trazado_148249" data-name="Trazado 148249" d="M-1147-9704.7v22.7h58.7v-22.7l-30.1-6Z" transform="translate(400)" fill="#e8e8e8" stroke="#707070" stroke-width="2"/>
    </g>
    <path id="Trazado_148262" data-name="Trazado 148262" d="M-67.539-3.377V0h-2.4V-9.953h3.972a4.626,4.626,0,0,1,2.02.42,3.168,3.168,0,0,1,1.36,1.2,3.267,3.267,0,0,1,.482,1.76,2.88,2.88,0,0,1-1.042,2.328,4.326,4.326,0,0,1-2.861.872Zm0-1.853h1.572A1.483,1.483,0,0,0-64.9-5.578a1.3,1.3,0,0,0,.366-.984,1.6,1.6,0,0,0-.376-1.114A1.331,1.331,0,0,0-65.939-8.1h-1.6Zm11.081-.082-.759-.055a1.363,1.363,0,0,0-1.395.684V0h-2.3V-7.4h2.16l.075.95a1.784,1.784,0,0,1,1.62-1.087,2.247,2.247,0,0,1,.643.082Zm.294,1.545a4.366,4.366,0,0,1,.431-1.972A3.08,3.08,0,0,1-54.5-7.068,3.726,3.726,0,0,1-52.6-7.533,3.4,3.4,0,0,1-49.984-6.5a3.948,3.948,0,0,1,.957,2.8v.082a3.83,3.83,0,0,1-.96,2.745,3.41,3.41,0,0,1-2.6,1.015A3.449,3.449,0,0,1-55.125-.81a3.7,3.7,0,0,1-1.032-2.567Zm2.3.144a2.752,2.752,0,0,0,.321,1.5,1.07,1.07,0,0,0,.95.479q1.23,0,1.258-1.894v-.232q0-1.989-1.271-1.989-1.155,0-1.251,1.716Zm8.976,1.982a1.025,1.025,0,0,0,.752-.263.965.965,0,0,0,.26-.735h2.16a2.557,2.557,0,0,1-.872,2A3.242,3.242,0,0,1-44.83.137,3.282,3.282,0,0,1-47.373-.875a3.986,3.986,0,0,1-.93-2.8v-.1a4.505,4.505,0,0,1,.414-1.979A3.011,3.011,0,0,1-46.7-7.072a3.557,3.557,0,0,1,1.846-.461,3.2,3.2,0,0,1,2.29.8,2.837,2.837,0,0,1,.848,2.167h-2.16a1.265,1.265,0,0,0-.28-.882.967.967,0,0,0-.752-.308q-.9,0-1.046,1.142a8.055,8.055,0,0,0-.048,1,3.164,3.164,0,0,0,.267,1.545A.923.923,0,0,0-44.885-1.641ZM-37.16.137A3.8,3.8,0,0,1-39.915-.878a3.506,3.506,0,0,1-1.053-2.642v-.191a4.542,4.542,0,0,1,.42-2A3.076,3.076,0,0,1-39.32-7.058a3.7,3.7,0,0,1,1.914-.475,3.2,3.2,0,0,1,2.461.967,3.8,3.8,0,0,1,.9,2.7v.9h-4.58a1.66,1.66,0,0,0,.54.978A1.607,1.607,0,0,0-37-1.641a2.07,2.07,0,0,0,1.709-.766l1.053,1.244a2.943,2.943,0,0,1-1.22.947A4.123,4.123,0,0,1-37.16.137Zm-.26-5.893q-1.012,0-1.2,1.34H-36.3v-.178a1.141,1.141,0,0,0-.28-.858A1.115,1.115,0,0,0-37.42-5.756Zm8.176,3.678a.532.532,0,0,0-.308-.472,4.679,4.679,0,0,0-1.169-.369,5.33,5.33,0,0,1-1.422-.5A2.382,2.382,0,0,1-33-4.177,1.8,1.8,0,0,1-33.291-5.2a2.044,2.044,0,0,1,.841-1.678,3.464,3.464,0,0,1,2.2-.66A3.837,3.837,0,0,1-27.9-6.87a2.074,2.074,0,0,1,.889,1.743h-2.311q0-.889-.937-.889a.928.928,0,0,0-.608.2.624.624,0,0,0-.246.5.573.573,0,0,0,.3.5,2.842,2.842,0,0,0,.96.314A8.3,8.3,0,0,1-28.69-4.2a2.105,2.105,0,0,1,1.668,2.058,1.937,1.937,0,0,1-.9,1.647,3.942,3.942,0,0,1-2.328.636,4.023,4.023,0,0,1-1.7-.342,2.835,2.835,0,0,1-1.162-.93,2.105,2.105,0,0,1-.417-1.237h2.153a.89.89,0,0,0,.342.749,1.406,1.406,0,0,0,.841.236,1.106,1.106,0,0,0,.708-.191A.612.612,0,0,0-29.244-2.078Zm3.008-1.688a4.366,4.366,0,0,1,.431-1.972,3.08,3.08,0,0,1,1.237-1.33,3.726,3.726,0,0,1,1.894-.465A3.4,3.4,0,0,1-20.057-6.5a3.948,3.948,0,0,1,.957,2.8v.082a3.83,3.83,0,0,1-.96,2.745,3.41,3.41,0,0,1-2.6,1.015A3.449,3.449,0,0,1-25.2-.81a3.7,3.7,0,0,1-1.032-2.567Zm2.3.144a2.752,2.752,0,0,0,.321,1.5,1.07,1.07,0,0,0,.95.479q1.23,0,1.258-1.894v-.232q0-1.989-1.271-1.989-1.155,0-1.251,1.716Zm9.721,1.545a.532.532,0,0,0-.308-.472,4.679,4.679,0,0,0-1.169-.369,5.33,5.33,0,0,1-1.422-.5,2.382,2.382,0,0,1-.854-.755A1.8,1.8,0,0,1-18.259-5.2a2.044,2.044,0,0,1,.841-1.678,3.464,3.464,0,0,1,2.2-.66,3.837,3.837,0,0,1,2.352.663,2.074,2.074,0,0,1,.889,1.743h-2.311q0-.889-.937-.889a.928.928,0,0,0-.608.2.624.624,0,0,0-.246.5.573.573,0,0,0,.3.5,2.842,2.842,0,0,0,.96.314,8.3,8.3,0,0,1,1.159.294A2.105,2.105,0,0,1-11.99-2.146a1.937,1.937,0,0,1-.9,1.647,3.942,3.942,0,0,1-2.328.636,4.023,4.023,0,0,1-1.7-.342,2.835,2.835,0,0,1-1.162-.93,2.105,2.105,0,0,1-.417-1.237h2.153A.89.89,0,0,0-16-1.624a1.406,1.406,0,0,0,.841.236,1.106,1.106,0,0,0,.708-.191A.612.612,0,0,0-14.212-2.078ZM-3.849.137A3.8,3.8,0,0,1-6.6-.878,3.506,3.506,0,0,1-7.656-3.521v-.191a4.542,4.542,0,0,1,.42-2A3.076,3.076,0,0,1-6.009-7.058a3.7,3.7,0,0,1,1.914-.475,3.2,3.2,0,0,1,2.461.967,3.8,3.8,0,0,1,.9,2.7v.9h-4.58A1.66,1.66,0,0,0-4.771-2a1.607,1.607,0,0,0,1.08.355,2.07,2.07,0,0,0,1.709-.766L-.93-1.162a2.943,2.943,0,0,1-1.22.947A4.123,4.123,0,0,1-3.849.137Zm-.26-5.893q-1.012,0-1.2,1.34h2.324v-.178a1.141,1.141,0,0,0-.28-.858A1.115,1.115,0,0,0-4.108-5.756ZM4.067-2.078A.532.532,0,0,0,3.76-2.55a4.679,4.679,0,0,0-1.169-.369,5.33,5.33,0,0,1-1.422-.5,2.382,2.382,0,0,1-.854-.755A1.8,1.8,0,0,1,.021-5.2,2.044,2.044,0,0,1,.861-6.874a3.464,3.464,0,0,1,2.2-.66,3.837,3.837,0,0,1,2.352.663A2.074,2.074,0,0,1,6.3-5.127H3.992q0-.889-.937-.889a.928.928,0,0,0-.608.2.624.624,0,0,0-.246.5.573.573,0,0,0,.3.5,2.842,2.842,0,0,0,.96.314A8.3,8.3,0,0,1,4.621-4.2,2.105,2.105,0,0,1,6.289-2.146,1.937,1.937,0,0,1,5.39-.5,3.942,3.942,0,0,1,3.063.137a4.023,4.023,0,0,1-1.7-.342,2.835,2.835,0,0,1-1.162-.93A2.105,2.105,0,0,1-.212-2.372H1.941a.89.89,0,0,0,.342.749,1.406,1.406,0,0,0,.841.236,1.106,1.106,0,0,0,.708-.191A.612.612,0,0,0,4.067-2.078Zm5.981-7.157V-7.4h1.217v1.6H10.049v3.384a.864.864,0,0,0,.15.581.807.807,0,0,0,.595.164,3.38,3.38,0,0,0,.574-.041V-.062a4.252,4.252,0,0,1-1.3.2A2.413,2.413,0,0,1,8.313-.424a2.3,2.3,0,0,1-.567-1.7V-5.8H6.8V-7.4h.943V-9.235Zm6.6,3.924-.759-.055a1.363,1.363,0,0,0-1.395.684V0h-2.3V-7.4h2.16l.075.95a1.784,1.784,0,0,1,1.62-1.087,2.247,2.247,0,0,1,.643.082ZM21.438,0a2.6,2.6,0,0,1-.219-.663,2.142,2.142,0,0,1-1.777.8A2.624,2.624,0,0,1,17.664-.5a2.013,2.013,0,0,1-.731-1.589A2.069,2.069,0,0,1,17.821-3.9a4.527,4.527,0,0,1,2.584-.615h.711V-4.91q0-1.023-.882-1.023a.721.721,0,0,0-.82.811h-2.3a2.065,2.065,0,0,1,.913-1.741,3.835,3.835,0,0,1,2.328-.669,3.363,3.363,0,0,1,2.235.69,2.4,2.4,0,0,1,.841,1.894v3.274a3.353,3.353,0,0,0,.314,1.559V0ZM20-1.5a1.285,1.285,0,0,0,.714-.185,1.157,1.157,0,0,0,.407-.417V-3.288h-.67q-1.2,0-1.2,1.08a.659.659,0,0,0,.212.509A.767.767,0,0,0,20-1.5Zm7.39-7.731V-7.4H28.6v1.6H27.385v3.384a.864.864,0,0,0,.15.581.807.807,0,0,0,.595.164,3.38,3.38,0,0,0,.574-.041V-.062a4.252,4.252,0,0,1-1.3.2,2.413,2.413,0,0,1-1.757-.561,2.3,2.3,0,0,1-.567-1.7V-5.8h-.943V-7.4h.943V-9.235Zm5.7,9.372A3.8,3.8,0,0,1,30.331-.878a3.506,3.506,0,0,1-1.053-2.642v-.191a4.542,4.542,0,0,1,.42-2,3.076,3.076,0,0,1,1.227-1.343,3.7,3.7,0,0,1,1.914-.475,3.2,3.2,0,0,1,2.461.967,3.8,3.8,0,0,1,.9,2.7v.9h-4.58a1.66,1.66,0,0,0,.54.978,1.607,1.607,0,0,0,1.08.355,2.07,2.07,0,0,0,1.709-.766L36-1.162a2.943,2.943,0,0,1-1.22.947A4.123,4.123,0,0,1,33.086.137Zm-.26-5.893q-1.012,0-1.2,1.34h2.324v-.178a1.141,1.141,0,0,0-.28-.858A1.115,1.115,0,0,0,32.826-5.756ZM32.8-10.507h2.434l-1.9,2.146-1.88,0Zm4.061,6.754a4.994,4.994,0,0,1,.369-1.982,2.972,2.972,0,0,1,1.06-1.33,2.793,2.793,0,0,1,1.606-.468,2.221,2.221,0,0,1,1.8.779l.082-.643h2.092V-.28a3.118,3.118,0,0,1-.455,1.7A2.917,2.917,0,0,1,42.1,2.526a4.837,4.837,0,0,1-2,.386A4.173,4.173,0,0,1,38.531,2.6a2.844,2.844,0,0,1-1.166-.8L38.329.451a2.112,2.112,0,0,0,1.7.759A1.372,1.372,0,0,0,41.556-.362V-.595a2.163,2.163,0,0,1-1.675.731A2.673,2.673,0,0,1,37.693-.9a4.291,4.291,0,0,1-.834-2.772Zm2.311.144a2.631,2.631,0,0,0,.342,1.439,1.078,1.078,0,0,0,.957.53,1.224,1.224,0,0,0,1.087-.5V-5.25a1.193,1.193,0,0,0-1.073-.506,1.086,1.086,0,0,0-.964.55A3,3,0,0,0,39.17-3.609ZM47.612,0H45.3V-7.4h2.311ZM45.165-9.311a1.037,1.037,0,0,1,.355-.812,1.336,1.336,0,0,1,.923-.316,1.336,1.336,0,0,1,.923.316,1.037,1.037,0,0,1,.355.812,1.037,1.037,0,0,1-.355.812,1.336,1.336,0,0,1-.923.316,1.336,1.336,0,0,1-.923-.316A1.037,1.037,0,0,1,45.165-9.311Zm6.993,7.67A1.025,1.025,0,0,0,52.91-1.9a.965.965,0,0,0,.26-.735h2.16a2.557,2.557,0,0,1-.872,2,3.242,3.242,0,0,1-2.246.779A3.282,3.282,0,0,1,49.67-.875a3.986,3.986,0,0,1-.93-2.8v-.1a4.505,4.505,0,0,1,.414-1.979,3.011,3.011,0,0,1,1.193-1.319,3.557,3.557,0,0,1,1.846-.461,3.2,3.2,0,0,1,2.29.8,2.837,2.837,0,0,1,.848,2.167H53.17a1.265,1.265,0,0,0-.28-.882.967.967,0,0,0-.752-.308q-.9,0-1.046,1.142a8.055,8.055,0,0,0-.048,1,3.164,3.164,0,0,0,.267,1.545A.923.923,0,0,0,52.158-1.641Zm3.855-2.126a4.366,4.366,0,0,1,.431-1.972,3.08,3.08,0,0,1,1.237-1.33,3.726,3.726,0,0,1,1.894-.465A3.4,3.4,0,0,1,62.193-6.5a3.948,3.948,0,0,1,.957,2.8v.082a3.83,3.83,0,0,1-.96,2.745,3.41,3.41,0,0,1-2.6,1.015A3.449,3.449,0,0,1,57.053-.81a3.7,3.7,0,0,1-1.032-2.567Zm2.3.144a2.752,2.752,0,0,0,.321,1.5,1.07,1.07,0,0,0,.95.479q1.23,0,1.258-1.894v-.232q0-1.989-1.271-1.989-1.155,0-1.251,1.716Zm9.721,1.545a.532.532,0,0,0-.308-.472,4.679,4.679,0,0,0-1.169-.369,5.33,5.33,0,0,1-1.422-.5,2.382,2.382,0,0,1-.854-.755A1.8,1.8,0,0,1,63.991-5.2a2.044,2.044,0,0,1,.841-1.678,3.464,3.464,0,0,1,2.2-.66,3.837,3.837,0,0,1,2.352.663,2.074,2.074,0,0,1,.889,1.743H67.963q0-.889-.937-.889a.928.928,0,0,0-.608.2.624.624,0,0,0-.246.5.573.573,0,0,0,.3.5,2.842,2.842,0,0,0,.96.314,8.3,8.3,0,0,1,1.159.294A2.105,2.105,0,0,1,70.26-2.146a1.937,1.937,0,0,1-.9,1.647,3.942,3.942,0,0,1-2.328.636,4.023,4.023,0,0,1-1.7-.342,2.835,2.835,0,0,1-1.162-.93,2.105,2.105,0,0,1-.417-1.237h2.153a.89.89,0,0,0,.342.749,1.406,1.406,0,0,0,.841.236,1.106,1.106,0,0,0,.708-.191A.612.612,0,0,0,68.038-2.078Z" transform="translate(1010 985)" fill="#12263f"/>
    <path id="Trazado_148263" data-name="Trazado 148263" d="M-75.684,0H-78.41l-4.031-7.078V0h-2.742V-11.375h2.742L-78.418-4.3v-7.078h2.734Zm5.7.156A4.345,4.345,0,0,1-73.129-1a4.006,4.006,0,0,1-1.2-3.02v-.219a5.191,5.191,0,0,1,.48-2.289,3.516,3.516,0,0,1,1.4-1.535,4.233,4.233,0,0,1,2.188-.543A3.659,3.659,0,0,1-67.449-7.5a4.344,4.344,0,0,1,1.031,3.082V-3.4h-5.234a1.9,1.9,0,0,0,.617,1.117,1.836,1.836,0,0,0,1.234.406,2.366,2.366,0,0,0,1.953-.875l1.2,1.422A3.363,3.363,0,0,1-68.039-.246,4.713,4.713,0,0,1-69.98.156Zm-.3-6.734q-1.156,0-1.375,1.531H-69v-.2a1.3,1.3,0,0,0-.32-.98A1.275,1.275,0,0,0-70.277-6.578Zm8.492,4.7a1.171,1.171,0,0,0,.859-.3,1.1,1.1,0,0,0,.3-.84h2.469a2.922,2.922,0,0,1-1,2.281,3.705,3.705,0,0,1-2.566.891A3.751,3.751,0,0,1-64.629-1a4.556,4.556,0,0,1-1.062-3.2v-.109a5.149,5.149,0,0,1,.473-2.262,3.441,3.441,0,0,1,1.363-1.508,4.065,4.065,0,0,1,2.109-.527,3.658,3.658,0,0,1,2.617.914,3.242,3.242,0,0,1,.969,2.477h-2.469a1.445,1.445,0,0,0-.32-1.008,1.106,1.106,0,0,0-.859-.352q-1.023,0-1.2,1.3a9.206,9.206,0,0,0-.055,1.141,3.616,3.616,0,0,0,.3,1.766A1.055,1.055,0,0,0-61.785-1.875ZM-52.957.156A4.345,4.345,0,0,1-56.105-1a4.006,4.006,0,0,1-1.2-3.02v-.219a5.191,5.191,0,0,1,.48-2.289,3.516,3.516,0,0,1,1.4-1.535,4.233,4.233,0,0,1,2.188-.543A3.659,3.659,0,0,1-50.426-7.5a4.344,4.344,0,0,1,1.031,3.082V-3.4h-5.234a1.9,1.9,0,0,0,.617,1.117,1.836,1.836,0,0,0,1.234.406,2.366,2.366,0,0,0,1.953-.875l1.2,1.422A3.363,3.363,0,0,1-51.016-.246,4.713,4.713,0,0,1-52.957.156Zm-.3-6.734q-1.156,0-1.375,1.531h2.656v-.2a1.3,1.3,0,0,0-.32-.98A1.275,1.275,0,0,0-53.254-6.578Zm9.344,4.2a.608.608,0,0,0-.352-.539A5.348,5.348,0,0,0-45.6-3.336a6.092,6.092,0,0,1-1.625-.574,2.722,2.722,0,0,1-.977-.863,2.061,2.061,0,0,1-.336-1.164,2.336,2.336,0,0,1,.961-1.918,3.958,3.958,0,0,1,2.516-.754,4.386,4.386,0,0,1,2.688.758,2.37,2.37,0,0,1,1.016,1.992H-44q0-1.016-1.07-1.016a1.061,1.061,0,0,0-.7.23.714.714,0,0,0-.281.574.655.655,0,0,0,.344.57,3.248,3.248,0,0,0,1.1.359,9.485,9.485,0,0,1,1.324.336,2.406,2.406,0,0,1,1.906,2.352A2.214,2.214,0,0,1-42.4-.57a4.505,4.505,0,0,1-2.66.727A4.6,4.6,0,0,1-47-.234,3.24,3.24,0,0,1-48.324-1.3,2.406,2.406,0,0,1-48.8-2.711h2.461a1.017,1.017,0,0,0,.391.855,1.607,1.607,0,0,0,.961.27A1.264,1.264,0,0,0-44.18-1.8.7.7,0,0,0-43.91-2.375ZM-37.363,0H-40V-8.453h2.641Zm-2.8-10.641a1.186,1.186,0,0,1,.406-.927A1.527,1.527,0,0,1-38.7-11.93a1.527,1.527,0,0,1,1.055.362,1.186,1.186,0,0,1,.406.927,1.186,1.186,0,0,1-.406.927,1.527,1.527,0,0,1-1.055.362,1.527,1.527,0,0,1-1.055-.362A1.186,1.186,0,0,1-40.16-10.641Zm4.086,6.352a5.164,5.164,0,0,1,.867-3.164,2.854,2.854,0,0,1,2.422-1.156,2.428,2.428,0,0,1,1.906.891V-12h2.641V0h-2.367l-.133-.906A2.493,2.493,0,0,1-32.8.156,2.849,2.849,0,0,1-35.191-1,5.327,5.327,0,0,1-36.074-4.289Zm2.633.164q0,2.25,1.313,2.25a1.3,1.3,0,0,0,1.25-.734V-5.828a1.261,1.261,0,0,0-1.234-.75q-1.219,0-1.32,1.969ZM-21.98,0a2.973,2.973,0,0,1-.25-.758,2.448,2.448,0,0,1-2.031.914,3,3,0,0,1-2.031-.723,2.3,2.3,0,0,1-.836-1.816,2.364,2.364,0,0,1,1.016-2.078,5.174,5.174,0,0,1,2.953-.7h.813v-.448q0-1.17-1.008-1.17a.824.824,0,0,0-.937.926h-2.633a2.36,2.36,0,0,1,1.043-1.99,4.383,4.383,0,0,1,2.66-.765,3.843,3.843,0,0,1,2.555.789,2.743,2.743,0,0,1,.961,2.164v3.742a3.832,3.832,0,0,0,.359,1.781V0Zm-1.648-1.719a1.469,1.469,0,0,0,.816-.211,1.322,1.322,0,0,0,.465-.477V-3.758h-.766q-1.375,0-1.375,1.234a.754.754,0,0,0,.242.582A.876.876,0,0,0-23.629-1.719Zm5.047-2.57a5.164,5.164,0,0,1,.867-3.164,2.854,2.854,0,0,1,2.422-1.156,2.428,2.428,0,0,1,1.906.891V-12h2.641V0h-2.367l-.133-.906A2.493,2.493,0,0,1-15.309.156,2.849,2.849,0,0,1-17.7-1,5.327,5.327,0,0,1-18.582-4.289Zm2.633.164q0,2.25,1.313,2.25a1.3,1.3,0,0,0,1.25-.734V-5.828a1.261,1.261,0,0,0-1.234-.75q-1.219,0-1.32,1.969ZM-5.16.156A4.345,4.345,0,0,1-8.309-1a4.006,4.006,0,0,1-1.2-3.02v-.219a5.191,5.191,0,0,1,.48-2.289,3.516,3.516,0,0,1,1.4-1.535,4.233,4.233,0,0,1,2.188-.543A3.659,3.659,0,0,1-2.629-7.5,4.344,4.344,0,0,1-1.6-4.422V-3.4H-6.832a1.9,1.9,0,0,0,.617,1.117,1.836,1.836,0,0,0,1.234.406A2.366,2.366,0,0,0-3.027-2.75l1.2,1.422A3.363,3.363,0,0,1-3.219-.246,4.713,4.713,0,0,1-5.16.156Zm-.3-6.734q-1.156,0-1.375,1.531h2.656v-.2a1.3,1.3,0,0,0-.32-.98A1.275,1.275,0,0,0-5.457-6.578Zm9.344,4.2a.608.608,0,0,0-.352-.539A5.348,5.348,0,0,0,2.2-3.336,6.092,6.092,0,0,1,.574-3.91,2.722,2.722,0,0,1-.4-4.773,2.061,2.061,0,0,1-.738-5.937,2.336,2.336,0,0,1,.223-7.855a3.958,3.958,0,0,1,2.516-.754,4.386,4.386,0,0,1,2.688.758A2.37,2.37,0,0,1,6.441-5.859H3.8q0-1.016-1.07-1.016a1.061,1.061,0,0,0-.7.23.714.714,0,0,0-.281.574A.655.655,0,0,0,2.1-5.5a3.248,3.248,0,0,0,1.1.359A9.485,9.485,0,0,1,4.52-4.8,2.406,2.406,0,0,1,6.426-2.453,2.214,2.214,0,0,1,5.4-.57a4.505,4.505,0,0,1-2.66.727A4.6,4.6,0,0,1,.8-.234,3.24,3.24,0,0,1-.527-1.3,2.406,2.406,0,0,1-1-2.711H1.457a1.017,1.017,0,0,0,.391.855,1.607,1.607,0,0,0,.961.27A1.264,1.264,0,0,0,3.617-1.8.7.7,0,0,0,3.887-2.375Zm7.422-1.914a5.164,5.164,0,0,1,.867-3.164A2.854,2.854,0,0,1,14.6-8.609a2.428,2.428,0,0,1,1.906.891V-12h2.641V0H16.777l-.133-.906A2.493,2.493,0,0,1,14.582.156,2.849,2.849,0,0,1,12.191-1,5.327,5.327,0,0,1,11.309-4.289Zm2.633.164q0,2.25,1.313,2.25a1.3,1.3,0,0,0,1.25-.734V-5.828a1.261,1.261,0,0,0-1.234-.75q-1.219,0-1.32,1.969ZM24.73.156A4.345,4.345,0,0,1,21.582-1a4.006,4.006,0,0,1-1.2-3.02v-.219a5.191,5.191,0,0,1,.48-2.289,3.516,3.516,0,0,1,1.4-1.535,4.233,4.233,0,0,1,2.188-.543A3.659,3.659,0,0,1,27.262-7.5a4.344,4.344,0,0,1,1.031,3.082V-3.4H23.059a1.9,1.9,0,0,0,.617,1.117,1.836,1.836,0,0,0,1.234.406,2.366,2.366,0,0,0,1.953-.875l1.2,1.422A3.363,3.363,0,0,1,26.672-.246,4.713,4.713,0,0,1,24.73.156Zm-.3-6.734q-1.156,0-1.375,1.531h2.656v-.2a1.3,1.3,0,0,0-.32-.98A1.275,1.275,0,0,0,24.434-6.578ZM32.129,0H29.488V-12h2.641Zm9.18-1.875a1.171,1.171,0,0,0,.859-.3,1.1,1.1,0,0,0,.3-.84h2.469a2.922,2.922,0,0,1-1,2.281,3.705,3.705,0,0,1-2.566.891A3.751,3.751,0,0,1,38.465-1,4.556,4.556,0,0,1,37.4-4.2v-.109a5.149,5.149,0,0,1,.473-2.262,3.441,3.441,0,0,1,1.363-1.508,4.065,4.065,0,0,1,2.109-.527,3.658,3.658,0,0,1,2.617.914,3.242,3.242,0,0,1,.969,2.477H42.465a1.445,1.445,0,0,0-.32-1.008,1.106,1.106,0,0,0-.859-.352q-1.023,0-1.2,1.3a9.206,9.206,0,0,0-.055,1.141,3.616,3.616,0,0,0,.3,1.766A1.055,1.055,0,0,0,41.309-1.875ZM48.824,0H46.184V-12h2.641Zm4.4,0H50.582V-8.453h2.641Zm-2.8-10.641a1.186,1.186,0,0,1,.406-.927,1.527,1.527,0,0,1,1.055-.362,1.527,1.527,0,0,1,1.055.362,1.186,1.186,0,0,1,.406.927,1.186,1.186,0,0,1-.406.927,1.527,1.527,0,0,1-1.055.362,1.527,1.527,0,0,1-1.055-.362A1.186,1.186,0,0,1,50.426-10.641ZM58.934.156A4.345,4.345,0,0,1,55.785-1a4.006,4.006,0,0,1-1.2-3.02v-.219a5.191,5.191,0,0,1,.48-2.289,3.516,3.516,0,0,1,1.4-1.535,4.233,4.233,0,0,1,2.188-.543A3.659,3.659,0,0,1,61.465-7.5,4.344,4.344,0,0,1,62.5-4.422V-3.4H57.262a1.9,1.9,0,0,0,.617,1.117,1.836,1.836,0,0,0,1.234.406,2.366,2.366,0,0,0,1.953-.875l1.2,1.422A3.363,3.363,0,0,1,60.875-.246,4.713,4.713,0,0,1,58.934.156Zm-.3-6.734q-1.156,0-1.375,1.531h2.656v-.2a1.3,1.3,0,0,0-.32-.98A1.275,1.275,0,0,0,58.637-6.578Zm7.336-1.875.086.992a2.867,2.867,0,0,1,2.414-1.148,2.412,2.412,0,0,1,1.973.789,3.757,3.757,0,0,1,.676,2.375V0H68.48V-5.336a1.426,1.426,0,0,0-.258-.941,1.193,1.193,0,0,0-.937-.3,1.256,1.256,0,0,0-1.148.609V0H63.5V-8.453Zm9.672-2.1v2.1h1.391v1.828H75.645v3.867a.987.987,0,0,0,.172.664.922.922,0,0,0,.68.188,3.862,3.862,0,0,0,.656-.047V-.07a4.859,4.859,0,0,1-1.484.227A2.758,2.758,0,0,1,73.66-.484a2.626,2.626,0,0,1-.648-1.945v-4.2H71.934V-8.453h1.078v-2.1ZM82.16.156A4.345,4.345,0,0,1,79.012-1a4.006,4.006,0,0,1-1.2-3.02v-.219a5.191,5.191,0,0,1,.48-2.289,3.516,3.516,0,0,1,1.4-1.535,4.233,4.233,0,0,1,2.188-.543A3.659,3.659,0,0,1,84.691-7.5a4.344,4.344,0,0,1,1.031,3.082V-3.4H80.488a1.9,1.9,0,0,0,.617,1.117,1.836,1.836,0,0,0,1.234.406,2.366,2.366,0,0,0,1.953-.875l1.2,1.422A3.363,3.363,0,0,1,84.1-.246,4.713,4.713,0,0,1,82.16.156Zm-.3-6.734q-1.156,0-1.375,1.531h2.656v-.2a1.3,1.3,0,0,0-.32-.98A1.275,1.275,0,0,0,81.863-6.578Z" transform="translate(734 1134.168) rotate(-90)" fill="#fff"/>
    <path id="Trazado_148264" data-name="Trazado 148264" d="M-77.793-3.023a1.127,1.127,0,0,0-.426-.937,5.292,5.292,0,0,0-1.5-.7,14.353,14.353,0,0,1-1.75-.7,3.314,3.314,0,0,1-2.211-2.984A2.676,2.676,0,0,1-83.125-10a3.562,3.562,0,0,1,1.559-1.125,6.065,6.065,0,0,1,2.266-.4,5.305,5.305,0,0,1,2.2.438A3.482,3.482,0,0,1-75.59-9.848,3.254,3.254,0,0,1-75.051-8h-2.734a1.375,1.375,0,0,0-.426-1.078,1.66,1.66,0,0,0-1.152-.383,1.872,1.872,0,0,0-1.16.324,1,1,0,0,0-.426.824,1,1,0,0,0,.469.793,5.911,5.911,0,0,0,1.648.734,10.1,10.1,0,0,1,1.938.816,3.256,3.256,0,0,1,1.844,2.93A2.778,2.778,0,0,1-76.176-.7a5,5,0,0,1-3.086.852,6.122,6.122,0,0,1-2.5-.5A3.775,3.775,0,0,1-83.453-1.7a3.542,3.542,0,0,1-.566-1.988h2.75A1.745,1.745,0,0,0-80.8-2.34a2.234,2.234,0,0,0,1.535.434A1.765,1.765,0,0,0-78.187-2.2.967.967,0,0,0-77.793-3.023ZM-69,0a2.973,2.973,0,0,1-.25-.758,2.448,2.448,0,0,1-2.031.914,3,3,0,0,1-2.031-.723,2.3,2.3,0,0,1-.836-1.816,2.364,2.364,0,0,1,1.016-2.078,5.174,5.174,0,0,1,2.953-.7h.813v-.448q0-1.17-1.008-1.17a.824.824,0,0,0-.937.926h-2.633a2.36,2.36,0,0,1,1.043-1.99,4.383,4.383,0,0,1,2.66-.765,3.843,3.843,0,0,1,2.555.789,2.743,2.743,0,0,1,.961,2.164v3.742a3.832,3.832,0,0,0,.359,1.781V0Zm-1.648-1.719a1.469,1.469,0,0,0,.816-.211,1.322,1.322,0,0,0,.465-.477V-3.758h-.766q-1.375,0-1.375,1.234a.754.754,0,0,0,.242.582A.876.876,0,0,0-70.652-1.719Zm8.445-8.836v2.1h1.391v1.828h-1.391v3.867a.987.987,0,0,0,.172.664.922.922,0,0,0,.68.188,3.862,3.862,0,0,0,.656-.047V-.07a4.859,4.859,0,0,1-1.484.227,2.758,2.758,0,0,1-2.008-.641A2.626,2.626,0,0,1-64.84-2.43v-4.2h-1.078V-8.453h1.078v-2.1ZM-57,0h-2.641V-8.453H-57Zm-2.8-10.641a1.186,1.186,0,0,1,.406-.927,1.527,1.527,0,0,1,1.055-.362,1.527,1.527,0,0,1,1.055.362,1.186,1.186,0,0,1,.406.927,1.186,1.186,0,0,1-.406.927,1.527,1.527,0,0,1-1.055.362,1.527,1.527,0,0,1-1.055-.362A1.186,1.186,0,0,1-59.8-10.641Zm8.844,8.266a.608.608,0,0,0-.352-.539,5.348,5.348,0,0,0-1.336-.422A6.092,6.092,0,0,1-54.27-3.91a2.722,2.722,0,0,1-.977-.863,2.061,2.061,0,0,1-.336-1.164,2.336,2.336,0,0,1,.961-1.918,3.958,3.958,0,0,1,2.516-.754,4.386,4.386,0,0,1,2.688.758A2.37,2.37,0,0,1-48.4-5.859h-2.641q0-1.016-1.07-1.016a1.061,1.061,0,0,0-.7.23.714.714,0,0,0-.281.574.655.655,0,0,0,.344.57,3.248,3.248,0,0,0,1.1.359,9.485,9.485,0,0,1,1.324.336,2.406,2.406,0,0,1,1.906,2.352A2.214,2.214,0,0,1-49.445-.57a4.505,4.505,0,0,1-2.66.727,4.6,4.6,0,0,1-1.937-.391A3.24,3.24,0,0,1-55.371-1.3a2.406,2.406,0,0,1-.477-1.414h2.461A1.017,1.017,0,0,0-53-1.855a1.607,1.607,0,0,0,.961.27,1.264,1.264,0,0,0,.809-.219A.7.7,0,0,0-50.957-2.375ZM-46.605,0V-6.625h-1.227V-8.453h1.227v-.672a2.921,2.921,0,0,1,.852-2.242,3.364,3.364,0,0,1,2.391-.8A5.235,5.235,0,0,1-42.129-12l.008,1.938a2.4,2.4,0,0,0-.648-.07q-1.2,0-1.2,1.031v.648h1.648v1.828h-1.648V0Zm9.977,0a2.973,2.973,0,0,1-.25-.758A2.448,2.448,0,0,1-38.91.156a3,3,0,0,1-2.031-.723,2.3,2.3,0,0,1-.836-1.816,2.364,2.364,0,0,1,1.016-2.078,5.174,5.174,0,0,1,2.953-.7H-37v-.448q0-1.17-1.008-1.17a.824.824,0,0,0-.937.926h-2.633a2.36,2.36,0,0,1,1.043-1.99,4.383,4.383,0,0,1,2.66-.765,3.843,3.843,0,0,1,2.555.789,2.743,2.743,0,0,1,.961,2.164v3.742A3.832,3.832,0,0,0-34-.133V0Zm-1.648-1.719a1.469,1.469,0,0,0,.816-.211A1.322,1.322,0,0,0-37-2.406V-3.758h-.766q-1.375,0-1.375,1.234a.754.754,0,0,0,.242.582A.876.876,0,0,0-38.277-1.719Zm8.953-.156a1.171,1.171,0,0,0,.859-.3,1.1,1.1,0,0,0,.3-.84H-25.7a2.922,2.922,0,0,1-1,2.281,3.705,3.705,0,0,1-2.566.891A3.751,3.751,0,0,1-32.168-1,4.556,4.556,0,0,1-33.23-4.2v-.109a5.149,5.149,0,0,1,.473-2.262,3.441,3.441,0,0,1,1.363-1.508,4.065,4.065,0,0,1,2.109-.527,3.658,3.658,0,0,1,2.617.914A3.242,3.242,0,0,1-25.7-5.219h-2.469a1.445,1.445,0,0,0-.32-1.008,1.106,1.106,0,0,0-.859-.352q-1.023,0-1.2,1.3A9.206,9.206,0,0,0-30.6-4.133a3.616,3.616,0,0,0,.3,1.766A1.055,1.055,0,0,0-29.324-1.875Zm8.313,0a1.171,1.171,0,0,0,.859-.3,1.1,1.1,0,0,0,.3-.84h2.469a2.922,2.922,0,0,1-1,2.281,3.705,3.705,0,0,1-2.566.891A3.751,3.751,0,0,1-23.855-1a4.556,4.556,0,0,1-1.062-3.2v-.109a5.149,5.149,0,0,1,.473-2.262,3.441,3.441,0,0,1,1.363-1.508,4.065,4.065,0,0,1,2.109-.527,3.658,3.658,0,0,1,2.617.914,3.242,3.242,0,0,1,.969,2.477h-2.469a1.445,1.445,0,0,0-.32-1.008,1.106,1.106,0,0,0-.859-.352q-1.023,0-1.2,1.3a9.206,9.206,0,0,0-.055,1.141,3.616,3.616,0,0,0,.3,1.766A1.055,1.055,0,0,0-21.012-1.875ZM-13.5,0h-2.641V-8.453H-13.5Zm-2.8-10.641a1.186,1.186,0,0,1,.406-.927,1.527,1.527,0,0,1,1.055-.362,1.527,1.527,0,0,1,1.055.362,1.186,1.186,0,0,1,.406.927,1.186,1.186,0,0,1-.406.927,1.527,1.527,0,0,1-1.055.362,1.527,1.527,0,0,1-1.055-.362A1.186,1.186,0,0,1-16.293-10.641ZM-12.207-4.3a4.989,4.989,0,0,1,.492-2.254A3.52,3.52,0,0,1-10.3-8.078a4.259,4.259,0,0,1,2.164-.531A3.887,3.887,0,0,1-5.145-7.434a4.512,4.512,0,0,1,1.094,3.2v.094A4.378,4.378,0,0,1-5.148-1,3.9,3.9,0,0,1-8.121.156a3.942,3.942,0,0,1-2.9-1.082A4.232,4.232,0,0,1-12.2-3.859Zm2.633.164a3.145,3.145,0,0,0,.367,1.719,1.223,1.223,0,0,0,1.086.547q1.406,0,1.438-2.164V-4.3q0-2.273-1.453-2.273-1.32,0-1.43,1.961ZM-7.777-12H-5L-7.168-9.547l-2.148,0Zm7.3,3.547.086.992A2.867,2.867,0,0,1,2.027-8.609,2.412,2.412,0,0,1,4-7.82a3.757,3.757,0,0,1,.676,2.375V0H2.035V-5.336a1.426,1.426,0,0,0-.258-.941,1.193,1.193,0,0,0-.937-.3,1.256,1.256,0,0,0-1.148.609V0H-2.941V-8.453ZM9.785-4.289a5.164,5.164,0,0,1,.867-3.164,2.854,2.854,0,0,1,2.422-1.156,2.428,2.428,0,0,1,1.906.891V-12h2.641V0H15.254l-.133-.906A2.493,2.493,0,0,1,13.059.156,2.849,2.849,0,0,1,10.668-1,5.327,5.327,0,0,1,9.785-4.289Zm2.633.164q0,2.25,1.313,2.25a1.3,1.3,0,0,0,1.25-.734V-5.828a1.261,1.261,0,0,0-1.234-.75q-1.219,0-1.32,1.969ZM23.207.156A4.345,4.345,0,0,1,20.059-1a4.006,4.006,0,0,1-1.2-3.02v-.219a5.191,5.191,0,0,1,.48-2.289,3.516,3.516,0,0,1,1.4-1.535,4.233,4.233,0,0,1,2.188-.543A3.659,3.659,0,0,1,25.738-7.5,4.344,4.344,0,0,1,26.77-4.422V-3.4H21.535a1.9,1.9,0,0,0,.617,1.117,1.836,1.836,0,0,0,1.234.406A2.366,2.366,0,0,0,25.34-2.75l1.2,1.422A3.363,3.363,0,0,1,25.148-.246,4.713,4.713,0,0,1,23.207.156Zm-.3-6.734q-1.156,0-1.375,1.531h2.656v-.2a1.3,1.3,0,0,0-.32-.98A1.275,1.275,0,0,0,22.91-6.578ZM30.605,0H27.965V-12h2.641Zm9.18-1.875a1.171,1.171,0,0,0,.859-.3,1.1,1.1,0,0,0,.3-.84H43.41a2.922,2.922,0,0,1-1,2.281,3.705,3.705,0,0,1-2.566.891A3.751,3.751,0,0,1,36.941-1a4.556,4.556,0,0,1-1.062-3.2v-.109a5.149,5.149,0,0,1,.473-2.262,3.441,3.441,0,0,1,1.363-1.508,4.065,4.065,0,0,1,2.109-.527,3.658,3.658,0,0,1,2.617.914,3.242,3.242,0,0,1,.969,2.477H40.941a1.445,1.445,0,0,0-.32-1.008,1.106,1.106,0,0,0-.859-.352q-1.023,0-1.2,1.3a9.206,9.206,0,0,0-.055,1.141,3.616,3.616,0,0,0,.3,1.766A1.055,1.055,0,0,0,39.785-1.875ZM47.3,0H44.66V-12H47.3Zm4.4,0H49.059V-8.453H51.7ZM48.9-10.641a1.186,1.186,0,0,1,.406-.927,1.527,1.527,0,0,1,1.055-.362,1.527,1.527,0,0,1,1.055.362,1.186,1.186,0,0,1,.406.927,1.186,1.186,0,0,1-.406.927,1.527,1.527,0,0,1-1.055.362,1.527,1.527,0,0,1-1.055-.362A1.186,1.186,0,0,1,48.9-10.641ZM57.41.156A4.345,4.345,0,0,1,54.262-1a4.006,4.006,0,0,1-1.2-3.02v-.219a5.191,5.191,0,0,1,.48-2.289,3.516,3.516,0,0,1,1.4-1.535,4.233,4.233,0,0,1,2.188-.543A3.659,3.659,0,0,1,59.941-7.5a4.344,4.344,0,0,1,1.031,3.082V-3.4H55.738a1.9,1.9,0,0,0,.617,1.117,1.836,1.836,0,0,0,1.234.406,2.366,2.366,0,0,0,1.953-.875l1.2,1.422A3.363,3.363,0,0,1,59.352-.246,4.713,4.713,0,0,1,57.41.156Zm-.3-6.734q-1.156,0-1.375,1.531h2.656v-.2a1.3,1.3,0,0,0-.32-.98A1.275,1.275,0,0,0,57.113-6.578Zm7.336-1.875.086.992a2.867,2.867,0,0,1,2.414-1.148,2.412,2.412,0,0,1,1.973.789A3.757,3.757,0,0,1,69.6-5.445V0H66.957V-5.336a1.426,1.426,0,0,0-.258-.941,1.193,1.193,0,0,0-.937-.3,1.256,1.256,0,0,0-1.148.609V0H61.98V-8.453Zm9.672-2.1v2.1h1.391v1.828H74.121v3.867a.987.987,0,0,0,.172.664.922.922,0,0,0,.68.188,3.862,3.862,0,0,0,.656-.047V-.07a4.859,4.859,0,0,1-1.484.227,2.758,2.758,0,0,1-2.008-.641,2.626,2.626,0,0,1-.648-1.945v-4.2H70.41V-8.453h1.078v-2.1ZM80.637.156A4.345,4.345,0,0,1,77.488-1a4.006,4.006,0,0,1-1.2-3.02v-.219a5.191,5.191,0,0,1,.48-2.289,3.516,3.516,0,0,1,1.4-1.535,4.233,4.233,0,0,1,2.188-.543A3.659,3.659,0,0,1,83.168-7.5,4.344,4.344,0,0,1,84.2-4.422V-3.4H78.965a1.9,1.9,0,0,0,.617,1.117,1.836,1.836,0,0,0,1.234.406A2.366,2.366,0,0,0,82.77-2.75l1.2,1.422A3.363,3.363,0,0,1,82.578-.246,4.713,4.713,0,0,1,80.637.156Zm-.3-6.734q-1.156,0-1.375,1.531h2.656v-.2a1.3,1.3,0,0,0-.32-.98A1.275,1.275,0,0,0,80.34-6.578Z" transform="translate(1285 1134.168) rotate(90)" fill="#12263f"/>
    <path id="Trazado_148265" data-name="Trazado 148265" d="M-62.074-3.377V0h-2.4V-9.953H-60.5a4.626,4.626,0,0,1,2.02.42,3.168,3.168,0,0,1,1.36,1.2,3.267,3.267,0,0,1,.482,1.76,2.88,2.88,0,0,1-1.042,2.328,4.326,4.326,0,0,1-2.861.872Zm0-1.853H-60.5a1.483,1.483,0,0,0,1.063-.349,1.3,1.3,0,0,0,.366-.984,1.6,1.6,0,0,0-.376-1.114A1.331,1.331,0,0,0-60.474-8.1h-1.6Zm11.081-.082-.759-.055a1.363,1.363,0,0,0-1.395.684V0h-2.3V-7.4h2.16l.075.95a1.784,1.784,0,0,1,1.62-1.087,2.247,2.247,0,0,1,.643.082Zm.294,1.545a4.366,4.366,0,0,1,.431-1.972,3.08,3.08,0,0,1,1.237-1.33,3.726,3.726,0,0,1,1.894-.465A3.4,3.4,0,0,1-44.519-6.5a3.948,3.948,0,0,1,.957,2.8v.082a3.83,3.83,0,0,1-.96,2.745,3.41,3.41,0,0,1-2.6,1.015A3.449,3.449,0,0,1-49.66-.81a3.7,3.7,0,0,1-1.032-2.567Zm2.3.144a2.752,2.752,0,0,0,.321,1.5,1.07,1.07,0,0,0,.95.479q1.23,0,1.258-1.894v-.232q0-1.989-1.271-1.989-1.155,0-1.251,1.716Zm8.976,1.982a1.025,1.025,0,0,0,.752-.263.965.965,0,0,0,.26-.735h2.16a2.557,2.557,0,0,1-.872,2,3.242,3.242,0,0,1-2.246.779A3.282,3.282,0,0,1-41.908-.875a3.986,3.986,0,0,1-.93-2.8v-.1a4.505,4.505,0,0,1,.414-1.979,3.011,3.011,0,0,1,1.193-1.319,3.557,3.557,0,0,1,1.846-.461,3.2,3.2,0,0,1,2.29.8,2.837,2.837,0,0,1,.848,2.167h-2.16a1.265,1.265,0,0,0-.28-.882.967.967,0,0,0-.752-.308q-.9,0-1.046,1.142a8.055,8.055,0,0,0-.048,1,3.164,3.164,0,0,0,.267,1.545A.923.923,0,0,0-39.419-1.641ZM-31.695.137A3.8,3.8,0,0,1-34.45-.878,3.506,3.506,0,0,1-35.5-3.521v-.191a4.542,4.542,0,0,1,.42-2,3.076,3.076,0,0,1,1.227-1.343,3.7,3.7,0,0,1,1.914-.475,3.2,3.2,0,0,1,2.461.967,3.8,3.8,0,0,1,.9,2.7v.9h-4.58a1.66,1.66,0,0,0,.54.978,1.607,1.607,0,0,0,1.08.355,2.07,2.07,0,0,0,1.709-.766l1.053,1.244A2.943,2.943,0,0,1-30-.215,4.123,4.123,0,0,1-31.695.137Zm-.26-5.893q-1.012,0-1.2,1.34h2.324v-.178a1.141,1.141,0,0,0-.28-.858A1.115,1.115,0,0,0-31.955-5.756Zm8.176,3.678a.532.532,0,0,0-.308-.472,4.679,4.679,0,0,0-1.169-.369,5.33,5.33,0,0,1-1.422-.5,2.382,2.382,0,0,1-.854-.755A1.8,1.8,0,0,1-27.826-5.2a2.044,2.044,0,0,1,.841-1.678,3.464,3.464,0,0,1,2.2-.66,3.837,3.837,0,0,1,2.352.663,2.074,2.074,0,0,1,.889,1.743h-2.311q0-.889-.937-.889a.928.928,0,0,0-.608.2.624.624,0,0,0-.246.5.573.573,0,0,0,.3.5,2.842,2.842,0,0,0,.96.314,8.3,8.3,0,0,1,1.159.294,2.105,2.105,0,0,1,1.668,2.058,1.937,1.937,0,0,1-.9,1.647,3.942,3.942,0,0,1-2.328.636,4.023,4.023,0,0,1-1.7-.342,2.835,2.835,0,0,1-1.162-.93,2.105,2.105,0,0,1-.417-1.237H-25.9a.89.89,0,0,0,.342.749,1.406,1.406,0,0,0,.841.236,1.106,1.106,0,0,0,.708-.191A.612.612,0,0,0-23.779-2.078Zm3.008-1.688a4.366,4.366,0,0,1,.431-1.972A3.08,3.08,0,0,1-19.1-7.068a3.726,3.726,0,0,1,1.894-.465A3.4,3.4,0,0,1-14.591-6.5a3.948,3.948,0,0,1,.957,2.8v.082a3.83,3.83,0,0,1-.96,2.745A3.41,3.41,0,0,1-17.2.137,3.449,3.449,0,0,1-19.732-.81a3.7,3.7,0,0,1-1.032-2.567Zm2.3.144a2.752,2.752,0,0,0,.321,1.5,1.07,1.07,0,0,0,.95.479q1.23,0,1.258-1.894v-.232q0-1.989-1.271-1.989-1.155,0-1.251,1.716Zm9.721,1.545a.532.532,0,0,0-.308-.472,4.679,4.679,0,0,0-1.169-.369,5.33,5.33,0,0,1-1.422-.5,2.382,2.382,0,0,1-.854-.755A1.8,1.8,0,0,1-12.793-5.2a2.044,2.044,0,0,1,.841-1.678,3.464,3.464,0,0,1,2.2-.66A3.837,3.837,0,0,1-7.4-6.87a2.074,2.074,0,0,1,.889,1.743H-8.822q0-.889-.937-.889a.928.928,0,0,0-.608.2.624.624,0,0,0-.246.5.573.573,0,0,0,.3.5,2.842,2.842,0,0,0,.96.314A8.3,8.3,0,0,1-8.193-4.2,2.105,2.105,0,0,1-6.525-2.146,1.937,1.937,0,0,1-7.424-.5,3.942,3.942,0,0,1-9.751.137a4.023,4.023,0,0,1-1.7-.342,2.835,2.835,0,0,1-1.162-.93,2.105,2.105,0,0,1-.417-1.237h2.153a.89.89,0,0,0,.342.749,1.406,1.406,0,0,0,.841.236,1.106,1.106,0,0,0,.708-.191A.612.612,0,0,0-8.747-2.078Zm6.494-1.675a4.518,4.518,0,0,1,.759-2.769A2.5,2.5,0,0,1,.625-7.533a2.124,2.124,0,0,1,1.668.779V-10.5H4.6V0H2.533L2.417-.793a2.181,2.181,0,0,1-1.8.93A2.493,2.493,0,0,1-1.48-.875,4.661,4.661,0,0,1-2.252-3.753Zm2.3.144q0,1.969,1.148,1.969a1.134,1.134,0,0,0,1.094-.643V-5.1a1.1,1.1,0,0,0-1.08-.656Q.147-5.756.058-4.033ZM9.492.137A3.8,3.8,0,0,1,6.737-.878,3.506,3.506,0,0,1,5.684-3.521v-.191a4.542,4.542,0,0,1,.42-2A3.076,3.076,0,0,1,7.332-7.058a3.7,3.7,0,0,1,1.914-.475,3.2,3.2,0,0,1,2.461.967,3.8,3.8,0,0,1,.9,2.7v.9H8.029A1.66,1.66,0,0,0,8.569-2a1.607,1.607,0,0,0,1.08.355,2.07,2.07,0,0,0,1.709-.766l1.053,1.244a2.943,2.943,0,0,1-1.22.947A4.123,4.123,0,0,1,9.492.137Zm-.26-5.893q-1.012,0-1.2,1.34h2.324v-.178a1.141,1.141,0,0,0-.28-.858A1.115,1.115,0,0,0,9.232-5.756ZM20.894-2.078a.532.532,0,0,0-.308-.472,4.679,4.679,0,0,0-1.169-.369A5.33,5.33,0,0,1,18-3.421a2.382,2.382,0,0,1-.854-.755A1.8,1.8,0,0,1,16.847-5.2a2.044,2.044,0,0,1,.841-1.678,3.464,3.464,0,0,1,2.2-.66,3.837,3.837,0,0,1,2.352.663,2.074,2.074,0,0,1,.889,1.743H20.819q0-.889-.937-.889a.928.928,0,0,0-.608.2.624.624,0,0,0-.246.5.573.573,0,0,0,.3.5,2.842,2.842,0,0,0,.96.314,8.3,8.3,0,0,1,1.159.294,2.105,2.105,0,0,1,1.668,2.058,1.937,1.937,0,0,1-.9,1.647,3.942,3.942,0,0,1-2.328.636,4.023,4.023,0,0,1-1.7-.342,2.835,2.835,0,0,1-1.162-.93,2.105,2.105,0,0,1-.417-1.237h2.153a.89.89,0,0,0,.342.749,1.406,1.406,0,0,0,.841.236,1.106,1.106,0,0,0,.708-.191A.612.612,0,0,0,20.894-2.078ZM23.9-3.767a4.366,4.366,0,0,1,.431-1.972,3.08,3.08,0,0,1,1.237-1.33,3.726,3.726,0,0,1,1.894-.465A3.4,3.4,0,0,1,30.082-6.5a3.948,3.948,0,0,1,.957,2.8v.082a3.83,3.83,0,0,1-.96,2.745,3.41,3.41,0,0,1-2.6,1.015A3.449,3.449,0,0,1,24.941-.81a3.7,3.7,0,0,1-1.032-2.567Zm2.3.144a2.752,2.752,0,0,0,.321,1.5,1.07,1.07,0,0,0,.95.479q1.23,0,1.258-1.894v-.232q0-1.989-1.271-1.989-1.155,0-1.251,1.716ZM38.92-3.644a4.46,4.46,0,0,1-.776,2.751,2.488,2.488,0,0,1-2.1,1.029,2.132,2.132,0,0,1-1.675-.745V2.844h-2.3V-7.4h2.153l.068.684a2.132,2.132,0,0,1,1.743-.82,2.508,2.508,0,0,1,2.126,1.008,4.515,4.515,0,0,1,.759,2.772Zm-2.3-.144q0-1.969-1.148-1.969a1.084,1.084,0,0,0-1.094.588v2.912a1.119,1.119,0,0,0,1.107.615q1.1,0,1.135-1.9Zm3.028.021a4.366,4.366,0,0,1,.431-1.972,3.08,3.08,0,0,1,1.237-1.33,3.726,3.726,0,0,1,1.894-.465A3.4,3.4,0,0,1,45.825-6.5a3.948,3.948,0,0,1,.957,2.8v.082a3.83,3.83,0,0,1-.96,2.745A3.41,3.41,0,0,1,43.22.137,3.449,3.449,0,0,1,40.684-.81a3.7,3.7,0,0,1-1.032-2.567Zm2.3.144a2.752,2.752,0,0,0,.321,1.5,1.07,1.07,0,0,0,.95.479q1.23,0,1.258-1.894v-.232q0-1.989-1.271-1.989-1.155,0-1.251,1.716ZM52.271-5.312l-.759-.055a1.363,1.363,0,0,0-1.395.684V0h-2.3V-7.4h2.16l.075.95a1.784,1.784,0,0,1,1.62-1.087,2.247,2.247,0,0,1,.643.082Zm3.855-3.924V-7.4h1.217v1.6H56.126v3.384a.864.864,0,0,0,.15.581.807.807,0,0,0,.595.164,3.38,3.38,0,0,0,.574-.041V-.062a4.252,4.252,0,0,1-1.3.2A2.413,2.413,0,0,1,54.39-.424a2.3,2.3,0,0,1-.567-1.7V-5.8h-.943V-7.4h.943V-9.235Zm5.7,9.372A3.8,3.8,0,0,1,59.073-.878,3.506,3.506,0,0,1,58.02-3.521v-.191a4.542,4.542,0,0,1,.42-2,3.076,3.076,0,0,1,1.227-1.343,3.7,3.7,0,0,1,1.914-.475,3.2,3.2,0,0,1,2.461.967,3.8,3.8,0,0,1,.9,2.7v.9h-4.58A1.66,1.66,0,0,0,60.9-2a1.607,1.607,0,0,0,1.08.355,2.07,2.07,0,0,0,1.709-.766l1.053,1.244a2.943,2.943,0,0,1-1.22.947A4.123,4.123,0,0,1,61.828.137Zm-.26-5.893q-1.012,0-1.2,1.34h2.324v-.178a1.141,1.141,0,0,0-.28-.858A1.115,1.115,0,0,0,61.568-5.756Z" transform="translate(1010 1279)" fill="#12263f"/>
    <path id="Trazado_148266" data-name="Trazado 148266" d="M-61.513-3.377V0h-2.4V-9.953h3.972a4.626,4.626,0,0,1,2.02.42,3.168,3.168,0,0,1,1.36,1.2,3.267,3.267,0,0,1,.482,1.76,2.88,2.88,0,0,1-1.042,2.328,4.326,4.326,0,0,1-2.861.872Zm0-1.853h1.572a1.483,1.483,0,0,0,1.063-.349,1.3,1.3,0,0,0,.366-.984,1.6,1.6,0,0,0-.376-1.114A1.331,1.331,0,0,0-59.914-8.1h-1.6Zm11.081-.082-.759-.055a1.363,1.363,0,0,0-1.395.684V0h-2.3V-7.4h2.16l.075.95a1.784,1.784,0,0,1,1.62-1.087,2.247,2.247,0,0,1,.643.082Zm.294,1.545a4.366,4.366,0,0,1,.431-1.972,3.08,3.08,0,0,1,1.237-1.33,3.726,3.726,0,0,1,1.894-.465A3.4,3.4,0,0,1-43.958-6.5,3.948,3.948,0,0,1-43-3.705v.082a3.83,3.83,0,0,1-.96,2.745,3.41,3.41,0,0,1-2.6,1.015A3.449,3.449,0,0,1-49.1-.81a3.7,3.7,0,0,1-1.032-2.567Zm2.3.144a2.752,2.752,0,0,0,.321,1.5,1.07,1.07,0,0,0,.95.479q1.23,0,1.258-1.894v-.232q0-1.989-1.271-1.989-1.155,0-1.251,1.716Zm8.976,1.982a1.025,1.025,0,0,0,.752-.263.965.965,0,0,0,.26-.735h2.16a2.557,2.557,0,0,1-.872,2A3.242,3.242,0,0,1-38.8.137,3.282,3.282,0,0,1-41.347-.875a3.986,3.986,0,0,1-.93-2.8v-.1a4.505,4.505,0,0,1,.414-1.979A3.011,3.011,0,0,1-40.67-7.072a3.557,3.557,0,0,1,1.846-.461,3.2,3.2,0,0,1,2.29.8,2.837,2.837,0,0,1,.848,2.167h-2.16a1.265,1.265,0,0,0-.28-.882.967.967,0,0,0-.752-.308q-.9,0-1.046,1.142a8.055,8.055,0,0,0-.048,1,3.164,3.164,0,0,0,.267,1.545A.923.923,0,0,0-38.859-1.641ZM-31.134.137A3.8,3.8,0,0,1-33.889-.878a3.506,3.506,0,0,1-1.053-2.642v-.191a4.542,4.542,0,0,1,.42-2,3.076,3.076,0,0,1,1.227-1.343,3.7,3.7,0,0,1,1.914-.475,3.2,3.2,0,0,1,2.461.967,3.8,3.8,0,0,1,.9,2.7v.9H-32.6a1.66,1.66,0,0,0,.54.978,1.607,1.607,0,0,0,1.08.355,2.07,2.07,0,0,0,1.709-.766l1.053,1.244a2.943,2.943,0,0,1-1.22.947A4.123,4.123,0,0,1-31.134.137Zm-.26-5.893q-1.012,0-1.2,1.34h2.324v-.178a1.141,1.141,0,0,0-.28-.858A1.115,1.115,0,0,0-31.394-5.756Zm8.176,3.678a.532.532,0,0,0-.308-.472,4.679,4.679,0,0,0-1.169-.369,5.33,5.33,0,0,1-1.422-.5,2.382,2.382,0,0,1-.854-.755A1.8,1.8,0,0,1-27.265-5.2a2.044,2.044,0,0,1,.841-1.678,3.464,3.464,0,0,1,2.2-.66,3.837,3.837,0,0,1,2.352.663,2.074,2.074,0,0,1,.889,1.743h-2.311q0-.889-.937-.889a.928.928,0,0,0-.608.2.624.624,0,0,0-.246.5.573.573,0,0,0,.3.5,2.842,2.842,0,0,0,.96.314,8.3,8.3,0,0,1,1.159.294A2.105,2.105,0,0,1-21-2.146,1.937,1.937,0,0,1-21.9-.5a3.942,3.942,0,0,1-2.328.636,4.023,4.023,0,0,1-1.7-.342,2.835,2.835,0,0,1-1.162-.93A2.105,2.105,0,0,1-27.5-2.372h2.153A.89.89,0,0,0-25-1.624a1.406,1.406,0,0,0,.841.236,1.106,1.106,0,0,0,.708-.191A.612.612,0,0,0-23.218-2.078Zm3.008-1.688a4.366,4.366,0,0,1,.431-1.972,3.08,3.08,0,0,1,1.237-1.33,3.726,3.726,0,0,1,1.894-.465A3.4,3.4,0,0,1-14.031-6.5a3.948,3.948,0,0,1,.957,2.8v.082a3.83,3.83,0,0,1-.96,2.745,3.41,3.41,0,0,1-2.6,1.015A3.449,3.449,0,0,1-19.171-.81,3.7,3.7,0,0,1-20.2-3.377Zm2.3.144a2.752,2.752,0,0,0,.321,1.5,1.07,1.07,0,0,0,.95.479q1.23,0,1.258-1.894v-.232q0-1.989-1.271-1.989-1.155,0-1.251,1.716Zm9.721,1.545a.532.532,0,0,0-.308-.472,4.679,4.679,0,0,0-1.169-.369,5.33,5.33,0,0,1-1.422-.5,2.382,2.382,0,0,1-.854-.755A1.8,1.8,0,0,1-12.233-5.2a2.044,2.044,0,0,1,.841-1.678,3.464,3.464,0,0,1,2.2-.66,3.837,3.837,0,0,1,2.352.663,2.074,2.074,0,0,1,.889,1.743H-8.261q0-.889-.937-.889a.928.928,0,0,0-.608.2.624.624,0,0,0-.246.5.573.573,0,0,0,.3.5,2.842,2.842,0,0,0,.96.314A8.3,8.3,0,0,1-7.632-4.2,2.105,2.105,0,0,1-5.964-2.146,1.937,1.937,0,0,1-6.863-.5,3.942,3.942,0,0,1-9.191.137a4.023,4.023,0,0,1-1.7-.342,2.835,2.835,0,0,1-1.162-.93,2.105,2.105,0,0,1-.417-1.237h2.153a.89.89,0,0,0,.342.749,1.406,1.406,0,0,0,.841.236,1.106,1.106,0,0,0,.708-.191A.612.612,0,0,0-8.186-2.078Zm6.494-1.688a4.366,4.366,0,0,1,.431-1.972A3.08,3.08,0,0,1-.024-7.068,3.726,3.726,0,0,1,1.87-7.533,3.4,3.4,0,0,1,4.488-6.5a3.948,3.948,0,0,1,.957,2.8v.082a3.83,3.83,0,0,1-.96,2.745A3.41,3.41,0,0,1,1.883.137,3.449,3.449,0,0,1-.653-.81,3.7,3.7,0,0,1-1.685-3.377Zm2.3.144a2.752,2.752,0,0,0,.321,1.5,1.07,1.07,0,0,0,.95.479q1.23,0,1.258-1.894v-.232q0-1.989-1.271-1.989Q.714-5.756.619-4.04Zm12.715-.021a4.46,4.46,0,0,1-.776,2.751,2.488,2.488,0,0,1-2.1,1.029A2.132,2.132,0,0,1,8.781-.608V2.844h-2.3V-7.4H8.63l.068.684a2.132,2.132,0,0,1,1.743-.82,2.508,2.508,0,0,1,2.126,1.008,4.515,4.515,0,0,1,.759,2.772Zm-2.3-.144q0-1.969-1.148-1.969a1.084,1.084,0,0,0-1.094.588v2.912a1.119,1.119,0,0,0,1.107.615q1.1,0,1.135-1.9ZM17.92.137A3.8,3.8,0,0,1,15.166-.878a3.506,3.506,0,0,1-1.053-2.642v-.191a4.542,4.542,0,0,1,.42-2A3.076,3.076,0,0,1,15.76-7.058a3.7,3.7,0,0,1,1.914-.475,3.2,3.2,0,0,1,2.461.967,3.8,3.8,0,0,1,.9,2.7v.9h-4.58A1.66,1.66,0,0,0,17-2a1.607,1.607,0,0,0,1.08.355,2.07,2.07,0,0,0,1.709-.766l1.053,1.244a2.943,2.943,0,0,1-1.22.947A4.123,4.123,0,0,1,17.92.137Zm-.26-5.893q-1.012,0-1.2,1.34h2.324v-.178a1.141,1.141,0,0,0-.28-.858A1.115,1.115,0,0,0,17.661-5.756Zm8.777.444-.759-.055a1.363,1.363,0,0,0-1.395.684V0h-2.3V-7.4h2.16l.075.95a1.784,1.784,0,0,1,1.62-1.087,2.247,2.247,0,0,1,.643.082ZM31.23,0a2.6,2.6,0,0,1-.219-.663,2.142,2.142,0,0,1-1.777.8A2.624,2.624,0,0,1,27.457-.5a2.013,2.013,0,0,1-.731-1.589A2.069,2.069,0,0,1,27.614-3.9,4.527,4.527,0,0,1,30.2-4.519h.711V-4.91q0-1.023-.882-1.023a.721.721,0,0,0-.82.811H26.9a2.065,2.065,0,0,1,.913-1.741,3.835,3.835,0,0,1,2.328-.669,3.363,3.363,0,0,1,2.235.69,2.4,2.4,0,0,1,.841,1.894v3.274a3.353,3.353,0,0,0,.314,1.559V0ZM29.788-1.5a1.285,1.285,0,0,0,.714-.185,1.157,1.157,0,0,0,.407-.417V-3.288h-.67q-1.2,0-1.2,1.08a.659.659,0,0,0,.212.509A.767.767,0,0,0,29.788-1.5Zm7.39-7.731V-7.4h1.217v1.6H37.177v3.384a.864.864,0,0,0,.15.581.807.807,0,0,0,.595.164,3.38,3.38,0,0,0,.574-.041V-.062a4.252,4.252,0,0,1-1.3.2,2.413,2.413,0,0,1-1.757-.561,2.3,2.3,0,0,1-.567-1.7V-5.8H33.93V-7.4h.943V-9.235ZM41.73,0H39.419V-7.4H41.73ZM39.283-9.311a1.037,1.037,0,0,1,.355-.812,1.336,1.336,0,0,1,.923-.316,1.336,1.336,0,0,1,.923.316,1.037,1.037,0,0,1,.355.812,1.037,1.037,0,0,1-.355.812,1.336,1.336,0,0,1-.923.316,1.336,1.336,0,0,1-.923-.316A1.037,1.037,0,0,1,39.283-9.311ZM46.1-2.741,47.267-7.4h2.427L47.281,0H44.929L42.516-7.4H44.95Zm3.89-1.025a4.366,4.366,0,0,1,.431-1.972,3.08,3.08,0,0,1,1.237-1.33,3.726,3.726,0,0,1,1.894-.465A3.4,3.4,0,0,1,56.167-6.5a3.948,3.948,0,0,1,.957,2.8v.082a3.83,3.83,0,0,1-.96,2.745,3.41,3.41,0,0,1-2.6,1.015A3.449,3.449,0,0,1,51.027-.81a3.7,3.7,0,0,1-1.032-2.567Zm2.3.144a2.752,2.752,0,0,0,.321,1.5,1.07,1.07,0,0,0,.95.479q1.23,0,1.258-1.894v-.232q0-1.989-1.271-1.989-1.155,0-1.251,1.716Zm9.721,1.545A.532.532,0,0,0,61.7-2.55a4.679,4.679,0,0,0-1.169-.369,5.33,5.33,0,0,1-1.422-.5,2.382,2.382,0,0,1-.854-.755A1.8,1.8,0,0,1,57.965-5.2a2.044,2.044,0,0,1,.841-1.678,3.464,3.464,0,0,1,2.2-.66,3.837,3.837,0,0,1,2.352.663,2.074,2.074,0,0,1,.889,1.743H61.937q0-.889-.937-.889a.928.928,0,0,0-.608.2.624.624,0,0,0-.246.5.573.573,0,0,0,.3.5,2.842,2.842,0,0,0,.96.314,8.3,8.3,0,0,1,1.159.294,2.105,2.105,0,0,1,1.668,2.058,1.937,1.937,0,0,1-.9,1.647,3.942,3.942,0,0,1-2.328.636,4.023,4.023,0,0,1-1.7-.342,2.835,2.835,0,0,1-1.162-.93,2.105,2.105,0,0,1-.417-1.237h2.153a.89.89,0,0,0,.342.749,1.406,1.406,0,0,0,.841.236,1.106,1.106,0,0,0,.708-.191A.612.612,0,0,0,62.012-2.078ZM-53.9,14.953a10.447,10.447,0,0,1,.444-3.1A7.49,7.49,0,0,1-52.23,9.416a4.358,4.358,0,0,1,1.74-1.395l.438,1.135a4.457,4.457,0,0,0-1.48,2.2,10.719,10.719,0,0,0-.53,3.5v.3a10.928,10.928,0,0,0,.523,3.568,4.438,4.438,0,0,0,1.487,2.215l-.437,1.135a4.314,4.314,0,0,1-1.74-1.4,7.377,7.377,0,0,1-1.227-2.423,10.5,10.5,0,0,1-.444-2.994Zm7.9,2.406a1.025,1.025,0,0,0,.752-.263.965.965,0,0,0,.26-.735h2.16a2.557,2.557,0,0,1-.872,2,3.242,3.242,0,0,1-2.246.779,3.283,3.283,0,0,1-2.543-1.012,3.986,3.986,0,0,1-.93-2.8v-.1a4.505,4.505,0,0,1,.414-1.979,3.011,3.011,0,0,1,1.193-1.319,3.557,3.557,0,0,1,1.846-.461,3.2,3.2,0,0,1,2.29.8,2.837,2.837,0,0,1,.848,2.167h-2.16a1.265,1.265,0,0,0-.28-.882.967.967,0,0,0-.752-.308q-.9,0-1.046,1.142a8.055,8.055,0,0,0-.048,1,3.164,3.164,0,0,0,.267,1.545A.923.923,0,0,0-46.006,17.359ZM-37.693,19a2.6,2.6,0,0,1-.219-.663,2.142,2.142,0,0,1-1.777.8,2.624,2.624,0,0,1-1.777-.632,2.013,2.013,0,0,1-.731-1.589A2.069,2.069,0,0,1-41.31,15.1a4.527,4.527,0,0,1,2.584-.615h.711V14.09q0-1.023-.882-1.023a.721.721,0,0,0-.82.811h-2.3a2.065,2.065,0,0,1,.913-1.741,3.835,3.835,0,0,1,2.328-.669,3.363,3.363,0,0,1,2.235.69,2.4,2.4,0,0,1,.841,1.894v3.274a3.353,3.353,0,0,0,.314,1.559V19Zm-1.442-1.5a1.285,1.285,0,0,0,.714-.185,1.157,1.157,0,0,0,.407-.417V15.712h-.67q-1.2,0-1.2,1.08a.659.659,0,0,0,.212.509A.767.767,0,0,0-39.136,17.5Zm4.416-2.249a4.518,4.518,0,0,1,.759-2.769,2.5,2.5,0,0,1,2.119-1.012,2.124,2.124,0,0,1,1.668.779V8.5h2.311V19h-2.071l-.116-.793a2.181,2.181,0,0,1-1.8.93,2.493,2.493,0,0,1-2.092-1.012A4.662,4.662,0,0,1-34.72,15.247Zm2.3.144q0,1.969,1.148,1.969a1.134,1.134,0,0,0,1.094-.643V13.9a1.1,1.1,0,0,0-1.08-.656q-1.066,0-1.155,1.723Zm9.44,3.746a3.8,3.8,0,0,1-2.755-1.015,3.506,3.506,0,0,1-1.053-2.642v-.191a4.542,4.542,0,0,1,.42-2,3.076,3.076,0,0,1,1.227-1.343,3.7,3.7,0,0,1,1.914-.475,3.2,3.2,0,0,1,2.461.967,3.8,3.8,0,0,1,.9,2.7v.9h-4.58A1.66,1.66,0,0,0-23.9,17a1.607,1.607,0,0,0,1.08.355,2.07,2.07,0,0,0,1.709-.766l1.053,1.244a2.943,2.943,0,0,1-1.22.947A4.123,4.123,0,0,1-22.976,19.137Zm-.26-5.893q-1.012,0-1.2,1.34h2.324v-.178a1.141,1.141,0,0,0-.28-.858A1.115,1.115,0,0,0-23.235,13.244Zm6.419-1.641.075.868a2.508,2.508,0,0,1,2.112-1,2.11,2.11,0,0,1,1.726.69,3.287,3.287,0,0,1,.591,2.078V19h-2.311V14.331a1.248,1.248,0,0,0-.226-.824,1.044,1.044,0,0,0-.82-.263,1.1,1.1,0,0,0-1,.533V19h-2.3V11.6ZM-6.87,19a2.6,2.6,0,0,1-.219-.663,2.142,2.142,0,0,1-1.777.8,2.624,2.624,0,0,1-1.777-.632,2.013,2.013,0,0,1-.731-1.589,2.069,2.069,0,0,1,.889-1.818A4.527,4.527,0,0,1-7.9,14.481h.711V14.09q0-1.023-.882-1.023a.721.721,0,0,0-.82.811h-2.3a2.065,2.065,0,0,1,.913-1.741,3.835,3.835,0,0,1,2.328-.669,3.363,3.363,0,0,1,2.235.69,2.4,2.4,0,0,1,.841,1.894v3.274a3.353,3.353,0,0,0,.314,1.559V19Zm-1.442-1.5a1.285,1.285,0,0,0,.714-.185,1.157,1.157,0,0,0,.407-.417V15.712h-.67q-1.2,0-1.2,1.08a.659.659,0,0,0,.212.509A.767.767,0,0,0-8.312,17.5Zm7.9-2.249a4.518,4.518,0,0,1,.759-2.769,2.5,2.5,0,0,1,2.119-1.012,2.124,2.124,0,0,1,1.668.779V8.5H6.446V19H4.375l-.116-.793a2.181,2.181,0,0,1-1.8.93A2.493,2.493,0,0,1,.362,18.125,4.661,4.661,0,0,1-.41,15.247Zm2.3.144q0,1.969,1.148,1.969a1.134,1.134,0,0,0,1.094-.643V13.9a1.1,1.1,0,0,0-1.08-.656q-1.066,0-1.155,1.723Zm9.44,3.746a3.8,3.8,0,0,1-2.755-1.015,3.506,3.506,0,0,1-1.053-2.642v-.191a4.542,4.542,0,0,1,.42-2,3.076,3.076,0,0,1,1.227-1.343,3.7,3.7,0,0,1,1.914-.475,3.2,3.2,0,0,1,2.461.967,3.8,3.8,0,0,1,.9,2.7v.9H9.871a1.66,1.66,0,0,0,.54.978,1.607,1.607,0,0,0,1.08.355,2.07,2.07,0,0,0,1.709-.766l1.053,1.244a2.943,2.943,0,0,1-1.22.947A4.123,4.123,0,0,1,11.334,19.137Zm-.26-5.893q-1.012,0-1.2,1.34H12.2v-.178a1.141,1.141,0,0,0-.28-.858A1.115,1.115,0,0,0,11.074,13.244Zm10.739,3.015L22.982,11.6h2.427L23,19H20.645l-2.413-7.4h2.434ZM30.16,19a2.6,2.6,0,0,1-.219-.663,2.142,2.142,0,0,1-1.777.8,2.624,2.624,0,0,1-1.777-.632,2.013,2.013,0,0,1-.731-1.589,2.069,2.069,0,0,1,.889-1.818,4.527,4.527,0,0,1,2.584-.615h.711V14.09q0-1.023-.882-1.023a.721.721,0,0,0-.82.811h-2.3a2.065,2.065,0,0,1,.913-1.741,3.835,3.835,0,0,1,2.328-.669,3.363,3.363,0,0,1,2.235.69,2.4,2.4,0,0,1,.841,1.894v3.274a3.353,3.353,0,0,0,.314,1.559V19Zm-1.442-1.5a1.285,1.285,0,0,0,.714-.185,1.157,1.157,0,0,0,.407-.417V15.712h-.67q-1.2,0-1.2,1.08a.659.659,0,0,0,.212.509A.767.767,0,0,0,28.718,17.5ZM35.854,19H33.544V8.5h2.311Zm1.128-3.767a4.366,4.366,0,0,1,.431-1.972,3.08,3.08,0,0,1,1.237-1.33,3.726,3.726,0,0,1,1.894-.465A3.4,3.4,0,0,1,43.162,12.5a3.948,3.948,0,0,1,.957,2.8v.082a3.83,3.83,0,0,1-.96,2.745,3.41,3.41,0,0,1-2.6,1.015,3.449,3.449,0,0,1-2.536-.947,3.7,3.7,0,0,1-1.032-2.567Zm2.3.144a2.752,2.752,0,0,0,.321,1.5,1.07,1.07,0,0,0,.95.479q1.23,0,1.258-1.894v-.232q0-1.989-1.271-1.989-1.155,0-1.251,1.716Zm10.322-1.688-.759-.055a1.363,1.363,0,0,0-1.395.684V19h-2.3V11.6h2.16l.075.95a1.784,1.784,0,0,1,1.62-1.087,2.247,2.247,0,0,1,.643.082Zm4.464,1.456a9.747,9.747,0,0,1-.472,3.049,7.784,7.784,0,0,1-1.3,2.478,4.335,4.335,0,0,1-1.794,1.4l-.437-1.135a4.5,4.5,0,0,0,1.47-2.187,10.56,10.56,0,0,0,.54-3.4v-.417a10.928,10.928,0,0,0-.523-3.568,4.438,4.438,0,0,0-1.487-2.215L50.5,8.021a4.415,4.415,0,0,1,1.781,1.391,7.689,7.689,0,0,1,1.3,2.44,9.665,9.665,0,0,1,.489,2.991Z" transform="translate(1010 1061)" fill="#12263f"/>
    <path id="Trazado_148267" data-name="Trazado 148267" d="M0,0H82" transform="translate(752.5 1040.5)" fill="none" stroke="#12263f" stroke-width="2" stroke-dasharray="2"/>
    <path id="Trazado_148268" data-name="Trazado 148268" d="M0,0H82" transform="translate(752.5 1215.5)" fill="none" stroke="#12263f" stroke-width="2" stroke-dasharray="2"/>
    <path id="Trazado_148269" data-name="Trazado 148269" d="M0,0H74.5" transform="translate(1194 1040.5)" fill="none" stroke="#12263f" stroke-width="2" stroke-dasharray="2"/>
    <path id="Trazado_148270" data-name="Trazado 148270" d="M0,0H74.5" transform="translate(1194 1215.5)" fill="none" stroke="#12263f" stroke-width="2" stroke-dasharray="2"/>
    <path id="Trazado_148271" data-name="Trazado 148271" d="M0,0H168.5" transform="translate(842 1040.5)" fill="none" stroke="#12263f" stroke-width="2" stroke-dasharray="2"/>
    <path id="Trazado_148272" data-name="Trazado 148272" d="M0,0H168.5" transform="translate(842 1215.5)" fill="none" stroke="#12263f" stroke-width="2" stroke-dasharray="2"/>
    <path id="Trazado_148273" data-name="Trazado 148273" d="M0,0H166" transform="translate(1020.5 1040.5)" fill="none" stroke="#12263f" stroke-width="2" stroke-dasharray="2"/>
    <path id="Trazado_148274" data-name="Trazado 148274" d="M0,0H166" transform="translate(1020.5 1215.5)" fill="none" stroke="#12263f" stroke-width="2" stroke-dasharray="2"/>
  </g>
</svg>
