<svg xmlns="http://www.w3.org/2000/svg" width="820" height="456" viewBox="0 0 820 456">
  <g id="Grupo_76149" data-name="Grupo 76149" transform="translate(-600 -9245.576)">
    <rect id="Rectángulo_32637" data-name="Rectángulo 32637" width="820" height="456" transform="translate(600 9245.576)" fill="#f6f6f6"/>
    <circle id="Elipse_4629" data-name="Elipse 4629" cx="40" cy="40" r="40" transform="translate(780.594 9335.576)" fill="#c7eafa"/>
    <circle id="Elipse_4630" data-name="Elipse 4630" cx="40" cy="40" r="40" transform="translate(679.594 9415.576)" fill="#c7eafa"/>
    <circle id="Elipse_4633" data-name="Elipse 4633" cx="40" cy="40" r="40" transform="translate(719.594 9546.576)" fill="#c7eafa"/>
    <circle id="Elipse_4631" data-name="Elipse 4631" cx="40" cy="40" r="40" transform="translate(904.594 9415.576)" fill="#c7eafa"/>
    <circle id="Elipse_4632" data-name="Elipse 4632" cx="40" cy="40" r="40" transform="translate(869.594 9546.576)" fill="#c7eafa"/>
    <g id="Elipse_4639" data-name="Elipse 4639" transform="translate(1077.594 9364.576)" fill="none" stroke="#afafaf" stroke-width="1">
      <circle cx="116" cy="116" r="116" stroke="none"/>
      <circle cx="116" cy="116" r="115.5" fill="none"/>
    </g>
    <line id="Línea_222" data-name="Línea 222" y1="33" transform="translate(1194.094 9411.076)" fill="none" stroke="#afafaf" stroke-width="1"/>
    <line id="Línea_223" data-name="Línea 223" x1="37" y1="11" transform="translate(1118.094 9461.076)" fill="none" stroke="#afafaf" stroke-width="1"/>
    <line id="Línea_224" data-name="Línea 224" x1="31" y2="27" transform="translate(1137.094 9516.076)" fill="none" stroke="#afafaf" stroke-width="1"/>
    <line id="Línea_225" data-name="Línea 225" x2="32" y2="24" transform="translate(1216.094 9519.076)" fill="none" stroke="#afafaf" stroke-width="1"/>
    <line id="Línea_226" data-name="Línea 226" y1="21" x2="38" transform="translate(1235.094 9451.076)" fill="none" stroke="#afafaf" stroke-width="1"/>
    <circle id="Elipse_4638" data-name="Elipse 4638" cx="40" cy="40" r="40" transform="translate(1154.594 9334.576)" fill="#e4dff7"/>
    <circle id="Elipse_4634" data-name="Elipse 4634" cx="40" cy="40" r="40" transform="translate(1047.594 9410.576)" fill="#e4dff7"/>
    <circle id="Elipse_4635" data-name="Elipse 4635" cx="40" cy="40" r="40" transform="translate(1087.594 9529.576)" fill="#e4dff7"/>
    <circle id="Elipse_4637" data-name="Elipse 4637" cx="40" cy="40" r="40" transform="translate(1259.594 9410.576)" fill="#e4dff7"/>
    <circle id="Elipse_4636" data-name="Elipse 4636" cx="40" cy="40" r="40" transform="translate(1223.594 9529.576)" fill="#e4dff7"/>
    <circle id="Elipse_4640" data-name="Elipse 4640" cx="51" cy="51" r="51" transform="translate(1145.594 9432.576)" fill="#e4dff7"/>
    <path id="Trazado_148366" data-name="Trazado 148366" d="M34.983,40H28.052V17.934l-6.809,1.989v-5.25l13.1-4.532h.636Z" transform="translate(1163.594 9347.576)" fill="#12263f"/>
    <path id="Trazado_148360" data-name="Trazado 148360" d="M34.983,40H28.052V17.934l-6.809,1.989v-5.25l13.1-4.532h.636Z" transform="translate(790.594 9347.576)" fill="#12263f"/>
    <path id="Trazado_148364" data-name="Trazado 148364" d="M40.5,40H19.664V35.488l9.6-10.09q3.548-4.04,3.548-6.419a4.465,4.465,0,0,0-.841-2.933,3,3,0,0,0-2.44-1,3.04,3.04,0,0,0-2.563,1.343,5.52,5.52,0,0,0-.984,3.353H19.049a9.806,9.806,0,0,1,1.374-5.076,9.635,9.635,0,0,1,3.814-3.64A11.331,11.331,0,0,1,29.692,9.71q4.84,0,7.455,2.235a7.98,7.98,0,0,1,2.615,6.419,9.321,9.321,0,0,1-.656,3.435,15.064,15.064,0,0,1-2.041,3.507,51.4,51.4,0,0,1-4.46,4.912l-3.855,4.45H40.5Z" transform="translate(916.594 9425.576)" fill="#12263f"/>
    <path id="Trazado_148363" data-name="Trazado 148363" d="M25.98,22.179h3.261q3.876,0,3.876-3.794a3.281,3.281,0,0,0-.923-2.41,3.5,3.5,0,0,0-2.6-.933,3.746,3.746,0,0,0-2.389.8,2.44,2.44,0,0,0-1.015,1.989H19.274a7.075,7.075,0,0,1,1.313-4.2,8.667,8.667,0,0,1,3.64-2.881A12.446,12.446,0,0,1,29.344,9.71q4.983,0,7.834,2.276a7.567,7.567,0,0,1,2.851,6.255,6.307,6.307,0,0,1-1.179,3.64,8.4,8.4,0,0,1-3.435,2.779,8.028,8.028,0,0,1,3.732,2.615A6.886,6.886,0,0,1,40.5,31.612a7.7,7.7,0,0,1-3.076,6.4,12.769,12.769,0,0,1-8.08,2.4A13.242,13.242,0,0,1,23.9,39.292a8.531,8.531,0,0,1-3.8-3.1,8.051,8.051,0,0,1-1.292-4.5h6.952a3.112,3.112,0,0,0,1.107,2.379,3.91,3.91,0,0,0,2.728,1A4.1,4.1,0,0,0,32.5,34.063a3.393,3.393,0,0,0,1.087-2.594,3.967,3.967,0,0,0-1.128-3.2,4.715,4.715,0,0,0-3.117-.943H25.98Z" transform="translate(879.594 9554.576)" fill="#12263f"/>
    <path id="Trazado_148362" data-name="Trazado 148362" d="M37.916,28.331h3.035v5.332H37.916V40H31V33.663H19.459l-.41-4.225L31,10.2v-.062h6.911Zm-12.284,0H31V19.144l-.431.7Z" transform="translate(729.594 9559.576)" fill="#12263f"/>
    <path id="Trazado_148361" data-name="Trazado 148361" d="M20.074,25.414,21.9,10.141H39.352v5.332H27.519l-.677,5.973a8.151,8.151,0,0,1,1.938-.762,8.842,8.842,0,0,1,2.348-.33,8.76,8.76,0,0,1,6.839,2.635q2.389,2.635,2.389,7.393a10.6,10.6,0,0,1-1.282,5.2,8.81,8.81,0,0,1-3.6,3.579A11.363,11.363,0,0,1,30,40.41a12.227,12.227,0,0,1-5.271-1.158,9.455,9.455,0,0,1-3.855-3.176A7.718,7.718,0,0,1,19.5,31.517h6.932a3.92,3.92,0,0,0,1.046,2.6,3.32,3.32,0,0,0,2.481.962q3.486,0,3.486-5.157,0-4.768-4.266-4.768a4.256,4.256,0,0,0-3.609,1.555Z" transform="translate(689.594 9425.576)" fill="#12263f"/>
    <path id="Trazado_148370" data-name="Trazado 148370" d="M40.5,40H19.664V35.488l9.6-10.09q3.548-4.04,3.548-6.419a4.465,4.465,0,0,0-.841-2.933,3,3,0,0,0-2.44-1,3.04,3.04,0,0,0-2.563,1.343,5.52,5.52,0,0,0-.984,3.353H19.049a9.806,9.806,0,0,1,1.374-5.076,9.635,9.635,0,0,1,3.814-3.64A11.331,11.331,0,0,1,29.692,9.71q4.84,0,7.455,2.235a7.98,7.98,0,0,1,2.615,6.419,9.321,9.321,0,0,1-.656,3.435,15.064,15.064,0,0,1-2.041,3.507,51.4,51.4,0,0,1-4.46,4.912l-3.855,4.45H40.5Z" transform="translate(1269.594 9423.576)" fill="#12263f"/>
    <path id="Trazado_148369" data-name="Trazado 148369" d="M37.916,28.331h3.035v5.332H37.916V40H31V33.663H19.459l-.41-4.225L31,10.2v-.062h6.911Zm-12.284,0H31V19.144l-.431.7Z" transform="translate(1233.594 9542.576)" fill="#12263f"/>
    <path id="Trazado_148368" data-name="Trazado 148368" d="M20.074,25.414,21.9,10.141H39.352v5.332H27.519l-.677,5.973a8.151,8.151,0,0,1,1.938-.762,8.842,8.842,0,0,1,2.348-.33,8.76,8.76,0,0,1,6.839,2.635q2.389,2.635,2.389,7.393a10.6,10.6,0,0,1-1.282,5.2,8.81,8.81,0,0,1-3.6,3.579A11.363,11.363,0,0,1,30,40.41a12.227,12.227,0,0,1-5.271-1.158,9.455,9.455,0,0,1-3.855-3.176A7.718,7.718,0,0,1,19.5,31.517h6.932a3.92,3.92,0,0,0,1.046,2.6,3.32,3.32,0,0,0,2.481.962q3.486,0,3.486-5.157,0-4.768-4.266-4.768a4.256,4.256,0,0,0-3.609,1.555Z" transform="translate(1094.594 9542.576)" fill="#12263f"/>
    <path id="Trazado_148365" data-name="Trazado 148365" d="M25.98,22.179h3.261q3.876,0,3.876-3.794a3.281,3.281,0,0,0-.923-2.41,3.5,3.5,0,0,0-2.6-.933,3.746,3.746,0,0,0-2.389.8,2.44,2.44,0,0,0-1.015,1.989H19.274a7.075,7.075,0,0,1,1.313-4.2,8.667,8.667,0,0,1,3.64-2.881A12.446,12.446,0,0,1,29.344,9.71q4.983,0,7.834,2.276a7.567,7.567,0,0,1,2.851,6.255,6.307,6.307,0,0,1-1.179,3.64,8.4,8.4,0,0,1-3.435,2.779,8.028,8.028,0,0,1,3.732,2.615A6.886,6.886,0,0,1,40.5,31.612a7.7,7.7,0,0,1-3.076,6.4,12.769,12.769,0,0,1-8.08,2.4A13.242,13.242,0,0,1,23.9,39.292a8.531,8.531,0,0,1-3.8-3.1,8.051,8.051,0,0,1-1.292-4.5h6.952a3.112,3.112,0,0,0,1.107,2.379,3.91,3.91,0,0,0,2.728,1A4.1,4.1,0,0,0,32.5,34.063a3.393,3.393,0,0,0,1.087-2.594,3.967,3.967,0,0,0-1.128-3.2,4.715,4.715,0,0,0-3.117-.943H25.98Z" transform="translate(1057.594 9423.576)" fill="#12263f"/>
    <path id="Trazado_148367" data-name="Trazado 148367" d="M36.357,9.71v5.435H36.05A10.376,10.376,0,0,0,29.682,17a7.836,7.836,0,0,0-3.066,5.158,8.082,8.082,0,0,1,5.906-2.3,7.538,7.538,0,0,1,6.173,2.83,11.415,11.415,0,0,1,2.3,7.424,10.453,10.453,0,0,1-1.343,5.229A9.585,9.585,0,0,1,35.9,39.067a10.784,10.784,0,0,1-5.342,1.343,11.145,11.145,0,0,1-5.681-1.446,9.94,9.94,0,0,1-3.9-4.132,13.607,13.607,0,0,1-1.436-6.193V25.87a17.237,17.237,0,0,1,1.979-8.3A14.347,14.347,0,0,1,27.17,11.8,16.153,16.153,0,0,1,35.312,9.71ZM30.123,25.193a3.966,3.966,0,0,0-2.3.633,4.025,4.025,0,0,0-1.374,1.552v2.063q0,5.637,3.917,5.637A3.181,3.181,0,0,0,33,33.669a5.727,5.727,0,0,0,1.056-3.533,5.621,5.621,0,0,0-1.077-3.564A3.449,3.449,0,0,0,30.123,25.193Z" transform="translate(1167.594 9456.576)" fill="#12263f"/>
    <g id="Grupo_76064" data-name="Grupo 76064" transform="translate(1352.952 7497.882) rotate(30)">
      <line id="Línea_159" data-name="Línea 159" x2="35.23" transform="translate(531.5 1888.074)" fill="none" stroke="#84d4f8" stroke-width="3"/>
      <path id="Polígono_39" data-name="Polígono 39" d="M6.074,0l6.074,12.148H0Z" transform="translate(574.627 1882) rotate(90)" fill="#81d4fa"/>
    </g>
    <g id="Grupo_76065" data-name="Grupo 76065" transform="matrix(-0.438, 0.899, -0.899, -0.438, 2865.344, 9853.121)">
      <line id="Línea_159-2" data-name="Línea 159" x2="35.23" transform="translate(531.5 1888.074)" fill="none" stroke="#84d4f8" stroke-width="3"/>
      <path id="Polígono_39-2" data-name="Polígono 39" d="M6.074,0l6.074,12.148H0Z" transform="translate(574.627 1882) rotate(90)" fill="#81d4fa"/>
    </g>
    <g id="Grupo_76066" data-name="Grupo 76066" transform="translate(1388.57 11469.694) rotate(-180)">
      <line id="Línea_159-3" data-name="Línea 159" x2="35.23" transform="translate(531.5 1888.074)" fill="none" stroke="#84d4f8" stroke-width="3"/>
      <path id="Polígono_39-3" data-name="Polígono 39" d="M6.074,0l6.074,12.148H0Z" transform="translate(574.627 1882) rotate(90)" fill="#81d4fa"/>
    </g>
    <g id="Grupo_76067" data-name="Grupo 76067" transform="matrix(-0.454, -0.891, 0.891, -0.454, -701.607, 10872.412)">
      <line id="Línea_159-4" data-name="Línea 159" x2="35.23" transform="translate(531.5 1888.074)" fill="none" stroke="#84d4f8" stroke-width="3"/>
      <path id="Polígono_39-4" data-name="Polígono 39" d="M6.074,0l6.074,12.148H0Z" transform="translate(574.627 1882) rotate(90)" fill="#81d4fa"/>
    </g>
    <g id="Grupo_76068" data-name="Grupo 76068" transform="translate(-895.756 8342.596) rotate(-41)">
      <line id="Línea_159-5" data-name="Línea 159" x2="35.23" transform="translate(531.5 1888.074)" fill="none" stroke="#84d4f8" stroke-width="3"/>
      <path id="Polígono_39-5" data-name="Polígono 39" d="M6.074,0l6.074,12.148H0Z" transform="translate(574.627 1882) rotate(90)" fill="#81d4fa"/>
    </g>
  </g>
</svg>
