<svg xmlns="http://www.w3.org/2000/svg" width="644" height="335" viewBox="0 0 644 335">
  <g id="Grupo_74152" data-name="Grupo 74152" transform="translate(3372 6323)">
    <rect id="Rectángulo_32744" data-name="Rectángulo 32744" width="149" height="66" rx="13" transform="translate(-3372 -6217)" fill="#81d4fa"/>
    <rect id="Rectángulo_32745" data-name="Rectángulo 32745" width="149" height="66" rx="13" transform="translate(-3372 -6132)" fill="#81d4fa"/>
    <rect id="Rectángulo_32746" data-name="Rectángulo 32746" width="149" height="66" rx="13" transform="translate(-3372 -6054)" fill="#81d4fa"/>
    <path id="Trazado_148325" data-name="Trazado 148325" d="M5.771,13V3.047h2.81a4.523,4.523,0,0,1,2.3.574,3.884,3.884,0,0,1,1.542,1.634,5.318,5.318,0,0,1,.55,2.434v.636a5.336,5.336,0,0,1-.543,2.468,3.823,3.823,0,0,1-1.552,1.627A4.811,4.811,0,0,1,8.526,13ZM7.083,4.12v7.807H8.464a3,3,0,0,0,2.362-.944,3.9,3.9,0,0,0,.844-2.689V7.712a3.963,3.963,0,0,0-.8-2.637A2.834,2.834,0,0,0,8.615,4.12ZM16.127,13H14.863V5.6h1.265ZM14.76,3.642a.755.755,0,0,1,.188-.52.706.706,0,0,1,.557-.212.717.717,0,0,1,.561.212.747.747,0,0,1,.191.52.722.722,0,0,1-.191.513.73.73,0,0,1-.561.205.718.718,0,0,1-.557-.205A.73.73,0,0,1,14.76,3.642Zm6.966,3.1A3.79,3.79,0,0,0,21.1,6.69a1.667,1.667,0,0,0-1.688,1.06V13H18.151V5.6h1.23l.021.854a1.969,1.969,0,0,1,1.764-.991,1.292,1.292,0,0,1,.561.1Zm4.1,6.4a3.232,3.232,0,0,1-2.447-.988,3.666,3.666,0,0,1-.943-2.642V9.274a4.438,4.438,0,0,1,.42-1.965,3.28,3.28,0,0,1,1.176-1.354,2.956,2.956,0,0,1,1.637-.489,2.77,2.77,0,0,1,2.242.95,4.114,4.114,0,0,1,.8,2.721v.526H23.7a2.629,2.629,0,0,0,.639,1.767A2.009,2.009,0,0,0,25.9,12.1a2.2,2.2,0,0,0,1.135-.273,2.851,2.851,0,0,0,.813-.725l.772.6A3.106,3.106,0,0,1,25.828,13.137ZM25.67,6.506a1.687,1.687,0,0,0-1.285.557,2.708,2.708,0,0,0-.643,1.562h3.705v-.1a2.409,2.409,0,0,0-.52-1.494A1.588,1.588,0,0,0,25.67,6.506Zm7.472,5.6a1.822,1.822,0,0,0,1.183-.41,1.443,1.443,0,0,0,.561-1.025h1.2a2.293,2.293,0,0,1-.437,1.21,2.881,2.881,0,0,1-1.077.916,3.107,3.107,0,0,1-1.425.342,3.047,3.047,0,0,1-2.4-1.008,4.016,4.016,0,0,1-.892-2.758V9.158a4.453,4.453,0,0,1,.4-1.921,3.02,3.02,0,0,1,1.138-1.306,3.233,3.233,0,0,1,1.753-.465,2.966,2.966,0,0,1,2.068.745,2.663,2.663,0,0,1,.878,1.935h-1.2a1.743,1.743,0,0,0-.543-1.179,1.691,1.691,0,0,0-1.207-.461,1.77,1.77,0,0,0-1.494.694,3.259,3.259,0,0,0-.53,2.006v.239a3.194,3.194,0,0,0,.526,1.969A1.779,1.779,0,0,0,33.142,12.1Zm6.077-8.292V5.6H40.6v.978H39.219v4.593a1.027,1.027,0,0,0,.185.667.777.777,0,0,0,.629.222,3.062,3.062,0,0,0,.6-.082V13a3.688,3.688,0,0,1-.971.136,1.575,1.575,0,0,1-1.278-.513,2.2,2.2,0,0,1-.431-1.456V6.581H36.608V5.6h1.347V3.813ZM41.6,9.233a4.369,4.369,0,0,1,.427-1.955,3.187,3.187,0,0,1,1.189-1.34,3.238,3.238,0,0,1,1.74-.472,3.119,3.119,0,0,1,2.444,1.046,4.024,4.024,0,0,1,.933,2.782v.089a4.407,4.407,0,0,1-.414,1.938,3.14,3.14,0,0,1-1.183,1.336,3.275,3.275,0,0,1-1.767.479,3.111,3.111,0,0,1-2.437-1.046A4,4,0,0,1,41.6,9.322Zm1.271.15a3.164,3.164,0,0,0,.571,1.976,1.934,1.934,0,0,0,3.059-.01,3.46,3.46,0,0,0,.567-2.116A3.159,3.159,0,0,0,46.5,7.261a1.836,1.836,0,0,0-1.535-.755,1.816,1.816,0,0,0-1.511.745A3.435,3.435,0,0,0,42.876,9.384ZM53.5,6.738a3.79,3.79,0,0,0-.622-.048,1.667,1.667,0,0,0-1.688,1.06V13H49.924V5.6h1.23l.021.854a1.969,1.969,0,0,1,1.764-.991,1.292,1.292,0,0,1,.561.1Zm4.32,2.5A4.333,4.333,0,0,1,58.626,6.5a2.745,2.745,0,0,1,4.17-.147V2.5h1.265V13H62.9l-.062-.793a2.575,2.575,0,0,1-2.112.93,2.526,2.526,0,0,1-2.1-1.053,4.382,4.382,0,0,1-.81-2.748Zm1.265.144a3.281,3.281,0,0,0,.52,1.969,1.68,1.68,0,0,0,1.436.711,1.845,1.845,0,0,0,1.757-1.08v-3.4A1.859,1.859,0,0,0,61.053,6.54a1.687,1.687,0,0,0-1.449.718A3.612,3.612,0,0,0,59.084,9.384Zm10.008,3.753a3.232,3.232,0,0,1-2.447-.988A3.666,3.666,0,0,1,65.7,9.507V9.274a4.438,4.438,0,0,1,.42-1.965A3.28,3.28,0,0,1,67.3,5.956a2.956,2.956,0,0,1,1.637-.489,2.77,2.77,0,0,1,2.242.95,4.114,4.114,0,0,1,.8,2.721v.526H66.966a2.629,2.629,0,0,0,.639,1.767,2.009,2.009,0,0,0,1.555.673,2.2,2.2,0,0,0,1.135-.273,2.851,2.851,0,0,0,.813-.725l.772.6A3.106,3.106,0,0,1,69.092,13.137Zm-.157-6.631a1.687,1.687,0,0,0-1.285.557,2.708,2.708,0,0,0-.643,1.562h3.705v-.1a2.409,2.409,0,0,0-.52-1.494A1.588,1.588,0,0,0,68.935,6.506ZM74.814,13H73.549V2.5h1.265ZM86.551,9.384a4.429,4.429,0,0,1-.772,2.721,2.476,2.476,0,0,1-2.092,1.032,2.713,2.713,0,0,1-2.119-.854v3.562H80.3V5.6h1.155l.062.82a2.605,2.605,0,0,1,2.146-.957,2.522,2.522,0,0,1,2.109,1,4.477,4.477,0,0,1,.776,2.8ZM85.287,9.24a3.268,3.268,0,0,0-.533-1.976,1.718,1.718,0,0,0-1.463-.725,1.859,1.859,0,0,0-1.723,1.019v3.534A1.863,1.863,0,0,0,83.3,12.1a1.71,1.71,0,0,0,1.446-.721A3.567,3.567,0,0,0,85.287,9.24Zm6.446-2.5a3.79,3.79,0,0,0-.622-.048,1.667,1.667,0,0,0-1.688,1.06V13H88.158V5.6h1.23l.021.854a1.969,1.969,0,0,1,1.764-.991,1.292,1.292,0,0,1,.561.1Zm.69,2.5a4.369,4.369,0,0,1,.427-1.955,3.187,3.187,0,0,1,1.189-1.34,3.238,3.238,0,0,1,1.74-.472,3.119,3.119,0,0,1,2.444,1.046,4.024,4.024,0,0,1,.933,2.782v.089a4.407,4.407,0,0,1-.414,1.938,3.14,3.14,0,0,1-1.183,1.336,3.275,3.275,0,0,1-1.767.479,3.111,3.111,0,0,1-2.437-1.046,4,4,0,0,1-.933-2.769Zm1.271.15a3.164,3.164,0,0,0,.571,1.976,1.934,1.934,0,0,0,3.059-.01,3.46,3.46,0,0,0,.567-2.116,3.159,3.159,0,0,0-.578-1.972,1.836,1.836,0,0,0-1.535-.755,1.816,1.816,0,0,0-1.511.745A3.435,3.435,0,0,0,93.695,9.384Zm9.365,1.764L104.783,5.6h1.354l-2.974,8.538q-.69,1.846-2.194,1.846l-.239-.021-.472-.089V14.853l.342.027a1.683,1.683,0,0,0,1-.26,1.88,1.88,0,0,0,.591-.95l.28-.752L99.833,5.6h1.381Zm7.185,1.989a3.232,3.232,0,0,1-2.447-.988,3.666,3.666,0,0,1-.943-2.642V9.274a4.438,4.438,0,0,1,.42-1.965,3.28,3.28,0,0,1,1.176-1.354,2.956,2.956,0,0,1,1.637-.489,2.77,2.77,0,0,1,2.242.95,4.114,4.114,0,0,1,.8,2.721v.526h-5.011a2.629,2.629,0,0,0,.639,1.767,2.009,2.009,0,0,0,1.555.673,2.2,2.2,0,0,0,1.135-.273,2.851,2.851,0,0,0,.813-.725l.772.6A3.106,3.106,0,0,1,110.245,13.137Zm-.157-6.631a1.687,1.687,0,0,0-1.285.557,2.708,2.708,0,0,0-.643,1.562h3.705v-.1a2.409,2.409,0,0,0-.52-1.494A1.588,1.588,0,0,0,110.087,6.506Zm7.472,5.6a1.822,1.822,0,0,0,1.183-.41,1.443,1.443,0,0,0,.561-1.025h1.2a2.293,2.293,0,0,1-.437,1.21,2.882,2.882,0,0,1-1.077.916,3.107,3.107,0,0,1-1.425.342,3.047,3.047,0,0,1-2.4-1.008,4.016,4.016,0,0,1-.892-2.758V9.158a4.453,4.453,0,0,1,.4-1.921A3.02,3.02,0,0,1,115.8,5.932a3.233,3.233,0,0,1,1.753-.465,2.966,2.966,0,0,1,2.068.745,2.663,2.663,0,0,1,.878,1.935h-1.2a1.743,1.743,0,0,0-.543-1.179,1.691,1.691,0,0,0-1.207-.461,1.77,1.77,0,0,0-1.494.694,3.259,3.259,0,0,0-.53,2.006v.239a3.194,3.194,0,0,0,.526,1.969A1.779,1.779,0,0,0,117.559,12.1Zm6.077-8.292V5.6h1.381v.978h-1.381v4.593a1.027,1.027,0,0,0,.185.667.777.777,0,0,0,.629.222,3.062,3.062,0,0,0,.6-.082V13a3.688,3.688,0,0,1-.971.136,1.575,1.575,0,0,1-1.278-.513,2.2,2.2,0,0,1-.431-1.456V6.581h-1.347V5.6h1.347V3.813Zm2.386,5.421a4.369,4.369,0,0,1,.427-1.955,3.187,3.187,0,0,1,1.189-1.34,3.238,3.238,0,0,1,1.74-.472,3.119,3.119,0,0,1,2.444,1.046,4.024,4.024,0,0,1,.933,2.782v.089a4.407,4.407,0,0,1-.414,1.938,3.14,3.14,0,0,1-1.183,1.336,3.275,3.275,0,0,1-1.767.479,3.111,3.111,0,0,1-2.437-1.046,4,4,0,0,1-.933-2.769Zm1.271.15a3.164,3.164,0,0,0,.571,1.976,1.934,1.934,0,0,0,3.059-.01,3.46,3.46,0,0,0,.567-2.116,3.159,3.159,0,0,0-.578-1.972,1.836,1.836,0,0,0-1.535-.755,1.816,1.816,0,0,0-1.511.745A3.435,3.435,0,0,0,127.293,9.384ZM71.085,34.4h-4.17L65.979,37H64.625l3.8-9.953h1.148L73.382,37H72.035Zm-3.773-1.073H70.7L69,28.667Z" transform="translate(-3366 -6206)" fill="#12263f"/>
    <path id="Trazado_148327" data-name="Trazado 148327" d="M5.771,13V3.047h2.81a4.523,4.523,0,0,1,2.3.574,3.884,3.884,0,0,1,1.542,1.634,5.318,5.318,0,0,1,.55,2.434v.636a5.336,5.336,0,0,1-.543,2.468,3.823,3.823,0,0,1-1.552,1.627A4.811,4.811,0,0,1,8.526,13ZM7.083,4.12v7.807H8.464a3,3,0,0,0,2.362-.944,3.9,3.9,0,0,0,.844-2.689V7.712a3.963,3.963,0,0,0-.8-2.637A2.834,2.834,0,0,0,8.615,4.12ZM16.127,13H14.863V5.6h1.265ZM14.76,3.642a.755.755,0,0,1,.188-.52.706.706,0,0,1,.557-.212.717.717,0,0,1,.561.212.747.747,0,0,1,.191.52.722.722,0,0,1-.191.513.73.73,0,0,1-.561.205.718.718,0,0,1-.557-.205A.73.73,0,0,1,14.76,3.642Zm6.966,3.1A3.79,3.79,0,0,0,21.1,6.69a1.667,1.667,0,0,0-1.688,1.06V13H18.151V5.6h1.23l.021.854a1.969,1.969,0,0,1,1.764-.991,1.292,1.292,0,0,1,.561.1Zm4.1,6.4a3.232,3.232,0,0,1-2.447-.988,3.666,3.666,0,0,1-.943-2.642V9.274a4.438,4.438,0,0,1,.42-1.965,3.28,3.28,0,0,1,1.176-1.354,2.956,2.956,0,0,1,1.637-.489,2.77,2.77,0,0,1,2.242.95,4.114,4.114,0,0,1,.8,2.721v.526H23.7a2.629,2.629,0,0,0,.639,1.767A2.009,2.009,0,0,0,25.9,12.1a2.2,2.2,0,0,0,1.135-.273,2.851,2.851,0,0,0,.813-.725l.772.6A3.106,3.106,0,0,1,25.828,13.137ZM25.67,6.506a1.687,1.687,0,0,0-1.285.557,2.708,2.708,0,0,0-.643,1.562h3.705v-.1a2.409,2.409,0,0,0-.52-1.494A1.588,1.588,0,0,0,25.67,6.506Zm7.472,5.6a1.822,1.822,0,0,0,1.183-.41,1.443,1.443,0,0,0,.561-1.025h1.2a2.293,2.293,0,0,1-.437,1.21,2.881,2.881,0,0,1-1.077.916,3.107,3.107,0,0,1-1.425.342,3.047,3.047,0,0,1-2.4-1.008,4.016,4.016,0,0,1-.892-2.758V9.158a4.453,4.453,0,0,1,.4-1.921,3.02,3.02,0,0,1,1.138-1.306,3.233,3.233,0,0,1,1.753-.465,2.966,2.966,0,0,1,2.068.745,2.663,2.663,0,0,1,.878,1.935h-1.2a1.743,1.743,0,0,0-.543-1.179,1.691,1.691,0,0,0-1.207-.461,1.77,1.77,0,0,0-1.494.694,3.259,3.259,0,0,0-.53,2.006v.239a3.194,3.194,0,0,0,.526,1.969A1.779,1.779,0,0,0,33.142,12.1Zm6.077-8.292V5.6H40.6v.978H39.219v4.593a1.027,1.027,0,0,0,.185.667.777.777,0,0,0,.629.222,3.062,3.062,0,0,0,.6-.082V13a3.688,3.688,0,0,1-.971.136,1.575,1.575,0,0,1-1.278-.513,2.2,2.2,0,0,1-.431-1.456V6.581H36.608V5.6h1.347V3.813ZM41.6,9.233a4.369,4.369,0,0,1,.427-1.955,3.187,3.187,0,0,1,1.189-1.34,3.238,3.238,0,0,1,1.74-.472,3.119,3.119,0,0,1,2.444,1.046,4.024,4.024,0,0,1,.933,2.782v.089a4.407,4.407,0,0,1-.414,1.938,3.14,3.14,0,0,1-1.183,1.336,3.275,3.275,0,0,1-1.767.479,3.111,3.111,0,0,1-2.437-1.046A4,4,0,0,1,41.6,9.322Zm1.271.15a3.164,3.164,0,0,0,.571,1.976,1.934,1.934,0,0,0,3.059-.01,3.46,3.46,0,0,0,.567-2.116A3.159,3.159,0,0,0,46.5,7.261a1.836,1.836,0,0,0-1.535-.755,1.816,1.816,0,0,0-1.511.745A3.435,3.435,0,0,0,42.876,9.384ZM53.5,6.738a3.79,3.79,0,0,0-.622-.048,1.667,1.667,0,0,0-1.688,1.06V13H49.924V5.6h1.23l.021.854a1.969,1.969,0,0,1,1.764-.991,1.292,1.292,0,0,1,.561.1Zm4.32,2.5A4.333,4.333,0,0,1,58.626,6.5a2.745,2.745,0,0,1,4.17-.147V2.5h1.265V13H62.9l-.062-.793a2.575,2.575,0,0,1-2.112.93,2.526,2.526,0,0,1-2.1-1.053,4.382,4.382,0,0,1-.81-2.748Zm1.265.144a3.281,3.281,0,0,0,.52,1.969,1.68,1.68,0,0,0,1.436.711,1.845,1.845,0,0,0,1.757-1.08v-3.4A1.859,1.859,0,0,0,61.053,6.54a1.687,1.687,0,0,0-1.449.718A3.612,3.612,0,0,0,59.084,9.384Zm10.008,3.753a3.232,3.232,0,0,1-2.447-.988A3.666,3.666,0,0,1,65.7,9.507V9.274a4.438,4.438,0,0,1,.42-1.965A3.28,3.28,0,0,1,67.3,5.956a2.956,2.956,0,0,1,1.637-.489,2.77,2.77,0,0,1,2.242.95,4.114,4.114,0,0,1,.8,2.721v.526H66.966a2.629,2.629,0,0,0,.639,1.767,2.009,2.009,0,0,0,1.555.673,2.2,2.2,0,0,0,1.135-.273,2.851,2.851,0,0,0,.813-.725l.772.6A3.106,3.106,0,0,1,69.092,13.137Zm-.157-6.631a1.687,1.687,0,0,0-1.285.557,2.708,2.708,0,0,0-.643,1.562h3.705v-.1a2.409,2.409,0,0,0-.52-1.494A1.588,1.588,0,0,0,68.935,6.506ZM74.814,13H73.549V2.5h1.265ZM86.551,9.384a4.429,4.429,0,0,1-.772,2.721,2.476,2.476,0,0,1-2.092,1.032,2.713,2.713,0,0,1-2.119-.854v3.562H80.3V5.6h1.155l.062.82a2.605,2.605,0,0,1,2.146-.957,2.522,2.522,0,0,1,2.109,1,4.477,4.477,0,0,1,.776,2.8ZM85.287,9.24a3.268,3.268,0,0,0-.533-1.976,1.718,1.718,0,0,0-1.463-.725,1.859,1.859,0,0,0-1.723,1.019v3.534A1.863,1.863,0,0,0,83.3,12.1a1.71,1.71,0,0,0,1.446-.721A3.567,3.567,0,0,0,85.287,9.24Zm6.446-2.5a3.79,3.79,0,0,0-.622-.048,1.667,1.667,0,0,0-1.688,1.06V13H88.158V5.6h1.23l.021.854a1.969,1.969,0,0,1,1.764-.991,1.292,1.292,0,0,1,.561.1Zm.69,2.5a4.369,4.369,0,0,1,.427-1.955,3.187,3.187,0,0,1,1.189-1.34,3.238,3.238,0,0,1,1.74-.472,3.119,3.119,0,0,1,2.444,1.046,4.024,4.024,0,0,1,.933,2.782v.089a4.407,4.407,0,0,1-.414,1.938,3.14,3.14,0,0,1-1.183,1.336,3.275,3.275,0,0,1-1.767.479,3.111,3.111,0,0,1-2.437-1.046,4,4,0,0,1-.933-2.769Zm1.271.15a3.164,3.164,0,0,0,.571,1.976,1.934,1.934,0,0,0,3.059-.01,3.46,3.46,0,0,0,.567-2.116,3.159,3.159,0,0,0-.578-1.972,1.836,1.836,0,0,0-1.535-.755,1.816,1.816,0,0,0-1.511.745A3.435,3.435,0,0,0,93.695,9.384Zm9.365,1.764L104.783,5.6h1.354l-2.974,8.538q-.69,1.846-2.194,1.846l-.239-.021-.472-.089V14.853l.342.027a1.683,1.683,0,0,0,1-.26,1.88,1.88,0,0,0,.591-.95l.28-.752L99.833,5.6h1.381Zm7.185,1.989a3.232,3.232,0,0,1-2.447-.988,3.666,3.666,0,0,1-.943-2.642V9.274a4.438,4.438,0,0,1,.42-1.965,3.28,3.28,0,0,1,1.176-1.354,2.956,2.956,0,0,1,1.637-.489,2.77,2.77,0,0,1,2.242.95,4.114,4.114,0,0,1,.8,2.721v.526h-5.011a2.629,2.629,0,0,0,.639,1.767,2.009,2.009,0,0,0,1.555.673,2.2,2.2,0,0,0,1.135-.273,2.851,2.851,0,0,0,.813-.725l.772.6A3.106,3.106,0,0,1,110.245,13.137Zm-.157-6.631a1.687,1.687,0,0,0-1.285.557,2.708,2.708,0,0,0-.643,1.562h3.705v-.1a2.409,2.409,0,0,0-.52-1.494A1.588,1.588,0,0,0,110.087,6.506Zm7.472,5.6a1.822,1.822,0,0,0,1.183-.41,1.443,1.443,0,0,0,.561-1.025h1.2a2.293,2.293,0,0,1-.437,1.21,2.882,2.882,0,0,1-1.077.916,3.107,3.107,0,0,1-1.425.342,3.047,3.047,0,0,1-2.4-1.008,4.016,4.016,0,0,1-.892-2.758V9.158a4.453,4.453,0,0,1,.4-1.921A3.02,3.02,0,0,1,115.8,5.932a3.233,3.233,0,0,1,1.753-.465,2.966,2.966,0,0,1,2.068.745,2.663,2.663,0,0,1,.878,1.935h-1.2a1.743,1.743,0,0,0-.543-1.179,1.691,1.691,0,0,0-1.207-.461,1.77,1.77,0,0,0-1.494.694,3.259,3.259,0,0,0-.53,2.006v.239a3.194,3.194,0,0,0,.526,1.969A1.779,1.779,0,0,0,117.559,12.1Zm6.077-8.292V5.6h1.381v.978h-1.381v4.593a1.027,1.027,0,0,0,.185.667.777.777,0,0,0,.629.222,3.062,3.062,0,0,0,.6-.082V13a3.688,3.688,0,0,1-.971.136,1.575,1.575,0,0,1-1.278-.513,2.2,2.2,0,0,1-.431-1.456V6.581h-1.347V5.6h1.347V3.813Zm2.386,5.421a4.369,4.369,0,0,1,.427-1.955,3.187,3.187,0,0,1,1.189-1.34,3.238,3.238,0,0,1,1.74-.472,3.119,3.119,0,0,1,2.444,1.046,4.024,4.024,0,0,1,.933,2.782v.089a4.407,4.407,0,0,1-.414,1.938,3.14,3.14,0,0,1-1.183,1.336,3.275,3.275,0,0,1-1.767.479,3.111,3.111,0,0,1-2.437-1.046,4,4,0,0,1-.933-2.769Zm1.271.15a3.164,3.164,0,0,0,.571,1.976,1.934,1.934,0,0,0,3.059-.01,3.46,3.46,0,0,0,.567-2.116,3.159,3.159,0,0,0-.578-1.972,1.836,1.836,0,0,0-1.535-.755,1.816,1.816,0,0,0-1.511.745A3.435,3.435,0,0,0,127.293,9.384ZM65.8,37V27.047h3.254a3.777,3.777,0,0,1,2.437.67,2.414,2.414,0,0,1,.817,1.982,2.022,2.022,0,0,1-.4,1.234,2.57,2.57,0,0,1-1.08.831,2.308,2.308,0,0,1,1.275.858,2.462,2.462,0,0,1,.468,1.507,2.662,2.662,0,0,1-.868,2.105A3.59,3.59,0,0,1,69.25,37Zm1.313-4.655v3.582h2.167a2.087,2.087,0,0,0,1.446-.475,1.669,1.669,0,0,0,.53-1.309q0-1.8-1.955-1.8Zm0-1.053h1.982a2.078,2.078,0,0,0,1.377-.432,1.447,1.447,0,0,0,.516-1.171,1.423,1.423,0,0,0-.479-1.2,2.35,2.35,0,0,0-1.456-.373H67.11Z" transform="translate(-3366 -6121)" fill="#12263f"/>
    <path id="Trazado_148329" data-name="Trazado 148329" d="M5.771,13V3.047h2.81a4.523,4.523,0,0,1,2.3.574,3.884,3.884,0,0,1,1.542,1.634,5.318,5.318,0,0,1,.55,2.434v.636a5.336,5.336,0,0,1-.543,2.468,3.823,3.823,0,0,1-1.552,1.627A4.811,4.811,0,0,1,8.526,13ZM7.083,4.12v7.807H8.464a3,3,0,0,0,2.362-.944,3.9,3.9,0,0,0,.844-2.689V7.712a3.963,3.963,0,0,0-.8-2.637A2.834,2.834,0,0,0,8.615,4.12ZM16.127,13H14.863V5.6h1.265ZM14.76,3.642a.755.755,0,0,1,.188-.52.706.706,0,0,1,.557-.212.717.717,0,0,1,.561.212.747.747,0,0,1,.191.52.722.722,0,0,1-.191.513.73.73,0,0,1-.561.205.718.718,0,0,1-.557-.205A.73.73,0,0,1,14.76,3.642Zm6.966,3.1A3.79,3.79,0,0,0,21.1,6.69a1.667,1.667,0,0,0-1.688,1.06V13H18.151V5.6h1.23l.021.854a1.969,1.969,0,0,1,1.764-.991,1.292,1.292,0,0,1,.561.1Zm4.1,6.4a3.232,3.232,0,0,1-2.447-.988,3.666,3.666,0,0,1-.943-2.642V9.274a4.438,4.438,0,0,1,.42-1.965,3.28,3.28,0,0,1,1.176-1.354,2.956,2.956,0,0,1,1.637-.489,2.77,2.77,0,0,1,2.242.95,4.114,4.114,0,0,1,.8,2.721v.526H23.7a2.629,2.629,0,0,0,.639,1.767A2.009,2.009,0,0,0,25.9,12.1a2.2,2.2,0,0,0,1.135-.273,2.851,2.851,0,0,0,.813-.725l.772.6A3.106,3.106,0,0,1,25.828,13.137ZM25.67,6.506a1.687,1.687,0,0,0-1.285.557,2.708,2.708,0,0,0-.643,1.562h3.705v-.1a2.409,2.409,0,0,0-.52-1.494A1.588,1.588,0,0,0,25.67,6.506Zm7.472,5.6a1.822,1.822,0,0,0,1.183-.41,1.443,1.443,0,0,0,.561-1.025h1.2a2.293,2.293,0,0,1-.437,1.21,2.881,2.881,0,0,1-1.077.916,3.107,3.107,0,0,1-1.425.342,3.047,3.047,0,0,1-2.4-1.008,4.016,4.016,0,0,1-.892-2.758V9.158a4.453,4.453,0,0,1,.4-1.921,3.02,3.02,0,0,1,1.138-1.306,3.233,3.233,0,0,1,1.753-.465,2.966,2.966,0,0,1,2.068.745,2.663,2.663,0,0,1,.878,1.935h-1.2a1.743,1.743,0,0,0-.543-1.179,1.691,1.691,0,0,0-1.207-.461,1.77,1.77,0,0,0-1.494.694,3.259,3.259,0,0,0-.53,2.006v.239a3.194,3.194,0,0,0,.526,1.969A1.779,1.779,0,0,0,33.142,12.1Zm6.077-8.292V5.6H40.6v.978H39.219v4.593a1.027,1.027,0,0,0,.185.667.777.777,0,0,0,.629.222,3.062,3.062,0,0,0,.6-.082V13a3.688,3.688,0,0,1-.971.136,1.575,1.575,0,0,1-1.278-.513,2.2,2.2,0,0,1-.431-1.456V6.581H36.608V5.6h1.347V3.813ZM41.6,9.233a4.369,4.369,0,0,1,.427-1.955,3.187,3.187,0,0,1,1.189-1.34,3.238,3.238,0,0,1,1.74-.472,3.119,3.119,0,0,1,2.444,1.046,4.024,4.024,0,0,1,.933,2.782v.089a4.407,4.407,0,0,1-.414,1.938,3.14,3.14,0,0,1-1.183,1.336,3.275,3.275,0,0,1-1.767.479,3.111,3.111,0,0,1-2.437-1.046A4,4,0,0,1,41.6,9.322Zm1.271.15a3.164,3.164,0,0,0,.571,1.976,1.934,1.934,0,0,0,3.059-.01,3.46,3.46,0,0,0,.567-2.116A3.159,3.159,0,0,0,46.5,7.261a1.836,1.836,0,0,0-1.535-.755,1.816,1.816,0,0,0-1.511.745A3.435,3.435,0,0,0,42.876,9.384ZM53.5,6.738a3.79,3.79,0,0,0-.622-.048,1.667,1.667,0,0,0-1.688,1.06V13H49.924V5.6h1.23l.021.854a1.969,1.969,0,0,1,1.764-.991,1.292,1.292,0,0,1,.561.1Zm4.32,2.5A4.333,4.333,0,0,1,58.626,6.5a2.745,2.745,0,0,1,4.17-.147V2.5h1.265V13H62.9l-.062-.793a2.575,2.575,0,0,1-2.112.93,2.526,2.526,0,0,1-2.1-1.053,4.382,4.382,0,0,1-.81-2.748Zm1.265.144a3.281,3.281,0,0,0,.52,1.969,1.68,1.68,0,0,0,1.436.711,1.845,1.845,0,0,0,1.757-1.08v-3.4A1.859,1.859,0,0,0,61.053,6.54a1.687,1.687,0,0,0-1.449.718A3.612,3.612,0,0,0,59.084,9.384Zm10.008,3.753a3.232,3.232,0,0,1-2.447-.988A3.666,3.666,0,0,1,65.7,9.507V9.274a4.438,4.438,0,0,1,.42-1.965A3.28,3.28,0,0,1,67.3,5.956a2.956,2.956,0,0,1,1.637-.489,2.77,2.77,0,0,1,2.242.95,4.114,4.114,0,0,1,.8,2.721v.526H66.966a2.629,2.629,0,0,0,.639,1.767,2.009,2.009,0,0,0,1.555.673,2.2,2.2,0,0,0,1.135-.273,2.851,2.851,0,0,0,.813-.725l.772.6A3.106,3.106,0,0,1,69.092,13.137Zm-.157-6.631a1.687,1.687,0,0,0-1.285.557,2.708,2.708,0,0,0-.643,1.562h3.705v-.1a2.409,2.409,0,0,0-.52-1.494A1.588,1.588,0,0,0,68.935,6.506ZM74.814,13H73.549V2.5h1.265ZM86.551,9.384a4.429,4.429,0,0,1-.772,2.721,2.476,2.476,0,0,1-2.092,1.032,2.713,2.713,0,0,1-2.119-.854v3.562H80.3V5.6h1.155l.062.82a2.605,2.605,0,0,1,2.146-.957,2.522,2.522,0,0,1,2.109,1,4.477,4.477,0,0,1,.776,2.8ZM85.287,9.24a3.268,3.268,0,0,0-.533-1.976,1.718,1.718,0,0,0-1.463-.725,1.859,1.859,0,0,0-1.723,1.019v3.534A1.863,1.863,0,0,0,83.3,12.1a1.71,1.71,0,0,0,1.446-.721A3.567,3.567,0,0,0,85.287,9.24Zm6.446-2.5a3.79,3.79,0,0,0-.622-.048,1.667,1.667,0,0,0-1.688,1.06V13H88.158V5.6h1.23l.021.854a1.969,1.969,0,0,1,1.764-.991,1.292,1.292,0,0,1,.561.1Zm.69,2.5a4.369,4.369,0,0,1,.427-1.955,3.187,3.187,0,0,1,1.189-1.34,3.238,3.238,0,0,1,1.74-.472,3.119,3.119,0,0,1,2.444,1.046,4.024,4.024,0,0,1,.933,2.782v.089a4.407,4.407,0,0,1-.414,1.938,3.14,3.14,0,0,1-1.183,1.336,3.275,3.275,0,0,1-1.767.479,3.111,3.111,0,0,1-2.437-1.046,4,4,0,0,1-.933-2.769Zm1.271.15a3.164,3.164,0,0,0,.571,1.976,1.934,1.934,0,0,0,3.059-.01,3.46,3.46,0,0,0,.567-2.116,3.159,3.159,0,0,0-.578-1.972,1.836,1.836,0,0,0-1.535-.755,1.816,1.816,0,0,0-1.511.745A3.435,3.435,0,0,0,93.695,9.384Zm9.365,1.764L104.783,5.6h1.354l-2.974,8.538q-.69,1.846-2.194,1.846l-.239-.021-.472-.089V14.853l.342.027a1.683,1.683,0,0,0,1-.26,1.88,1.88,0,0,0,.591-.95l.28-.752L99.833,5.6h1.381Zm7.185,1.989a3.232,3.232,0,0,1-2.447-.988,3.666,3.666,0,0,1-.943-2.642V9.274a4.438,4.438,0,0,1,.42-1.965,3.28,3.28,0,0,1,1.176-1.354,2.956,2.956,0,0,1,1.637-.489,2.77,2.77,0,0,1,2.242.95,4.114,4.114,0,0,1,.8,2.721v.526h-5.011a2.629,2.629,0,0,0,.639,1.767,2.009,2.009,0,0,0,1.555.673,2.2,2.2,0,0,0,1.135-.273,2.851,2.851,0,0,0,.813-.725l.772.6A3.106,3.106,0,0,1,110.245,13.137Zm-.157-6.631a1.687,1.687,0,0,0-1.285.557,2.708,2.708,0,0,0-.643,1.562h3.705v-.1a2.409,2.409,0,0,0-.52-1.494A1.588,1.588,0,0,0,110.087,6.506Zm7.472,5.6a1.822,1.822,0,0,0,1.183-.41,1.443,1.443,0,0,0,.561-1.025h1.2a2.293,2.293,0,0,1-.437,1.21,2.882,2.882,0,0,1-1.077.916,3.107,3.107,0,0,1-1.425.342,3.047,3.047,0,0,1-2.4-1.008,4.016,4.016,0,0,1-.892-2.758V9.158a4.453,4.453,0,0,1,.4-1.921A3.02,3.02,0,0,1,115.8,5.932a3.233,3.233,0,0,1,1.753-.465,2.966,2.966,0,0,1,2.068.745,2.663,2.663,0,0,1,.878,1.935h-1.2a1.743,1.743,0,0,0-.543-1.179,1.691,1.691,0,0,0-1.207-.461,1.77,1.77,0,0,0-1.494.694,3.259,3.259,0,0,0-.53,2.006v.239a3.194,3.194,0,0,0,.526,1.969A1.779,1.779,0,0,0,117.559,12.1Zm6.077-8.292V5.6h1.381v.978h-1.381v4.593a1.027,1.027,0,0,0,.185.667.777.777,0,0,0,.629.222,3.062,3.062,0,0,0,.6-.082V13a3.688,3.688,0,0,1-.971.136,1.575,1.575,0,0,1-1.278-.513,2.2,2.2,0,0,1-.431-1.456V6.581h-1.347V5.6h1.347V3.813Zm2.386,5.421a4.369,4.369,0,0,1,.427-1.955,3.187,3.187,0,0,1,1.189-1.34,3.238,3.238,0,0,1,1.74-.472,3.119,3.119,0,0,1,2.444,1.046,4.024,4.024,0,0,1,.933,2.782v.089a4.407,4.407,0,0,1-.414,1.938,3.14,3.14,0,0,1-1.183,1.336,3.275,3.275,0,0,1-1.767.479,3.111,3.111,0,0,1-2.437-1.046,4,4,0,0,1-.933-2.769Zm1.271.15a3.164,3.164,0,0,0,.571,1.976,1.934,1.934,0,0,0,3.059-.01,3.46,3.46,0,0,0,.567-2.116,3.159,3.159,0,0,0-.578-1.972,1.836,1.836,0,0,0-1.535-.755,1.816,1.816,0,0,0-1.511.745A3.435,3.435,0,0,0,127.293,9.384ZM72.92,33.842a3.662,3.662,0,0,1-1.166,2.437,3.82,3.82,0,0,1-2.608.858,3.507,3.507,0,0,1-2.827-1.265,5.088,5.088,0,0,1-1.063-3.384v-.957a5.671,5.671,0,0,1,.5-2.44,3.7,3.7,0,0,1,1.4-1.617,3.911,3.911,0,0,1,2.105-.564,3.6,3.6,0,0,1,2.543.885,3.706,3.706,0,0,1,1.114,2.451H71.6a2.86,2.86,0,0,0-.742-1.728,2.244,2.244,0,0,0-1.6-.535,2.348,2.348,0,0,0-1.972.93,4.272,4.272,0,0,0-.714,2.648v.965a4.391,4.391,0,0,0,.677,2.579,2.187,2.187,0,0,0,1.894.958,2.526,2.526,0,0,0,1.678-.5,2.75,2.75,0,0,0,.776-1.726Z" transform="translate(-3366 -6043)" fill="#12263f"/>
    <path id="Trazado_146087" data-name="Trazado 146087" d="M-3146.15-6263v31.38h350.978v-55.167" fill="none" stroke="#707070" stroke-width="1"/>
    <line id="Línea_203" data-name="Línea 203" y2="238" transform="translate(-2966.5 -6256.5)" fill="none" stroke="#707070" stroke-width="1"/>
    <rect id="Rectángulo_32747" data-name="Rectángulo 32747" width="333" height="66" rx="13" transform="translate(-3138 -6217)" fill="#81d4fa"/>
    <rect id="Rectángulo_32748" data-name="Rectángulo 32748" width="333" height="66" rx="13" transform="translate(-3138 -6132)" fill="#81d4fa"/>
    <rect id="Rectángulo_32749" data-name="Rectángulo 32749" width="333" height="66" rx="13" transform="translate(-3138 -6054)" fill="#81d4fa"/>
    <path id="Trazado_148326" data-name="Trazado 148326" d="M48.7,8.4H44.391v3.527H49.4V13H43.079V3.047h6.255V4.12H44.391V7.326H48.7Zm3.329-2.8.041.93A2.7,2.7,0,0,1,54.29,5.467q2.345,0,2.365,2.646V13H55.39V8.105a1.7,1.7,0,0,0-.366-1.183,1.466,1.466,0,0,0-1.118-.383,1.825,1.825,0,0,0-1.08.328,2.228,2.228,0,0,0-.725.861V13H50.837V5.6Zm9.5,6.5a1.822,1.822,0,0,0,1.183-.41,1.443,1.443,0,0,0,.561-1.025h1.2a2.293,2.293,0,0,1-.437,1.21,2.881,2.881,0,0,1-1.077.916,3.107,3.107,0,0,1-1.425.342,3.047,3.047,0,0,1-2.4-1.008,4.016,4.016,0,0,1-.892-2.758V9.158a4.453,4.453,0,0,1,.4-1.921,3.02,3.02,0,0,1,1.138-1.306,3.233,3.233,0,0,1,1.753-.465,2.966,2.966,0,0,1,2.068.745,2.663,2.663,0,0,1,.878,1.935h-1.2a1.743,1.743,0,0,0-.543-1.179,1.691,1.691,0,0,0-1.207-.461,1.77,1.77,0,0,0-1.494.694,3.259,3.259,0,0,0-.53,2.006v.239a3.194,3.194,0,0,0,.526,1.969A1.779,1.779,0,0,0,61.529,12.1Zm8.928.9a2.657,2.657,0,0,1-.178-.779,2.822,2.822,0,0,1-2.105.916,2.611,2.611,0,0,1-1.794-.619,2,2,0,0,1-.7-1.569,2.091,2.091,0,0,1,.878-1.794,4.141,4.141,0,0,1,2.471-.639h1.23V7.935a1.42,1.42,0,0,0-.4-1.056,1.593,1.593,0,0,0-1.169-.393,1.844,1.844,0,0,0-1.135.342,1.007,1.007,0,0,0-.458.827H65.829a1.745,1.745,0,0,1,.393-1.07,2.683,2.683,0,0,1,1.066-.817,3.588,3.588,0,0,1,1.48-.3,2.924,2.924,0,0,1,2,.639,2.306,2.306,0,0,1,.752,1.76v3.4a4.162,4.162,0,0,0,.26,1.62V13Zm-2.1-.964a2.223,2.223,0,0,0,1.128-.308,1.861,1.861,0,0,0,.772-.8V9.411h-.991q-2.324,0-2.324,1.36a1.151,1.151,0,0,0,.4.93A1.524,1.524,0,0,0,68.358,12.036Zm8.723-5.3a3.79,3.79,0,0,0-.622-.048A1.667,1.667,0,0,0,74.77,7.75V13H73.505V5.6h1.23l.021.854a1.969,1.969,0,0,1,1.764-.991,1.292,1.292,0,0,1,.561.1Zm.731,2.5a4.347,4.347,0,0,1,.8-2.751,2.757,2.757,0,0,1,4.231-.065L82.9,5.6H84.06v7.219a3.009,3.009,0,0,1-.851,2.263,3.141,3.141,0,0,1-2.287.827,3.8,3.8,0,0,1-1.565-.342,2.7,2.7,0,0,1-1.169-.937l.656-.759a2.473,2.473,0,0,0,1.989,1,1.938,1.938,0,0,0,1.439-.52,1.986,1.986,0,0,0,.516-1.463v-.636a2.6,2.6,0,0,1-2.071.875,2.527,2.527,0,0,1-2.1-1.046A4.571,4.571,0,0,1,77.812,9.24Zm1.271.144a3.316,3.316,0,0,0,.513,1.965,1.666,1.666,0,0,0,1.436.714,1.852,1.852,0,0,0,1.757-1.087V7.6a1.874,1.874,0,0,0-1.743-1.06,1.681,1.681,0,0,0-1.442.718A3.612,3.612,0,0,0,79.083,9.384ZM90.534,13a2.657,2.657,0,0,1-.178-.779,2.822,2.822,0,0,1-2.105.916,2.611,2.611,0,0,1-1.794-.619,2,2,0,0,1-.7-1.569,2.091,2.091,0,0,1,.878-1.794A4.141,4.141,0,0,1,89.1,8.516h1.23V7.935a1.42,1.42,0,0,0-.4-1.056,1.593,1.593,0,0,0-1.169-.393,1.844,1.844,0,0,0-1.135.342,1.007,1.007,0,0,0-.458.827H85.906a1.745,1.745,0,0,1,.393-1.07,2.683,2.683,0,0,1,1.066-.817,3.588,3.588,0,0,1,1.48-.3,2.924,2.924,0,0,1,2,.639,2.306,2.306,0,0,1,.752,1.76v3.4a4.162,4.162,0,0,0,.26,1.62V13Zm-2.1-.964a2.223,2.223,0,0,0,1.128-.308,1.861,1.861,0,0,0,.772-.8V9.411h-.991q-2.324,0-2.324,1.36a1.151,1.151,0,0,0,.4.93A1.524,1.524,0,0,0,88.435,12.036Zm4.84-2.8A4.333,4.333,0,0,1,94.082,6.5a2.745,2.745,0,0,1,4.17-.147V2.5h1.265V13H98.354l-.062-.793a2.575,2.575,0,0,1-2.112.93,2.526,2.526,0,0,1-2.1-1.053,4.382,4.382,0,0,1-.81-2.748Zm1.265.144a3.281,3.281,0,0,0,.52,1.969,1.68,1.68,0,0,0,1.436.711,1.845,1.845,0,0,0,1.757-1.08v-3.4A1.859,1.859,0,0,0,96.508,6.54a1.687,1.687,0,0,0-1.449.718A3.612,3.612,0,0,0,94.54,9.384Zm6.6-.15a4.369,4.369,0,0,1,.427-1.955,3.187,3.187,0,0,1,1.189-1.34,3.238,3.238,0,0,1,1.74-.472,3.119,3.119,0,0,1,2.444,1.046,4.024,4.024,0,0,1,.933,2.782v.089a4.407,4.407,0,0,1-.414,1.938,3.14,3.14,0,0,1-1.183,1.336,3.275,3.275,0,0,1-1.767.479,3.111,3.111,0,0,1-2.437-1.046,4,4,0,0,1-.933-2.769Zm1.271.15a3.164,3.164,0,0,0,.571,1.976,1.934,1.934,0,0,0,3.059-.01,3.46,3.46,0,0,0,.567-2.116,3.159,3.159,0,0,0-.578-1.972,1.836,1.836,0,0,0-1.535-.755,1.816,1.816,0,0,0-1.511.745A3.435,3.435,0,0,0,102.415,9.384Zm11.354,1.654a.931.931,0,0,0-.386-.8,3.718,3.718,0,0,0-1.347-.489,6.367,6.367,0,0,1-1.524-.492,2.169,2.169,0,0,1-.834-.684,1.635,1.635,0,0,1-.27-.943,1.919,1.919,0,0,1,.769-1.538,3,3,0,0,1,1.965-.629,3.091,3.091,0,0,1,2.041.649,2.063,2.063,0,0,1,.783,1.661h-1.271a1.142,1.142,0,0,0-.441-.9,1.652,1.652,0,0,0-1.111-.376,1.729,1.729,0,0,0-1.08.3.947.947,0,0,0-.39.786.767.767,0,0,0,.362.69,4.458,4.458,0,0,0,1.309.444,6.821,6.821,0,0,1,1.535.506,2.239,2.239,0,0,1,.872.708,1.74,1.74,0,0,1,.284,1.008,1.893,1.893,0,0,1-.793,1.589,3.326,3.326,0,0,1-2.058.6,3.725,3.725,0,0,1-1.572-.314,2.557,2.557,0,0,1-1.07-.878,2.117,2.117,0,0,1-.386-1.22h1.265a1.309,1.309,0,0,0,.509,1.008,1.976,1.976,0,0,0,1.254.373,2.039,2.039,0,0,0,1.152-.291A.893.893,0,0,0,113.769,11.038Zm6.07-1.8a4.333,4.333,0,0,1,.807-2.738,2.745,2.745,0,0,1,4.17-.147V2.5h1.265V13h-1.162l-.062-.793a2.575,2.575,0,0,1-2.112.93,2.526,2.526,0,0,1-2.1-1.053,4.382,4.382,0,0,1-.81-2.748Zm1.265.144a3.281,3.281,0,0,0,.52,1.969,1.68,1.68,0,0,0,1.436.711,1.845,1.845,0,0,0,1.757-1.08v-3.4a1.859,1.859,0,0,0-1.743-1.046,1.687,1.687,0,0,0-1.449.718A3.612,3.612,0,0,0,121.1,9.384Zm10.008,3.753a3.232,3.232,0,0,1-2.447-.988,3.666,3.666,0,0,1-.943-2.642V9.274a4.438,4.438,0,0,1,.42-1.965,3.279,3.279,0,0,1,1.176-1.354,2.956,2.956,0,0,1,1.637-.489,2.77,2.77,0,0,1,2.242.95,4.114,4.114,0,0,1,.8,2.721v.526h-5.011a2.629,2.629,0,0,0,.639,1.767,2.009,2.009,0,0,0,1.555.673,2.2,2.2,0,0,0,1.135-.273,2.851,2.851,0,0,0,.813-.725l.772.6A3.106,3.106,0,0,1,131.112,13.137Zm-.157-6.631a1.687,1.687,0,0,0-1.285.557,2.708,2.708,0,0,0-.643,1.562h3.705v-.1a2.409,2.409,0,0,0-.52-1.494A1.588,1.588,0,0,0,130.955,6.506Zm11.546.232a3.79,3.79,0,0,0-.622-.048,1.667,1.667,0,0,0-1.688,1.06V13h-1.265V5.6h1.23l.021.854a1.969,1.969,0,0,1,1.764-.991,1.292,1.292,0,0,1,.561.1Zm4.1,6.4a3.232,3.232,0,0,1-2.447-.988,3.666,3.666,0,0,1-.943-2.642V9.274a4.438,4.438,0,0,1,.42-1.965,3.279,3.279,0,0,1,1.176-1.354,2.956,2.956,0,0,1,1.637-.489,2.77,2.77,0,0,1,2.242.95,4.114,4.114,0,0,1,.8,2.721v.526h-5.011a2.629,2.629,0,0,0,.639,1.767,2.009,2.009,0,0,0,1.555.673,2.2,2.2,0,0,0,1.135-.273,2.851,2.851,0,0,0,.813-.725l.772.6A3.106,3.106,0,0,1,146.6,13.137Zm-.157-6.631a1.687,1.687,0,0,0-1.285.557,2.708,2.708,0,0,0-.643,1.562h3.705v-.1a2.409,2.409,0,0,0-.52-1.494A1.588,1.588,0,0,0,146.445,6.506ZM155.516,13a2.657,2.657,0,0,1-.178-.779,2.822,2.822,0,0,1-2.105.916,2.611,2.611,0,0,1-1.794-.619,2,2,0,0,1-.7-1.569,2.091,2.091,0,0,1,.878-1.794,4.142,4.142,0,0,1,2.471-.639h1.23V7.935a1.42,1.42,0,0,0-.4-1.056,1.593,1.593,0,0,0-1.169-.393,1.844,1.844,0,0,0-1.135.342,1.007,1.007,0,0,0-.458.827h-1.271a1.745,1.745,0,0,1,.393-1.07,2.683,2.683,0,0,1,1.066-.817,3.588,3.588,0,0,1,1.48-.3,2.924,2.924,0,0,1,2,.639,2.306,2.306,0,0,1,.752,1.76v3.4a4.162,4.162,0,0,0,.26,1.62V13Zm-2.1-.964a2.223,2.223,0,0,0,1.128-.308,1.861,1.861,0,0,0,.772-.8V9.411h-.991q-2.324,0-2.324,1.36a1.151,1.151,0,0,0,.4.93A1.524,1.524,0,0,0,153.417,12.036Zm6.521.964h-1.265V2.5h1.265Zm3.4,0h-1.265V5.6h1.265Zm-1.367-9.358a.755.755,0,0,1,.188-.52.706.706,0,0,1,.557-.212.717.717,0,0,1,.561.212.747.747,0,0,1,.191.52.722.722,0,0,1-.191.513.73.73,0,0,1-.561.205.718.718,0,0,1-.557-.205A.73.73,0,0,1,161.969,3.642Zm4.58,8.326h4.327V13H165v-.93l4.081-5.421h-4.02V5.6h5.605v.9ZM176.865,13a2.657,2.657,0,0,1-.178-.779,2.822,2.822,0,0,1-2.105.916,2.611,2.611,0,0,1-1.794-.619,2,2,0,0,1-.7-1.569,2.091,2.091,0,0,1,.878-1.794,4.142,4.142,0,0,1,2.471-.639h1.23V7.935a1.42,1.42,0,0,0-.4-1.056,1.593,1.593,0,0,0-1.169-.393,1.844,1.844,0,0,0-1.135.342,1.007,1.007,0,0,0-.458.827h-1.271a1.745,1.745,0,0,1,.393-1.07,2.683,2.683,0,0,1,1.066-.817,3.588,3.588,0,0,1,1.48-.3,2.924,2.924,0,0,1,2,.639,2.306,2.306,0,0,1,.752,1.76v3.4a4.162,4.162,0,0,0,.26,1.62V13Zm-2.1-.964a2.223,2.223,0,0,0,1.128-.308,1.861,1.861,0,0,0,.772-.8V9.411h-.991q-2.324,0-2.324,1.36a1.151,1.151,0,0,0,.4.93A1.524,1.524,0,0,0,174.766,12.036Zm8.723-5.3a3.79,3.79,0,0,0-.622-.048,1.667,1.667,0,0,0-1.688,1.06V13h-1.265V5.6h1.23l.021.854a1.969,1.969,0,0,1,1.764-.991,1.292,1.292,0,0,1,.561.1Zm7.7,6.4a3.232,3.232,0,0,1-2.447-.988,3.666,3.666,0,0,1-.943-2.642V9.274a4.438,4.438,0,0,1,.42-1.965,3.279,3.279,0,0,1,1.176-1.354,2.956,2.956,0,0,1,1.637-.489,2.77,2.77,0,0,1,2.242.95,4.114,4.114,0,0,1,.8,2.721v.526H189.06a2.629,2.629,0,0,0,.639,1.767,2.009,2.009,0,0,0,1.555.673,2.2,2.2,0,0,0,1.135-.273,2.851,2.851,0,0,0,.813-.725l.772.6A3.106,3.106,0,0,1,191.186,13.137Zm-.157-6.631a1.687,1.687,0,0,0-1.285.557,2.708,2.708,0,0,0-.643,1.562h3.705v-.1a2.409,2.409,0,0,0-.52-1.494A1.588,1.588,0,0,0,191.029,6.506ZM196.908,13h-1.265V2.5h1.265Zm11.737-3.616a4.429,4.429,0,0,1-.772,2.721,2.476,2.476,0,0,1-2.092,1.032,2.713,2.713,0,0,1-2.119-.854v3.562H202.4V5.6h1.155l.062.82a2.605,2.605,0,0,1,2.146-.957,2.522,2.522,0,0,1,2.109,1,4.477,4.477,0,0,1,.776,2.8ZM207.38,9.24a3.268,3.268,0,0,0-.533-1.976,1.718,1.718,0,0,0-1.463-.725,1.859,1.859,0,0,0-1.723,1.019v3.534A1.863,1.863,0,0,0,205.4,12.1a1.71,1.71,0,0,0,1.446-.721A3.567,3.567,0,0,0,207.38,9.24Zm6.446-2.5a3.79,3.79,0,0,0-.622-.048,1.667,1.667,0,0,0-1.688,1.06V13h-1.265V5.6h1.23l.021.854a1.969,1.969,0,0,1,1.764-.991,1.292,1.292,0,0,1,.561.1Zm.69,2.5a4.369,4.369,0,0,1,.427-1.955,3.187,3.187,0,0,1,1.189-1.34,3.238,3.238,0,0,1,1.74-.472,3.119,3.119,0,0,1,2.444,1.046,4.024,4.024,0,0,1,.933,2.782v.089a4.407,4.407,0,0,1-.414,1.938,3.14,3.14,0,0,1-1.183,1.336,3.275,3.275,0,0,1-1.767.479,3.111,3.111,0,0,1-2.437-1.046,4,4,0,0,1-.933-2.769Zm1.271.15a3.164,3.164,0,0,0,.571,1.976,1.934,1.934,0,0,0,3.059-.01,3.46,3.46,0,0,0,.567-2.116,3.159,3.159,0,0,0-.578-1.972,1.836,1.836,0,0,0-1.535-.755,1.816,1.816,0,0,0-1.511.745A3.435,3.435,0,0,0,215.789,9.384Zm9.365,1.764L226.876,5.6h1.354l-2.974,8.538q-.69,1.846-2.194,1.846l-.239-.021-.472-.089V14.853l.342.027a1.683,1.683,0,0,0,1-.26,1.88,1.88,0,0,0,.591-.95l.28-.752L221.927,5.6h1.381Zm7.185,1.989a3.232,3.232,0,0,1-2.447-.988,3.666,3.666,0,0,1-.943-2.642V9.274a4.438,4.438,0,0,1,.42-1.965,3.279,3.279,0,0,1,1.176-1.354,2.956,2.956,0,0,1,1.637-.489,2.77,2.77,0,0,1,2.242.95,4.114,4.114,0,0,1,.8,2.721v.526h-5.011a2.629,2.629,0,0,0,.639,1.767,2.009,2.009,0,0,0,1.555.673,2.2,2.2,0,0,0,1.135-.273,2.851,2.851,0,0,0,.813-.725l.772.6A3.106,3.106,0,0,1,232.338,13.137Zm-.157-6.631a1.687,1.687,0,0,0-1.285.557,2.708,2.708,0,0,0-.643,1.562h3.705v-.1a2.409,2.409,0,0,0-.52-1.494A1.588,1.588,0,0,0,232.181,6.506Zm7.472,5.6a1.822,1.822,0,0,0,1.183-.41,1.443,1.443,0,0,0,.561-1.025h1.2a2.293,2.293,0,0,1-.437,1.21,2.881,2.881,0,0,1-1.077.916,3.107,3.107,0,0,1-1.425.342,3.047,3.047,0,0,1-2.4-1.008,4.016,4.016,0,0,1-.892-2.758V9.158a4.453,4.453,0,0,1,.4-1.921,3.02,3.02,0,0,1,1.138-1.306,3.233,3.233,0,0,1,1.753-.465,2.966,2.966,0,0,1,2.068.745,2.663,2.663,0,0,1,.878,1.935h-1.2a1.743,1.743,0,0,0-.543-1.179,1.691,1.691,0,0,0-1.207-.461,1.77,1.77,0,0,0-1.494.694,3.259,3.259,0,0,0-.53,2.006v.239a3.194,3.194,0,0,0,.526,1.969A1.779,1.779,0,0,0,239.653,12.1Zm6.077-8.292V5.6h1.381v.978H245.73v4.593a1.027,1.027,0,0,0,.185.667.777.777,0,0,0,.629.222,3.062,3.062,0,0,0,.6-.082V13a3.688,3.688,0,0,1-.971.136,1.575,1.575,0,0,1-1.278-.513,2.2,2.2,0,0,1-.431-1.456V6.581h-1.347V5.6h1.347V3.813Zm2.386,5.421a4.369,4.369,0,0,1,.427-1.955,3.187,3.187,0,0,1,1.189-1.34,3.238,3.238,0,0,1,1.74-.472,3.119,3.119,0,0,1,2.444,1.046,4.024,4.024,0,0,1,.933,2.782v.089a4.407,4.407,0,0,1-.414,1.938,3.14,3.14,0,0,1-1.183,1.336,3.275,3.275,0,0,1-1.767.479,3.111,3.111,0,0,1-2.437-1.046,4,4,0,0,1-.933-2.769Zm1.271.15a3.164,3.164,0,0,0,.571,1.976,1.934,1.934,0,0,0,3.059-.01,3.46,3.46,0,0,0,.567-2.116,3.159,3.159,0,0,0-.578-1.972,1.836,1.836,0,0,0-1.535-.755,1.816,1.816,0,0,0-1.511.745A3.435,3.435,0,0,0,249.387,9.384ZM265.6,10.4h-4.17l-.937,2.6h-1.354l3.8-9.953h1.148L267.892,13h-1.347Zm-3.773-1.073h3.384l-1.7-4.655Z" transform="translate(-3129 -6194)" fill="#12263f"/>
    <path id="Trazado_148328" data-name="Trazado 148328" d="M48.913,8.4H44.6v3.527H49.61V13H43.287V3.047h6.255V4.12H44.6V7.326h4.313Zm3.329-2.8.041.93A2.7,2.7,0,0,1,54.5,5.467q2.345,0,2.365,2.646V13H55.6V8.105a1.7,1.7,0,0,0-.366-1.183,1.466,1.466,0,0,0-1.118-.383,1.825,1.825,0,0,0-1.08.328,2.228,2.228,0,0,0-.725.861V13H51.046V5.6Zm9.5,6.5a1.822,1.822,0,0,0,1.183-.41,1.443,1.443,0,0,0,.561-1.025h1.2a2.293,2.293,0,0,1-.437,1.21,2.881,2.881,0,0,1-1.077.916,3.107,3.107,0,0,1-1.425.342,3.047,3.047,0,0,1-2.4-1.008,4.016,4.016,0,0,1-.892-2.758V9.158a4.453,4.453,0,0,1,.4-1.921,3.02,3.02,0,0,1,1.138-1.306,3.233,3.233,0,0,1,1.753-.465,2.966,2.966,0,0,1,2.068.745,2.663,2.663,0,0,1,.878,1.935h-1.2a1.743,1.743,0,0,0-.543-1.179,1.691,1.691,0,0,0-1.207-.461,1.77,1.77,0,0,0-1.494.694,3.259,3.259,0,0,0-.53,2.006v.239a3.194,3.194,0,0,0,.526,1.969A1.779,1.779,0,0,0,61.737,12.1Zm8.928.9a2.657,2.657,0,0,1-.178-.779,2.822,2.822,0,0,1-2.105.916,2.611,2.611,0,0,1-1.794-.619,2,2,0,0,1-.7-1.569,2.091,2.091,0,0,1,.878-1.794,4.141,4.141,0,0,1,2.471-.639h1.23V7.935a1.42,1.42,0,0,0-.4-1.056A1.593,1.593,0,0,0,68.9,6.485a1.844,1.844,0,0,0-1.135.342,1.007,1.007,0,0,0-.458.827H66.037a1.745,1.745,0,0,1,.393-1.07A2.683,2.683,0,0,1,67.5,5.768a3.588,3.588,0,0,1,1.48-.3,2.924,2.924,0,0,1,2,.639,2.306,2.306,0,0,1,.752,1.76v3.4a4.162,4.162,0,0,0,.26,1.62V13Zm-2.1-.964a2.223,2.223,0,0,0,1.128-.308,1.861,1.861,0,0,0,.772-.8V9.411h-.991q-2.324,0-2.324,1.36a1.151,1.151,0,0,0,.4.93A1.524,1.524,0,0,0,68.566,12.036Zm8.723-5.3a3.79,3.79,0,0,0-.622-.048,1.667,1.667,0,0,0-1.688,1.06V13H73.714V5.6h1.23l.021.854a1.969,1.969,0,0,1,1.764-.991,1.292,1.292,0,0,1,.561.1Zm.731,2.5a4.347,4.347,0,0,1,.8-2.751,2.757,2.757,0,0,1,4.231-.065l.062-.82h1.155v7.219a3.009,3.009,0,0,1-.851,2.263,3.141,3.141,0,0,1-2.287.827,3.8,3.8,0,0,1-1.565-.342,2.7,2.7,0,0,1-1.169-.937l.656-.759a2.473,2.473,0,0,0,1.989,1,1.938,1.938,0,0,0,1.439-.52A1.986,1.986,0,0,0,83,12.9v-.636a2.6,2.6,0,0,1-2.071.875,2.527,2.527,0,0,1-2.1-1.046A4.571,4.571,0,0,1,78.021,9.24Zm1.271.144a3.316,3.316,0,0,0,.513,1.965,1.666,1.666,0,0,0,1.436.714A1.852,1.852,0,0,0,83,10.977V7.6a1.874,1.874,0,0,0-1.743-1.06,1.681,1.681,0,0,0-1.442.718A3.612,3.612,0,0,0,79.292,9.384ZM90.742,13a2.657,2.657,0,0,1-.178-.779,2.822,2.822,0,0,1-2.105.916,2.611,2.611,0,0,1-1.794-.619,2,2,0,0,1-.7-1.569,2.091,2.091,0,0,1,.878-1.794,4.141,4.141,0,0,1,2.471-.639h1.23V7.935a1.42,1.42,0,0,0-.4-1.056,1.593,1.593,0,0,0-1.169-.393,1.844,1.844,0,0,0-1.135.342,1.007,1.007,0,0,0-.458.827H86.114a1.745,1.745,0,0,1,.393-1.07,2.683,2.683,0,0,1,1.066-.817,3.588,3.588,0,0,1,1.48-.3,2.924,2.924,0,0,1,2,.639,2.306,2.306,0,0,1,.752,1.76v3.4a4.162,4.162,0,0,0,.26,1.62V13Zm-2.1-.964a2.223,2.223,0,0,0,1.128-.308,1.861,1.861,0,0,0,.772-.8V9.411h-.991q-2.324,0-2.324,1.36a1.151,1.151,0,0,0,.4.93A1.524,1.524,0,0,0,88.644,12.036Zm4.84-2.8A4.333,4.333,0,0,1,94.29,6.5a2.745,2.745,0,0,1,4.17-.147V2.5h1.265V13H98.563l-.062-.793a2.575,2.575,0,0,1-2.112.93,2.526,2.526,0,0,1-2.1-1.053,4.382,4.382,0,0,1-.81-2.748Zm1.265.144a3.281,3.281,0,0,0,.52,1.969,1.68,1.68,0,0,0,1.436.711,1.845,1.845,0,0,0,1.757-1.08v-3.4A1.859,1.859,0,0,0,96.717,6.54a1.687,1.687,0,0,0-1.449.718A3.612,3.612,0,0,0,94.748,9.384Zm6.6-.15a4.369,4.369,0,0,1,.427-1.955,3.187,3.187,0,0,1,1.189-1.34,3.238,3.238,0,0,1,1.74-.472,3.119,3.119,0,0,1,2.444,1.046,4.024,4.024,0,0,1,.933,2.782v.089a4.407,4.407,0,0,1-.414,1.938,3.14,3.14,0,0,1-1.183,1.336,3.275,3.275,0,0,1-1.767.479,3.111,3.111,0,0,1-2.437-1.046,4,4,0,0,1-.933-2.769Zm1.271.15a3.164,3.164,0,0,0,.571,1.976,1.934,1.934,0,0,0,3.059-.01,3.46,3.46,0,0,0,.567-2.116,3.159,3.159,0,0,0-.578-1.972,1.836,1.836,0,0,0-1.535-.755,1.816,1.816,0,0,0-1.511.745A3.435,3.435,0,0,0,102.623,9.384Zm11.354,1.654a.931.931,0,0,0-.386-.8,3.718,3.718,0,0,0-1.347-.489,6.367,6.367,0,0,1-1.524-.492,2.169,2.169,0,0,1-.834-.684,1.635,1.635,0,0,1-.27-.943,1.919,1.919,0,0,1,.769-1.538,3,3,0,0,1,1.965-.629,3.091,3.091,0,0,1,2.041.649,2.063,2.063,0,0,1,.783,1.661H113.9a1.142,1.142,0,0,0-.441-.9,1.652,1.652,0,0,0-1.111-.376,1.729,1.729,0,0,0-1.08.3.947.947,0,0,0-.39.786.767.767,0,0,0,.362.69,4.458,4.458,0,0,0,1.309.444,6.821,6.821,0,0,1,1.535.506,2.239,2.239,0,0,1,.872.708,1.74,1.74,0,0,1,.284,1.008,1.893,1.893,0,0,1-.793,1.589,3.326,3.326,0,0,1-2.058.6,3.725,3.725,0,0,1-1.572-.314,2.557,2.557,0,0,1-1.07-.878,2.117,2.117,0,0,1-.386-1.22h1.265a1.309,1.309,0,0,0,.509,1.008,1.976,1.976,0,0,0,1.254.373,2.039,2.039,0,0,0,1.152-.291A.893.893,0,0,0,113.978,11.038Zm6.07-1.8a4.333,4.333,0,0,1,.807-2.738,2.745,2.745,0,0,1,4.17-.147V2.5h1.265V13h-1.162l-.062-.793a2.575,2.575,0,0,1-2.112.93,2.526,2.526,0,0,1-2.1-1.053,4.382,4.382,0,0,1-.81-2.748Zm1.265.144a3.281,3.281,0,0,0,.52,1.969,1.68,1.68,0,0,0,1.436.711,1.845,1.845,0,0,0,1.757-1.08v-3.4a1.859,1.859,0,0,0-1.743-1.046,1.687,1.687,0,0,0-1.449.718A3.612,3.612,0,0,0,121.313,9.384Zm10.008,3.753a3.232,3.232,0,0,1-2.447-.988,3.666,3.666,0,0,1-.943-2.642V9.274a4.438,4.438,0,0,1,.42-1.965,3.279,3.279,0,0,1,1.176-1.354,2.956,2.956,0,0,1,1.637-.489,2.77,2.77,0,0,1,2.242.95,4.114,4.114,0,0,1,.8,2.721v.526h-5.011a2.629,2.629,0,0,0,.639,1.767,2.009,2.009,0,0,0,1.555.673,2.2,2.2,0,0,0,1.135-.273,2.851,2.851,0,0,0,.813-.725l.772.6A3.106,3.106,0,0,1,131.32,13.137Zm-.157-6.631a1.687,1.687,0,0,0-1.285.557,2.708,2.708,0,0,0-.643,1.562h3.705v-.1a2.409,2.409,0,0,0-.52-1.494A1.588,1.588,0,0,0,131.163,6.506Zm11.546.232a3.79,3.79,0,0,0-.622-.048A1.667,1.667,0,0,0,140.4,7.75V13h-1.265V5.6h1.23l.021.854a1.969,1.969,0,0,1,1.764-.991,1.292,1.292,0,0,1,.561.1Zm4.1,6.4a3.232,3.232,0,0,1-2.447-.988,3.666,3.666,0,0,1-.943-2.642V9.274a4.438,4.438,0,0,1,.42-1.965,3.279,3.279,0,0,1,1.176-1.354,2.956,2.956,0,0,1,1.637-.489,2.77,2.77,0,0,1,2.242.95,4.114,4.114,0,0,1,.8,2.721v.526h-5.011a2.629,2.629,0,0,0,.639,1.767,2.009,2.009,0,0,0,1.555.673,2.2,2.2,0,0,0,1.135-.273,2.851,2.851,0,0,0,.813-.725l.772.6A3.106,3.106,0,0,1,146.811,13.137Zm-.157-6.631a1.687,1.687,0,0,0-1.285.557,2.708,2.708,0,0,0-.643,1.562h3.705v-.1a2.409,2.409,0,0,0-.52-1.494A1.588,1.588,0,0,0,146.653,6.506ZM155.725,13a2.657,2.657,0,0,1-.178-.779,2.822,2.822,0,0,1-2.105.916,2.611,2.611,0,0,1-1.794-.619,2,2,0,0,1-.7-1.569,2.091,2.091,0,0,1,.878-1.794,4.142,4.142,0,0,1,2.471-.639h1.23V7.935a1.42,1.42,0,0,0-.4-1.056,1.593,1.593,0,0,0-1.169-.393,1.844,1.844,0,0,0-1.135.342,1.007,1.007,0,0,0-.458.827H151.1a1.745,1.745,0,0,1,.393-1.07,2.683,2.683,0,0,1,1.066-.817,3.588,3.588,0,0,1,1.48-.3,2.924,2.924,0,0,1,2,.639,2.306,2.306,0,0,1,.752,1.76v3.4a4.162,4.162,0,0,0,.26,1.62V13Zm-2.1-.964a2.223,2.223,0,0,0,1.128-.308,1.861,1.861,0,0,0,.772-.8V9.411h-.991q-2.324,0-2.324,1.36a1.151,1.151,0,0,0,.4.93A1.524,1.524,0,0,0,153.626,12.036Zm6.521.964h-1.265V2.5h1.265Zm3.4,0H162.28V5.6h1.265Zm-1.367-9.358a.755.755,0,0,1,.188-.52.706.706,0,0,1,.557-.212.717.717,0,0,1,.561.212.747.747,0,0,1,.191.52.722.722,0,0,1-.191.513.73.73,0,0,1-.561.205.718.718,0,0,1-.557-.205A.73.73,0,0,1,162.178,3.642Zm4.58,8.326h4.327V13h-5.872v-.93l4.081-5.421h-4.02V5.6h5.605v.9ZM177.073,13a2.657,2.657,0,0,1-.178-.779,2.822,2.822,0,0,1-2.105.916A2.611,2.611,0,0,1,173,12.518a2,2,0,0,1-.7-1.569,2.091,2.091,0,0,1,.878-1.794,4.142,4.142,0,0,1,2.471-.639h1.23V7.935a1.42,1.42,0,0,0-.4-1.056,1.593,1.593,0,0,0-1.169-.393,1.844,1.844,0,0,0-1.135.342,1.007,1.007,0,0,0-.458.827h-1.271a1.745,1.745,0,0,1,.393-1.07,2.683,2.683,0,0,1,1.066-.817,3.588,3.588,0,0,1,1.48-.3,2.924,2.924,0,0,1,2,.639,2.306,2.306,0,0,1,.752,1.76v3.4a4.162,4.162,0,0,0,.26,1.62V13Zm-2.1-.964a2.223,2.223,0,0,0,1.128-.308,1.861,1.861,0,0,0,.772-.8V9.411h-.991q-2.324,0-2.324,1.36a1.151,1.151,0,0,0,.4.93A1.524,1.524,0,0,0,174.975,12.036Zm8.723-5.3a3.79,3.79,0,0,0-.622-.048,1.667,1.667,0,0,0-1.688,1.06V13h-1.265V5.6h1.23l.021.854a1.969,1.969,0,0,1,1.764-.991,1.292,1.292,0,0,1,.561.1Zm7.7,6.4a3.232,3.232,0,0,1-2.447-.988A3.666,3.666,0,0,1,188,9.507V9.274a4.438,4.438,0,0,1,.42-1.965A3.279,3.279,0,0,1,189.6,5.956a2.956,2.956,0,0,1,1.637-.489,2.77,2.77,0,0,1,2.242.95,4.114,4.114,0,0,1,.8,2.721v.526h-5.011a2.629,2.629,0,0,0,.639,1.767,2.009,2.009,0,0,0,1.555.673,2.2,2.2,0,0,0,1.135-.273,2.851,2.851,0,0,0,.813-.725l.772.6A3.106,3.106,0,0,1,191.395,13.137Zm-.157-6.631a1.687,1.687,0,0,0-1.285.557,2.708,2.708,0,0,0-.643,1.562h3.705v-.1a2.409,2.409,0,0,0-.52-1.494A1.588,1.588,0,0,0,191.237,6.506ZM197.116,13h-1.265V2.5h1.265Zm11.737-3.616a4.429,4.429,0,0,1-.772,2.721,2.476,2.476,0,0,1-2.092,1.032,2.713,2.713,0,0,1-2.119-.854v3.562h-1.265V5.6h1.155l.062.82a2.605,2.605,0,0,1,2.146-.957,2.522,2.522,0,0,1,2.109,1,4.477,4.477,0,0,1,.776,2.8Zm-1.265-.144a3.268,3.268,0,0,0-.533-1.976,1.718,1.718,0,0,0-1.463-.725,1.859,1.859,0,0,0-1.723,1.019v3.534a1.863,1.863,0,0,0,1.736,1.012,1.71,1.71,0,0,0,1.446-.721A3.567,3.567,0,0,0,207.589,9.24Zm6.446-2.5a3.79,3.79,0,0,0-.622-.048,1.667,1.667,0,0,0-1.688,1.06V13H210.46V5.6h1.23l.021.854a1.969,1.969,0,0,1,1.764-.991,1.292,1.292,0,0,1,.561.1Zm.69,2.5a4.369,4.369,0,0,1,.427-1.955,3.187,3.187,0,0,1,1.189-1.34,3.238,3.238,0,0,1,1.74-.472,3.119,3.119,0,0,1,2.444,1.046,4.024,4.024,0,0,1,.933,2.782v.089a4.407,4.407,0,0,1-.414,1.938,3.14,3.14,0,0,1-1.183,1.336,3.275,3.275,0,0,1-1.767.479,3.111,3.111,0,0,1-2.437-1.046,4,4,0,0,1-.933-2.769Zm1.271.15a3.164,3.164,0,0,0,.571,1.976,1.934,1.934,0,0,0,3.059-.01,3.46,3.46,0,0,0,.567-2.116,3.159,3.159,0,0,0-.578-1.972,1.836,1.836,0,0,0-1.535-.755,1.816,1.816,0,0,0-1.511.745A3.435,3.435,0,0,0,216,9.384Zm9.365,1.764L227.085,5.6h1.354l-2.974,8.538q-.69,1.846-2.194,1.846l-.239-.021-.472-.089V14.853l.342.027a1.683,1.683,0,0,0,1-.26,1.88,1.88,0,0,0,.591-.95l.28-.752L222.136,5.6h1.381Zm7.185,1.989a3.232,3.232,0,0,1-2.447-.988,3.666,3.666,0,0,1-.943-2.642V9.274a4.438,4.438,0,0,1,.42-1.965,3.279,3.279,0,0,1,1.176-1.354,2.956,2.956,0,0,1,1.637-.489,2.77,2.77,0,0,1,2.242.95,4.114,4.114,0,0,1,.8,2.721v.526h-5.011a2.629,2.629,0,0,0,.639,1.767,2.009,2.009,0,0,0,1.555.673,2.2,2.2,0,0,0,1.135-.273,2.851,2.851,0,0,0,.813-.725l.772.6A3.106,3.106,0,0,1,232.547,13.137Zm-.157-6.631a1.687,1.687,0,0,0-1.285.557,2.708,2.708,0,0,0-.643,1.562h3.705v-.1a2.409,2.409,0,0,0-.52-1.494A1.588,1.588,0,0,0,232.39,6.506Zm7.472,5.6a1.822,1.822,0,0,0,1.183-.41,1.443,1.443,0,0,0,.561-1.025h1.2a2.293,2.293,0,0,1-.437,1.21,2.881,2.881,0,0,1-1.077.916,3.107,3.107,0,0,1-1.425.342,3.047,3.047,0,0,1-2.4-1.008,4.016,4.016,0,0,1-.892-2.758V9.158a4.453,4.453,0,0,1,.4-1.921A3.02,3.02,0,0,1,238.1,5.932a3.233,3.233,0,0,1,1.753-.465,2.966,2.966,0,0,1,2.068.745,2.663,2.663,0,0,1,.878,1.935h-1.2a1.743,1.743,0,0,0-.543-1.179,1.691,1.691,0,0,0-1.207-.461,1.77,1.77,0,0,0-1.494.694,3.259,3.259,0,0,0-.53,2.006v.239a3.194,3.194,0,0,0,.526,1.969A1.779,1.779,0,0,0,239.861,12.1Zm6.077-8.292V5.6h1.381v.978h-1.381v4.593a1.027,1.027,0,0,0,.185.667.777.777,0,0,0,.629.222,3.062,3.062,0,0,0,.6-.082V13a3.688,3.688,0,0,1-.971.136,1.575,1.575,0,0,1-1.278-.513,2.2,2.2,0,0,1-.431-1.456V6.581h-1.347V5.6h1.347V3.813Zm2.386,5.421a4.369,4.369,0,0,1,.427-1.955,3.187,3.187,0,0,1,1.189-1.34,3.238,3.238,0,0,1,1.74-.472,3.119,3.119,0,0,1,2.444,1.046,4.024,4.024,0,0,1,.933,2.782v.089a4.407,4.407,0,0,1-.414,1.938,3.14,3.14,0,0,1-1.183,1.336,3.275,3.275,0,0,1-1.767.479,3.111,3.111,0,0,1-2.437-1.046,4,4,0,0,1-.933-2.769Zm1.271.15a3.164,3.164,0,0,0,.571,1.976,1.934,1.934,0,0,0,3.059-.01,3.46,3.46,0,0,0,.567-2.116,3.159,3.159,0,0,0-.578-1.972,1.836,1.836,0,0,0-1.535-.755,1.816,1.816,0,0,0-1.511.745A3.435,3.435,0,0,0,249.6,9.384ZM260.308,13V3.047h3.254a3.777,3.777,0,0,1,2.437.67,2.415,2.415,0,0,1,.817,1.982,2.022,2.022,0,0,1-.4,1.234,2.57,2.57,0,0,1-1.08.831,2.308,2.308,0,0,1,1.275.858,2.462,2.462,0,0,1,.468,1.507,2.662,2.662,0,0,1-.868,2.105A3.59,3.59,0,0,1,263.76,13Zm1.313-4.655v3.582h2.167a2.087,2.087,0,0,0,1.446-.475,1.669,1.669,0,0,0,.53-1.309q0-1.8-1.955-1.8Zm0-1.053H263.6a2.078,2.078,0,0,0,1.377-.432,1.447,1.447,0,0,0,.516-1.171,1.423,1.423,0,0,0-.479-1.2,2.35,2.35,0,0,0-1.456-.373H261.62Z" transform="translate(-3129 -6109)" fill="#12263f"/>
    <path id="Trazado_148330" data-name="Trazado 148330" d="M48.715,8.4H44.4v3.527h5.011V13H43.089V3.047h6.255V4.12H44.4V7.326h4.313Zm3.329-2.8.041.93A2.7,2.7,0,0,1,54.3,5.467q2.345,0,2.365,2.646V13H55.4V8.105a1.7,1.7,0,0,0-.366-1.183,1.466,1.466,0,0,0-1.118-.383,1.825,1.825,0,0,0-1.08.328,2.228,2.228,0,0,0-.725.861V13H50.848V5.6Zm9.5,6.5a1.822,1.822,0,0,0,1.183-.41,1.443,1.443,0,0,0,.561-1.025h1.2a2.293,2.293,0,0,1-.437,1.21,2.881,2.881,0,0,1-1.077.916,3.107,3.107,0,0,1-1.425.342,3.047,3.047,0,0,1-2.4-1.008,4.016,4.016,0,0,1-.892-2.758V9.158a4.453,4.453,0,0,1,.4-1.921,3.02,3.02,0,0,1,1.138-1.306,3.233,3.233,0,0,1,1.753-.465,2.966,2.966,0,0,1,2.068.745,2.663,2.663,0,0,1,.878,1.935h-1.2a1.743,1.743,0,0,0-.543-1.179,1.691,1.691,0,0,0-1.207-.461,1.77,1.77,0,0,0-1.494.694,3.259,3.259,0,0,0-.53,2.006v.239a3.194,3.194,0,0,0,.526,1.969A1.779,1.779,0,0,0,61.539,12.1Zm8.928.9a2.657,2.657,0,0,1-.178-.779,2.822,2.822,0,0,1-2.105.916,2.611,2.611,0,0,1-1.794-.619,2,2,0,0,1-.7-1.569,2.091,2.091,0,0,1,.878-1.794,4.141,4.141,0,0,1,2.471-.639h1.23V7.935a1.42,1.42,0,0,0-.4-1.056A1.593,1.593,0,0,0,68.7,6.485a1.844,1.844,0,0,0-1.135.342,1.007,1.007,0,0,0-.458.827H65.839a1.745,1.745,0,0,1,.393-1.07A2.683,2.683,0,0,1,67.3,5.768a3.588,3.588,0,0,1,1.48-.3,2.924,2.924,0,0,1,2,.639,2.306,2.306,0,0,1,.752,1.76v3.4a4.162,4.162,0,0,0,.26,1.62V13Zm-2.1-.964a2.223,2.223,0,0,0,1.128-.308,1.861,1.861,0,0,0,.772-.8V9.411h-.991q-2.324,0-2.324,1.36a1.151,1.151,0,0,0,.4.93A1.524,1.524,0,0,0,68.368,12.036Zm8.723-5.3a3.79,3.79,0,0,0-.622-.048A1.667,1.667,0,0,0,74.78,7.75V13H73.516V5.6h1.23l.021.854a1.969,1.969,0,0,1,1.764-.991,1.292,1.292,0,0,1,.561.1Zm.731,2.5a4.347,4.347,0,0,1,.8-2.751,2.757,2.757,0,0,1,4.231-.065l.062-.82H84.07v7.219a3.009,3.009,0,0,1-.851,2.263,3.141,3.141,0,0,1-2.287.827,3.8,3.8,0,0,1-1.565-.342,2.7,2.7,0,0,1-1.169-.937l.656-.759a2.473,2.473,0,0,0,1.989,1,1.938,1.938,0,0,0,1.439-.52A1.986,1.986,0,0,0,82.8,12.9v-.636a2.6,2.6,0,0,1-2.071.875,2.527,2.527,0,0,1-2.1-1.046A4.571,4.571,0,0,1,77.822,9.24Zm1.271.144a3.316,3.316,0,0,0,.513,1.965,1.666,1.666,0,0,0,1.436.714A1.852,1.852,0,0,0,82.8,10.977V7.6a1.874,1.874,0,0,0-1.743-1.06,1.681,1.681,0,0,0-1.442.718A3.612,3.612,0,0,0,79.094,9.384ZM90.544,13a2.657,2.657,0,0,1-.178-.779,2.822,2.822,0,0,1-2.105.916,2.611,2.611,0,0,1-1.794-.619,2,2,0,0,1-.7-1.569,2.091,2.091,0,0,1,.878-1.794,4.141,4.141,0,0,1,2.471-.639h1.23V7.935a1.42,1.42,0,0,0-.4-1.056,1.593,1.593,0,0,0-1.169-.393,1.844,1.844,0,0,0-1.135.342,1.007,1.007,0,0,0-.458.827H85.916a1.745,1.745,0,0,1,.393-1.07,2.683,2.683,0,0,1,1.066-.817,3.588,3.588,0,0,1,1.48-.3,2.924,2.924,0,0,1,2,.639,2.306,2.306,0,0,1,.752,1.76v3.4a4.162,4.162,0,0,0,.26,1.62V13Zm-2.1-.964a2.223,2.223,0,0,0,1.128-.308,1.861,1.861,0,0,0,.772-.8V9.411h-.991q-2.324,0-2.324,1.36a1.151,1.151,0,0,0,.4.93A1.524,1.524,0,0,0,88.445,12.036Zm4.84-2.8A4.333,4.333,0,0,1,94.092,6.5a2.745,2.745,0,0,1,4.17-.147V2.5h1.265V13H98.364l-.062-.793a2.575,2.575,0,0,1-2.112.93,2.526,2.526,0,0,1-2.1-1.053,4.382,4.382,0,0,1-.81-2.748Zm1.265.144a3.281,3.281,0,0,0,.52,1.969,1.68,1.68,0,0,0,1.436.711,1.845,1.845,0,0,0,1.757-1.08v-3.4A1.859,1.859,0,0,0,96.519,6.54a1.687,1.687,0,0,0-1.449.718A3.612,3.612,0,0,0,94.55,9.384Zm6.6-.15a4.369,4.369,0,0,1,.427-1.955,3.187,3.187,0,0,1,1.189-1.34,3.238,3.238,0,0,1,1.74-.472,3.119,3.119,0,0,1,2.444,1.046,4.024,4.024,0,0,1,.933,2.782v.089a4.407,4.407,0,0,1-.414,1.938,3.14,3.14,0,0,1-1.183,1.336,3.275,3.275,0,0,1-1.767.479,3.111,3.111,0,0,1-2.437-1.046,4,4,0,0,1-.933-2.769Zm1.271.15A3.164,3.164,0,0,0,103,11.359a1.934,1.934,0,0,0,3.059-.01,3.46,3.46,0,0,0,.567-2.116,3.159,3.159,0,0,0-.578-1.972,1.836,1.836,0,0,0-1.535-.755A1.816,1.816,0,0,0,103,7.251,3.435,3.435,0,0,0,102.425,9.384Zm11.354,1.654a.931.931,0,0,0-.386-.8,3.718,3.718,0,0,0-1.347-.489,6.367,6.367,0,0,1-1.524-.492,2.169,2.169,0,0,1-.834-.684,1.635,1.635,0,0,1-.27-.943,1.919,1.919,0,0,1,.769-1.538,3,3,0,0,1,1.965-.629,3.091,3.091,0,0,1,2.041.649,2.063,2.063,0,0,1,.783,1.661H113.7a1.142,1.142,0,0,0-.441-.9,1.652,1.652,0,0,0-1.111-.376,1.729,1.729,0,0,0-1.08.3.947.947,0,0,0-.39.786.767.767,0,0,0,.362.69,4.458,4.458,0,0,0,1.309.444,6.821,6.821,0,0,1,1.535.506,2.239,2.239,0,0,1,.872.708,1.74,1.74,0,0,1,.284,1.008,1.893,1.893,0,0,1-.793,1.589,3.326,3.326,0,0,1-2.058.6,3.725,3.725,0,0,1-1.572-.314,2.557,2.557,0,0,1-1.07-.878,2.117,2.117,0,0,1-.386-1.22h1.265a1.309,1.309,0,0,0,.509,1.008,1.976,1.976,0,0,0,1.254.373,2.039,2.039,0,0,0,1.152-.291A.893.893,0,0,0,113.779,11.038Zm6.07-1.8a4.333,4.333,0,0,1,.807-2.738,2.745,2.745,0,0,1,4.17-.147V2.5h1.265V13h-1.162l-.062-.793a2.575,2.575,0,0,1-2.112.93,2.526,2.526,0,0,1-2.1-1.053,4.382,4.382,0,0,1-.81-2.748Zm1.265.144a3.281,3.281,0,0,0,.52,1.969,1.68,1.68,0,0,0,1.436.711,1.845,1.845,0,0,0,1.757-1.08v-3.4a1.859,1.859,0,0,0-1.743-1.046,1.687,1.687,0,0,0-1.449.718A3.612,3.612,0,0,0,121.114,9.384Zm10.008,3.753a3.232,3.232,0,0,1-2.447-.988,3.666,3.666,0,0,1-.943-2.642V9.274a4.438,4.438,0,0,1,.42-1.965,3.279,3.279,0,0,1,1.176-1.354,2.956,2.956,0,0,1,1.637-.489,2.77,2.77,0,0,1,2.242.95,4.114,4.114,0,0,1,.8,2.721v.526H129a2.629,2.629,0,0,0,.639,1.767,2.009,2.009,0,0,0,1.555.673,2.2,2.2,0,0,0,1.135-.273,2.851,2.851,0,0,0,.813-.725l.772.6A3.106,3.106,0,0,1,131.122,13.137Zm-.157-6.631a1.687,1.687,0,0,0-1.285.557,2.708,2.708,0,0,0-.643,1.562h3.705v-.1a2.409,2.409,0,0,0-.52-1.494A1.588,1.588,0,0,0,130.965,6.506Zm11.546.232a3.79,3.79,0,0,0-.622-.048A1.667,1.667,0,0,0,140.2,7.75V13h-1.265V5.6h1.23l.021.854a1.969,1.969,0,0,1,1.764-.991,1.292,1.292,0,0,1,.561.1Zm4.1,6.4a3.232,3.232,0,0,1-2.447-.988,3.666,3.666,0,0,1-.943-2.642V9.274a4.438,4.438,0,0,1,.42-1.965,3.279,3.279,0,0,1,1.176-1.354,2.956,2.956,0,0,1,1.637-.489,2.77,2.77,0,0,1,2.242.95,4.114,4.114,0,0,1,.8,2.721v.526h-5.011a2.629,2.629,0,0,0,.639,1.767,2.009,2.009,0,0,0,1.555.673,2.2,2.2,0,0,0,1.135-.273,2.851,2.851,0,0,0,.813-.725l.772.6A3.106,3.106,0,0,1,146.612,13.137Zm-.157-6.631a1.687,1.687,0,0,0-1.285.557,2.708,2.708,0,0,0-.643,1.562h3.705v-.1a2.409,2.409,0,0,0-.52-1.494A1.588,1.588,0,0,0,146.455,6.506ZM155.526,13a2.657,2.657,0,0,1-.178-.779,2.822,2.822,0,0,1-2.105.916,2.611,2.611,0,0,1-1.794-.619,2,2,0,0,1-.7-1.569,2.091,2.091,0,0,1,.878-1.794,4.142,4.142,0,0,1,2.471-.639h1.23V7.935a1.42,1.42,0,0,0-.4-1.056,1.593,1.593,0,0,0-1.169-.393,1.844,1.844,0,0,0-1.135.342,1.007,1.007,0,0,0-.458.827H150.9a1.745,1.745,0,0,1,.393-1.07,2.683,2.683,0,0,1,1.066-.817,3.588,3.588,0,0,1,1.48-.3,2.924,2.924,0,0,1,2,.639,2.306,2.306,0,0,1,.752,1.76v3.4a4.162,4.162,0,0,0,.26,1.62V13Zm-2.1-.964a2.223,2.223,0,0,0,1.128-.308,1.861,1.861,0,0,0,.772-.8V9.411h-.991q-2.324,0-2.324,1.36a1.151,1.151,0,0,0,.4.93A1.524,1.524,0,0,0,153.428,12.036Zm6.521.964h-1.265V2.5h1.265Zm3.4,0h-1.265V5.6h1.265Zm-1.367-9.358a.755.755,0,0,1,.188-.52.706.706,0,0,1,.557-.212.717.717,0,0,1,.561.212.747.747,0,0,1,.191.52.722.722,0,0,1-.191.513.73.73,0,0,1-.561.205.718.718,0,0,1-.557-.205A.73.73,0,0,1,161.979,3.642Zm4.58,8.326h4.327V13h-5.872v-.93L169.1,6.649h-4.02V5.6h5.605v.9ZM176.875,13a2.657,2.657,0,0,1-.178-.779,2.822,2.822,0,0,1-2.105.916,2.611,2.611,0,0,1-1.794-.619,2,2,0,0,1-.7-1.569,2.091,2.091,0,0,1,.878-1.794,4.142,4.142,0,0,1,2.471-.639h1.23V7.935a1.42,1.42,0,0,0-.4-1.056,1.593,1.593,0,0,0-1.169-.393,1.844,1.844,0,0,0-1.135.342,1.007,1.007,0,0,0-.458.827h-1.271a1.745,1.745,0,0,1,.393-1.07,2.683,2.683,0,0,1,1.066-.817,3.588,3.588,0,0,1,1.48-.3,2.924,2.924,0,0,1,2,.639,2.306,2.306,0,0,1,.752,1.76v3.4a4.162,4.162,0,0,0,.26,1.62V13Zm-2.1-.964a2.223,2.223,0,0,0,1.128-.308,1.861,1.861,0,0,0,.772-.8V9.411h-.991q-2.324,0-2.324,1.36a1.151,1.151,0,0,0,.4.93A1.524,1.524,0,0,0,174.776,12.036Zm8.723-5.3a3.79,3.79,0,0,0-.622-.048,1.667,1.667,0,0,0-1.688,1.06V13h-1.265V5.6h1.23l.021.854a1.969,1.969,0,0,1,1.764-.991,1.292,1.292,0,0,1,.561.1Zm7.7,6.4a3.232,3.232,0,0,1-2.447-.988,3.666,3.666,0,0,1-.943-2.642V9.274a4.438,4.438,0,0,1,.42-1.965A3.279,3.279,0,0,1,189.4,5.956a2.956,2.956,0,0,1,1.637-.489,2.77,2.77,0,0,1,2.242.95,4.114,4.114,0,0,1,.8,2.721v.526H189.07a2.629,2.629,0,0,0,.639,1.767,2.009,2.009,0,0,0,1.555.673,2.2,2.2,0,0,0,1.135-.273,2.851,2.851,0,0,0,.813-.725l.772.6A3.106,3.106,0,0,1,191.2,13.137Zm-.157-6.631a1.687,1.687,0,0,0-1.285.557,2.708,2.708,0,0,0-.643,1.562h3.705v-.1a2.409,2.409,0,0,0-.52-1.494A1.588,1.588,0,0,0,191.039,6.506ZM196.918,13h-1.265V2.5h1.265Zm11.737-3.616a4.429,4.429,0,0,1-.772,2.721,2.476,2.476,0,0,1-2.092,1.032,2.713,2.713,0,0,1-2.119-.854v3.562h-1.265V5.6h1.155l.062.82a2.605,2.605,0,0,1,2.146-.957,2.522,2.522,0,0,1,2.109,1,4.477,4.477,0,0,1,.776,2.8Zm-1.265-.144a3.268,3.268,0,0,0-.533-1.976,1.718,1.718,0,0,0-1.463-.725,1.859,1.859,0,0,0-1.723,1.019v3.534a1.863,1.863,0,0,0,1.736,1.012,1.71,1.71,0,0,0,1.446-.721A3.567,3.567,0,0,0,207.391,9.24Zm6.446-2.5a3.79,3.79,0,0,0-.622-.048,1.667,1.667,0,0,0-1.688,1.06V13h-1.265V5.6h1.23l.021.854a1.969,1.969,0,0,1,1.764-.991,1.292,1.292,0,0,1,.561.1Zm.69,2.5a4.369,4.369,0,0,1,.427-1.955,3.187,3.187,0,0,1,1.189-1.34,3.238,3.238,0,0,1,1.74-.472,3.119,3.119,0,0,1,2.444,1.046,4.024,4.024,0,0,1,.933,2.782v.089a4.407,4.407,0,0,1-.414,1.938,3.14,3.14,0,0,1-1.183,1.336,3.275,3.275,0,0,1-1.767.479,3.111,3.111,0,0,1-2.437-1.046,4,4,0,0,1-.933-2.769Zm1.271.15a3.164,3.164,0,0,0,.571,1.976,1.934,1.934,0,0,0,3.059-.01A3.46,3.46,0,0,0,220,9.233a3.159,3.159,0,0,0-.578-1.972,1.836,1.836,0,0,0-1.535-.755,1.816,1.816,0,0,0-1.511.745A3.435,3.435,0,0,0,215.8,9.384Zm9.365,1.764L226.887,5.6h1.354l-2.974,8.538q-.69,1.846-2.194,1.846l-.239-.021-.472-.089V14.853l.342.027a1.683,1.683,0,0,0,1-.26,1.88,1.88,0,0,0,.591-.95l.28-.752L221.938,5.6h1.381Zm7.185,1.989a3.232,3.232,0,0,1-2.447-.988,3.666,3.666,0,0,1-.943-2.642V9.274a4.438,4.438,0,0,1,.42-1.965,3.279,3.279,0,0,1,1.176-1.354,2.956,2.956,0,0,1,1.637-.489,2.77,2.77,0,0,1,2.242.95,4.114,4.114,0,0,1,.8,2.721v.526h-5.011a2.629,2.629,0,0,0,.639,1.767,2.009,2.009,0,0,0,1.555.673,2.2,2.2,0,0,0,1.135-.273,2.851,2.851,0,0,0,.813-.725l.772.6A3.106,3.106,0,0,1,232.349,13.137Zm-.157-6.631a1.687,1.687,0,0,0-1.285.557,2.708,2.708,0,0,0-.643,1.562h3.705v-.1a2.409,2.409,0,0,0-.52-1.494A1.588,1.588,0,0,0,232.191,6.506Zm7.472,5.6a1.822,1.822,0,0,0,1.183-.41,1.443,1.443,0,0,0,.561-1.025h1.2a2.293,2.293,0,0,1-.437,1.21,2.881,2.881,0,0,1-1.077.916,3.107,3.107,0,0,1-1.425.342,3.047,3.047,0,0,1-2.4-1.008,4.016,4.016,0,0,1-.892-2.758V9.158a4.453,4.453,0,0,1,.4-1.921A3.02,3.02,0,0,1,237.9,5.932a3.233,3.233,0,0,1,1.753-.465,2.966,2.966,0,0,1,2.068.745,2.663,2.663,0,0,1,.878,1.935h-1.2a1.743,1.743,0,0,0-.543-1.179,1.691,1.691,0,0,0-1.207-.461,1.77,1.77,0,0,0-1.494.694,3.259,3.259,0,0,0-.53,2.006v.239a3.194,3.194,0,0,0,.526,1.969A1.779,1.779,0,0,0,239.663,12.1Zm6.077-8.292V5.6h1.381v.978H245.74v4.593a1.027,1.027,0,0,0,.185.667.777.777,0,0,0,.629.222,3.062,3.062,0,0,0,.6-.082V13a3.688,3.688,0,0,1-.971.136,1.575,1.575,0,0,1-1.278-.513,2.2,2.2,0,0,1-.431-1.456V6.581h-1.347V5.6h1.347V3.813Zm2.386,5.421a4.369,4.369,0,0,1,.427-1.955,3.187,3.187,0,0,1,1.189-1.34,3.238,3.238,0,0,1,1.74-.472,3.119,3.119,0,0,1,2.444,1.046,4.024,4.024,0,0,1,.933,2.782v.089a4.407,4.407,0,0,1-.414,1.938,3.14,3.14,0,0,1-1.183,1.336,3.275,3.275,0,0,1-1.767.479,3.111,3.111,0,0,1-2.437-1.046,4,4,0,0,1-.933-2.769Zm1.271.15a3.164,3.164,0,0,0,.571,1.976,1.934,1.934,0,0,0,3.059-.01,3.46,3.46,0,0,0,.567-2.116,3.159,3.159,0,0,0-.578-1.972,1.836,1.836,0,0,0-1.535-.755,1.816,1.816,0,0,0-1.511.745A3.435,3.435,0,0,0,249.4,9.384Zm18.033.458a3.662,3.662,0,0,1-1.166,2.437,3.82,3.82,0,0,1-2.608.858,3.507,3.507,0,0,1-2.827-1.265,5.088,5.088,0,0,1-1.063-3.384V7.531a5.671,5.671,0,0,1,.5-2.44,3.7,3.7,0,0,1,1.4-1.617,3.911,3.911,0,0,1,2.105-.564,3.6,3.6,0,0,1,2.543.885,3.706,3.706,0,0,1,1.114,2.451h-1.319a2.86,2.86,0,0,0-.742-1.728,2.244,2.244,0,0,0-1.6-.535,2.348,2.348,0,0,0-1.972.93,4.272,4.272,0,0,0-.714,2.648v.965a4.391,4.391,0,0,0,.677,2.579,2.187,2.187,0,0,0,1.894.958,2.526,2.526,0,0,0,1.678-.5,2.75,2.75,0,0,0,.776-1.726Z" transform="translate(-3129 -6031)" fill="#12263f"/>
    <rect id="Rectángulo_32741" data-name="Rectángulo 32741" width="149" height="66" rx="13" transform="translate(-3215 -6323)" fill="#81d4fa"/>
    <rect id="Rectángulo_32742" data-name="Rectángulo 32742" width="149" height="66" rx="13" transform="translate(-3046 -6323)" fill="#81d4fa"/>
    <rect id="Rectángulo_32743" data-name="Rectángulo 32743" width="149" height="66" rx="13" transform="translate(-2877 -6323)" fill="#81d4fa"/>
    <path id="Trazado_148322" data-name="Trazado 148322" d="M17.819,3.047h1.319v7.048a2.919,2.919,0,0,1-.858,2.235,3.2,3.2,0,0,1-2.287.807,3.292,3.292,0,0,1-2.311-.759,2.74,2.74,0,0,1-.827-2.126h1.313a1.825,1.825,0,0,0,.468,1.333,1.814,1.814,0,0,0,1.357.479,1.76,1.76,0,0,0,1.316-.513,1.986,1.986,0,0,0,.509-1.436Zm6.426,10.09a3.232,3.232,0,0,1-2.447-.988,3.666,3.666,0,0,1-.943-2.642V9.274a4.438,4.438,0,0,1,.42-1.965,3.28,3.28,0,0,1,1.176-1.354,2.956,2.956,0,0,1,1.637-.489,2.77,2.77,0,0,1,2.242.95,4.114,4.114,0,0,1,.8,2.721v.526H22.119a2.629,2.629,0,0,0,.639,1.767,2.009,2.009,0,0,0,1.555.673,2.2,2.2,0,0,0,1.135-.273,2.851,2.851,0,0,0,.813-.725l.772.6A3.106,3.106,0,0,1,24.245,13.137Zm-.157-6.631a1.687,1.687,0,0,0-1.285.557,2.708,2.708,0,0,0-.643,1.562h3.705v-.1a2.409,2.409,0,0,0-.52-1.494A1.588,1.588,0,0,0,24.088,6.506ZM29.215,13V6.581H28.046V5.6h1.169V4.845a2.519,2.519,0,0,1,.636-1.839,2.4,2.4,0,0,1,1.8-.649,3.339,3.339,0,0,1,.868.115l-.068,1.019a3.632,3.632,0,0,0-.684-.062,1.234,1.234,0,0,0-.95.36,1.46,1.46,0,0,0-.335,1.032V5.6h1.579v.978H30.479V13Zm7.144.137a3.232,3.232,0,0,1-2.447-.988,3.666,3.666,0,0,1-.943-2.642V9.274a4.438,4.438,0,0,1,.42-1.965,3.28,3.28,0,0,1,1.176-1.354A2.956,2.956,0,0,1,36.2,5.467a2.77,2.77,0,0,1,2.242.95,4.114,4.114,0,0,1,.8,2.721v.526H34.232a2.629,2.629,0,0,0,.639,1.767,2.009,2.009,0,0,0,1.555.673,2.2,2.2,0,0,0,1.135-.273,2.851,2.851,0,0,0,.813-.725l.772.6A3.106,3.106,0,0,1,36.358,13.137ZM36.2,6.506a1.687,1.687,0,0,0-1.285.557,2.708,2.708,0,0,0-.643,1.562h3.705v-.1a2.409,2.409,0,0,0-.52-1.494A1.588,1.588,0,0,0,36.2,6.506ZM43.864,9.24A4.333,4.333,0,0,1,44.671,6.5a2.745,2.745,0,0,1,4.17-.147V2.5h1.265V13H48.943l-.062-.793a2.575,2.575,0,0,1-2.112.93,2.526,2.526,0,0,1-2.1-1.053,4.382,4.382,0,0,1-.81-2.748Zm1.265.144a3.281,3.281,0,0,0,.52,1.969,1.68,1.68,0,0,0,1.436.711,1.845,1.845,0,0,0,1.757-1.08v-3.4A1.859,1.859,0,0,0,47.1,6.54a1.687,1.687,0,0,0-1.449.718A3.612,3.612,0,0,0,45.129,9.384Zm10.008,3.753a3.232,3.232,0,0,1-2.447-.988,3.666,3.666,0,0,1-.943-2.642V9.274a4.438,4.438,0,0,1,.42-1.965,3.28,3.28,0,0,1,1.176-1.354,2.956,2.956,0,0,1,1.637-.489,2.77,2.77,0,0,1,2.242.95,4.114,4.114,0,0,1,.8,2.721v.526H53.011a2.629,2.629,0,0,0,.639,1.767,2.009,2.009,0,0,0,1.555.673,2.2,2.2,0,0,0,1.135-.273,2.851,2.851,0,0,0,.813-.725l.772.6A3.106,3.106,0,0,1,55.137,13.137Zm-.157-6.631a1.687,1.687,0,0,0-1.285.557,2.708,2.708,0,0,0-.643,1.562h3.705v-.1a2.409,2.409,0,0,0-.52-1.494A1.588,1.588,0,0,0,54.979,6.506Zm11.04,6.631a3.232,3.232,0,0,1-2.447-.988,3.666,3.666,0,0,1-.943-2.642V9.274a4.438,4.438,0,0,1,.42-1.965,3.28,3.28,0,0,1,1.176-1.354,2.956,2.956,0,0,1,1.637-.489,2.77,2.77,0,0,1,2.242.95,4.114,4.114,0,0,1,.8,2.721v.526H63.894a2.629,2.629,0,0,0,.639,1.767,2.009,2.009,0,0,0,1.555.673,2.2,2.2,0,0,0,1.135-.273,2.851,2.851,0,0,0,.813-.725l.772.6A3.106,3.106,0,0,1,66.02,13.137Zm-.157-6.631a1.687,1.687,0,0,0-1.285.557,2.708,2.708,0,0,0-.643,1.562H67.64v-.1a2.409,2.409,0,0,0-.52-1.494A1.588,1.588,0,0,0,65.862,6.506Zm8.812,4.532a.931.931,0,0,0-.386-.8,3.718,3.718,0,0,0-1.347-.489,6.367,6.367,0,0,1-1.524-.492,2.169,2.169,0,0,1-.834-.684,1.635,1.635,0,0,1-.27-.943A1.919,1.919,0,0,1,71.082,6.1a3,3,0,0,1,1.965-.629,3.091,3.091,0,0,1,2.041.649,2.063,2.063,0,0,1,.783,1.661H74.6a1.142,1.142,0,0,0-.441-.9,1.652,1.652,0,0,0-1.111-.376,1.729,1.729,0,0,0-1.08.3.947.947,0,0,0-.39.786.767.767,0,0,0,.362.69,4.458,4.458,0,0,0,1.309.444,6.821,6.821,0,0,1,1.535.506,2.239,2.239,0,0,1,.872.708,1.74,1.74,0,0,1,.284,1.008,1.893,1.893,0,0,1-.793,1.589,3.326,3.326,0,0,1-2.058.6,3.725,3.725,0,0,1-1.572-.314,2.557,2.557,0,0,1-1.07-.878,2.117,2.117,0,0,1-.386-1.22h1.265a1.309,1.309,0,0,0,.509,1.008,1.976,1.976,0,0,0,1.254.373,2.039,2.039,0,0,0,1.152-.291A.893.893,0,0,0,74.674,11.038ZM79.3,3.813V5.6h1.381v.978H79.3v4.593a1.027,1.027,0,0,0,.185.667.777.777,0,0,0,.629.222,3.062,3.062,0,0,0,.6-.082V13a3.688,3.688,0,0,1-.971.136,1.575,1.575,0,0,1-1.278-.513,2.2,2.2,0,0,1-.431-1.456V6.581H76.69V5.6h1.347V3.813Zm7.424,8.456a2.686,2.686,0,0,1-2.167.868,2.3,2.3,0,0,1-1.8-.687,2.974,2.974,0,0,1-.625-2.034V5.6H83.4v4.778q0,1.682,1.367,1.682a1.893,1.893,0,0,0,1.928-1.08V5.6h1.265V13h-1.2ZM89.569,9.24A4.333,4.333,0,0,1,90.376,6.5a2.745,2.745,0,0,1,4.17-.147V2.5h1.265V13H94.648l-.062-.793a2.575,2.575,0,0,1-2.112.93,2.526,2.526,0,0,1-2.1-1.053,4.382,4.382,0,0,1-.81-2.748Zm1.265.144a3.281,3.281,0,0,0,.52,1.969,1.68,1.68,0,0,0,1.436.711,1.845,1.845,0,0,0,1.757-1.08v-3.4A1.859,1.859,0,0,0,92.8,6.54a1.687,1.687,0,0,0-1.449.718A3.612,3.612,0,0,0,90.834,9.384ZM99.146,13H97.882V5.6h1.265ZM97.779,3.642a.755.755,0,0,1,.188-.52.706.706,0,0,1,.557-.212.717.717,0,0,1,.561.212.747.747,0,0,1,.191.52.722.722,0,0,1-.191.513.73.73,0,0,1-.561.205.718.718,0,0,1-.557-.205A.73.73,0,0,1,97.779,3.642Zm3.056,5.592a4.369,4.369,0,0,1,.427-1.955,3.187,3.187,0,0,1,1.189-1.34,3.238,3.238,0,0,1,1.74-.472,3.119,3.119,0,0,1,2.444,1.046,4.024,4.024,0,0,1,.933,2.782v.089a4.407,4.407,0,0,1-.414,1.938,3.14,3.14,0,0,1-1.183,1.336,3.275,3.275,0,0,1-1.767.479,3.111,3.111,0,0,1-2.437-1.046,4,4,0,0,1-.933-2.769Zm1.271.15a3.164,3.164,0,0,0,.571,1.976,1.934,1.934,0,0,0,3.059-.01,3.46,3.46,0,0,0,.567-2.116,3.159,3.159,0,0,0-.578-1.972,1.836,1.836,0,0,0-1.535-.755,1.816,1.816,0,0,0-1.511.745A3.435,3.435,0,0,0,102.106,9.384Zm11.354,1.654a.931.931,0,0,0-.386-.8,3.718,3.718,0,0,0-1.347-.489,6.367,6.367,0,0,1-1.524-.492,2.169,2.169,0,0,1-.834-.684,1.635,1.635,0,0,1-.27-.943,1.919,1.919,0,0,1,.769-1.538,3,3,0,0,1,1.965-.629,3.091,3.091,0,0,1,2.041.649,2.063,2.063,0,0,1,.783,1.661h-1.271a1.142,1.142,0,0,0-.441-.9,1.652,1.652,0,0,0-1.111-.376,1.729,1.729,0,0,0-1.08.3.947.947,0,0,0-.39.786.767.767,0,0,0,.362.69,4.458,4.458,0,0,0,1.309.444,6.821,6.821,0,0,1,1.535.506,2.239,2.239,0,0,1,.872.708,1.74,1.74,0,0,1,.284,1.008,1.893,1.893,0,0,1-.793,1.589,3.326,3.326,0,0,1-2.058.6,3.725,3.725,0,0,1-1.572-.314,2.557,2.557,0,0,1-1.07-.878,2.117,2.117,0,0,1-.386-1.22h1.265a1.309,1.309,0,0,0,.509,1.008,1.976,1.976,0,0,0,1.254.373,2.039,2.039,0,0,0,1.152-.291A.893.893,0,0,0,113.461,11.038Zm8.8.109L123.981,5.6h1.354l-2.974,8.538q-.69,1.846-2.194,1.846l-.239-.021-.472-.089V14.853l.342.027a1.683,1.683,0,0,0,1-.26,1.88,1.88,0,0,0,.591-.95l.28-.752L119.032,5.6h1.381ZM48.831,33.24a4.333,4.333,0,0,1,.807-2.738,2.745,2.745,0,0,1,4.17-.147V26.5h1.265V37H53.91l-.062-.793a2.575,2.575,0,0,1-2.112.93,2.526,2.526,0,0,1-2.1-1.053,4.382,4.382,0,0,1-.81-2.748Zm1.265.144a3.281,3.281,0,0,0,.52,1.969,1.68,1.68,0,0,0,1.436.711,1.845,1.845,0,0,0,1.757-1.08v-3.4a1.859,1.859,0,0,0-1.743-1.046,1.687,1.687,0,0,0-1.449.718A3.612,3.612,0,0,0,50.1,33.384ZM58.408,37H57.143V29.6h1.265Zm-1.367-9.358a.755.755,0,0,1,.188-.52.706.706,0,0,1,.557-.212.717.717,0,0,1,.561.212.747.747,0,0,1,.191.52.722.722,0,0,1-.191.513.73.73,0,0,1-.561.205.718.718,0,0,1-.557-.205A.73.73,0,0,1,57.041,27.642Zm7.7,7.4a.931.931,0,0,0-.386-.8A3.718,3.718,0,0,0,63,33.753a6.367,6.367,0,0,1-1.524-.492,2.169,2.169,0,0,1-.834-.684,1.635,1.635,0,0,1-.27-.943,1.919,1.919,0,0,1,.769-1.538,3,3,0,0,1,1.965-.629,3.091,3.091,0,0,1,2.041.649,2.063,2.063,0,0,1,.783,1.661H64.663a1.142,1.142,0,0,0-.441-.9,1.652,1.652,0,0,0-1.111-.376,1.729,1.729,0,0,0-1.08.3.947.947,0,0,0-.39.786.767.767,0,0,0,.362.69,4.458,4.458,0,0,0,1.309.444,6.821,6.821,0,0,1,1.535.506,2.239,2.239,0,0,1,.872.708A1.74,1.74,0,0,1,66,34.949a1.893,1.893,0,0,1-.793,1.589,3.326,3.326,0,0,1-2.058.6,3.725,3.725,0,0,1-1.572-.314,2.557,2.557,0,0,1-1.07-.878,2.117,2.117,0,0,1-.386-1.22h1.265a1.309,1.309,0,0,0,.509,1.008,1.976,1.976,0,0,0,1.254.373,2.039,2.039,0,0,0,1.152-.291A.893.893,0,0,0,64.738,35.038Zm5.981,2.1a3.232,3.232,0,0,1-2.447-.988,3.666,3.666,0,0,1-.943-2.642v-.232a4.438,4.438,0,0,1,.42-1.965,3.28,3.28,0,0,1,1.176-1.354,2.956,2.956,0,0,1,1.637-.489,2.77,2.77,0,0,1,2.242.95,4.114,4.114,0,0,1,.8,2.721v.526H68.593a2.629,2.629,0,0,0,.639,1.767,2.009,2.009,0,0,0,1.555.673,2.2,2.2,0,0,0,1.135-.273,2.851,2.851,0,0,0,.813-.725l.772.6A3.106,3.106,0,0,1,70.719,37.137Zm-.157-6.631a1.687,1.687,0,0,0-1.285.557,2.708,2.708,0,0,0-.643,1.562h3.705v-.1a2.409,2.409,0,0,0-.52-1.494A1.588,1.588,0,0,0,70.562,30.506Zm5.7-.9.041.93a2.7,2.7,0,0,1,2.215-1.066q2.345,0,2.365,2.646V37H79.62V32.105a1.7,1.7,0,0,0-.366-1.183,1.466,1.466,0,0,0-1.118-.383,1.825,1.825,0,0,0-1.08.328,2.228,2.228,0,0,0-.725.861V37H75.067V29.6Zm4.184-2.885a1.7,1.7,0,0,1-.42,1.2,1.365,1.365,0,0,1-1.049.458,1.54,1.54,0,0,1-.485-.068,2.619,2.619,0,0,1-.537-.28,2.324,2.324,0,0,0-.479-.256,1.171,1.171,0,0,0-.338-.044.627.627,0,0,0-.479.215.781.781,0,0,0-.2.55l-.848-.048a1.784,1.784,0,0,1,.414-1.21,1.327,1.327,0,0,1,1.049-.479,1.275,1.275,0,0,1,.431.068,3.139,3.139,0,0,1,.52.267,3.057,3.057,0,0,0,.5.26,1.154,1.154,0,0,0,.386.062.612.612,0,0,0,.489-.232.815.815,0,0,0,.195-.54Zm2.01,6.515a4.369,4.369,0,0,1,.427-1.955,3.187,3.187,0,0,1,1.189-1.34,3.238,3.238,0,0,1,1.74-.472,3.119,3.119,0,0,1,2.444,1.046,4.024,4.024,0,0,1,.933,2.782v.089a4.407,4.407,0,0,1-.414,1.938,3.14,3.14,0,0,1-1.183,1.336,3.275,3.275,0,0,1-1.767.479,3.111,3.111,0,0,1-2.437-1.046,4,4,0,0,1-.933-2.769Zm1.271.15a3.164,3.164,0,0,0,.571,1.976,1.934,1.934,0,0,0,3.059-.01,3.46,3.46,0,0,0,.567-2.116,3.159,3.159,0,0,0-.578-1.972,1.836,1.836,0,0,0-1.535-.755,1.816,1.816,0,0,0-1.511.745A3.435,3.435,0,0,0,83.728,33.384Z" transform="translate(-3209 -6312)" fill="#12263f"/>
    <path id="Trazado_148323" data-name="Trazado 148323" d="M19.2,3.047h1.319v7.048a2.919,2.919,0,0,1-.858,2.235,3.2,3.2,0,0,1-2.287.807,3.292,3.292,0,0,1-2.311-.759,2.74,2.74,0,0,1-.827-2.126h1.313a1.825,1.825,0,0,0,.468,1.333,1.814,1.814,0,0,0,1.357.479,1.76,1.76,0,0,0,1.316-.513,1.986,1.986,0,0,0,.509-1.436Zm6.426,10.09a3.232,3.232,0,0,1-2.447-.988,3.666,3.666,0,0,1-.943-2.642V9.274a4.438,4.438,0,0,1,.42-1.965,3.28,3.28,0,0,1,1.176-1.354,2.956,2.956,0,0,1,1.637-.489,2.77,2.77,0,0,1,2.242.95,4.114,4.114,0,0,1,.8,2.721v.526H23.5a2.629,2.629,0,0,0,.639,1.767A2.009,2.009,0,0,0,25.7,12.1a2.2,2.2,0,0,0,1.135-.273,2.851,2.851,0,0,0,.813-.725l.772.6A3.106,3.106,0,0,1,25.629,13.137Zm-.157-6.631a1.687,1.687,0,0,0-1.285.557,2.708,2.708,0,0,0-.643,1.562H27.25v-.1a2.409,2.409,0,0,0-.52-1.494A1.588,1.588,0,0,0,25.472,6.506ZM30.6,13V6.581H29.43V5.6H30.6V4.845a2.519,2.519,0,0,1,.636-1.839,2.4,2.4,0,0,1,1.8-.649,3.339,3.339,0,0,1,.868.115l-.068,1.019a3.632,3.632,0,0,0-.684-.062,1.234,1.234,0,0,0-.95.36,1.46,1.46,0,0,0-.335,1.032V5.6h1.579v.978H31.864V13Zm7.144.137a3.232,3.232,0,0,1-2.447-.988,3.666,3.666,0,0,1-.943-2.642V9.274a4.438,4.438,0,0,1,.42-1.965,3.28,3.28,0,0,1,1.176-1.354,2.956,2.956,0,0,1,1.637-.489,2.77,2.77,0,0,1,2.242.95,4.114,4.114,0,0,1,.8,2.721v.526H35.617a2.629,2.629,0,0,0,.639,1.767,2.009,2.009,0,0,0,1.555.673,2.2,2.2,0,0,0,1.135-.273,2.851,2.851,0,0,0,.813-.725l.772.6A3.106,3.106,0,0,1,37.743,13.137Zm-.157-6.631a1.687,1.687,0,0,0-1.285.557,2.708,2.708,0,0,0-.643,1.562h3.705v-.1a2.409,2.409,0,0,0-.52-1.494A1.588,1.588,0,0,0,37.585,6.506ZM45.249,9.24A4.333,4.333,0,0,1,46.055,6.5a2.745,2.745,0,0,1,4.17-.147V2.5H51.49V13H50.328l-.062-.793a2.575,2.575,0,0,1-2.112.93,2.526,2.526,0,0,1-2.1-1.053,4.382,4.382,0,0,1-.81-2.748Zm1.265.144a3.281,3.281,0,0,0,.52,1.969,1.68,1.68,0,0,0,1.436.711,1.845,1.845,0,0,0,1.757-1.08v-3.4A1.859,1.859,0,0,0,48.482,6.54a1.687,1.687,0,0,0-1.449.718A3.612,3.612,0,0,0,46.513,9.384Zm10.008,3.753a3.232,3.232,0,0,1-2.447-.988,3.666,3.666,0,0,1-.943-2.642V9.274a4.438,4.438,0,0,1,.42-1.965,3.28,3.28,0,0,1,1.176-1.354,2.956,2.956,0,0,1,1.637-.489,2.77,2.77,0,0,1,2.242.95,4.114,4.114,0,0,1,.8,2.721v.526H54.4a2.629,2.629,0,0,0,.639,1.767,2.009,2.009,0,0,0,1.555.673,2.2,2.2,0,0,0,1.135-.273,2.851,2.851,0,0,0,.813-.725l.772.6A3.106,3.106,0,0,1,56.521,13.137Zm-.157-6.631a1.687,1.687,0,0,0-1.285.557,2.708,2.708,0,0,0-.643,1.562h3.705v-.1a2.409,2.409,0,0,0-.52-1.494A1.588,1.588,0,0,0,56.364,6.506ZM65.708,13H64.444V5.6h1.265ZM64.341,3.642a.755.755,0,0,1,.188-.52.706.706,0,0,1,.557-.212.717.717,0,0,1,.561.212.747.747,0,0,1,.191.52.722.722,0,0,1-.191.513.73.73,0,0,1-.561.205.718.718,0,0,1-.557-.205A.73.73,0,0,1,64.341,3.642ZM68.928,5.6l.041.93a2.7,2.7,0,0,1,2.215-1.066q2.345,0,2.365,2.646V13H72.285V8.105a1.7,1.7,0,0,0-.366-1.183A1.466,1.466,0,0,0,70.8,6.54a1.825,1.825,0,0,0-1.08.328A2.228,2.228,0,0,0,69,7.729V13H67.732V5.6ZM75.156,9.24a4.347,4.347,0,0,1,.8-2.751,2.757,2.757,0,0,1,4.231-.065l.062-.82H81.4v7.219a3.009,3.009,0,0,1-.851,2.263,3.141,3.141,0,0,1-2.287.827A3.8,3.8,0,0,1,76.7,15.57a2.7,2.7,0,0,1-1.169-.937l.656-.759a2.473,2.473,0,0,0,1.989,1,1.938,1.938,0,0,0,1.439-.52,1.986,1.986,0,0,0,.516-1.463v-.636a2.6,2.6,0,0,1-2.071.875,2.527,2.527,0,0,1-2.1-1.046A4.571,4.571,0,0,1,75.156,9.24Zm1.271.144a3.316,3.316,0,0,0,.513,1.965,1.666,1.666,0,0,0,1.436.714,1.852,1.852,0,0,0,1.757-1.087V7.6a1.874,1.874,0,0,0-1.743-1.06,1.681,1.681,0,0,0-1.442.718A3.612,3.612,0,0,0,76.427,9.384Zm9.953,3.753a3.232,3.232,0,0,1-2.447-.988,3.666,3.666,0,0,1-.943-2.642V9.274a4.438,4.438,0,0,1,.42-1.965,3.28,3.28,0,0,1,1.176-1.354,2.956,2.956,0,0,1,1.637-.489,2.77,2.77,0,0,1,2.242.95,4.114,4.114,0,0,1,.8,2.721v.526H84.254a2.629,2.629,0,0,0,.639,1.767,2.009,2.009,0,0,0,1.555.673,2.2,2.2,0,0,0,1.135-.273,2.851,2.851,0,0,0,.813-.725l.772.6A3.106,3.106,0,0,1,86.38,13.137Zm-.157-6.631a1.687,1.687,0,0,0-1.285.557A2.708,2.708,0,0,0,84.3,8.625H88v-.1a2.409,2.409,0,0,0-.52-1.494A1.588,1.588,0,0,0,86.223,6.506Zm5.7-.9.041.93A2.7,2.7,0,0,1,94.18,5.467q2.345,0,2.365,2.646V13H95.281V8.105a1.7,1.7,0,0,0-.366-1.183A1.466,1.466,0,0,0,93.8,6.54a1.825,1.825,0,0,0-1.08.328,2.228,2.228,0,0,0-.725.861V13H90.728V5.6Zm7.9,7.4H98.562V5.6h1.265ZM98.459,3.642a.755.755,0,0,1,.188-.52A.706.706,0,0,1,99.2,2.91a.717.717,0,0,1,.561.212.747.747,0,0,1,.191.52.722.722,0,0,1-.191.513.73.73,0,0,1-.561.205.718.718,0,0,1-.557-.205A.73.73,0,0,1,98.459,3.642Zm6.46,9.5a3.232,3.232,0,0,1-2.447-.988,3.666,3.666,0,0,1-.943-2.642V9.274a4.438,4.438,0,0,1,.42-1.965,3.28,3.28,0,0,1,1.176-1.354,2.956,2.956,0,0,1,1.637-.489,2.77,2.77,0,0,1,2.242.95,4.114,4.114,0,0,1,.8,2.721v.526h-5.011a2.629,2.629,0,0,0,.639,1.767,2.009,2.009,0,0,0,1.555.673,2.2,2.2,0,0,0,1.135-.273,2.851,2.851,0,0,0,.813-.725l.772.6A3.106,3.106,0,0,1,104.919,13.137Zm-.157-6.631a1.687,1.687,0,0,0-1.285.557,2.708,2.708,0,0,0-.643,1.562h3.705v-.1a2.409,2.409,0,0,0-.52-1.494A1.588,1.588,0,0,0,104.762,6.506Zm8.08.232a3.79,3.79,0,0,0-.622-.048,1.667,1.667,0,0,0-1.688,1.06V13h-1.265V5.6h1.23l.021.854a1.969,1.969,0,0,1,1.764-.991,1.292,1.292,0,0,1,.561.1ZM115.378,13h-1.271V5.6h1.271Zm.014-10.479h1.531l-1.832,2.01-1.019,0ZM122.03,13a2.657,2.657,0,0,1-.178-.779,2.822,2.822,0,0,1-2.105.916,2.611,2.611,0,0,1-1.794-.619,2,2,0,0,1-.7-1.569,2.091,2.091,0,0,1,.878-1.794,4.141,4.141,0,0,1,2.471-.639h1.23V7.935a1.42,1.42,0,0,0-.4-1.056,1.593,1.593,0,0,0-1.169-.393,1.844,1.844,0,0,0-1.135.342,1.007,1.007,0,0,0-.458.827H117.4a1.745,1.745,0,0,1,.393-1.07,2.683,2.683,0,0,1,1.066-.817,3.588,3.588,0,0,1,1.48-.3,2.924,2.924,0,0,1,2,.639,2.306,2.306,0,0,1,.752,1.76v3.4a4.162,4.162,0,0,0,.26,1.62V13Zm-2.1-.964a2.223,2.223,0,0,0,1.128-.308,1.861,1.861,0,0,0,.772-.8V9.411h-.991q-2.324,0-2.324,1.36a1.151,1.151,0,0,0,.4.93A1.524,1.524,0,0,0,119.931,12.036Z" transform="translate(-3040 -6301)" fill="#12263f"/>
    <path id="Trazado_148324" data-name="Trazado 148324" d="M51.309,3.047h1.319v7.048a2.919,2.919,0,0,1-.858,2.235,3.2,3.2,0,0,1-2.287.807,3.292,3.292,0,0,1-2.311-.759,2.74,2.74,0,0,1-.827-2.126h1.313a1.825,1.825,0,0,0,.468,1.333,1.814,1.814,0,0,0,1.357.479,1.76,1.76,0,0,0,1.316-.513,1.986,1.986,0,0,0,.509-1.436Zm6.426,10.09a3.232,3.232,0,0,1-2.447-.988,3.666,3.666,0,0,1-.943-2.642V9.274a4.438,4.438,0,0,1,.42-1.965A3.28,3.28,0,0,1,55.94,5.956a2.956,2.956,0,0,1,1.637-.489,2.77,2.77,0,0,1,2.242.95,4.114,4.114,0,0,1,.8,2.721v.526H55.608a2.629,2.629,0,0,0,.639,1.767A2.009,2.009,0,0,0,57.8,12.1a2.2,2.2,0,0,0,1.135-.273,2.851,2.851,0,0,0,.813-.725l.772.6A3.106,3.106,0,0,1,57.734,13.137Zm-.157-6.631a1.687,1.687,0,0,0-1.285.557,2.708,2.708,0,0,0-.643,1.562h3.705v-.1a2.409,2.409,0,0,0-.52-1.494A1.588,1.588,0,0,0,57.577,6.506ZM62.7,13V6.581H61.535V5.6H62.7V4.845a2.519,2.519,0,0,1,.636-1.839,2.4,2.4,0,0,1,1.8-.649,3.339,3.339,0,0,1,.868.115l-.068,1.019a3.632,3.632,0,0,0-.684-.062,1.234,1.234,0,0,0-.95.36,1.46,1.46,0,0,0-.335,1.032V5.6h1.579v.978H63.969V13Zm7.144.137a3.232,3.232,0,0,1-2.447-.988,3.666,3.666,0,0,1-.943-2.642V9.274a4.438,4.438,0,0,1,.42-1.965,3.28,3.28,0,0,1,1.176-1.354,2.956,2.956,0,0,1,1.637-.489,2.77,2.77,0,0,1,2.242.95,4.114,4.114,0,0,1,.8,2.721v.526H67.722a2.629,2.629,0,0,0,.639,1.767,2.009,2.009,0,0,0,1.555.673,2.2,2.2,0,0,0,1.135-.273,2.851,2.851,0,0,0,.813-.725l.772.6A3.106,3.106,0,0,1,69.848,13.137ZM69.69,6.506a1.687,1.687,0,0,0-1.285.557,2.708,2.708,0,0,0-.643,1.562h3.705v-.1a2.409,2.409,0,0,0-.52-1.494A1.588,1.588,0,0,0,69.69,6.506ZM77.354,9.24A4.333,4.333,0,0,1,78.16,6.5a2.745,2.745,0,0,1,4.17-.147V2.5h1.265V13H82.433l-.062-.793a2.575,2.575,0,0,1-2.112.93,2.526,2.526,0,0,1-2.1-1.053,4.382,4.382,0,0,1-.81-2.748Zm1.265.144a3.281,3.281,0,0,0,.52,1.969,1.68,1.68,0,0,0,1.436.711,1.845,1.845,0,0,0,1.757-1.08v-3.4A1.859,1.859,0,0,0,80.587,6.54a1.687,1.687,0,0,0-1.449.718A3.612,3.612,0,0,0,78.618,9.384Zm10.008,3.753a3.232,3.232,0,0,1-2.447-.988,3.666,3.666,0,0,1-.943-2.642V9.274a4.438,4.438,0,0,1,.42-1.965,3.28,3.28,0,0,1,1.176-1.354,2.956,2.956,0,0,1,1.637-.489,2.77,2.77,0,0,1,2.242.95,4.114,4.114,0,0,1,.8,2.721v.526H86.5a2.629,2.629,0,0,0,.639,1.767,2.009,2.009,0,0,0,1.555.673,2.2,2.2,0,0,0,1.135-.273,2.851,2.851,0,0,0,.813-.725l.772.6A3.106,3.106,0,0,1,88.626,13.137Zm-.157-6.631a1.687,1.687,0,0,0-1.285.557,2.708,2.708,0,0,0-.643,1.562h3.705v-.1a2.409,2.409,0,0,0-.52-1.494A1.588,1.588,0,0,0,88.469,6.506ZM16.873,37a2.657,2.657,0,0,1-.178-.779,2.822,2.822,0,0,1-2.105.916,2.611,2.611,0,0,1-1.794-.619,2,2,0,0,1-.7-1.569,2.091,2.091,0,0,1,.878-1.794,4.142,4.142,0,0,1,2.471-.639h1.23v-.581a1.42,1.42,0,0,0-.4-1.056,1.593,1.593,0,0,0-1.169-.393,1.844,1.844,0,0,0-1.135.342,1.007,1.007,0,0,0-.458.827H12.245a1.745,1.745,0,0,1,.393-1.07,2.683,2.683,0,0,1,1.066-.817,3.588,3.588,0,0,1,1.48-.3,2.924,2.924,0,0,1,2,.639,2.306,2.306,0,0,1,.752,1.76v3.4a4.162,4.162,0,0,0,.26,1.62V37Zm-2.1-.964a2.223,2.223,0,0,0,1.128-.308,1.861,1.861,0,0,0,.772-.8V33.411h-.991q-2.324,0-2.324,1.36a1.151,1.151,0,0,0,.4.93A1.524,1.524,0,0,0,14.774,36.036Zm11.4-2.652A4.429,4.429,0,0,1,25.4,36.1a2.476,2.476,0,0,1-2.092,1.032,2.713,2.713,0,0,1-2.119-.854v3.562H19.921V29.6h1.155l.062.82a2.605,2.605,0,0,1,2.146-.957,2.522,2.522,0,0,1,2.109,1,4.477,4.477,0,0,1,.776,2.8ZM24.9,33.24a3.268,3.268,0,0,0-.533-1.976,1.718,1.718,0,0,0-1.463-.725,1.859,1.859,0,0,0-1.723,1.019v3.534A1.863,1.863,0,0,0,22.922,36.1a1.71,1.71,0,0,0,1.446-.721A3.567,3.567,0,0,0,24.9,33.24Zm6.446-2.5a3.79,3.79,0,0,0-.622-.048,1.667,1.667,0,0,0-1.688,1.06V37H27.776V29.6h1.23l.021.854a1.969,1.969,0,0,1,1.764-.991,1.292,1.292,0,0,1,.561.1Zm.69,2.5a4.369,4.369,0,0,1,.427-1.955,3.187,3.187,0,0,1,1.189-1.34,3.238,3.238,0,0,1,1.74-.472,3.119,3.119,0,0,1,2.444,1.046,4.024,4.024,0,0,1,.933,2.782v.089a4.407,4.407,0,0,1-.414,1.938,3.14,3.14,0,0,1-1.183,1.336,3.275,3.275,0,0,1-1.767.479,3.111,3.111,0,0,1-2.437-1.046,4,4,0,0,1-.933-2.769Zm1.271.15a3.164,3.164,0,0,0,.571,1.976,1.934,1.934,0,0,0,3.059-.01,3.46,3.46,0,0,0,.567-2.116,3.159,3.159,0,0,0-.578-1.972,1.836,1.836,0,0,0-1.535-.755,1.816,1.816,0,0,0-1.511.745A3.435,3.435,0,0,0,33.313,33.384Zm9.386,1.9L44.531,29.6h1.292L43.17,37h-.964l-2.68-7.4h1.292ZM48.414,37H47.149V29.6h1.265Zm-1.367-9.358a.755.755,0,0,1,.188-.52.706.706,0,0,1,.557-.212.717.717,0,0,1,.561.212.747.747,0,0,1,.191.52.722.722,0,0,1-.191.513.73.73,0,0,1-.561.205.718.718,0,0,1-.557-.205A.73.73,0,0,1,47.046,27.642Zm7.7,7.4a.931.931,0,0,0-.386-.8,3.718,3.718,0,0,0-1.347-.489,6.367,6.367,0,0,1-1.524-.492,2.169,2.169,0,0,1-.834-.684,1.635,1.635,0,0,1-.27-.943,1.919,1.919,0,0,1,.769-1.538,3,3,0,0,1,1.965-.629,3.091,3.091,0,0,1,2.041.649,2.063,2.063,0,0,1,.783,1.661H54.668a1.142,1.142,0,0,0-.441-.9,1.652,1.652,0,0,0-1.111-.376,1.729,1.729,0,0,0-1.08.3.947.947,0,0,0-.39.786.767.767,0,0,0,.362.69,4.458,4.458,0,0,0,1.309.444,6.821,6.821,0,0,1,1.535.506,2.239,2.239,0,0,1,.872.708,1.74,1.74,0,0,1,.284,1.008,1.893,1.893,0,0,1-.793,1.589,3.326,3.326,0,0,1-2.058.6,3.725,3.725,0,0,1-1.572-.314,2.557,2.557,0,0,1-1.07-.878,2.117,2.117,0,0,1-.386-1.22h1.265a1.309,1.309,0,0,0,.509,1.008,1.976,1.976,0,0,0,1.254.373,2.039,2.039,0,0,0,1.152-.291A.893.893,0,0,0,54.744,35.038ZM59.03,37H57.765V29.6H59.03Zm-1.367-9.358a.755.755,0,0,1,.188-.52.706.706,0,0,1,.557-.212.717.717,0,0,1,.561.212.747.747,0,0,1,.191.52.722.722,0,0,1-.191.513.73.73,0,0,1-.561.205.718.718,0,0,1-.557-.205A.73.73,0,0,1,57.663,27.642Zm3.056,5.592a4.369,4.369,0,0,1,.427-1.955,3.187,3.187,0,0,1,1.189-1.34,3.238,3.238,0,0,1,1.74-.472,3.119,3.119,0,0,1,2.444,1.046,4.024,4.024,0,0,1,.933,2.782v.089a4.407,4.407,0,0,1-.414,1.938,3.14,3.14,0,0,1-1.183,1.336,3.275,3.275,0,0,1-1.767.479,3.111,3.111,0,0,1-2.437-1.046,4,4,0,0,1-.933-2.769Zm1.271.15a3.164,3.164,0,0,0,.571,1.976,1.934,1.934,0,0,0,3.059-.01,3.46,3.46,0,0,0,.567-2.116,3.159,3.159,0,0,0-.578-1.972,1.836,1.836,0,0,0-1.535-.755,1.816,1.816,0,0,0-1.511.745A3.435,3.435,0,0,0,61.99,33.384Zm8.244-3.78.041.93a2.7,2.7,0,0,1,2.215-1.066q2.345,0,2.365,2.646V37H73.59V32.105a1.7,1.7,0,0,0-.366-1.183,1.466,1.466,0,0,0-1.118-.383,1.825,1.825,0,0,0-1.08.328,2.228,2.228,0,0,0-.725.861V37H69.038V29.6ZM81.329,37a2.657,2.657,0,0,1-.178-.779,2.822,2.822,0,0,1-2.105.916,2.611,2.611,0,0,1-1.794-.619,2,2,0,0,1-.7-1.569,2.091,2.091,0,0,1,.878-1.794,4.142,4.142,0,0,1,2.471-.639h1.23v-.581a1.42,1.42,0,0,0-.4-1.056,1.593,1.593,0,0,0-1.169-.393,1.844,1.844,0,0,0-1.135.342,1.007,1.007,0,0,0-.458.827H76.7a1.745,1.745,0,0,1,.393-1.07,2.683,2.683,0,0,1,1.066-.817,3.588,3.588,0,0,1,1.48-.3,2.924,2.924,0,0,1,2,.639,2.306,2.306,0,0,1,.752,1.76v3.4a4.162,4.162,0,0,0,.26,1.62V37Zm-2.1-.964a2.223,2.223,0,0,0,1.128-.308,1.861,1.861,0,0,0,.772-.8V33.411h-.991q-2.324,0-2.324,1.36a1.151,1.151,0,0,0,.4.93A1.524,1.524,0,0,0,79.23,36.036ZM85.567,29.6l.034.82a2.732,2.732,0,0,1,2.194-.957,2.115,2.115,0,0,1,2.112,1.189,2.8,2.8,0,0,1,.96-.861,2.837,2.837,0,0,1,1.4-.328q2.434,0,2.475,2.577V37H93.476V32.119a1.7,1.7,0,0,0-.362-1.186A1.6,1.6,0,0,0,91.9,30.54a1.677,1.677,0,0,0-1.169.42,1.706,1.706,0,0,0-.54,1.131V37H88.917V32.153a1.411,1.411,0,0,0-1.579-1.613,1.692,1.692,0,0,0-1.7,1.06V37H84.371V29.6ZM98.022,37H96.757V29.6h1.265Zm-1.367-9.358a.755.755,0,0,1,.188-.52.706.706,0,0,1,.557-.212.717.717,0,0,1,.561.212.747.747,0,0,1,.191.52.722.722,0,0,1-.191.513.73.73,0,0,1-.561.205.718.718,0,0,1-.557-.205A.73.73,0,0,1,96.655,27.642Zm6.46,9.5a3.232,3.232,0,0,1-2.447-.988,3.666,3.666,0,0,1-.943-2.642v-.232a4.438,4.438,0,0,1,.42-1.965,3.28,3.28,0,0,1,1.176-1.354,2.956,2.956,0,0,1,1.637-.489,2.77,2.77,0,0,1,2.242.95,4.114,4.114,0,0,1,.8,2.721v.526h-5.011a2.629,2.629,0,0,0,.639,1.767,2.009,2.009,0,0,0,1.555.673,2.2,2.2,0,0,0,1.135-.273,2.851,2.851,0,0,0,.813-.725l.772.6A3.106,3.106,0,0,1,103.115,37.137Zm-.157-6.631a1.687,1.687,0,0,0-1.285.557,2.708,2.708,0,0,0-.643,1.562h3.705v-.1a2.409,2.409,0,0,0-.52-1.494A1.588,1.588,0,0,0,102.958,30.506Zm5.7-.9.041.93a2.7,2.7,0,0,1,2.215-1.066q2.345,0,2.365,2.646V37h-1.265V32.105a1.7,1.7,0,0,0-.366-1.183,1.466,1.466,0,0,0-1.118-.383,1.825,1.825,0,0,0-1.08.328,2.228,2.228,0,0,0-.725.861V37h-1.265V29.6Zm8.244-1.791V29.6h1.381v.978H116.9v4.593a1.027,1.027,0,0,0,.185.667.777.777,0,0,0,.629.222,3.062,3.062,0,0,0,.6-.082V37a3.688,3.688,0,0,1-.971.136,1.575,1.575,0,0,1-1.278-.513,2.2,2.2,0,0,1-.431-1.456V30.581h-1.347V29.6h1.347V27.813Zm2.386,5.421a4.369,4.369,0,0,1,.427-1.955,3.187,3.187,0,0,1,1.189-1.34,3.238,3.238,0,0,1,1.74-.472,3.119,3.119,0,0,1,2.444,1.046,4.024,4.024,0,0,1,.933,2.782v.089a4.407,4.407,0,0,1-.414,1.938,3.14,3.14,0,0,1-1.183,1.336,3.275,3.275,0,0,1-1.767.479,3.111,3.111,0,0,1-2.437-1.046,4,4,0,0,1-.933-2.769Zm1.271.15a3.164,3.164,0,0,0,.571,1.976,1.934,1.934,0,0,0,3.059-.01,3.46,3.46,0,0,0,.567-2.116,3.159,3.159,0,0,0-.578-1.972,1.836,1.836,0,0,0-1.535-.755,1.816,1.816,0,0,0-1.511.745A3.435,3.435,0,0,0,120.56,33.384Z" transform="translate(-2871 -6312)" fill="#12263f"/>
    <line id="Línea_204" data-name="Línea 204" x2="85" transform="translate(-3222.5 -6183.5)" fill="none" stroke="#707070" stroke-width="1"/>
    <line id="Línea_205" data-name="Línea 205" x2="85" transform="translate(-3222.5 -6099)" fill="none" stroke="#707070" stroke-width="1"/>
    <line id="Línea_206" data-name="Línea 206" x2="85" transform="translate(-3222.5 -6021)" fill="none" stroke="#707070" stroke-width="1"/>
  </g>
</svg>
